<?xml version="1.0" encoding="utf-8"?>
<!-- Generator: Adobe Illustrator 17.1.0, SVG Export Plug-In . SVG Version: 6.00 Build 0)  -->
<!DOCTYPE svg PUBLIC "-//W3C//DTD SVG 1.1//EN" "http://www.w3.org/Graphics/SVG/1.1/DTD/svg11.dtd">
<svg version="1.1" id="Layer_1" xmlns="http://www.w3.org/2000/svg" xmlns:xlink="http://www.w3.org/1999/xlink" x="0px" y="0px"
	 viewBox="0 0 1920 1080" enable-background="new 0 0 1920 1080" xml:space="preserve">
<pattern  x="1010" y="2950" width="100" height="100" patternUnits="userSpaceOnUse" id="New_Pattern_Swatch_3" viewBox="0 -106.2 100 100" overflow="visible">
	<g>
		<polygon fill="none" points="0,-106.2 100,-106.2 100,-6.2 0,-6.2 		"/>
		<path fill="#D8D8D8" d="M34.2-4.2C34.2-1.9,32.3,0,30,0s-4.2-1.9-4.2-4.2s1.9-4.2,4.2-4.2S34.2-6.5,34.2-4.2z"/>
		<path fill="#D8D8D8" d="M94.2-20.2c0,2.3-1.9,4.2-4.2,4.2s-4.2-1.9-4.2-4.2s1.9-4.2,4.2-4.2S94.2-22.5,94.2-20.2z"/>
		<path fill="#D8D8D8" d="M74.2-8.2C74.2-5.9,72.3-4,70-4s-4.2-1.9-4.2-4.2s1.9-4.2,4.2-4.2S74.2-10.5,74.2-8.2z"/>
		<path fill="#D8D8D8" d="M54.2-16.2c0,2.3-1.9,4.2-4.2,4.2s-4.2-1.9-4.2-4.2s1.9-4.2,4.2-4.2S54.2-18.5,54.2-16.2z"/>
		<path fill="#D8D8D8" d="M34.2-24.2c0,2.3-1.9,4.2-4.2,4.2s-4.2-1.9-4.2-4.2s1.9-4.2,4.2-4.2S34.2-26.5,34.2-24.2z"/>
		<path fill="#D8D8D8" d="M14.2-12.2C14.2-9.9,12.3-8,10-8s-4.2-1.9-4.2-4.2s1.9-4.2,4.2-4.2S14.2-14.5,14.2-12.2z"/>
		<path fill="#D8D8D8" d="M94.2-40.2c0,2.3-1.9,4.2-4.2,4.2s-4.2-1.9-4.2-4.2s1.9-4.2,4.2-4.2S94.2-42.5,94.2-40.2z"/>
		<path fill="#D8D8D8" d="M74.2-28.2c0,2.3-1.9,4.2-4.2,4.2s-4.2-1.9-4.2-4.2s1.9-4.2,4.2-4.2S74.2-30.5,74.2-28.2z"/>
		<path fill="#D8D8D8" d="M54.2-36.2c0,2.3-1.9,4.2-4.2,4.2s-4.2-1.9-4.2-4.2s1.9-4.2,4.2-4.2S54.2-38.5,54.2-36.2z"/>
		<path fill="#D8D8D8" d="M34.2-44.2c0,2.3-1.9,4.2-4.2,4.2s-4.2-1.9-4.2-4.2s1.9-4.2,4.2-4.2S34.2-46.5,34.2-44.2z"/>
		<path fill="#D8D8D8" d="M14.2-32.2c0,2.3-1.9,4.2-4.2,4.2s-4.2-1.9-4.2-4.2s1.9-4.2,4.2-4.2S14.2-34.5,14.2-32.2z"/>
		<path fill="#D8D8D8" d="M94.2-60.2c0,2.3-1.9,4.2-4.2,4.2s-4.2-1.9-4.2-4.2s1.9-4.2,4.2-4.2S94.2-62.5,94.2-60.2z"/>
		<path fill="#D8D8D8" d="M74.2-48.2c0,2.3-1.9,4.2-4.2,4.2s-4.2-1.9-4.2-4.2s1.9-4.2,4.2-4.2S74.2-50.5,74.2-48.2z"/>
		<path fill="#D8D8D8" d="M54.2-56.2c0,2.3-1.9,4.2-4.2,4.2s-4.2-1.9-4.2-4.2s1.9-4.2,4.2-4.2S54.2-58.5,54.2-56.2z"/>
		<path fill="#D8D8D8" d="M34.2-64.2c0,2.3-1.9,4.2-4.2,4.2s-4.2-1.9-4.2-4.2s1.9-4.2,4.2-4.2S34.2-66.5,34.2-64.2z"/>
		<path fill="#D8D8D8" d="M14.2-52.2c0,2.3-1.9,4.2-4.2,4.2s-4.2-1.9-4.2-4.2s1.9-4.2,4.2-4.2S14.2-54.5,14.2-52.2z"/>
		<path fill="#D8D8D8" d="M94.2-80.2c0,2.3-1.9,4.2-4.2,4.2s-4.2-1.9-4.2-4.2s1.9-4.2,4.2-4.2S94.2-82.5,94.2-80.2z"/>
		<path fill="#D8D8D8" d="M74.2-68.2c0,2.3-1.9,4.2-4.2,4.2s-4.2-1.9-4.2-4.2s1.9-4.2,4.2-4.2S74.2-70.5,74.2-68.2z"/>
		<path fill="#D8D8D8" d="M54.2-76.2c0,2.3-1.9,4.2-4.2,4.2s-4.2-1.9-4.2-4.2s1.9-4.2,4.2-4.2S54.2-78.5,54.2-76.2z"/>
		<path fill="#D8D8D8" d="M34.2-84.2c0,2.3-1.9,4.2-4.2,4.2s-4.2-1.9-4.2-4.2s1.9-4.2,4.2-4.2S34.2-86.5,34.2-84.2z"/>
		<path fill="#D8D8D8" d="M14.2-72.2c0,2.3-1.9,4.2-4.2,4.2s-4.2-1.9-4.2-4.2s1.9-4.2,4.2-4.2S14.2-74.5,14.2-72.2z"/>
		<path fill="#D8D8D8" d="M94.2-100.2c0,2.3-1.9,4.2-4.2,4.2s-4.2-1.9-4.2-4.2s1.9-4.2,4.2-4.2S94.2-102.5,94.2-100.2z"/>
		<path fill="#D8D8D8" d="M74.2-88.2c0,2.3-1.9,4.2-4.2,4.2s-4.2-1.9-4.2-4.2s1.9-4.2,4.2-4.2S74.2-90.5,74.2-88.2z"/>
		<path fill="#D8D8D8" d="M54.2-96.2c0,2.3-1.9,4.2-4.2,4.2s-4.2-1.9-4.2-4.2s1.9-4.2,4.2-4.2S54.2-98.5,54.2-96.2z"/>
		<path fill="#D8D8D8" d="M34.2-104.2c0,2.3-1.9,4.2-4.2,4.2s-4.2-1.9-4.2-4.2s1.9-4.2,4.2-4.2S34.2-106.5,34.2-104.2z"/>
		<path fill="#D8D8D8" d="M14.2-92.2c0,2.3-1.9,4.2-4.2,4.2s-4.2-1.9-4.2-4.2s1.9-4.2,4.2-4.2S14.2-94.5,14.2-92.2z"/>
		<path fill="#D8D8D8" d="M74.2-108.2c0,2.3-1.9,4.2-4.2,4.2s-4.2-1.9-4.2-4.2s1.9-4.2,4.2-4.2S74.2-110.5,74.2-108.2z"/>
	</g>
</pattern>
<g>
	<defs>
		<polygon id="SVGID_1_" points="0,-475.7 0,-99.9 439.6,-101 0,-99.9 310.3,-101 		"/>
	</defs>
	<clipPath id="SVGID_2_">
		<use xlink:href="#SVGID_1_"  overflow="visible"/>
	</clipPath>
	<circle clip-path="url(#SVGID_2_)" fill="#15FFA5" cx="5.8" cy="14.9" r="8.9"/>
	<circle clip-path="url(#SVGID_2_)" fill="#15FFA5" cx="40.3" cy="14.9" r="8.9"/>
	<circle clip-path="url(#SVGID_2_)" fill="#15FFA5" cx="74.8" cy="14.9" r="8.9"/>
	<circle clip-path="url(#SVGID_2_)" fill="#15FFA5" cx="109.4" cy="14.9" r="8.9"/>
	<circle clip-path="url(#SVGID_2_)" fill="#15FFA5" cx="143.9" cy="14.9" r="8.9"/>
	<circle clip-path="url(#SVGID_2_)" fill="#15FFA5" cx="178.4" cy="14.9" r="8.9"/>
	<circle clip-path="url(#SVGID_2_)" fill="#15FFA5" cx="213" cy="14.9" r="8.9"/>
	<circle clip-path="url(#SVGID_2_)" fill="#15FFA5" cx="247.5" cy="14.9" r="8.9"/>
	<circle clip-path="url(#SVGID_2_)" fill="#15FFA5" cx="282" cy="14.9" r="8.9"/>
	<circle clip-path="url(#SVGID_2_)" fill="#15FFA5" cx="316.5" cy="14.9" r="8.9"/>
	<circle clip-path="url(#SVGID_2_)" fill="#15FFA5" cx="351.1" cy="14.9" r="8.9"/>
	<circle clip-path="url(#SVGID_2_)" fill="#15FFA5" cx="385.6" cy="14.9" r="8.9"/>
	<circle clip-path="url(#SVGID_2_)" fill="#15FFA5" cx="420.1" cy="14.9" r="8.9"/>
	<circle clip-path="url(#SVGID_2_)" fill="#15FFA5" cx="454.7" cy="14.9" r="8.9"/>
	<circle clip-path="url(#SVGID_2_)" fill="#15FFA5" cx="489.2" cy="14.9" r="8.9"/>
	<circle clip-path="url(#SVGID_2_)" fill="#15FFA5" cx="523.7" cy="14.9" r="8.9"/>
	<circle clip-path="url(#SVGID_2_)" fill="#15FFA5" cx="558.3" cy="14.9" r="8.9"/>
	<circle clip-path="url(#SVGID_2_)" fill="#15FFA5" cx="5.8" cy="57.2" r="8.9"/>
	<circle clip-path="url(#SVGID_2_)" fill="#15FFA5" cx="40.3" cy="57.2" r="8.9"/>
	<circle clip-path="url(#SVGID_2_)" fill="#15FFA5" cx="74.8" cy="57.2" r="8.9"/>
	<circle clip-path="url(#SVGID_2_)" fill="#15FFA5" cx="109.4" cy="57.2" r="8.9"/>
	<circle clip-path="url(#SVGID_2_)" fill="#15FFA5" cx="143.9" cy="57.2" r="8.9"/>
	<circle clip-path="url(#SVGID_2_)" fill="#15FFA5" cx="178.4" cy="57.2" r="8.9"/>
	<circle clip-path="url(#SVGID_2_)" fill="#15FFA5" cx="213" cy="57.2" r="8.9"/>
	<circle clip-path="url(#SVGID_2_)" fill="#15FFA5" cx="247.5" cy="57.2" r="8.9"/>
	<circle clip-path="url(#SVGID_2_)" fill="#15FFA5" cx="282" cy="57.2" r="8.9"/>
	<circle clip-path="url(#SVGID_2_)" fill="#15FFA5" cx="316.5" cy="57.2" r="8.9"/>
	<circle clip-path="url(#SVGID_2_)" fill="#15FFA5" cx="351.1" cy="57.2" r="8.9"/>
	<circle clip-path="url(#SVGID_2_)" fill="#15FFA5" cx="385.6" cy="57.2" r="8.9"/>
	<circle clip-path="url(#SVGID_2_)" fill="#15FFA5" cx="420.1" cy="57.2" r="8.9"/>
	<circle clip-path="url(#SVGID_2_)" fill="#15FFA5" cx="454.7" cy="57.2" r="8.9"/>
	<circle clip-path="url(#SVGID_2_)" fill="#15FFA5" cx="489.2" cy="57.2" r="8.9"/>
	<circle clip-path="url(#SVGID_2_)" fill="#15FFA5" cx="523.7" cy="57.2" r="8.9"/>
	<circle clip-path="url(#SVGID_2_)" fill="#15FFA5" cx="558.3" cy="57.2" r="8.9"/>
	<circle clip-path="url(#SVGID_2_)" fill="#15FFA5" cx="5.8" cy="99.5" r="8.9"/>
	<circle clip-path="url(#SVGID_2_)" fill="#15FFA5" cx="40.3" cy="99.5" r="8.9"/>
	<circle clip-path="url(#SVGID_2_)" fill="#15FFA5" cx="74.8" cy="99.5" r="8.9"/>
	<circle clip-path="url(#SVGID_2_)" fill="#15FFA5" cx="109.4" cy="99.5" r="8.9"/>
	<circle clip-path="url(#SVGID_2_)" fill="#15FFA5" cx="143.9" cy="99.5" r="8.9"/>
	<circle clip-path="url(#SVGID_2_)" fill="#15FFA5" cx="178.4" cy="99.5" r="8.9"/>
	<circle clip-path="url(#SVGID_2_)" fill="#15FFA5" cx="213" cy="99.5" r="8.9"/>
	<circle clip-path="url(#SVGID_2_)" fill="#15FFA5" cx="247.5" cy="99.5" r="8.9"/>
	<circle clip-path="url(#SVGID_2_)" fill="#15FFA5" cx="282" cy="99.5" r="8.9"/>
	<circle clip-path="url(#SVGID_2_)" fill="#15FFA5" cx="316.5" cy="99.5" r="8.9"/>
	<circle clip-path="url(#SVGID_2_)" fill="#15FFA5" cx="351.1" cy="99.5" r="8.9"/>
	<circle clip-path="url(#SVGID_2_)" fill="#15FFA5" cx="385.6" cy="99.5" r="8.9"/>
	<circle clip-path="url(#SVGID_2_)" fill="#15FFA5" cx="420.1" cy="99.5" r="8.9"/>
	<circle clip-path="url(#SVGID_2_)" fill="#15FFA5" cx="454.7" cy="99.5" r="8.9"/>
	<circle clip-path="url(#SVGID_2_)" fill="#15FFA5" cx="489.2" cy="99.5" r="8.9"/>
	<circle clip-path="url(#SVGID_2_)" fill="#15FFA5" cx="523.7" cy="99.5" r="8.9"/>
	<circle clip-path="url(#SVGID_2_)" fill="#15FFA5" cx="558.3" cy="99.5" r="8.9"/>
	<circle clip-path="url(#SVGID_2_)" fill="#15FFA5" cx="5.8" cy="141.8" r="8.9"/>
	<circle clip-path="url(#SVGID_2_)" fill="#15FFA5" cx="40.3" cy="141.8" r="8.9"/>
	<circle clip-path="url(#SVGID_2_)" fill="#15FFA5" cx="74.8" cy="141.8" r="8.9"/>
	<circle clip-path="url(#SVGID_2_)" fill="#15FFA5" cx="109.4" cy="141.8" r="8.9"/>
	<circle clip-path="url(#SVGID_2_)" fill="#15FFA5" cx="143.9" cy="141.8" r="8.9"/>
	<circle clip-path="url(#SVGID_2_)" fill="#15FFA5" cx="178.4" cy="141.8" r="8.9"/>
	<circle clip-path="url(#SVGID_2_)" fill="#15FFA5" cx="213" cy="141.8" r="8.9"/>
	<circle clip-path="url(#SVGID_2_)" fill="#15FFA5" cx="247.5" cy="141.8" r="8.9"/>
	<circle clip-path="url(#SVGID_2_)" fill="#15FFA5" cx="282" cy="141.8" r="8.9"/>
	<circle clip-path="url(#SVGID_2_)" fill="#15FFA5" cx="316.5" cy="141.8" r="8.9"/>
	<circle clip-path="url(#SVGID_2_)" fill="#15FFA5" cx="351.1" cy="141.8" r="8.9"/>
	<circle clip-path="url(#SVGID_2_)" fill="#15FFA5" cx="385.6" cy="141.8" r="8.9"/>
	<circle clip-path="url(#SVGID_2_)" fill="#15FFA5" cx="420.1" cy="141.8" r="8.9"/>
	<circle clip-path="url(#SVGID_2_)" fill="#15FFA5" cx="454.7" cy="141.8" r="8.9"/>
	<circle clip-path="url(#SVGID_2_)" fill="#15FFA5" cx="489.2" cy="141.8" r="8.9"/>
	<circle clip-path="url(#SVGID_2_)" fill="#15FFA5" cx="523.7" cy="141.8" r="8.9"/>
	<circle clip-path="url(#SVGID_2_)" fill="#15FFA5" cx="558.3" cy="141.8" r="8.9"/>
	<circle clip-path="url(#SVGID_2_)" fill="#15FFA5" cx="5.8" cy="184.1" r="8.9"/>
	<circle clip-path="url(#SVGID_2_)" fill="#15FFA5" cx="40.3" cy="184.1" r="8.9"/>
	<circle clip-path="url(#SVGID_2_)" fill="#15FFA5" cx="74.8" cy="184.1" r="8.9"/>
	<circle clip-path="url(#SVGID_2_)" fill="#15FFA5" cx="109.4" cy="184.1" r="8.9"/>
	<circle clip-path="url(#SVGID_2_)" fill="#15FFA5" cx="143.9" cy="184.1" r="8.9"/>
	<circle clip-path="url(#SVGID_2_)" fill="#15FFA5" cx="178.4" cy="184.1" r="8.9"/>
	<circle clip-path="url(#SVGID_2_)" fill="#15FFA5" cx="213" cy="184.1" r="8.9"/>
	<circle clip-path="url(#SVGID_2_)" fill="#15FFA5" cx="247.5" cy="184.1" r="8.9"/>
	<circle clip-path="url(#SVGID_2_)" fill="#15FFA5" cx="282" cy="184.1" r="8.9"/>
	<circle clip-path="url(#SVGID_2_)" fill="#15FFA5" cx="316.5" cy="184.1" r="8.9"/>
	<circle clip-path="url(#SVGID_2_)" fill="#15FFA5" cx="351.1" cy="184.1" r="8.9"/>
	<circle clip-path="url(#SVGID_2_)" fill="#15FFA5" cx="385.6" cy="184.1" r="8.9"/>
	<circle clip-path="url(#SVGID_2_)" fill="#15FFA5" cx="420.1" cy="184.1" r="8.9"/>
	<circle clip-path="url(#SVGID_2_)" fill="#15FFA5" cx="454.7" cy="184.1" r="8.9"/>
	<circle clip-path="url(#SVGID_2_)" fill="#15FFA5" cx="489.2" cy="184.1" r="8.9"/>
	<circle clip-path="url(#SVGID_2_)" fill="#15FFA5" cx="523.7" cy="184.1" r="8.9"/>
	<circle clip-path="url(#SVGID_2_)" fill="#15FFA5" cx="558.3" cy="184.1" r="8.9"/>
</g>
<g>
	<g>
		<path fill="#1B264C" d="M565.2,228.9h17.5v73.9h-17.2l-0.9-10.8c-4.2,8.7-15.8,12.9-24,13c-21.9,0.1-38.1-13.3-38.1-39.3
			c0-25.5,16.9-38.8,38.5-38.7c9.9,0,19.3,4.6,23.5,12L565.2,228.9z M520.8,265.8c0,14.1,9.8,22.5,21.9,22.5
			c28.8,0,28.8-44.8,0-44.8C530.5,243.4,520.8,251.7,520.8,265.8z"/>
		<path fill="#1B264C" d="M607.5,198v40.9c4.3-7.6,16.5-11.8,24.3-11.8c21.6,0,37.6,13.2,37.6,38.7c0,24.3-16.3,38.7-38.1,38.7
			c-9,0-18.1-3-23.8-11.8l-1.2,10.2h-17.1V198H607.5z M608.7,265.8c0,13.3,9.9,21.7,21.4,21.7c11.7,0,21-8.8,21-21.7
			c0-13.3-9.3-21.6-21-21.6C618.6,244.2,608.7,252.9,608.7,265.8z"/>
		<path fill="#1B264C" d="M748.9,265.9c0,21.3-14.5,38.5-38.5,38.5S672,287.2,672,265.9c0-21.1,14.7-38.5,38.2-38.5
			C733.8,227.4,748.9,244.8,748.9,265.9z M690.3,265.9c0,11.2,6.7,21.7,20.1,21.7s20.1-10.5,20.1-21.7c0-11.1-7.8-21.9-20.1-21.9
			C697.2,244,690.3,254.8,690.3,265.9z"/>
		<path fill="#1B264C" d="M772.8,228.9v38.7c0,11.2,6.1,19.8,17.8,19.8c11.2,0,18.9-9.4,18.9-20.7v-37.8h18.1V303h-16.3l-1.2-10
			c-7.6,7.5-14.7,11.1-25,11.1c-17.7,0-30.6-13.3-30.6-36.3v-38.8H772.8z"/>
		<path fill="#1B264C" d="M862.2,208v21h20.4v15.7H862v31.9c0,7,3.9,10.5,9.6,10.5c2.9,0,6.2-0.9,8.8-2.2l5.1,15.6
			c-5.2,2.1-9.6,3-15.1,3.1c-16,0.6-26.5-8.5-26.5-27v-31.9h-13.8V229h13.8v-19L862.2,208z"/>
	</g>
	<rect x="502.5" y="341" fill="none" width="882.1" height="159"/>
	<text transform="matrix(1 0 0 1 502.4609 355.877)"><tspan x="0" y="0" fill="#757577" font-family="'Calibri-Light'" font-size="22">I</tspan><tspan x="5.9" y="0" fill="#757577" font-family="'Calibri-Light'" font-size="22" letter-spacing="1"> </tspan><tspan x="12.4" y="0" fill="#757577" font-family="'Calibri-Light'" font-size="22">am</tspan><tspan x="41.3" y="0" fill="#757577" font-family="'Calibri-Light'" font-size="22" letter-spacing="1"> </tspan><tspan x="47.7" y="0" fill="#757577" font-family="'Calibri-Light'" font-size="22">a</tspan><tspan x="58.6" y="0" fill="#757577" font-family="'Calibri-Light'" font-size="22" letter-spacing="1"> </tspan><tspan x="65.1" y="0" fill="#757577" font-family="'Calibri-Light'" font-size="22">graphic/motion</tspan><tspan x="209.3" y="0" fill="#757577" font-family="'Calibri-Light'" font-size="22" letter-spacing="1"> </tspan><tspan x="215.7" y="0" fill="#757577" font-family="'Calibri-Light'" font-size="22">designer</tspan><tspan x="296" y="0" fill="#757577" font-family="'Calibri-Light'" font-size="22" letter-spacing="1"> </tspan><tspan x="302.5" y="0" fill="#757577" font-family="'Calibri-Light'" font-size="22">who</tspan><tspan x="342.4" y="0" fill="#757577" font-family="'Calibri-Light'" font-size="22" letter-spacing="1"> </tspan><tspan x="348.9" y="0" fill="#757577" font-family="'Calibri-Light'" font-size="22">enjoys</tspan><tspan x="409.2" y="0" fill="#757577" font-family="'Calibri-Light'" font-size="22" letter-spacing="1"> </tspan><tspan x="415.7" y="0" fill="#757577" font-family="'Calibri-Light'" font-size="22">exploring</tspan><tspan x="502.7" y="0" fill="#757577" font-family="'Calibri-Light'" font-size="22" letter-spacing="1"> </tspan><tspan x="509.2" y="0" fill="#757577" font-family="'Calibri-Light'" font-size="22">and</tspan><tspan x="544" y="0" fill="#757577" font-family="'Calibri-Light'" font-size="22" letter-spacing="1"> </tspan><tspan x="550.5" y="0" fill="#757577" font-family="'Calibri-Light'" font-size="22">creating</tspan><tspan x="626.2" y="0" fill="#757577" font-family="'Calibri-Light'" font-size="22" letter-spacing="1"> </tspan><tspan x="632.7" y="0" fill="#757577" font-family="'Calibri-Light'" font-size="22">fun</tspan><tspan x="663.7" y="0" fill="#757577" font-family="'Calibri-Light'" font-size="22" letter-spacing="1"> </tspan><tspan x="670.2" y="0" fill="#757577" font-family="'Calibri-Light'" font-size="22">stuff.</tspan><tspan x="718.1" y="0" fill="#757577" font-family="'Calibri-Light'" font-size="22" letter-spacing="1"> </tspan><tspan x="724.6" y="0" fill="#757577" font-family="'Calibri-Light'" font-size="22">Happily</tspan><tspan x="794.7" y="0" fill="#757577" font-family="'Calibri-Light'" font-size="22" letter-spacing="1"> </tspan><tspan x="801.2" y="0" fill="#757577" font-family="'Calibri-Light'" font-size="22">I</tspan><tspan x="807.1" y="0" fill="#757577" font-family="'Calibri-Light'" font-size="22" letter-spacing="1"> </tspan><tspan x="813.6" y="0" fill="#757577" font-family="'Calibri-Light'" font-size="22">indulge </tspan><tspan x="0" y="24" fill="#757577" font-family="'Calibri-Light'" font-size="22">myself in digital design and of course, oolong tea.</tspan><tspan x="0" y="76.8" fill="#757577" font-family="'Calibri-Light'" font-size="22">Expecting to graduate from CUHK with a major in Journalism and Communication in 2017.   </tspan><tspan x="0" y="129.6" fill="#757577" font-family="'Calibri-LightItalic'" font-size="22">Jun to Aug 2016     </tspan><tspan x="177.6" y="129.6" fill="#606060" font-family="'Calibri'" font-size="22">Creative intern at TBWA</tspan></text>
	<g>
		<rect x="510.5" y="530" fill="#757575" width="904" height="0.5"/>
	</g>
	<rect x="503.5" y="568" fill="url(#New_Pattern_Swatch_3)" width="914" height="318"/>
</g>
<circle fill="#15FFA5" cx="908" cy="291" r="15"/>
</svg>
