<?xml version="1.0" encoding="utf-8"?>
<!-- Generator: Adobe Illustrator 17.1.0, SVG Export Plug-In . SVG Version: 6.00 Build 0)  -->
<!DOCTYPE svg PUBLIC "-//W3C//DTD SVG 1.1//EN" "http://www.w3.org/Graphics/SVG/1.1/DTD/svg11.dtd">
<svg version="1.1" id="Layer_1" xmlns="http://www.w3.org/2000/svg" xmlns:xlink="http://www.w3.org/1999/xlink" x="0px" y="0px"
	 viewBox="0 0 1920 1080" enable-background="new 0 0 1920 1080" xml:space="preserve">
<pattern  x="1010" y="590" width="2000" height="2000" patternUnits="userSpaceOnUse" id="New_Pattern_Swatch_2" viewBox="0 -2094 2000 2000" overflow="visible">
	<g>
		<polygon fill="none" points="0,-94 2000,-94 2000,-2094 0,-2094 		"/>
		<g>
			<polygon fill="none" points="0,-94 2000,-94 2000,-2094 0,-2094 			"/>
			<g>
				<polygon fill="none" stroke="#F7F7F7" stroke-width="20" stroke-miterlimit="10" points="1695.8,-2024.1 1666.6,-2098.6 
					1745.7,-2086.6 1695.8,-2024.1 1666.6,-2098.6 1745.7,-2086.6 				"/>
				<path fill="none" stroke="#F7F7F7" stroke-width="20" stroke-miterlimit="10" d="M1984-2050c0-22.1-17.9-40-40-40
					s-40,17.9-40,40c0,22.1,17.9,40,40,40S1984-2027.9,1984-2050z"/>
			</g>
			<g>
				<polygon fill="none" stroke="#F7F7F7" stroke-width="20" stroke-miterlimit="10" points="1295.8,-1724.1 1266.6,-1798.6 
					1345.7,-1786.6 1295.8,-1724.1 1266.6,-1798.6 1345.7,-1786.6 				"/>
				<polygon fill="none" stroke="#F7F7F7" stroke-width="20" stroke-miterlimit="10" points="1449.3,-2027.2 1381.7,-2002.2 
					1406.7,-1934.7 1474.3,-1959.7 				"/>
				<path fill="none" stroke="#F7F7F7" stroke-width="20" stroke-miterlimit="10" d="M1584-1750c0-22.1-17.9-40-40-40
					s-40,17.9-40,40s17.9,40,40,40S1584-1727.9,1584-1750z"/>
			</g>
			<g>
				<polygon fill="none" stroke="#F7F7F7" stroke-width="20" stroke-miterlimit="10" points="895.8,-1924.1 866.6,-1998.6 
					945.7,-1986.6 895.8,-1924.1 866.6,-1998.6 945.7,-1986.6 				"/>
				<path fill="none" stroke="#F7F7F7" stroke-width="20" stroke-miterlimit="10" d="M1184-1950c0-22.1-17.9-40-40-40
					s-40,17.9-40,40s17.9,40,40,40S1184-1927.9,1184-1950z"/>
			</g>
			<g>
				<polygon fill="none" stroke="#F7F7F7" stroke-width="20" stroke-miterlimit="10" points="95.8,-1824.1 66.6,-1898.6 
					145.7,-1886.6 95.8,-1824.1 66.6,-1898.6 145.7,-1886.6 				"/>
				<polygon fill="none" stroke="#F7F7F7" stroke-width="20" stroke-miterlimit="10" points="249.3,-2127.2 181.7,-2102.2 
					206.7,-2034.7 274.3,-2059.7 				"/>
				<path fill="none" stroke="#F7F7F7" stroke-width="20" stroke-miterlimit="10" d="M384-1850c0-22.1-17.9-40-40-40s-40,17.9-40,40
					s17.9,40,40,40S384-1827.9,384-1850z"/>
			</g>
			<g>
				<polygon fill="none" stroke="#F7F7F7" stroke-width="20" stroke-miterlimit="10" points="1695.8,-1524.1 1666.6,-1598.6 
					1745.7,-1586.6 1695.8,-1524.1 1666.6,-1598.6 1745.7,-1586.6 				"/>
				<polygon fill="none" stroke="#F7F7F7" stroke-width="20" stroke-miterlimit="10" points="1849.3,-1827.2 1781.7,-1802.2 
					1806.7,-1734.7 1874.3,-1759.7 				"/>
				<path fill="none" stroke="#F7F7F7" stroke-width="20" stroke-miterlimit="10" d="M1984-1550c0-22.1-17.9-40-40-40
					s-40,17.9-40,40s17.9,40,40,40S1984-1527.9,1984-1550z"/>
			</g>
			<g>
				<polygon fill="none" stroke="#F7F7F7" stroke-width="20" stroke-miterlimit="10" points="1295.8,-1224.1 1266.6,-1298.6 
					1345.7,-1286.6 1295.8,-1224.1 1266.6,-1298.6 1345.7,-1286.6 				"/>
				<polygon fill="none" stroke="#F7F7F7" stroke-width="20" stroke-miterlimit="10" points="1449.3,-1527.2 1381.7,-1502.2 
					1406.7,-1434.7 1474.3,-1459.7 				"/>
				<path fill="none" stroke="#F7F7F7" stroke-width="20" stroke-miterlimit="10" d="M1584-1250c0-22.1-17.9-40-40-40
					s-40,17.9-40,40s17.9,40,40,40S1584-1227.9,1584-1250z"/>
			</g>
			<g>
				<polygon fill="none" stroke="#F7F7F7" stroke-width="20" stroke-miterlimit="10" points="895.8,-1424.1 866.6,-1498.6 
					945.7,-1486.6 895.8,-1424.1 866.6,-1498.6 945.7,-1486.6 				"/>
				<polygon fill="none" stroke="#F7F7F7" stroke-width="20" stroke-miterlimit="10" points="1049.3,-1727.2 981.7,-1702.2 
					1006.7,-1634.7 1074.3,-1659.7 				"/>
				<path fill="none" stroke="#F7F7F7" stroke-width="20" stroke-miterlimit="10" d="M1184-1450c0-22.1-17.9-40-40-40
					s-40,17.9-40,40s17.9,40,40,40S1184-1427.9,1184-1450z"/>
			</g>
			<g>
				<polygon fill="none" stroke="#F7F7F7" stroke-width="20" stroke-miterlimit="10" points="495.8,-1624.1 466.6,-1698.6 
					545.7,-1686.6 495.8,-1624.1 466.6,-1698.6 545.7,-1686.6 				"/>
				<polygon fill="none" stroke="#F7F7F7" stroke-width="20" stroke-miterlimit="10" points="649.3,-1927.2 581.7,-1902.2 
					606.7,-1834.7 674.3,-1859.7 				"/>
				<path fill="none" stroke="#F7F7F7" stroke-width="20" stroke-miterlimit="10" d="M784-1650c0-22.1-17.9-40-40-40s-40,17.9-40,40
					s17.9,40,40,40S784-1627.9,784-1650z"/>
			</g>
			<g>
				<polygon fill="none" stroke="#F7F7F7" stroke-width="20" stroke-miterlimit="10" points="95.8,-1324.1 66.6,-1398.6 
					145.7,-1386.6 95.8,-1324.1 66.6,-1398.6 145.7,-1386.6 				"/>
				<polygon fill="none" stroke="#F7F7F7" stroke-width="20" stroke-miterlimit="10" points="249.3,-1627.2 181.7,-1602.2 
					206.7,-1534.7 274.3,-1559.7 				"/>
				<path fill="none" stroke="#F7F7F7" stroke-width="20" stroke-miterlimit="10" d="M384-1350c0-22.1-17.9-40-40-40s-40,17.9-40,40
					s17.9,40,40,40S384-1327.9,384-1350z"/>
			</g>
			<g>
				<polygon fill="none" stroke="#F7F7F7" stroke-width="20" stroke-miterlimit="10" points="1695.8,-1024.1 1666.6,-1098.6 
					1745.7,-1086.6 1695.8,-1024.1 1666.6,-1098.6 1745.7,-1086.6 				"/>
				<polygon fill="none" stroke="#F7F7F7" stroke-width="20" stroke-miterlimit="10" points="1849.3,-1327.2 1781.7,-1302.2 
					1806.7,-1234.7 1874.3,-1259.7 				"/>
				<path fill="none" stroke="#F7F7F7" stroke-width="20" stroke-miterlimit="10" d="M1984-1050c0-22.1-17.9-40-40-40
					s-40,17.9-40,40s17.9,40,40,40S1984-1027.9,1984-1050z"/>
			</g>
			<g>
				<polygon fill="none" stroke="#F7F7F7" stroke-width="20" stroke-miterlimit="10" points="1295.8,-724.1 1266.6,-798.6 
					1345.7,-786.6 1295.8,-724.1 1266.6,-798.6 1345.7,-786.6 				"/>
				<polygon fill="none" stroke="#F7F7F7" stroke-width="20" stroke-miterlimit="10" points="1449.3,-1027.2 1381.7,-1002.2 
					1406.7,-934.7 1474.3,-959.7 				"/>
				<path fill="none" stroke="#F7F7F7" stroke-width="20" stroke-miterlimit="10" d="M1584-750c0-22.1-17.9-40-40-40s-40,17.9-40,40
					s17.9,40,40,40S1584-727.9,1584-750z"/>
			</g>
			<g>
				<polygon fill="none" stroke="#F7F7F7" stroke-width="20" stroke-miterlimit="10" points="895.8,-924.1 866.6,-998.6 
					945.7,-986.6 895.8,-924.1 866.6,-998.6 945.7,-986.6 				"/>
				<polygon fill="none" stroke="#F7F7F7" stroke-width="20" stroke-miterlimit="10" points="1049.3,-1227.2 981.7,-1202.2 
					1006.7,-1134.7 1074.3,-1159.7 				"/>
				<path fill="none" stroke="#F7F7F7" stroke-width="20" stroke-miterlimit="10" d="M1184-950c0-22.1-17.9-40-40-40s-40,17.9-40,40
					s17.9,40,40,40S1184-927.9,1184-950z"/>
			</g>
			<g>
				<polygon fill="none" stroke="#F7F7F7" stroke-width="20" stroke-miterlimit="10" points="495.8,-1124.1 466.6,-1198.6 
					545.7,-1186.6 495.8,-1124.1 466.6,-1198.6 545.7,-1186.6 				"/>
				<polygon fill="none" stroke="#F7F7F7" stroke-width="20" stroke-miterlimit="10" points="649.3,-1427.2 581.7,-1402.2 
					606.7,-1334.7 674.3,-1359.7 				"/>
				<path fill="none" stroke="#F7F7F7" stroke-width="20" stroke-miterlimit="10" d="M784-1150c0-22.1-17.9-40-40-40s-40,17.9-40,40
					s17.9,40,40,40S784-1127.9,784-1150z"/>
			</g>
			<g>
				<polygon fill="none" stroke="#F7F7F7" stroke-width="20" stroke-miterlimit="10" points="95.8,-824.1 66.6,-898.6 145.7,-886.6 
					95.8,-824.1 66.6,-898.6 145.7,-886.6 				"/>
				<polygon fill="none" stroke="#F7F7F7" stroke-width="20" stroke-miterlimit="10" points="249.3,-1127.2 181.7,-1102.2 
					206.7,-1034.7 274.3,-1059.7 				"/>
				<path fill="none" stroke="#F7F7F7" stroke-width="20" stroke-miterlimit="10" d="M384-850c0-22.1-17.9-40-40-40s-40,17.9-40,40
					s17.9,40,40,40S384-827.9,384-850z"/>
			</g>
			<g>
				<polygon fill="none" stroke="#F7F7F7" stroke-width="20" stroke-miterlimit="10" points="1695.8,-524.1 1666.6,-598.6 
					1745.7,-586.6 1695.8,-524.1 1666.6,-598.6 1745.7,-586.6 				"/>
				<polygon fill="none" stroke="#F7F7F7" stroke-width="20" stroke-miterlimit="10" points="1849.3,-827.2 1781.7,-802.2 
					1806.7,-734.7 1874.3,-759.7 				"/>
				<path fill="none" stroke="#F7F7F7" stroke-width="20" stroke-miterlimit="10" d="M1984-550c0-22.1-17.9-40-40-40s-40,17.9-40,40
					s17.9,40,40,40S1984-527.9,1984-550z"/>
			</g>
			<g>
				<polygon fill="none" stroke="#F7F7F7" stroke-width="20" stroke-miterlimit="10" points="1295.8,-224.1 1266.6,-298.6 
					1345.7,-286.6 1295.8,-224.1 1266.6,-298.6 1345.7,-286.6 				"/>
				<polygon fill="none" stroke="#F7F7F7" stroke-width="20" stroke-miterlimit="10" points="1449.3,-527.2 1381.7,-502.2 
					1406.7,-434.7 1474.3,-459.7 				"/>
				<path fill="none" stroke="#F7F7F7" stroke-width="20" stroke-miterlimit="10" d="M1584-250c0-22.1-17.9-40-40-40s-40,17.9-40,40
					s17.9,40,40,40S1584-227.9,1584-250z"/>
			</g>
			<g>
				<polygon fill="none" stroke="#F7F7F7" stroke-width="20" stroke-miterlimit="10" points="895.8,-424.1 866.6,-498.6 
					945.7,-486.6 895.8,-424.1 866.6,-498.6 945.7,-486.6 				"/>
				<polygon fill="none" stroke="#F7F7F7" stroke-width="20" stroke-miterlimit="10" points="1049.3,-727.2 981.7,-702.2 
					1006.7,-634.7 1074.3,-659.7 				"/>
				<path fill="none" stroke="#F7F7F7" stroke-width="20" stroke-miterlimit="10" d="M1184-450c0-22.1-17.9-40-40-40s-40,17.9-40,40
					s17.9,40,40,40S1184-427.9,1184-450z"/>
			</g>
			<g>
				<polygon fill="none" stroke="#F7F7F7" stroke-width="20" stroke-miterlimit="10" points="495.8,-624.1 466.6,-698.6 
					545.7,-686.6 495.8,-624.1 466.6,-698.6 545.7,-686.6 				"/>
				<polygon fill="none" stroke="#F7F7F7" stroke-width="20" stroke-miterlimit="10" points="649.3,-927.2 581.7,-902.2 
					606.7,-834.7 674.3,-859.7 				"/>
				<path fill="none" stroke="#F7F7F7" stroke-width="20" stroke-miterlimit="10" d="M784-650c0-22.1-17.9-40-40-40s-40,17.9-40,40
					s17.9,40,40,40S784-627.9,784-650z"/>
			</g>
			<g>
				<polygon fill="none" stroke="#F7F7F7" stroke-width="20" stroke-miterlimit="10" points="95.8,-324.1 66.6,-398.6 145.7,-386.6 
					95.8,-324.1 66.6,-398.6 145.7,-386.6 				"/>
				<polygon fill="none" stroke="#F7F7F7" stroke-width="20" stroke-miterlimit="10" points="249.3,-627.2 181.7,-602.2 
					206.7,-534.7 274.3,-559.7 				"/>
				<path fill="none" stroke="#F7F7F7" stroke-width="20" stroke-miterlimit="10" d="M384-350c0-22.1-17.9-40-40-40s-40,17.9-40,40
					s17.9,40,40,40S384-327.9,384-350z"/>
			</g>
			<g>
				<polygon fill="none" stroke="#F7F7F7" stroke-width="20" stroke-miterlimit="10" points="1695.8,-24.1 1666.6,-98.6 
					1745.7,-86.6 1695.8,-24.1 1666.6,-98.6 1745.7,-86.6 				"/>
				<polygon fill="none" stroke="#F7F7F7" stroke-width="20" stroke-miterlimit="10" points="1849.3,-327.2 1781.7,-302.2 
					1806.7,-234.7 1874.3,-259.7 				"/>
				<path fill="none" stroke="#F7F7F7" stroke-width="20" stroke-miterlimit="10" d="M1984-50c0-22.1-17.9-40-40-40s-40,17.9-40,40
					s17.9,40,40,40S1984-27.9,1984-50z"/>
			</g>
			<g>
				<polygon fill="none" stroke="#F7F7F7" stroke-width="20" stroke-miterlimit="10" points="1049.3,-227.2 981.7,-202.2 
					1006.7,-134.7 1074.3,-159.7 				"/>
			</g>
			<g>
				<polygon fill="none" stroke="#F7F7F7" stroke-width="20" stroke-miterlimit="10" points="495.8,-124.1 466.6,-198.6 
					545.7,-186.6 495.8,-124.1 466.6,-198.6 545.7,-186.6 				"/>
				<polygon fill="none" stroke="#F7F7F7" stroke-width="20" stroke-miterlimit="10" points="649.3,-427.2 581.7,-402.2 
					606.7,-334.7 674.3,-359.7 				"/>
				<path fill="none" stroke="#F7F7F7" stroke-width="20" stroke-miterlimit="10" d="M784-150c0-22.1-17.9-40-40-40s-40,17.9-40,40
					s17.9,40,40,40S784-127.9,784-150z"/>
			</g>
			<g>
				<polygon fill="none" stroke="#F7F7F7" stroke-width="20" stroke-miterlimit="10" points="249.3,-127.2 181.7,-102.2 
					206.7,-34.7 274.3,-59.7 				"/>
			</g>
		</g>
	</g>
</pattern>
<rect y="-1" fill="url(#New_Pattern_Swatch_2)" width="1913" height="642"/>
<g display="none">
	<path display="inline" fill="#15FFA5" d="M1653.9,1077c0,19-28.8,19-28.8,0C1625.1,1058,1653.9,1058,1653.9,1077z M1627.3,1104.4
		v99h24.4v-99H1627.3z"/>
</g>
<rect x="200.4" y="362.4" fill="#15FFA5" width="327" height="81.9"/>
<text transform="matrix(1 0 0 1 184.9998 419.0001)" fill="#1B264C" font-family="'NexaBold'" font-size="150" letter-spacing="-7">hello!</text>
<g>
	<rect x="719.9" y="673.2" fill="none" width="480.3" height="28.8"/>
	
		<text transform="matrix(1 0 0 1 829.6676 688.0815)" fill="#A3A3A3" font-family="'Calibri-Light'" font-size="22" letter-spacing="1">irenesiu0904@gmail.com</text>
</g>
<g>
	<rect x="1334.8" y="672" fill="none" width="480.3" height="28.8"/>
	
		<text transform="matrix(1 0 0 1 1395.7324 686.916)" fill="#A3A3A3" font-family="'Calibri-Light'" font-size="22" letter-spacing="1">https://dribbble.com/irenesiu0904</text>
</g>
<g>
	<rect x="0" y="639.5" fill="#757575" width="1920" height="0.5"/>
</g>
<g>
	
		<text transform="matrix(1 0 0 1 209.7627 687.8345)" fill="#A3A3A3" font-family="'Calibri-Light'" font-size="22" letter-spacing="1">www.behance.com/irenesiu</text>
</g>
<g>
	<text transform="matrix(1 0 0 1 561 411)"><tspan x="0" y="0" fill="#A3A3A3" font-family="'Calibri-Light'" font-size="22" letter-spacing="1">I’D LOVE TO HEAR FROM YOU!</tspan><tspan x="0" y="26.4" fill="#A3A3A3" font-family="'Calibri-Light'" font-size="22" letter-spacing="1">IF YOU WANT TO LEAVE A MESSAGE, PLEASE FIND ME ON...</tspan></text>
</g>
<g>
	<rect x="889" y="592.3" fill="none" width="130" height="28.8"/>
	<text transform="matrix(1 0 0 1 899.6105 613.5107)" fill="#666666" font-family="'Seravek'" font-size="30">E M A I L</text>
</g>
<g>
	<rect x="1465.9" y="592.3" fill="none" width="218" height="28.8"/>
	<text transform="matrix(1 0 0 1 1489.0874 613.5107)" fill="#666666" font-family="'Seravek'" font-size="30">D R I B B B L E</text>
</g>
<g>
	<rect x="246.2" y="593.2" fill="none" width="214" height="28.8"/>
	<text transform="matrix(1 0 0 1 269.8535 614.3452)" fill="#666666" font-family="'Seravek'" font-size="30">B E H A N C E </text>
</g>
<g>
	
		<rect x="186" y="261.6" transform="matrix(0.7071 0.7071 -0.7071 0.7071 279.3927 -38.9902)" fill="#8D8D8E" width="1.5" height="112.3"/>
</g>
<g>
	
		<rect x="510" y="364.1" transform="matrix(0.7071 0.7071 -0.7071 0.7071 446.7742 -238.0244)" fill="#8D8D8E" width="1.5" height="112.3"/>
</g>
</svg>
