<?xml version="1.0" encoding="utf-8"?>
<!-- Generator: Adobe Illustrator 17.1.0, SVG Export Plug-In . SVG Version: 6.00 Build 0)  -->
<!DOCTYPE svg PUBLIC "-//W3C//DTD SVG 1.1//EN" "http://www.w3.org/Graphics/SVG/1.1/DTD/svg11.dtd">
<svg version="1.1" id="Layer_1" xmlns="http://www.w3.org/2000/svg" xmlns:xlink="http://www.w3.org/1999/xlink" x="0px" y="0px"
	 viewBox="0 0 1920 4265" enable-background="new 0 0 1920 4265" xml:space="preserve">
<g display="none">
	<path display="inline" fill="#15FFA5" d="M1653.9,42c0,19-28.8,19-28.8,0C1625.1,23,1653.9,23,1653.9,42z M1627.3,69.4v99h24.4v-99
		H1627.3z"/>
	<path display="inline" fill="#15FFA5" d="M1686.3,69.8l1.8,11.4c7.6-12.2,17.8-14,27.8-14c10.2,0,20,4,25.4,9.4l-11,21.2
		c-5-4.2-9.6-6.4-17.6-6.4c-12.8,0-24.6,6.8-24.6,25v52h-24.4V69.8H1686.3z"/>
	<path display="inline" fill="#15FFA5" d="M1761.3,127.8c1.6,12.2,12.2,21,29.4,21c9,0,20.8-3.4,26.4-9.2l15.6,15.4
		c-10.4,10.8-27.4,16-42.4,16c-34,0-54.2-21-54.2-52.6c0-30,20.4-51.6,52.4-51.6c33,0,53.6,20.4,49.8,61H1761.3z M1814.9,107.6
		c-1.6-12.8-11.6-19.2-25.6-19.2c-13.2,0-24,6.4-27.6,19.2H1814.9z"/>
	<path display="inline" fill="#15FFA5" d="M1919.7,168.4v-51.6c0-15-8.2-26.4-23.8-26.4c-15,0-25.2,12.6-25.2,27.6v50.4h-24.2V69.6
		h21.8l1.6,13.4c10-9.8,20-14.8,32.4-14.8c23.2,0,41.8,17.4,41.8,48.4v51.8H1919.7z"/>
</g>
<g>
	<path fill="#919191" d="M1427.3,415.4c0,0.1,0,0.2,0,0.2c0,0.1,0,0.1-0.1,0.2c0,0.1-0.1,0.1-0.1,0.1s-0.1,0-0.2,0h-7.2
		c-0.1,0-0.1,0-0.2,0c-0.1,0-0.1-0.1-0.1-0.1c0,0-0.1-0.1-0.1-0.2c0-0.1,0-0.2,0-0.3c0-0.1,0-0.2,0-0.2s0-0.1,0-0.2
		c0-0.1,0-0.1,0.1-0.2s0.1-0.1,0.1-0.2l2.7-2.9c0.7-0.7,1.2-1.3,1.6-1.9c0.4-0.6,0.7-1.1,0.9-1.5s0.4-0.9,0.4-1.2
		c0.1-0.4,0.1-0.7,0.1-1s-0.1-0.6-0.2-0.9c-0.1-0.3-0.3-0.6-0.5-0.8c-0.2-0.2-0.5-0.4-0.8-0.5c-0.3-0.1-0.7-0.2-1.1-0.2
		c-0.4,0-0.8,0.1-1.2,0.2c-0.3,0.1-0.6,0.3-0.9,0.4c-0.3,0.1-0.5,0.3-0.6,0.4c-0.2,0.1-0.3,0.2-0.4,0.2c0,0-0.1,0-0.1,0
		c0,0-0.1-0.1-0.1-0.1c0,0,0-0.1-0.1-0.2c0-0.1,0-0.1,0-0.2c0-0.1,0-0.2,0-0.2s0-0.1,0-0.1c0,0,0-0.1,0.1-0.1c0,0,0.1-0.1,0.2-0.2
		c0.1-0.1,0.2-0.2,0.4-0.3c0.2-0.1,0.4-0.2,0.7-0.4c0.3-0.1,0.6-0.2,1-0.3c0.3-0.1,0.7-0.1,1.1-0.1c0.6,0,1.2,0.1,1.6,0.3
		c0.5,0.2,0.8,0.4,1.2,0.7c0.3,0.3,0.5,0.7,0.7,1.1c0.2,0.4,0.2,0.8,0.2,1.3c0,0.4,0,0.8-0.1,1.3c-0.1,0.4-0.2,0.9-0.5,1.4
		c-0.2,0.5-0.6,1-1,1.6c-0.4,0.6-1,1.3-1.8,2.1l-2.4,2.5h6.1c0.1,0,0.1,0,0.2,0c0,0,0.1,0.1,0.1,0.1c0,0,0.1,0.1,0.1,0.2
		C1427.3,415.3,1427.3,415.3,1427.3,415.4z"/>
	<path fill="#919191" d="M1440.3,409.2c0,1.1-0.1,2.1-0.4,2.9c-0.3,0.9-0.7,1.6-1.2,2.1s-1.2,1-2,1.3c-0.8,0.3-1.8,0.4-2.9,0.4h-2.6
		c-0.1,0-0.2,0-0.4-0.1c-0.1-0.1-0.2-0.3-0.2-0.5v-12c0-0.2,0.1-0.4,0.2-0.5c0.1-0.1,0.3-0.1,0.4-0.1h2.8c1.1,0,2.1,0.2,2.9,0.5
		c0.8,0.3,1.4,0.7,1.9,1.3c0.5,0.6,0.9,1.2,1.2,2C1440.2,407.3,1440.3,408.2,1440.3,409.2z M1439,409.2c0-0.8-0.1-1.5-0.3-2.1
		c-0.2-0.7-0.5-1.2-0.9-1.7c-0.4-0.5-0.9-0.9-1.5-1.1c-0.6-0.3-1.4-0.4-2.4-0.4h-2v11h2.1c0.9,0,1.7-0.1,2.3-0.3
		c0.6-0.2,1.1-0.6,1.6-1c0.4-0.5,0.7-1.1,0.9-1.8C1438.9,411.1,1439,410.2,1439,409.2z"/>
	<path fill="#919191" d="M1454.3,415.8c0,0.1,0,0.1-0.1,0.2c0,0-0.1,0.1-0.2,0.1c-0.1,0-0.2,0-0.3,0c-0.1,0-0.2,0-0.3,0
		c-0.1,0-0.1,0-0.2-0.1c0,0-0.1-0.1-0.1-0.2v-1c-0.4,0.5-0.9,0.8-1.4,1c-0.5,0.2-1,0.4-1.6,0.4c-0.5,0-0.9-0.1-1.3-0.2
		c-0.4-0.1-0.7-0.3-1-0.5c-0.3-0.2-0.5-0.5-0.6-0.9c-0.1-0.3-0.2-0.7-0.2-1.1c0-0.5,0.1-1,0.3-1.3c0.2-0.4,0.5-0.7,0.9-0.9
		c0.4-0.3,0.9-0.4,1.4-0.6c0.5-0.1,1.2-0.2,1.8-0.2h1.5v-0.8c0-0.4,0-0.7-0.1-1.1c-0.1-0.3-0.2-0.6-0.4-0.8
		c-0.2-0.2-0.4-0.4-0.7-0.5c-0.3-0.1-0.7-0.2-1.1-0.2c-0.4,0-0.8,0-1.1,0.1c-0.3,0.1-0.6,0.2-0.9,0.3s-0.4,0.2-0.6,0.3
		c-0.2,0.1-0.3,0.1-0.3,0.1c0,0-0.1,0-0.1,0s-0.1,0-0.1-0.1c0,0,0-0.1-0.1-0.1c0-0.1,0-0.1,0-0.2c0-0.1,0-0.3,0-0.3
		c0-0.1,0.1-0.2,0.2-0.3c0.1-0.1,0.2-0.2,0.5-0.3s0.5-0.2,0.8-0.3c0.3-0.1,0.6-0.2,0.9-0.2c0.3-0.1,0.7-0.1,1-0.1
		c0.6,0,1.2,0.1,1.6,0.2c0.4,0.2,0.8,0.4,1.1,0.7c0.3,0.3,0.5,0.6,0.6,1.1c0.1,0.4,0.2,0.9,0.2,1.4V415.8z M1453.1,411.4h-1.7
		c-0.5,0-0.9,0-1.3,0.1s-0.7,0.2-0.9,0.4s-0.4,0.4-0.5,0.6c-0.1,0.2-0.2,0.5-0.2,0.8c0,0.5,0.2,1,0.5,1.3c0.3,0.3,0.8,0.5,1.4,0.5
		c0.5,0,0.9-0.1,1.4-0.4c0.4-0.2,0.9-0.6,1.3-1.2V411.4z"/>
	<path fill="#919191" d="M1465.3,415.8c0,0,0,0.1,0,0.1c0,0-0.1,0.1-0.1,0.1c0,0-0.1,0-0.2,0.1c-0.1,0-0.2,0-0.3,0
		c-0.1,0-0.2,0-0.3,0c-0.1,0-0.1,0-0.2-0.1c0,0-0.1,0-0.1-0.1c0,0,0-0.1,0-0.1v-5.5c0-0.6,0-1-0.1-1.4c-0.1-0.4-0.2-0.7-0.4-0.9
		c-0.2-0.3-0.4-0.5-0.7-0.6c-0.3-0.1-0.6-0.2-1-0.2c-0.5,0-0.9,0.2-1.4,0.5c-0.5,0.3-1,0.8-1.5,1.5v6.7c0,0,0,0.1,0,0.1
		c0,0-0.1,0.1-0.1,0.1c0,0-0.1,0-0.2,0.1c-0.1,0-0.2,0-0.3,0c-0.1,0-0.2,0-0.3,0c-0.1,0-0.1,0-0.2-0.1c0,0-0.1,0-0.1-0.1
		c0,0,0-0.1,0-0.1v-9.3c0,0,0-0.1,0-0.1c0,0,0-0.1,0.1-0.1c0,0,0.1,0,0.2-0.1c0.1,0,0.2,0,0.3,0s0.2,0,0.3,0c0.1,0,0.1,0,0.2,0.1
		c0,0,0.1,0.1,0.1,0.1c0,0,0,0.1,0,0.1v1.3c0.5-0.6,1.1-1,1.6-1.3c0.5-0.3,1-0.4,1.5-0.4c0.6,0,1.1,0.1,1.5,0.3s0.8,0.5,1,0.8
		c0.3,0.3,0.4,0.8,0.6,1.2c0.1,0.5,0.2,1,0.2,1.7V415.8z"/>
	<path fill="#919191" d="M1470,403.4c0,0.3-0.1,0.6-0.2,0.7c-0.1,0.1-0.3,0.2-0.6,0.2c-0.3,0-0.5-0.1-0.6-0.2
		c-0.1-0.1-0.2-0.3-0.2-0.7s0.1-0.5,0.2-0.7s0.3-0.2,0.6-0.2c0.3,0,0.5,0.1,0.6,0.2C1470,402.8,1470,403.1,1470,403.4z
		 M1469.9,415.8c0,0,0,0.1,0,0.1c0,0-0.1,0.1-0.1,0.1c0,0-0.1,0-0.2,0.1c-0.1,0-0.2,0-0.3,0c-0.1,0-0.2,0-0.3,0
		c-0.1,0-0.1,0-0.2-0.1c0,0-0.1,0-0.1-0.1c0,0,0-0.1,0-0.1v-9.3c0,0,0-0.1,0-0.1c0,0,0-0.1,0.1-0.1c0,0,0.1,0,0.2-0.1
		c0.1,0,0.2,0,0.3,0c0.1,0,0.2,0,0.3,0c0.1,0,0.1,0,0.2,0.1c0,0,0.1,0.1,0.1,0.1c0,0,0,0.1,0,0.1V415.8z"/>
	<path fill="#919191" d="M1486.5,415.8c0,0,0,0.1,0,0.1c0,0-0.1,0.1-0.1,0.1c0,0-0.1,0-0.2,0.1c-0.1,0-0.2,0-0.3,0
		c-0.1,0-0.2,0-0.3,0c-0.1,0-0.1,0-0.2-0.1c0,0-0.1,0-0.1-0.1c0,0,0-0.1,0-0.1v-5.7c0-0.4,0-0.8-0.1-1.2c-0.1-0.4-0.2-0.7-0.4-0.9
		c-0.2-0.3-0.4-0.5-0.6-0.6c-0.3-0.1-0.6-0.2-0.9-0.2c-0.4,0-0.9,0.2-1.3,0.5c-0.4,0.3-0.9,0.8-1.5,1.5v6.7c0,0,0,0.1,0,0.1
		c0,0-0.1,0.1-0.1,0.1c0,0-0.1,0-0.2,0.1c-0.1,0-0.2,0-0.3,0s-0.2,0-0.3,0c-0.1,0-0.1,0-0.2-0.1c0,0-0.1,0-0.1-0.1c0,0,0-0.1,0-0.1
		v-5.7c0-0.4,0-0.8-0.1-1.2c-0.1-0.4-0.2-0.7-0.4-0.9c-0.2-0.3-0.4-0.5-0.6-0.6c-0.3-0.1-0.6-0.2-0.9-0.2c-0.4,0-0.9,0.2-1.3,0.5
		c-0.4,0.3-0.9,0.8-1.4,1.5v6.7c0,0,0,0.1,0,0.1c0,0-0.1,0.1-0.1,0.1c0,0-0.1,0-0.2,0.1c-0.1,0-0.2,0-0.3,0c-0.1,0-0.2,0-0.3,0
		c-0.1,0-0.1,0-0.2-0.1c0,0-0.1,0-0.1-0.1c0,0,0-0.1,0-0.1v-9.3c0,0,0-0.1,0-0.1c0,0,0-0.1,0.1-0.1c0,0,0.1,0,0.2-0.1
		c0.1,0,0.2,0,0.3,0s0.2,0,0.3,0c0.1,0,0.1,0,0.2,0.1c0,0,0.1,0.1,0.1,0.1c0,0,0,0.1,0,0.1v1.3c0.5-0.6,1-1,1.5-1.3
		c0.5-0.3,1-0.4,1.4-0.4c0.4,0,0.7,0,1,0.1c0.3,0.1,0.6,0.2,0.8,0.4c0.2,0.2,0.4,0.4,0.6,0.6s0.3,0.5,0.4,0.8
		c0.3-0.4,0.6-0.7,0.9-0.9c0.3-0.2,0.6-0.4,0.8-0.6c0.3-0.1,0.5-0.3,0.7-0.3c0.2-0.1,0.5-0.1,0.7-0.1c0.6,0,1.1,0.1,1.5,0.3
		c0.4,0.2,0.7,0.5,1,0.8c0.2,0.3,0.4,0.8,0.5,1.2c0.1,0.5,0.2,1,0.2,1.5V415.8z"/>
	<path fill="#919191" d="M1496.4,415.8c0,0.1,0,0.1-0.1,0.2c0,0-0.1,0.1-0.2,0.1c-0.1,0-0.2,0-0.3,0c-0.1,0-0.2,0-0.3,0
		c-0.1,0-0.1,0-0.2-0.1c0,0-0.1-0.1-0.1-0.2v-1c-0.4,0.5-0.9,0.8-1.4,1c-0.5,0.2-1,0.4-1.6,0.4c-0.5,0-0.9-0.1-1.3-0.2
		c-0.4-0.1-0.7-0.3-1-0.5c-0.3-0.2-0.5-0.5-0.6-0.9c-0.1-0.3-0.2-0.7-0.2-1.1c0-0.5,0.1-1,0.3-1.3c0.2-0.4,0.5-0.7,0.9-0.9
		c0.4-0.3,0.9-0.4,1.4-0.6c0.5-0.1,1.2-0.2,1.8-0.2h1.5v-0.8c0-0.4,0-0.7-0.1-1.1c-0.1-0.3-0.2-0.6-0.4-0.8
		c-0.2-0.2-0.4-0.4-0.7-0.5c-0.3-0.1-0.7-0.2-1.1-0.2c-0.4,0-0.8,0-1.1,0.1c-0.3,0.1-0.6,0.2-0.9,0.3s-0.4,0.2-0.6,0.3
		c-0.2,0.1-0.3,0.1-0.3,0.1c0,0-0.1,0-0.1,0s-0.1,0-0.1-0.1c0,0,0-0.1-0.1-0.1c0-0.1,0-0.1,0-0.2c0-0.1,0-0.3,0-0.3
		c0-0.1,0.1-0.2,0.2-0.3c0.1-0.1,0.2-0.2,0.5-0.3s0.5-0.2,0.8-0.3c0.3-0.1,0.6-0.2,0.9-0.2c0.3-0.1,0.7-0.1,1-0.1
		c0.6,0,1.2,0.1,1.6,0.2c0.4,0.2,0.8,0.4,1.1,0.7c0.3,0.3,0.5,0.6,0.6,1.1c0.1,0.4,0.2,0.9,0.2,1.4V415.8z M1495.2,411.4h-1.7
		c-0.5,0-0.9,0-1.3,0.1s-0.7,0.2-0.9,0.4s-0.4,0.4-0.5,0.6c-0.1,0.2-0.2,0.5-0.2,0.8c0,0.5,0.2,1,0.5,1.3c0.3,0.3,0.8,0.5,1.4,0.5
		c0.5,0,0.9-0.1,1.4-0.4c0.4-0.2,0.9-0.6,1.3-1.2V411.4z"/>
	<path fill="#919191" d="M1507.1,406.3c0.2,0,0.3,0,0.3,0.1c0.1,0.1,0.1,0.2,0.1,0.3v9.1c0,0,0,0.1,0,0.1c0,0-0.1,0.1-0.1,0.1
		c0,0-0.1,0-0.2,0.1c-0.1,0-0.2,0-0.3,0c-0.1,0-0.2,0-0.3,0c-0.1,0-0.1,0-0.2-0.1c0,0-0.1,0-0.1-0.1c0,0,0-0.1,0-0.1v-8.5h-5.1v5.6
		c0,0.7,0.1,1.2,0.3,1.6c0.2,0.4,0.6,0.6,1.1,0.6c0.2,0,0.3,0,0.4-0.1c0.1,0,0.3-0.1,0.4-0.1s0.2-0.1,0.3-0.1c0.1,0,0.1-0.1,0.2-0.1
		c0,0,0.1,0,0.1,0c0,0,0,0,0.1,0.1c0,0,0,0.1,0,0.1c0,0.1,0,0.1,0,0.2c0,0.1,0,0.3,0,0.3c0,0.1-0.1,0.2-0.1,0.2
		c-0.1,0.1-0.1,0.1-0.2,0.1c-0.1,0-0.2,0.1-0.3,0.1c-0.1,0-0.3,0.1-0.4,0.1c-0.1,0-0.3,0-0.4,0c-0.5,0-0.8-0.1-1.2-0.2
		s-0.6-0.3-0.8-0.6c-0.2-0.2-0.4-0.6-0.4-0.9c-0.1-0.4-0.1-0.8-0.1-1.4v-5.8h-1.4c-0.1,0-0.2,0-0.2-0.1c-0.1-0.1-0.1-0.2-0.1-0.4
		c0-0.1,0-0.2,0-0.2c0-0.1,0-0.1,0.1-0.2c0,0,0.1-0.1,0.1-0.1c0,0,0.1,0,0.1,0h1.4V404c0,0,0-0.1,0-0.1c0,0,0-0.1,0.1-0.1
		c0,0,0.1,0,0.2-0.1c0.1,0,0.2,0,0.3,0c0.1,0,0.2,0,0.3,0c0.1,0,0.1,0,0.2,0.1c0,0,0.1,0.1,0.1,0.1c0,0,0,0.1,0,0.1v2.3H1507.1z
		 M1507.7,403.4c0,0.3-0.1,0.6-0.2,0.7c-0.1,0.1-0.3,0.2-0.6,0.2c-0.3,0-0.5-0.1-0.6-0.2c-0.1-0.1-0.2-0.3-0.2-0.7s0.1-0.5,0.2-0.7
		s0.3-0.2,0.6-0.2c0.3,0,0.5,0.1,0.6,0.2C1507.6,402.8,1507.7,403.1,1507.7,403.4z"/>
	<path fill="#919191" d="M1519.2,411.1c0,0.7-0.1,1.4-0.3,2c-0.2,0.6-0.5,1.2-0.9,1.6c-0.4,0.5-0.9,0.8-1.4,1.1
		c-0.6,0.3-1.2,0.4-2,0.4c-0.7,0-1.4-0.1-1.9-0.3c-0.5-0.2-1-0.6-1.4-1c-0.4-0.4-0.6-0.9-0.8-1.6c-0.2-0.6-0.3-1.3-0.3-2.1
		c0-0.7,0.1-1.4,0.3-2c0.2-0.6,0.5-1.2,0.9-1.6c0.4-0.5,0.9-0.8,1.4-1.1c0.6-0.3,1.2-0.4,2-0.4c0.7,0,1.4,0.1,1.9,0.3
		c0.5,0.2,1,0.6,1.4,1c0.4,0.4,0.6,0.9,0.8,1.6C1519.1,409.6,1519.2,410.3,1519.2,411.1z M1517.9,411.2c0-0.5-0.1-1-0.2-1.5
		c-0.1-0.5-0.3-0.9-0.5-1.3c-0.2-0.4-0.6-0.7-1-0.9c-0.4-0.2-0.9-0.3-1.5-0.3c-0.6,0-1,0.1-1.4,0.3c-0.4,0.2-0.7,0.5-1,0.8
		c-0.3,0.4-0.4,0.8-0.6,1.2s-0.2,1-0.2,1.5c0,0.5,0.1,1,0.2,1.5c0.1,0.5,0.3,0.9,0.5,1.3c0.2,0.4,0.6,0.6,1,0.9s0.9,0.3,1.5,0.3
		c0.6,0,1-0.1,1.4-0.3s0.7-0.5,1-0.8c0.3-0.3,0.4-0.8,0.6-1.2S1517.9,411.7,1517.9,411.2z"/>
	<path fill="#919191" d="M1529.4,415.8c0,0,0,0.1,0,0.1c0,0-0.1,0.1-0.1,0.1c0,0-0.1,0-0.2,0.1c-0.1,0-0.2,0-0.3,0
		c-0.1,0-0.2,0-0.3,0c-0.1,0-0.1,0-0.2-0.1c0,0-0.1,0-0.1-0.1c0,0,0-0.1,0-0.1v-5.5c0-0.6,0-1-0.1-1.4c-0.1-0.4-0.2-0.7-0.4-0.9
		c-0.2-0.3-0.4-0.5-0.7-0.6c-0.3-0.1-0.6-0.2-1-0.2c-0.5,0-0.9,0.2-1.4,0.5c-0.5,0.3-1,0.8-1.5,1.5v6.7c0,0,0,0.1,0,0.1
		c0,0-0.1,0.1-0.1,0.1c0,0-0.1,0-0.2,0.1c-0.1,0-0.2,0-0.3,0c-0.1,0-0.2,0-0.3,0c-0.1,0-0.1,0-0.2-0.1c0,0-0.1,0-0.1-0.1
		c0,0,0-0.1,0-0.1v-9.3c0,0,0-0.1,0-0.1c0,0,0-0.1,0.1-0.1c0,0,0.1,0,0.2-0.1c0.1,0,0.2,0,0.3,0s0.2,0,0.3,0c0.1,0,0.1,0,0.2,0.1
		c0,0,0.1,0.1,0.1,0.1c0,0,0,0.1,0,0.1v1.3c0.5-0.6,1.1-1,1.6-1.3c0.5-0.3,1-0.4,1.5-0.4c0.6,0,1.1,0.1,1.5,0.3s0.8,0.5,1,0.8
		c0.3,0.3,0.4,0.8,0.6,1.2c0.1,0.5,0.2,1,0.2,1.7V415.8z"/>
	<path fill="#919191" d="M1545.7,411c0,0.8-0.1,1.5-0.3,2.1c-0.2,0.6-0.4,1.2-0.8,1.6c-0.3,0.4-0.8,0.8-1.3,1
		c-0.5,0.2-1.1,0.4-1.7,0.4c-0.3,0-0.5,0-0.8-0.1c-0.2-0.1-0.5-0.1-0.7-0.3c-0.2-0.1-0.5-0.3-0.7-0.5c-0.2-0.2-0.5-0.4-0.7-0.7v4.8
		c0,0,0,0.1,0,0.1c0,0-0.1,0.1-0.1,0.1c0,0-0.1,0-0.2,0.1c-0.1,0-0.2,0-0.3,0c-0.1,0-0.2,0-0.3,0c-0.1,0-0.1,0-0.2-0.1
		c0,0-0.1-0.1-0.1-0.1c0,0,0-0.1,0-0.1v-13c0,0,0-0.1,0-0.1c0,0,0-0.1,0.1-0.1c0,0,0.1,0,0.2,0c0.1,0,0.2,0,0.3,0c0.1,0,0.2,0,0.3,0
		c0.1,0,0.1,0,0.2,0c0,0,0.1,0,0.1,0.1c0,0,0,0.1,0,0.1v1.3c0.3-0.3,0.6-0.5,0.8-0.8c0.3-0.2,0.5-0.4,0.8-0.5
		c0.3-0.1,0.5-0.2,0.8-0.3s0.6-0.1,0.9-0.1c0.7,0,1.2,0.1,1.7,0.4c0.5,0.3,0.9,0.6,1.2,1.1c0.3,0.4,0.5,1,0.6,1.6
		C1545.6,409.7,1545.7,410.3,1545.7,411z M1544.4,411.2c0-0.5,0-1-0.1-1.5c-0.1-0.5-0.2-0.9-0.4-1.3c-0.2-0.4-0.5-0.7-0.8-0.9
		c-0.3-0.2-0.7-0.3-1.2-0.3c-0.2,0-0.5,0-0.7,0.1c-0.2,0.1-0.5,0.2-0.7,0.3c-0.2,0.2-0.5,0.4-0.8,0.6c-0.3,0.2-0.5,0.6-0.8,0.9v4
		c0.5,0.6,1,1.1,1.5,1.4c0.5,0.3,1,0.5,1.5,0.5c0.5,0,0.9-0.1,1.2-0.3c0.3-0.2,0.6-0.5,0.8-0.9c0.2-0.4,0.4-0.8,0.5-1.3
		C1544.3,412.2,1544.4,411.7,1544.4,411.2z"/>
	<path fill="#919191" d="M1556.7,411.1c0,0.7-0.1,1.4-0.3,2c-0.2,0.6-0.5,1.2-0.9,1.6c-0.4,0.5-0.9,0.8-1.4,1.1
		c-0.6,0.3-1.2,0.4-2,0.4c-0.7,0-1.4-0.1-1.9-0.3c-0.5-0.2-1-0.6-1.4-1c-0.4-0.4-0.6-0.9-0.8-1.6c-0.2-0.6-0.3-1.3-0.3-2.1
		c0-0.7,0.1-1.4,0.3-2c0.2-0.6,0.5-1.2,0.9-1.6c0.4-0.5,0.9-0.8,1.4-1.1c0.6-0.3,1.2-0.4,2-0.4c0.7,0,1.4,0.1,1.9,0.3
		c0.5,0.2,1,0.6,1.4,1c0.4,0.4,0.6,0.9,0.8,1.6C1556.6,409.6,1556.7,410.3,1556.7,411.1z M1555.4,411.2c0-0.5-0.1-1-0.2-1.5
		c-0.1-0.5-0.3-0.9-0.5-1.3c-0.2-0.4-0.6-0.7-1-0.9c-0.4-0.2-0.9-0.3-1.5-0.3c-0.6,0-1,0.1-1.4,0.3c-0.4,0.2-0.7,0.5-1,0.8
		c-0.3,0.4-0.4,0.8-0.6,1.2s-0.2,1-0.2,1.5c0,0.5,0.1,1,0.2,1.5c0.1,0.5,0.3,0.9,0.5,1.3c0.2,0.4,0.6,0.6,1,0.9s0.9,0.3,1.5,0.3
		c0.6,0,1-0.1,1.4-0.3s0.7-0.5,1-0.8c0.3-0.3,0.4-0.8,0.6-1.2S1555.4,411.7,1555.4,411.2z"/>
	<path fill="#919191" d="M1564.6,407c0,0.1,0,0.2,0,0.3c0,0.1,0,0.1,0,0.2c0,0,0,0.1-0.1,0.1c0,0-0.1,0-0.1,0c-0.1,0-0.1,0-0.2,0
		c-0.1,0-0.2-0.1-0.3-0.1c-0.1,0-0.2-0.1-0.4-0.1c-0.1,0-0.3,0-0.4,0c-0.2,0-0.4,0-0.5,0.1c-0.2,0.1-0.4,0.2-0.6,0.4
		c-0.2,0.2-0.4,0.4-0.6,0.7c-0.2,0.3-0.5,0.6-0.7,1.1v6.3c0,0,0,0.1,0,0.1c0,0-0.1,0.1-0.1,0.1c0,0-0.1,0-0.2,0.1
		c-0.1,0-0.2,0-0.3,0c-0.1,0-0.2,0-0.3,0c-0.1,0-0.1,0-0.2-0.1c0,0-0.1,0-0.1-0.1c0,0,0-0.1,0-0.1v-9.3c0,0,0-0.1,0-0.1
		c0,0,0-0.1,0.1-0.1c0,0,0.1,0,0.2-0.1c0.1,0,0.2,0,0.3,0s0.2,0,0.3,0c0.1,0,0.1,0,0.2,0.1c0,0,0.1,0.1,0.1,0.1c0,0,0,0.1,0,0.1v1.5
		c0.3-0.4,0.5-0.7,0.7-0.9s0.4-0.4,0.6-0.6c0.2-0.1,0.4-0.2,0.6-0.3c0.2,0,0.4-0.1,0.6-0.1c0.1,0,0.2,0,0.3,0c0.1,0,0.2,0,0.4,0.1
		c0.1,0,0.3,0.1,0.4,0.1c0.1,0,0.2,0.1,0.2,0.1c0,0,0.1,0.1,0.1,0.1c0,0,0,0.1,0,0.1c0,0,0,0.1,0,0.2
		C1564.6,406.8,1564.6,406.9,1564.6,407z"/>
	<path fill="#919191" d="M1571.1,415.2c0,0.1,0,0.3,0,0.3c0,0.1-0.1,0.2-0.1,0.2c-0.1,0.1-0.1,0.1-0.2,0.1c-0.1,0-0.2,0.1-0.3,0.1
		c-0.1,0-0.3,0.1-0.4,0.1c-0.1,0-0.3,0-0.4,0c-0.5,0-0.8-0.1-1.2-0.2s-0.6-0.3-0.8-0.6c-0.2-0.2-0.4-0.6-0.4-0.9
		c-0.1-0.4-0.1-0.8-0.1-1.4v-5.8h-1.4c-0.1,0-0.2,0-0.2-0.1c-0.1-0.1-0.1-0.2-0.1-0.4c0-0.1,0-0.2,0-0.2c0-0.1,0-0.1,0.1-0.2
		c0,0,0.1-0.1,0.1-0.1c0,0,0.1,0,0.1,0h1.4V404c0,0,0-0.1,0-0.1c0,0,0-0.1,0.1-0.1c0,0,0.1,0,0.2-0.1c0.1,0,0.2,0,0.3,0
		c0.1,0,0.2,0,0.3,0c0.1,0,0.1,0,0.2,0.1c0,0,0.1,0.1,0.1,0.1c0,0,0,0.1,0,0.1v2.3h2.6c0,0,0.1,0,0.1,0c0,0,0.1,0.1,0.1,0.1
		c0,0,0,0.1,0.1,0.2c0,0.1,0,0.1,0,0.2c0,0.2,0,0.3-0.1,0.4c-0.1,0.1-0.1,0.1-0.2,0.1h-2.6v5.6c0,0.7,0.1,1.2,0.3,1.6
		c0.2,0.4,0.6,0.6,1.1,0.6c0.2,0,0.3,0,0.4-0.1c0.1,0,0.3-0.1,0.4-0.1s0.2-0.1,0.3-0.1c0.1,0,0.1-0.1,0.2-0.1c0,0,0.1,0,0.1,0
		c0,0,0,0,0.1,0.1c0,0,0,0.1,0,0.1C1571.1,415.1,1571.1,415.2,1571.1,415.2z"/>
	<path fill="#919191" d="M1578.7,407c0,0.1,0,0.2,0,0.3c0,0.1,0,0.1,0,0.2c0,0,0,0.1-0.1,0.1c0,0-0.1,0-0.1,0c-0.1,0-0.1,0-0.2,0
		c-0.1,0-0.2-0.1-0.3-0.1c-0.1,0-0.2-0.1-0.4-0.1c-0.1,0-0.3,0-0.4,0c-0.2,0-0.4,0-0.5,0.1c-0.2,0.1-0.4,0.2-0.6,0.4
		c-0.2,0.2-0.4,0.4-0.6,0.7c-0.2,0.3-0.5,0.6-0.7,1.1v6.3c0,0,0,0.1,0,0.1c0,0-0.1,0.1-0.1,0.1c0,0-0.1,0-0.2,0.1
		c-0.1,0-0.2,0-0.3,0c-0.1,0-0.2,0-0.3,0c-0.1,0-0.1,0-0.2-0.1c0,0-0.1,0-0.1-0.1c0,0,0-0.1,0-0.1v-9.3c0,0,0-0.1,0-0.1
		c0,0,0-0.1,0.1-0.1c0,0,0.1,0,0.2-0.1c0.1,0,0.2,0,0.3,0s0.2,0,0.3,0c0.1,0,0.1,0,0.2,0.1c0,0,0.1,0.1,0.1,0.1c0,0,0,0.1,0,0.1v1.5
		c0.3-0.4,0.5-0.7,0.7-0.9s0.4-0.4,0.6-0.6c0.2-0.1,0.4-0.2,0.6-0.3c0.2,0,0.4-0.1,0.6-0.1c0.1,0,0.2,0,0.3,0c0.1,0,0.2,0,0.4,0.1
		c0.1,0,0.3,0.1,0.4,0.1c0.1,0,0.2,0.1,0.2,0.1c0,0,0.1,0.1,0.1,0.1c0,0,0,0.1,0,0.1c0,0,0,0.1,0,0.2
		C1578.7,406.8,1578.7,406.9,1578.7,407z"/>
	<path fill="#919191" d="M1586.9,415.8c0,0.1,0,0.1-0.1,0.2c0,0-0.1,0.1-0.2,0.1c-0.1,0-0.2,0-0.3,0c-0.1,0-0.2,0-0.3,0
		c-0.1,0-0.1,0-0.2-0.1c0,0-0.1-0.1-0.1-0.2v-1c-0.4,0.5-0.9,0.8-1.4,1c-0.5,0.2-1,0.4-1.6,0.4c-0.5,0-0.9-0.1-1.3-0.2
		c-0.4-0.1-0.7-0.3-1-0.5c-0.3-0.2-0.5-0.5-0.6-0.9c-0.1-0.3-0.2-0.7-0.2-1.1c0-0.5,0.1-1,0.3-1.3c0.2-0.4,0.5-0.7,0.9-0.9
		c0.4-0.3,0.9-0.4,1.4-0.6c0.5-0.1,1.2-0.2,1.8-0.2h1.5v-0.8c0-0.4,0-0.7-0.1-1.1c-0.1-0.3-0.2-0.6-0.4-0.8
		c-0.2-0.2-0.4-0.4-0.7-0.5c-0.3-0.1-0.7-0.2-1.1-0.2c-0.4,0-0.8,0-1.1,0.1c-0.3,0.1-0.6,0.2-0.9,0.3s-0.4,0.2-0.6,0.3
		c-0.2,0.1-0.3,0.1-0.3,0.1c0,0-0.1,0-0.1,0s-0.1,0-0.1-0.1c0,0,0-0.1-0.1-0.1c0-0.1,0-0.1,0-0.2c0-0.1,0-0.3,0-0.3
		c0-0.1,0.1-0.2,0.2-0.3c0.1-0.1,0.2-0.2,0.5-0.3s0.5-0.2,0.8-0.3c0.3-0.1,0.6-0.2,0.9-0.2c0.3-0.1,0.7-0.1,1-0.1
		c0.6,0,1.2,0.1,1.6,0.2c0.4,0.2,0.8,0.4,1.1,0.7c0.3,0.3,0.5,0.6,0.6,1.1c0.1,0.4,0.2,0.9,0.2,1.4V415.8z M1585.7,411.4h-1.7
		c-0.5,0-0.9,0-1.3,0.1s-0.7,0.2-0.9,0.4s-0.4,0.4-0.5,0.6c-0.1,0.2-0.2,0.5-0.2,0.8c0,0.5,0.2,1,0.5,1.3c0.3,0.3,0.8,0.5,1.4,0.5
		c0.5,0,0.9-0.1,1.4-0.4c0.4-0.2,0.9-0.6,1.3-1.2V411.4z"/>
	<path fill="#919191" d="M1593.5,416l-1.3,3.5c0,0.1-0.1,0.1-0.2,0.2c-0.1,0.1-0.3,0.1-0.5,0.1c-0.1,0-0.2,0-0.3,0s-0.1,0-0.2-0.1
		c0,0-0.1-0.1-0.1-0.1c0-0.1,0-0.1,0-0.2l1.3-3.3c-0.1,0-0.1-0.1-0.1-0.1s-0.1-0.1-0.1-0.1l-3.4-9.1c0-0.1-0.1-0.2-0.1-0.2
		c0-0.1,0-0.1,0.1-0.1c0,0,0.1-0.1,0.2-0.1c0.1,0,0.2,0,0.3,0c0.2,0,0.3,0,0.4,0c0.1,0,0.2,0,0.2,0c0.1,0,0.1,0,0.1,0.1
		c0,0,0,0.1,0.1,0.1l2.9,8.1h0l2.9-8.1c0-0.1,0.1-0.2,0.1-0.2c0.1,0,0.1-0.1,0.2-0.1c0.1,0,0.2,0,0.3,0c0.1,0,0.2,0,0.3,0
		c0.1,0,0.1,0,0.2,0.1s0.1,0.1,0.1,0.1c0,0.1,0,0.1-0.1,0.2L1593.5,416z"/>
	<path fill="#919191" d="M1600.5,403.4c0,0.3-0.1,0.6-0.2,0.7c-0.1,0.1-0.3,0.2-0.6,0.2c-0.3,0-0.5-0.1-0.6-0.2
		c-0.1-0.1-0.2-0.3-0.2-0.7s0.1-0.5,0.2-0.7s0.3-0.2,0.6-0.2c0.3,0,0.5,0.1,0.6,0.2C1600.5,402.8,1600.5,403.1,1600.5,403.4z
		 M1600.3,415.8c0,0,0,0.1,0,0.1c0,0-0.1,0.1-0.1,0.1c0,0-0.1,0-0.2,0.1c-0.1,0-0.2,0-0.3,0c-0.1,0-0.2,0-0.3,0
		c-0.1,0-0.1,0-0.2-0.1c0,0-0.1,0-0.1-0.1c0,0,0-0.1,0-0.1v-9.3c0,0,0-0.1,0-0.1c0,0,0-0.1,0.1-0.1c0,0,0.1,0,0.2-0.1
		c0.1,0,0.2,0,0.3,0c0.1,0,0.2,0,0.3,0c0.1,0,0.1,0,0.2,0.1c0,0,0.1,0.1,0.1,0.1c0,0,0,0.1,0,0.1V415.8z"/>
	<path fill="#919191" d="M1611.3,415.8c0,0,0,0.1,0,0.1c0,0-0.1,0.1-0.1,0.1c0,0-0.1,0-0.2,0.1c-0.1,0-0.2,0-0.3,0
		c-0.1,0-0.2,0-0.3,0c-0.1,0-0.1,0-0.2-0.1c0,0-0.1,0-0.1-0.1c0,0,0-0.1,0-0.1v-5.5c0-0.6,0-1-0.1-1.4c-0.1-0.4-0.2-0.7-0.4-0.9
		c-0.2-0.3-0.4-0.5-0.7-0.6c-0.3-0.1-0.6-0.2-1-0.2c-0.5,0-0.9,0.2-1.4,0.5c-0.5,0.3-1,0.8-1.5,1.5v6.7c0,0,0,0.1,0,0.1
		c0,0-0.1,0.1-0.1,0.1c0,0-0.1,0-0.2,0.1c-0.1,0-0.2,0-0.3,0c-0.1,0-0.2,0-0.3,0c-0.1,0-0.1,0-0.2-0.1c0,0-0.1,0-0.1-0.1
		c0,0,0-0.1,0-0.1v-9.3c0,0,0-0.1,0-0.1c0,0,0-0.1,0.1-0.1c0,0,0.1,0,0.2-0.1c0.1,0,0.2,0,0.3,0s0.2,0,0.3,0c0.1,0,0.1,0,0.2,0.1
		c0,0,0.1,0.1,0.1,0.1c0,0,0,0.1,0,0.1v1.3c0.5-0.6,1.1-1,1.6-1.3c0.5-0.3,1-0.4,1.5-0.4c0.6,0,1.1,0.1,1.5,0.3s0.8,0.5,1,0.8
		c0.3,0.3,0.4,0.8,0.6,1.2c0.1,0.5,0.2,1,0.2,1.7V415.8z"/>
	<path fill="#919191" d="M1622.1,406.8c0,0.2,0,0.3-0.1,0.4c-0.1,0.1-0.1,0.1-0.2,0.1h-1.5c0.3,0.3,0.5,0.6,0.6,1
		c0.1,0.3,0.2,0.7,0.2,1.1c0,0.5-0.1,1-0.3,1.4c-0.2,0.4-0.4,0.8-0.7,1c-0.3,0.3-0.7,0.5-1.1,0.7c-0.4,0.2-0.9,0.2-1.4,0.2
		c-0.4,0-0.8-0.1-1.2-0.2s-0.7-0.3-0.9-0.4c-0.1,0.1-0.2,0.3-0.3,0.5c-0.1,0.2-0.1,0.4-0.1,0.6c0,0.3,0.1,0.5,0.4,0.7
		c0.2,0.2,0.6,0.3,1,0.3l2.5,0.1c0.4,0,0.8,0.1,1.2,0.2c0.4,0.1,0.7,0.3,1,0.5c0.3,0.2,0.5,0.4,0.7,0.7s0.2,0.6,0.2,1
		c0,0.4-0.1,0.8-0.3,1.2c-0.2,0.4-0.4,0.7-0.8,1c-0.4,0.3-0.8,0.5-1.3,0.7c-0.5,0.2-1.2,0.3-2,0.3c-0.7,0-1.3-0.1-1.9-0.2
		c-0.5-0.1-0.9-0.3-1.3-0.5c-0.3-0.2-0.6-0.5-0.7-0.8c-0.1-0.3-0.2-0.6-0.2-1c0-0.2,0-0.5,0.1-0.7c0.1-0.2,0.1-0.4,0.3-0.6
		c0.1-0.2,0.3-0.4,0.4-0.6c0.2-0.2,0.4-0.4,0.6-0.5c-0.3-0.2-0.6-0.4-0.8-0.6c-0.2-0.3-0.2-0.5-0.2-0.8c0-0.4,0.1-0.8,0.2-1.1
		c0.2-0.3,0.4-0.6,0.6-0.9c-0.2-0.3-0.4-0.5-0.5-0.9c-0.1-0.3-0.2-0.7-0.2-1.1c0-0.5,0.1-1,0.3-1.4c0.2-0.4,0.4-0.8,0.7-1.1
		c0.3-0.3,0.7-0.5,1.1-0.7c0.4-0.2,0.9-0.2,1.4-0.2c0.3,0,0.5,0,0.8,0c0.2,0,0.5,0.1,0.7,0.1h2.7c0.1,0,0.2,0,0.3,0.1
		C1622.1,406.5,1622.1,406.7,1622.1,406.8z M1620.8,416.7c0-0.5-0.2-0.8-0.5-1c-0.4-0.2-0.9-0.4-1.5-0.4l-2.7-0.1
		c-0.2,0.2-0.4,0.4-0.6,0.5c-0.2,0.2-0.3,0.3-0.4,0.5c-0.1,0.2-0.2,0.3-0.2,0.5c0,0.2-0.1,0.3-0.1,0.5c0,0.5,0.3,0.9,0.8,1.1
		c0.5,0.3,1.2,0.4,2.1,0.4c0.6,0,1.1-0.1,1.4-0.2c0.4-0.1,0.7-0.3,0.9-0.4c0.2-0.2,0.4-0.4,0.5-0.6
		C1620.7,417.2,1620.8,417,1620.8,416.7z M1619.8,409.4c0-0.7-0.2-1.3-0.6-1.7c-0.4-0.4-0.9-0.6-1.6-0.6c-0.4,0-0.7,0.1-1,0.2
		c-0.3,0.1-0.5,0.3-0.7,0.5c-0.2,0.2-0.3,0.5-0.4,0.7c-0.1,0.3-0.1,0.6-0.1,0.9c0,0.7,0.2,1.2,0.6,1.6c0.4,0.4,0.9,0.6,1.6,0.6
		c0.4,0,0.7-0.1,1-0.2c0.3-0.1,0.5-0.3,0.7-0.5c0.2-0.2,0.3-0.5,0.4-0.7C1619.8,410,1619.8,409.7,1619.8,409.4z"/>
	<path fill="#919191" d="M1632.9,416l-1.3,3.5c0,0.1-0.1,0.1-0.2,0.2c-0.1,0.1-0.3,0.1-0.5,0.1c-0.1,0-0.2,0-0.3,0s-0.1,0-0.2-0.1
		c0,0-0.1-0.1-0.1-0.1c0-0.1,0-0.1,0-0.2l1.3-3.3c-0.1,0-0.1-0.1-0.1-0.1s-0.1-0.1-0.1-0.1l-3.4-9.1c0-0.1-0.1-0.2-0.1-0.2
		c0-0.1,0-0.1,0.1-0.1c0,0,0.1-0.1,0.2-0.1c0.1,0,0.2,0,0.3,0c0.2,0,0.3,0,0.4,0c0.1,0,0.2,0,0.2,0c0.1,0,0.1,0,0.1,0.1
		c0,0,0,0.1,0.1,0.1l2.9,8.1h0l2.9-8.1c0-0.1,0.1-0.2,0.1-0.2c0.1,0,0.1-0.1,0.2-0.1c0.1,0,0.2,0,0.3,0c0.1,0,0.2,0,0.3,0
		c0.1,0,0.1,0,0.2,0.1s0.1,0.1,0.1,0.1c0,0.1,0,0.1-0.1,0.2L1632.9,416z"/>
	<path fill="#919191" d="M1646.5,411.1c0,0.7-0.1,1.4-0.3,2c-0.2,0.6-0.5,1.2-0.9,1.6c-0.4,0.5-0.9,0.8-1.4,1.1
		c-0.6,0.3-1.2,0.4-2,0.4c-0.7,0-1.4-0.1-1.9-0.3c-0.5-0.2-1-0.6-1.4-1c-0.4-0.4-0.6-0.9-0.8-1.6c-0.2-0.6-0.3-1.3-0.3-2.1
		c0-0.7,0.1-1.4,0.3-2c0.2-0.6,0.5-1.2,0.9-1.6c0.4-0.5,0.9-0.8,1.4-1.1c0.6-0.3,1.2-0.4,2-0.4c0.7,0,1.4,0.1,1.9,0.3
		c0.5,0.2,1,0.6,1.4,1c0.4,0.4,0.6,0.9,0.8,1.6C1646.4,409.6,1646.5,410.3,1646.5,411.1z M1645.2,411.2c0-0.5-0.1-1-0.2-1.5
		c-0.1-0.5-0.3-0.9-0.5-1.3c-0.2-0.4-0.6-0.7-1-0.9c-0.4-0.2-0.9-0.3-1.5-0.3c-0.6,0-1,0.1-1.4,0.3c-0.4,0.2-0.7,0.5-1,0.8
		c-0.3,0.4-0.4,0.8-0.6,1.2s-0.2,1-0.2,1.5c0,0.5,0.1,1,0.2,1.5c0.1,0.5,0.3,0.9,0.5,1.3c0.2,0.4,0.6,0.6,1,0.9s0.9,0.3,1.5,0.3
		c0.6,0,1-0.1,1.4-0.3s0.7-0.5,1-0.8c0.3-0.3,0.4-0.8,0.6-1.2S1645.2,411.7,1645.2,411.2z"/>
	<path fill="#919191" d="M1656.7,415.8c0,0,0,0.1,0,0.1c0,0,0,0.1-0.1,0.1c0,0-0.1,0-0.2,0.1c-0.1,0-0.2,0-0.3,0c-0.1,0-0.2,0-0.3,0
		c-0.1,0-0.1,0-0.2-0.1c0,0-0.1,0-0.1-0.1c0,0,0-0.1,0-0.1v-1.3c-0.5,0.6-1.1,1-1.6,1.3c-0.5,0.3-1,0.4-1.5,0.4
		c-0.6,0-1.1-0.1-1.5-0.3s-0.8-0.5-1-0.8c-0.3-0.4-0.4-0.8-0.6-1.2c-0.1-0.5-0.2-1-0.2-1.7v-5.6c0,0,0-0.1,0-0.1c0,0,0-0.1,0.1-0.1
		c0,0,0.1,0,0.2-0.1c0.1,0,0.2,0,0.3,0c0.1,0,0.2,0,0.3,0c0.1,0,0.1,0,0.2,0.1c0,0,0.1,0.1,0.1,0.1c0,0,0,0.1,0,0.1v5.5
		c0,0.6,0,1,0.1,1.4c0.1,0.4,0.2,0.7,0.4,0.9c0.2,0.3,0.4,0.5,0.7,0.6c0.3,0.1,0.6,0.2,1,0.2c0.5,0,0.9-0.2,1.4-0.5
		c0.5-0.3,1-0.8,1.5-1.5v-6.7c0,0,0-0.1,0-0.1c0,0,0-0.1,0.1-0.1c0,0,0.1,0,0.2-0.1c0.1,0,0.2,0,0.3,0c0.1,0,0.2,0,0.3,0
		c0.1,0,0.1,0,0.2,0.1c0,0,0.1,0.1,0.1,0.1s0,0.1,0,0.1V415.8z"/>
	<path fill="#919191" d="M1667.6,415.8c0,0,0,0.1,0,0.1c0,0-0.1,0.1-0.1,0.1c0,0-0.1,0-0.2,0.1c-0.1,0-0.2,0-0.3,0
		c-0.1,0-0.2,0-0.3,0c-0.1,0-0.1,0-0.2-0.1c0,0-0.1,0-0.1-0.1c0,0,0-0.1,0-0.1v-5.5c0-0.6,0-1-0.1-1.4c-0.1-0.4-0.2-0.7-0.4-0.9
		c-0.2-0.3-0.4-0.5-0.7-0.6c-0.3-0.1-0.6-0.2-1-0.2c-0.5,0-0.9,0.2-1.4,0.5c-0.5,0.3-1,0.8-1.5,1.5v6.7c0,0,0,0.1,0,0.1
		c0,0-0.1,0.1-0.1,0.1c0,0-0.1,0-0.2,0.1c-0.1,0-0.2,0-0.3,0c-0.1,0-0.2,0-0.3,0c-0.1,0-0.1,0-0.2-0.1c0,0-0.1,0-0.1-0.1
		c0,0,0-0.1,0-0.1v-9.3c0,0,0-0.1,0-0.1c0,0,0-0.1,0.1-0.1c0,0,0.1,0,0.2-0.1c0.1,0,0.2,0,0.3,0s0.2,0,0.3,0c0.1,0,0.1,0,0.2,0.1
		c0,0,0.1,0.1,0.1,0.1c0,0,0,0.1,0,0.1v1.3c0.5-0.6,1.1-1,1.6-1.3c0.5-0.3,1-0.4,1.5-0.4c0.6,0,1.1,0.1,1.5,0.3s0.8,0.5,1,0.8
		c0.3,0.3,0.4,0.8,0.6,1.2c0.1,0.5,0.2,1,0.2,1.7V415.8z"/>
	<path fill="#919191" d="M1678.5,406.8c0,0.2,0,0.3-0.1,0.4c-0.1,0.1-0.1,0.1-0.2,0.1h-1.5c0.3,0.3,0.5,0.6,0.6,1
		c0.1,0.3,0.2,0.7,0.2,1.1c0,0.5-0.1,1-0.3,1.4c-0.2,0.4-0.4,0.8-0.7,1c-0.3,0.3-0.7,0.5-1.1,0.7c-0.4,0.2-0.9,0.2-1.4,0.2
		c-0.4,0-0.8-0.1-1.2-0.2s-0.7-0.3-0.9-0.4c-0.1,0.1-0.2,0.3-0.3,0.5c-0.1,0.2-0.1,0.4-0.1,0.6c0,0.3,0.1,0.5,0.4,0.7
		c0.2,0.2,0.6,0.3,1,0.3l2.5,0.1c0.4,0,0.8,0.1,1.2,0.2c0.4,0.1,0.7,0.3,1,0.5c0.3,0.2,0.5,0.4,0.7,0.7s0.2,0.6,0.2,1
		c0,0.4-0.1,0.8-0.3,1.2c-0.2,0.4-0.4,0.7-0.8,1c-0.4,0.3-0.8,0.5-1.3,0.7c-0.5,0.2-1.2,0.3-2,0.3c-0.7,0-1.3-0.1-1.9-0.2
		c-0.5-0.1-0.9-0.3-1.3-0.5c-0.3-0.2-0.6-0.5-0.7-0.8c-0.1-0.3-0.2-0.6-0.2-1c0-0.2,0-0.5,0.1-0.7c0.1-0.2,0.1-0.4,0.3-0.6
		c0.1-0.2,0.3-0.4,0.4-0.6c0.2-0.2,0.4-0.4,0.6-0.5c-0.3-0.2-0.6-0.4-0.8-0.6c-0.2-0.3-0.2-0.5-0.2-0.8c0-0.4,0.1-0.8,0.2-1.1
		c0.2-0.3,0.4-0.6,0.6-0.9c-0.2-0.3-0.4-0.5-0.5-0.9c-0.1-0.3-0.2-0.7-0.2-1.1c0-0.5,0.1-1,0.3-1.4c0.2-0.4,0.4-0.8,0.7-1.1
		c0.3-0.3,0.7-0.5,1.1-0.7c0.4-0.2,0.9-0.2,1.4-0.2c0.3,0,0.5,0,0.8,0c0.2,0,0.5,0.1,0.7,0.1h2.7c0.1,0,0.2,0,0.3,0.1
		C1678.4,406.5,1678.5,406.7,1678.5,406.8z M1677.1,416.7c0-0.5-0.2-0.8-0.5-1c-0.4-0.2-0.9-0.4-1.5-0.4l-2.7-0.1
		c-0.2,0.2-0.4,0.4-0.6,0.5c-0.2,0.2-0.3,0.3-0.4,0.5c-0.1,0.2-0.2,0.3-0.2,0.5c0,0.2-0.1,0.3-0.1,0.5c0,0.5,0.3,0.9,0.8,1.1
		c0.5,0.3,1.2,0.4,2.1,0.4c0.6,0,1.1-0.1,1.4-0.2c0.4-0.1,0.7-0.3,0.9-0.4c0.2-0.2,0.4-0.4,0.5-0.6
		C1677.1,417.2,1677.1,417,1677.1,416.7z M1676.2,409.4c0-0.7-0.2-1.3-0.6-1.7c-0.4-0.4-0.9-0.6-1.6-0.6c-0.4,0-0.7,0.1-1,0.2
		c-0.3,0.1-0.5,0.3-0.7,0.5c-0.2,0.2-0.3,0.5-0.4,0.7c-0.1,0.3-0.1,0.6-0.1,0.9c0,0.7,0.2,1.2,0.6,1.6c0.4,0.4,0.9,0.6,1.6,0.6
		c0.4,0,0.7-0.1,1-0.2c0.3-0.1,0.5-0.3,0.7-0.5c0.2-0.2,0.3-0.5,0.4-0.7C1676.1,410,1676.2,409.7,1676.2,409.4z"/>
	<path fill="#919191" d="M1693.1,406.8c0,0.2,0,0.3-0.1,0.4c-0.1,0.1-0.1,0.1-0.2,0.1h-1.5c0.3,0.3,0.5,0.6,0.6,1
		c0.1,0.3,0.2,0.7,0.2,1.1c0,0.5-0.1,1-0.3,1.4c-0.2,0.4-0.4,0.8-0.7,1c-0.3,0.3-0.7,0.5-1.1,0.7c-0.4,0.2-0.9,0.2-1.4,0.2
		c-0.4,0-0.8-0.1-1.2-0.2s-0.7-0.3-0.9-0.4c-0.1,0.1-0.2,0.3-0.3,0.5c-0.1,0.2-0.1,0.4-0.1,0.6c0,0.3,0.1,0.5,0.4,0.7
		c0.2,0.2,0.6,0.3,1,0.3l2.5,0.1c0.4,0,0.8,0.1,1.2,0.2c0.4,0.1,0.7,0.3,1,0.5c0.3,0.2,0.5,0.4,0.7,0.7s0.2,0.6,0.2,1
		c0,0.4-0.1,0.8-0.3,1.2c-0.2,0.4-0.4,0.7-0.8,1c-0.4,0.3-0.8,0.5-1.3,0.7c-0.5,0.2-1.2,0.3-2,0.3c-0.7,0-1.3-0.1-1.9-0.2
		c-0.5-0.1-0.9-0.3-1.3-0.5c-0.3-0.2-0.6-0.5-0.7-0.8c-0.1-0.3-0.2-0.6-0.2-1c0-0.2,0-0.5,0.1-0.7c0.1-0.2,0.1-0.4,0.3-0.6
		c0.1-0.2,0.3-0.4,0.4-0.6c0.2-0.2,0.4-0.4,0.6-0.5c-0.3-0.2-0.6-0.4-0.8-0.6c-0.2-0.3-0.2-0.5-0.2-0.8c0-0.4,0.1-0.8,0.2-1.1
		c0.2-0.3,0.4-0.6,0.6-0.9c-0.2-0.3-0.4-0.5-0.5-0.9c-0.1-0.3-0.2-0.7-0.2-1.1c0-0.5,0.1-1,0.3-1.4c0.2-0.4,0.4-0.8,0.7-1.1
		c0.3-0.3,0.7-0.5,1.1-0.7c0.4-0.2,0.9-0.2,1.4-0.2c0.3,0,0.5,0,0.8,0c0.2,0,0.5,0.1,0.7,0.1h2.7c0.1,0,0.2,0,0.3,0.1
		C1693,406.5,1693.1,406.7,1693.1,406.8z M1691.7,416.7c0-0.5-0.2-0.8-0.5-1c-0.4-0.2-0.9-0.4-1.5-0.4l-2.7-0.1
		c-0.2,0.2-0.4,0.4-0.6,0.5c-0.2,0.2-0.3,0.3-0.4,0.5c-0.1,0.2-0.2,0.3-0.2,0.5c0,0.2-0.1,0.3-0.1,0.5c0,0.5,0.3,0.9,0.8,1.1
		c0.5,0.3,1.2,0.4,2.1,0.4c0.6,0,1.1-0.1,1.4-0.2c0.4-0.1,0.7-0.3,0.9-0.4c0.2-0.2,0.4-0.4,0.5-0.6
		C1691.7,417.2,1691.7,417,1691.7,416.7z M1690.8,409.4c0-0.7-0.2-1.3-0.6-1.7c-0.4-0.4-0.9-0.6-1.6-0.6c-0.4,0-0.7,0.1-1,0.2
		c-0.3,0.1-0.5,0.3-0.7,0.5c-0.2,0.2-0.3,0.5-0.4,0.7c-0.1,0.3-0.1,0.6-0.1,0.9c0,0.7,0.2,1.2,0.6,1.6c0.4,0.4,0.9,0.6,1.6,0.6
		c0.4,0,0.7-0.1,1-0.2c0.3-0.1,0.5-0.3,0.7-0.5c0.2-0.2,0.3-0.5,0.4-0.7C1690.7,410,1690.8,409.7,1690.8,409.4z"/>
	<path fill="#919191" d="M1702.9,410.7c0,0.2-0.1,0.4-0.2,0.5c-0.1,0.1-0.3,0.1-0.4,0.1h-6.3c0,0.6,0.1,1.1,0.2,1.6
		c0.1,0.5,0.3,0.9,0.6,1.2c0.3,0.3,0.6,0.6,1,0.8s0.9,0.3,1.5,0.3c0.4,0,0.8,0,1.2-0.1s0.6-0.2,0.9-0.3c0.2-0.1,0.5-0.2,0.6-0.3
		c0.2-0.1,0.3-0.1,0.3-0.1c0,0,0.1,0,0.1,0c0,0,0.1,0.1,0.1,0.1c0,0,0,0.1,0,0.2c0,0.1,0,0.2,0,0.3c0,0,0,0.1,0,0.1c0,0,0,0.1,0,0.1
		c0,0,0,0.1,0,0.1s0,0.1-0.1,0.1s-0.1,0.1-0.3,0.2c-0.2,0.1-0.4,0.2-0.7,0.3c-0.3,0.1-0.6,0.2-1,0.2c-0.4,0.1-0.8,0.1-1.2,0.1
		c-0.7,0-1.4-0.1-1.9-0.3c-0.6-0.2-1-0.5-1.4-1c-0.4-0.4-0.7-0.9-0.9-1.6c-0.2-0.6-0.3-1.3-0.3-2.2c0-0.8,0.1-1.5,0.3-2.1
		c0.2-0.6,0.5-1.1,0.9-1.6c0.4-0.4,0.8-0.8,1.4-1c0.5-0.2,1.1-0.3,1.8-0.3c0.7,0,1.3,0.1,1.8,0.3s0.9,0.5,1.2,0.9
		c0.3,0.4,0.5,0.8,0.7,1.4c0.1,0.5,0.2,1.1,0.2,1.6V410.7z M1701.6,410.3c0-1-0.2-1.8-0.7-2.3c-0.5-0.6-1.2-0.8-2.1-0.8
		c-0.5,0-0.9,0.1-1.2,0.3c-0.4,0.2-0.6,0.4-0.9,0.7c-0.2,0.3-0.4,0.6-0.6,1c-0.1,0.4-0.2,0.8-0.2,1.2H1701.6z"/>
	<path fill="#919191" d="M1713.2,415.8c0,0,0,0.1,0,0.1c0,0-0.1,0.1-0.1,0.1c0,0-0.1,0-0.2,0.1c-0.1,0-0.2,0-0.3,0
		c-0.1,0-0.2,0-0.3,0c-0.1,0-0.1,0-0.2-0.1c0,0-0.1,0-0.1-0.1c0,0,0-0.1,0-0.1v-5.5c0-0.6,0-1-0.1-1.4c-0.1-0.4-0.2-0.7-0.4-0.9
		c-0.2-0.3-0.4-0.5-0.7-0.6c-0.3-0.1-0.6-0.2-1-0.2c-0.5,0-0.9,0.2-1.4,0.5c-0.5,0.3-1,0.8-1.5,1.5v6.7c0,0,0,0.1,0,0.1
		c0,0-0.1,0.1-0.1,0.1c0,0-0.1,0-0.2,0.1c-0.1,0-0.2,0-0.3,0c-0.1,0-0.2,0-0.3,0c-0.1,0-0.1,0-0.2-0.1c0,0-0.1,0-0.1-0.1
		c0,0,0-0.1,0-0.1v-9.3c0,0,0-0.1,0-0.1c0,0,0-0.1,0.1-0.1c0,0,0.1,0,0.2-0.1c0.1,0,0.2,0,0.3,0s0.2,0,0.3,0c0.1,0,0.1,0,0.2,0.1
		c0,0,0.1,0.1,0.1,0.1c0,0,0,0.1,0,0.1v1.3c0.5-0.6,1.1-1,1.6-1.3c0.5-0.3,1-0.4,1.5-0.4c0.6,0,1.1,0.1,1.5,0.3s0.8,0.5,1,0.8
		c0.3,0.3,0.4,0.8,0.6,1.2c0.1,0.5,0.2,1,0.2,1.7V415.8z"/>
	<path fill="#919191" d="M1724.2,410.7c0,0.2-0.1,0.4-0.2,0.5c-0.1,0.1-0.3,0.1-0.4,0.1h-6.3c0,0.6,0.1,1.1,0.2,1.6
		c0.1,0.5,0.3,0.9,0.6,1.2c0.3,0.3,0.6,0.6,1,0.8s0.9,0.3,1.5,0.3c0.4,0,0.8,0,1.2-0.1s0.6-0.2,0.9-0.3c0.2-0.1,0.5-0.2,0.6-0.3
		c0.2-0.1,0.3-0.1,0.3-0.1c0,0,0.1,0,0.1,0c0,0,0.1,0.1,0.1,0.1c0,0,0,0.1,0,0.2c0,0.1,0,0.2,0,0.3c0,0,0,0.1,0,0.1c0,0,0,0.1,0,0.1
		c0,0,0,0.1,0,0.1s0,0.1-0.1,0.1s-0.1,0.1-0.3,0.2c-0.2,0.1-0.4,0.2-0.7,0.3c-0.3,0.1-0.6,0.2-1,0.2c-0.4,0.1-0.8,0.1-1.2,0.1
		c-0.7,0-1.4-0.1-1.9-0.3c-0.6-0.2-1-0.5-1.4-1c-0.4-0.4-0.7-0.9-0.9-1.6c-0.2-0.6-0.3-1.3-0.3-2.2c0-0.8,0.1-1.5,0.3-2.1
		c0.2-0.6,0.5-1.1,0.9-1.6c0.4-0.4,0.8-0.8,1.4-1c0.5-0.2,1.1-0.3,1.8-0.3c0.7,0,1.3,0.1,1.8,0.3s0.9,0.5,1.2,0.9
		c0.3,0.4,0.5,0.8,0.7,1.4c0.1,0.5,0.2,1.1,0.2,1.6V410.7z M1722.9,410.3c0-1-0.2-1.8-0.7-2.3c-0.5-0.6-1.2-0.8-2.1-0.8
		c-0.5,0-0.9,0.1-1.2,0.3c-0.4,0.2-0.6,0.4-0.9,0.7c-0.2,0.3-0.4,0.6-0.6,1c-0.1,0.4-0.2,0.8-0.2,1.2H1722.9z"/>
	<path fill="#919191" d="M1732.1,407c0,0.1,0,0.2,0,0.3c0,0.1,0,0.1,0,0.2c0,0,0,0.1-0.1,0.1c0,0-0.1,0-0.1,0c-0.1,0-0.1,0-0.2,0
		c-0.1,0-0.2-0.1-0.3-0.1c-0.1,0-0.2-0.1-0.4-0.1c-0.1,0-0.3,0-0.4,0c-0.2,0-0.4,0-0.5,0.1c-0.2,0.1-0.4,0.2-0.6,0.4
		c-0.2,0.2-0.4,0.4-0.6,0.7c-0.2,0.3-0.5,0.6-0.7,1.1v6.3c0,0,0,0.1,0,0.1c0,0-0.1,0.1-0.1,0.1c0,0-0.1,0-0.2,0.1
		c-0.1,0-0.2,0-0.3,0c-0.1,0-0.2,0-0.3,0c-0.1,0-0.1,0-0.2-0.1c0,0-0.1,0-0.1-0.1c0,0,0-0.1,0-0.1v-9.3c0,0,0-0.1,0-0.1
		c0,0,0-0.1,0.1-0.1c0,0,0.1,0,0.2-0.1c0.1,0,0.2,0,0.3,0s0.2,0,0.3,0c0.1,0,0.1,0,0.2,0.1c0,0,0.1,0.1,0.1,0.1c0,0,0,0.1,0,0.1v1.5
		c0.3-0.4,0.5-0.7,0.7-0.9s0.4-0.4,0.6-0.6c0.2-0.1,0.4-0.2,0.6-0.3c0.2,0,0.4-0.1,0.6-0.1c0.1,0,0.2,0,0.3,0c0.1,0,0.2,0,0.4,0.1
		c0.1,0,0.3,0.1,0.4,0.1c0.1,0,0.2,0.1,0.2,0.1c0,0,0.1,0.1,0.1,0.1c0,0,0,0.1,0,0.1c0,0,0,0.1,0,0.2
		C1732.1,406.8,1732.1,406.9,1732.1,407z"/>
	<path fill="#919191" d="M1740.3,415.8c0,0.1,0,0.1-0.1,0.2c0,0-0.1,0.1-0.2,0.1c-0.1,0-0.2,0-0.3,0c-0.1,0-0.2,0-0.3,0
		c-0.1,0-0.1,0-0.2-0.1c0,0-0.1-0.1-0.1-0.2v-1c-0.4,0.5-0.9,0.8-1.4,1c-0.5,0.2-1,0.4-1.6,0.4c-0.5,0-0.9-0.1-1.3-0.2
		c-0.4-0.1-0.7-0.3-1-0.5c-0.3-0.2-0.5-0.5-0.6-0.9c-0.1-0.3-0.2-0.7-0.2-1.1c0-0.5,0.1-1,0.3-1.3c0.2-0.4,0.5-0.7,0.9-0.9
		c0.4-0.3,0.9-0.4,1.4-0.6c0.5-0.1,1.2-0.2,1.8-0.2h1.5v-0.8c0-0.4,0-0.7-0.1-1.1c-0.1-0.3-0.2-0.6-0.4-0.8
		c-0.2-0.2-0.4-0.4-0.7-0.5c-0.3-0.1-0.7-0.2-1.1-0.2c-0.4,0-0.8,0-1.1,0.1c-0.3,0.1-0.6,0.2-0.9,0.3s-0.4,0.2-0.6,0.3
		c-0.2,0.1-0.3,0.1-0.3,0.1c0,0-0.1,0-0.1,0s-0.1,0-0.1-0.1c0,0,0-0.1-0.1-0.1c0-0.1,0-0.1,0-0.2c0-0.1,0-0.3,0-0.3
		c0-0.1,0.1-0.2,0.2-0.3c0.1-0.1,0.2-0.2,0.5-0.3s0.5-0.2,0.8-0.3c0.3-0.1,0.6-0.2,0.9-0.2c0.3-0.1,0.7-0.1,1-0.1
		c0.6,0,1.2,0.1,1.6,0.2c0.4,0.2,0.8,0.4,1.1,0.7c0.3,0.3,0.5,0.6,0.6,1.1c0.1,0.4,0.2,0.9,0.2,1.4V415.8z M1739.1,411.4h-1.7
		c-0.5,0-0.9,0-1.3,0.1s-0.7,0.2-0.9,0.4s-0.4,0.4-0.5,0.6c-0.1,0.2-0.2,0.5-0.2,0.8c0,0.5,0.2,1,0.5,1.3c0.3,0.3,0.8,0.5,1.4,0.5
		c0.5,0,0.9-0.1,1.4-0.4c0.4-0.2,0.9-0.6,1.3-1.2V411.4z"/>
	<path fill="#919191" d="M1751,406.3c0.2,0,0.3,0,0.3,0.1c0.1,0.1,0.1,0.2,0.1,0.3v9.1c0,0,0,0.1,0,0.1c0,0-0.1,0.1-0.1,0.1
		c0,0-0.1,0-0.2,0.1c-0.1,0-0.2,0-0.3,0c-0.1,0-0.2,0-0.3,0c-0.1,0-0.1,0-0.2-0.1c0,0-0.1,0-0.1-0.1c0,0,0-0.1,0-0.1v-8.5h-5.1v5.6
		c0,0.7,0.1,1.2,0.3,1.6c0.2,0.4,0.6,0.6,1.1,0.6c0.2,0,0.3,0,0.4-0.1c0.1,0,0.3-0.1,0.4-0.1s0.2-0.1,0.3-0.1c0.1,0,0.1-0.1,0.2-0.1
		c0,0,0.1,0,0.1,0c0,0,0,0,0.1,0.1c0,0,0,0.1,0,0.1c0,0.1,0,0.1,0,0.2c0,0.1,0,0.3,0,0.3c0,0.1-0.1,0.2-0.1,0.2
		c-0.1,0.1-0.1,0.1-0.2,0.1c-0.1,0-0.2,0.1-0.3,0.1c-0.1,0-0.3,0.1-0.4,0.1c-0.1,0-0.3,0-0.4,0c-0.5,0-0.8-0.1-1.2-0.2
		s-0.6-0.3-0.8-0.6c-0.2-0.2-0.4-0.6-0.4-0.9c-0.1-0.4-0.1-0.8-0.1-1.4v-5.8h-1.4c-0.1,0-0.2,0-0.2-0.1c-0.1-0.1-0.1-0.2-0.1-0.4
		c0-0.1,0-0.2,0-0.2c0-0.1,0-0.1,0.1-0.2c0,0,0.1-0.1,0.1-0.1c0,0,0.1,0,0.1,0h1.4V404c0,0,0-0.1,0-0.1c0,0,0-0.1,0.1-0.1
		c0,0,0.1,0,0.2-0.1c0.1,0,0.2,0,0.3,0c0.1,0,0.2,0,0.3,0c0.1,0,0.1,0,0.2,0.1c0,0,0.1,0.1,0.1,0.1c0,0,0,0.1,0,0.1v2.3H1751z
		 M1751.6,403.4c0,0.3-0.1,0.6-0.2,0.7c-0.1,0.1-0.3,0.2-0.6,0.2c-0.3,0-0.5-0.1-0.6-0.2c-0.1-0.1-0.2-0.3-0.2-0.7s0.1-0.5,0.2-0.7
		s0.3-0.2,0.6-0.2c0.3,0,0.5,0.1,0.6,0.2C1751.6,402.8,1751.6,403.1,1751.6,403.4z"/>
	<path fill="#919191" d="M1763.1,411.1c0,0.7-0.1,1.4-0.3,2c-0.2,0.6-0.5,1.2-0.9,1.6c-0.4,0.5-0.9,0.8-1.4,1.1
		c-0.6,0.3-1.2,0.4-2,0.4c-0.7,0-1.4-0.1-1.9-0.3c-0.5-0.2-1-0.6-1.4-1c-0.4-0.4-0.6-0.9-0.8-1.6c-0.2-0.6-0.3-1.3-0.3-2.1
		c0-0.7,0.1-1.4,0.3-2c0.2-0.6,0.5-1.2,0.9-1.6c0.4-0.5,0.9-0.8,1.4-1.1c0.6-0.3,1.2-0.4,2-0.4c0.7,0,1.4,0.1,1.9,0.3
		c0.5,0.2,1,0.6,1.4,1c0.4,0.4,0.6,0.9,0.8,1.6C1763,409.6,1763.1,410.3,1763.1,411.1z M1761.8,411.2c0-0.5-0.1-1-0.2-1.5
		c-0.1-0.5-0.3-0.9-0.5-1.3c-0.2-0.4-0.6-0.7-1-0.9c-0.4-0.2-0.9-0.3-1.5-0.3c-0.6,0-1,0.1-1.4,0.3c-0.4,0.2-0.7,0.5-1,0.8
		c-0.3,0.4-0.4,0.8-0.6,1.2s-0.2,1-0.2,1.5c0,0.5,0.1,1,0.2,1.5c0.1,0.5,0.3,0.9,0.5,1.3c0.2,0.4,0.6,0.6,1,0.9s0.9,0.3,1.5,0.3
		c0.6,0,1-0.1,1.4-0.3s0.7-0.5,1-0.8c0.3-0.3,0.4-0.8,0.6-1.2S1761.8,411.7,1761.8,411.2z"/>
	<path fill="#919191" d="M1773.3,415.8c0,0,0,0.1,0,0.1c0,0-0.1,0.1-0.1,0.1c0,0-0.1,0-0.2,0.1c-0.1,0-0.2,0-0.3,0
		c-0.1,0-0.2,0-0.3,0c-0.1,0-0.1,0-0.2-0.1c0,0-0.1,0-0.1-0.1c0,0,0-0.1,0-0.1v-5.5c0-0.6,0-1-0.1-1.4c-0.1-0.4-0.2-0.7-0.4-0.9
		c-0.2-0.3-0.4-0.5-0.7-0.6c-0.3-0.1-0.6-0.2-1-0.2c-0.5,0-0.9,0.2-1.4,0.5c-0.5,0.3-1,0.8-1.5,1.5v6.7c0,0,0,0.1,0,0.1
		c0,0-0.1,0.1-0.1,0.1c0,0-0.1,0-0.2,0.1c-0.1,0-0.2,0-0.3,0c-0.1,0-0.2,0-0.3,0c-0.1,0-0.1,0-0.2-0.1c0,0-0.1,0-0.1-0.1
		c0,0,0-0.1,0-0.1v-9.3c0,0,0-0.1,0-0.1c0,0,0-0.1,0.1-0.1c0,0,0.1,0,0.2-0.1c0.1,0,0.2,0,0.3,0s0.2,0,0.3,0c0.1,0,0.1,0,0.2,0.1
		c0,0,0.1,0.1,0.1,0.1c0,0,0,0.1,0,0.1v1.3c0.5-0.6,1.1-1,1.6-1.3c0.5-0.3,1-0.4,1.5-0.4c0.6,0,1.1,0.1,1.5,0.3s0.8,0.5,1,0.8
		c0.3,0.3,0.4,0.8,0.6,1.2c0.1,0.5,0.2,1,0.2,1.7V415.8z"/>
	<path fill="#919191" d="M1421.1,425.4c0,0.3-0.1,0.6-0.2,0.7c-0.1,0.1-0.3,0.2-0.6,0.2c-0.3,0-0.5-0.1-0.6-0.2
		c-0.1-0.1-0.2-0.3-0.2-0.7s0.1-0.5,0.2-0.7s0.3-0.2,0.6-0.2c0.3,0,0.5,0.1,0.6,0.2C1421.1,424.8,1421.1,425.1,1421.1,425.4z
		 M1420.9,437.8c0,0,0,0.1,0,0.1c0,0-0.1,0.1-0.1,0.1c0,0-0.1,0-0.2,0.1c-0.1,0-0.2,0-0.3,0c-0.1,0-0.2,0-0.3,0
		c-0.1,0-0.1,0-0.2-0.1c0,0-0.1,0-0.1-0.1c0,0,0-0.1,0-0.1v-9.3c0,0,0-0.1,0-0.1c0,0,0-0.1,0.1-0.1c0,0,0.1,0,0.2-0.1
		c0.1,0,0.2,0,0.3,0c0.1,0,0.2,0,0.3,0c0.1,0,0.1,0,0.2,0.1c0,0,0.1,0.1,0.1,0.1c0,0,0,0.1,0,0.1V437.8z"/>
	<path fill="#919191" d="M1431.9,437.8c0,0,0,0.1,0,0.1c0,0-0.1,0.1-0.1,0.1c0,0-0.1,0-0.2,0.1c-0.1,0-0.2,0-0.3,0
		c-0.1,0-0.2,0-0.3,0c-0.1,0-0.1,0-0.2-0.1c0,0-0.1,0-0.1-0.1c0,0,0-0.1,0-0.1v-5.5c0-0.6,0-1-0.1-1.4c-0.1-0.4-0.2-0.7-0.4-0.9
		c-0.2-0.3-0.4-0.5-0.7-0.6c-0.3-0.1-0.6-0.2-1-0.2c-0.5,0-0.9,0.2-1.4,0.5c-0.5,0.3-1,0.8-1.5,1.5v6.7c0,0,0,0.1,0,0.1
		c0,0-0.1,0.1-0.1,0.1c0,0-0.1,0-0.2,0.1c-0.1,0-0.2,0-0.3,0c-0.1,0-0.2,0-0.3,0c-0.1,0-0.1,0-0.2-0.1c0,0-0.1,0-0.1-0.1
		c0,0,0-0.1,0-0.1v-9.3c0,0,0-0.1,0-0.1c0,0,0-0.1,0.1-0.1c0,0,0.1,0,0.2-0.1c0.1,0,0.2,0,0.3,0s0.2,0,0.3,0c0.1,0,0.1,0,0.2,0.1
		c0,0,0.1,0.1,0.1,0.1c0,0,0,0.1,0,0.1v1.3c0.5-0.6,1.1-1,1.6-1.3c0.5-0.3,1-0.4,1.5-0.4c0.6,0,1.1,0.1,1.5,0.3s0.8,0.5,1,0.8
		c0.3,0.3,0.4,0.8,0.6,1.2c0.1,0.5,0.2,1,0.2,1.7V437.8z"/>
	<path fill="#919191" d="M1449.4,437.8c0,0,0,0.1,0,0.1c0,0-0.1,0.1-0.1,0.1c0,0-0.1,0-0.2,0.1s-0.2,0-0.3,0c-0.1,0-0.2,0-0.3,0
		c-0.1,0-0.1,0-0.2-0.1c0,0-0.1,0-0.1-0.1c0,0,0-0.1,0-0.1v-6.2h-6.6v6.2c0,0,0,0.1,0,0.1c0,0-0.1,0.1-0.1,0.1c0,0-0.1,0-0.2,0.1
		c-0.1,0-0.2,0-0.3,0c-0.1,0-0.2,0-0.3,0s-0.1,0-0.2-0.1c0,0-0.1,0-0.1-0.1c0,0,0-0.1,0-0.1v-12.9c0,0,0-0.1,0-0.1
		c0,0,0.1-0.1,0.1-0.1c0,0,0.1,0,0.2-0.1s0.2,0,0.3,0c0.1,0,0.2,0,0.3,0c0.1,0,0.1,0,0.2,0.1c0,0,0.1,0,0.1,0.1c0,0,0,0.1,0,0.1v5.6
		h6.6v-5.6c0,0,0-0.1,0-0.1c0,0,0.1-0.1,0.1-0.1c0,0,0.1,0,0.2-0.1c0.1,0,0.2,0,0.3,0c0.1,0,0.2,0,0.3,0s0.1,0,0.2,0.1
		c0,0,0.1,0,0.1,0.1c0,0,0,0.1,0,0.1V437.8z"/>
	<path fill="#919191" d="M1461.2,433.1c0,0.7-0.1,1.4-0.3,2c-0.2,0.6-0.5,1.2-0.9,1.6c-0.4,0.5-0.9,0.8-1.4,1.1
		c-0.6,0.3-1.2,0.4-2,0.4c-0.7,0-1.4-0.1-1.9-0.3c-0.5-0.2-1-0.6-1.4-1c-0.4-0.4-0.6-0.9-0.8-1.6c-0.2-0.6-0.3-1.3-0.3-2.1
		c0-0.7,0.1-1.4,0.3-2c0.2-0.6,0.5-1.2,0.9-1.6c0.4-0.5,0.9-0.8,1.4-1.1c0.6-0.3,1.2-0.4,2-0.4c0.7,0,1.4,0.1,1.9,0.3
		c0.5,0.2,1,0.6,1.4,1c0.4,0.4,0.6,0.9,0.8,1.6C1461.1,431.6,1461.2,432.3,1461.2,433.1z M1459.9,433.2c0-0.5-0.1-1-0.2-1.5
		c-0.1-0.5-0.3-0.9-0.5-1.3c-0.2-0.4-0.6-0.7-1-0.9c-0.4-0.2-0.9-0.3-1.5-0.3c-0.6,0-1,0.1-1.4,0.3c-0.4,0.2-0.7,0.5-1,0.8
		c-0.3,0.4-0.4,0.8-0.6,1.2s-0.2,1-0.2,1.5c0,0.5,0.1,1,0.2,1.5c0.1,0.5,0.3,0.9,0.5,1.3c0.2,0.4,0.6,0.6,1,0.9s0.9,0.3,1.5,0.3
		c0.6,0,1-0.1,1.4-0.3s0.7-0.5,1-0.8c0.3-0.3,0.4-0.8,0.6-1.2S1459.9,433.7,1459.9,433.2z"/>
	<path fill="#919191" d="M1471.5,437.8c0,0,0,0.1,0,0.1c0,0-0.1,0.1-0.1,0.1c0,0-0.1,0-0.2,0.1c-0.1,0-0.2,0-0.3,0
		c-0.1,0-0.2,0-0.3,0c-0.1,0-0.1,0-0.2-0.1c0,0-0.1,0-0.1-0.1c0,0,0-0.1,0-0.1v-5.5c0-0.6,0-1-0.1-1.4c-0.1-0.4-0.2-0.7-0.4-0.9
		c-0.2-0.3-0.4-0.5-0.7-0.6c-0.3-0.1-0.6-0.2-1-0.2c-0.5,0-0.9,0.2-1.4,0.5c-0.5,0.3-1,0.8-1.5,1.5v6.7c0,0,0,0.1,0,0.1
		c0,0-0.1,0.1-0.1,0.1c0,0-0.1,0-0.2,0.1c-0.1,0-0.2,0-0.3,0c-0.1,0-0.2,0-0.3,0c-0.1,0-0.1,0-0.2-0.1c0,0-0.1,0-0.1-0.1
		c0,0,0-0.1,0-0.1v-9.3c0,0,0-0.1,0-0.1c0,0,0-0.1,0.1-0.1c0,0,0.1,0,0.2-0.1c0.1,0,0.2,0,0.3,0s0.2,0,0.3,0c0.1,0,0.1,0,0.2,0.1
		c0,0,0.1,0.1,0.1,0.1c0,0,0,0.1,0,0.1v1.3c0.5-0.6,1.1-1,1.6-1.3c0.5-0.3,1-0.4,1.5-0.4c0.6,0,1.1,0.1,1.5,0.3s0.8,0.5,1,0.8
		c0.3,0.3,0.4,0.8,0.6,1.2c0.1,0.5,0.2,1,0.2,1.7V437.8z"/>
	<path fill="#919191" d="M1482.3,428.8c0,0.2,0,0.3-0.1,0.4c-0.1,0.1-0.1,0.1-0.2,0.1h-1.5c0.3,0.3,0.5,0.6,0.6,1
		c0.1,0.3,0.2,0.7,0.2,1.1c0,0.5-0.1,1-0.3,1.4c-0.2,0.4-0.4,0.8-0.7,1c-0.3,0.3-0.7,0.5-1.1,0.7c-0.4,0.2-0.9,0.2-1.4,0.2
		c-0.4,0-0.8-0.1-1.2-0.2s-0.7-0.3-0.9-0.4c-0.1,0.1-0.2,0.3-0.3,0.5c-0.1,0.2-0.1,0.4-0.1,0.6c0,0.3,0.1,0.5,0.4,0.7
		c0.2,0.2,0.6,0.3,1,0.3l2.5,0.1c0.4,0,0.8,0.1,1.2,0.2c0.4,0.1,0.7,0.3,1,0.5c0.3,0.2,0.5,0.4,0.7,0.7s0.2,0.6,0.2,1
		c0,0.4-0.1,0.8-0.3,1.2c-0.2,0.4-0.4,0.7-0.8,1c-0.4,0.3-0.8,0.5-1.3,0.7c-0.5,0.2-1.2,0.3-2,0.3c-0.7,0-1.3-0.1-1.9-0.2
		c-0.5-0.1-0.9-0.3-1.3-0.5c-0.3-0.2-0.6-0.5-0.7-0.8c-0.1-0.3-0.2-0.6-0.2-1c0-0.2,0-0.5,0.1-0.7c0.1-0.2,0.1-0.4,0.3-0.6
		c0.1-0.2,0.3-0.4,0.4-0.6c0.2-0.2,0.4-0.4,0.6-0.5c-0.3-0.2-0.6-0.4-0.8-0.6c-0.2-0.3-0.2-0.5-0.2-0.8c0-0.4,0.1-0.8,0.2-1.1
		c0.2-0.3,0.4-0.6,0.6-0.9c-0.2-0.3-0.4-0.5-0.5-0.9c-0.1-0.3-0.2-0.7-0.2-1.1c0-0.5,0.1-1,0.3-1.4c0.2-0.4,0.4-0.8,0.7-1.1
		c0.3-0.3,0.7-0.5,1.1-0.7c0.4-0.2,0.9-0.2,1.4-0.2c0.3,0,0.5,0,0.8,0c0.2,0,0.5,0.1,0.7,0.1h2.7c0.1,0,0.2,0,0.3,0.1
		C1482.3,428.5,1482.3,428.7,1482.3,428.8z M1481,438.7c0-0.5-0.2-0.8-0.5-1c-0.4-0.2-0.9-0.4-1.5-0.4l-2.7-0.1
		c-0.2,0.2-0.4,0.4-0.6,0.5c-0.2,0.2-0.3,0.3-0.4,0.5c-0.1,0.2-0.2,0.3-0.2,0.5c0,0.2-0.1,0.3-0.1,0.5c0,0.5,0.3,0.9,0.8,1.1
		c0.5,0.3,1.2,0.4,2.1,0.4c0.6,0,1.1-0.1,1.4-0.2c0.4-0.1,0.7-0.3,0.9-0.4c0.2-0.2,0.4-0.4,0.5-0.6
		C1480.9,439.2,1481,439,1481,438.7z M1480,431.4c0-0.7-0.2-1.3-0.6-1.7c-0.4-0.4-0.9-0.6-1.6-0.6c-0.4,0-0.7,0.1-1,0.2
		c-0.3,0.1-0.5,0.3-0.7,0.5c-0.2,0.2-0.3,0.5-0.4,0.7c-0.1,0.3-0.1,0.6-0.1,0.9c0,0.7,0.2,1.2,0.6,1.6c0.4,0.4,0.9,0.6,1.6,0.6
		c0.4,0,0.7-0.1,1-0.2c0.3-0.1,0.5-0.3,0.7-0.5c0.2-0.2,0.3-0.5,0.4-0.7C1480,432,1480,431.7,1480,431.4z"/>
	<path fill="#919191" d="M1497.8,437.8c0,0,0,0.1,0,0.1c0,0,0,0.1-0.1,0.1c0,0-0.1,0-0.2,0.1s-0.2,0-0.3,0c-0.1,0-0.2,0-0.4,0
		c-0.1,0-0.2,0-0.3-0.1c-0.1,0-0.1-0.1-0.2-0.2l-5.4-6.8v6.8c0,0,0,0.1,0,0.1c0,0-0.1,0.1-0.1,0.1c0,0-0.1,0-0.2,0.1
		c-0.1,0-0.2,0-0.3,0c-0.1,0-0.2,0-0.3,0s-0.1,0-0.2-0.1c0,0-0.1,0-0.1-0.1c0,0,0-0.1,0-0.1v-12.9c0,0,0-0.1,0-0.1
		c0,0,0.1-0.1,0.1-0.1c0,0,0.1,0,0.2-0.1s0.2,0,0.3,0c0.1,0,0.2,0,0.3,0c0.1,0,0.1,0,0.2,0.1c0,0,0.1,0,0.1,0.1c0,0,0,0.1,0,0.1v6
		l5.1-6c0,0,0.1-0.1,0.1-0.1s0.1-0.1,0.2-0.1c0.1,0,0.1,0,0.2,0c0.1,0,0.2,0,0.3,0s0.2,0,0.3,0s0.1,0,0.2,0.1c0,0,0.1,0.1,0.1,0.1
		c0,0,0,0.1,0,0.1c0,0.1,0,0.1-0.1,0.2c0,0.1-0.1,0.2-0.2,0.2l-4.8,5.5l5.2,6.5c0.1,0.1,0.2,0.2,0.2,0.3S1497.8,437.7,1497.8,437.8z
		"/>
	<path fill="#919191" d="M1507.9,433.1c0,0.7-0.1,1.4-0.3,2c-0.2,0.6-0.5,1.2-0.9,1.6c-0.4,0.5-0.9,0.8-1.4,1.1
		c-0.6,0.3-1.2,0.4-2,0.4c-0.7,0-1.4-0.1-1.9-0.3c-0.5-0.2-1-0.6-1.4-1c-0.4-0.4-0.6-0.9-0.8-1.6c-0.2-0.6-0.3-1.3-0.3-2.1
		c0-0.7,0.1-1.4,0.3-2c0.2-0.6,0.5-1.2,0.9-1.6c0.4-0.5,0.9-0.8,1.4-1.1c0.6-0.3,1.2-0.4,2-0.4c0.7,0,1.4,0.1,1.9,0.3
		c0.5,0.2,1,0.6,1.4,1c0.4,0.4,0.6,0.9,0.8,1.6C1507.8,431.6,1507.9,432.3,1507.9,433.1z M1506.6,433.2c0-0.5-0.1-1-0.2-1.5
		c-0.1-0.5-0.3-0.9-0.5-1.3c-0.2-0.4-0.6-0.7-1-0.9c-0.4-0.2-0.9-0.3-1.5-0.3c-0.6,0-1,0.1-1.4,0.3c-0.4,0.2-0.7,0.5-1,0.8
		c-0.3,0.4-0.4,0.8-0.6,1.2s-0.2,1-0.2,1.5c0,0.5,0.1,1,0.2,1.5c0.1,0.5,0.3,0.9,0.5,1.3c0.2,0.4,0.6,0.6,1,0.9s0.9,0.3,1.5,0.3
		c0.6,0,1-0.1,1.4-0.3s0.7-0.5,1-0.8c0.3-0.3,0.4-0.8,0.6-1.2S1506.6,433.7,1506.6,433.2z"/>
	<path fill="#919191" d="M1518.1,437.8c0,0,0,0.1,0,0.1c0,0-0.1,0.1-0.1,0.1c0,0-0.1,0-0.2,0.1c-0.1,0-0.2,0-0.3,0
		c-0.1,0-0.2,0-0.3,0c-0.1,0-0.1,0-0.2-0.1c0,0-0.1,0-0.1-0.1c0,0,0-0.1,0-0.1v-5.5c0-0.6,0-1-0.1-1.4c-0.1-0.4-0.2-0.7-0.4-0.9
		c-0.2-0.3-0.4-0.5-0.7-0.6c-0.3-0.1-0.6-0.2-1-0.2c-0.5,0-0.9,0.2-1.4,0.5c-0.5,0.3-1,0.8-1.5,1.5v6.7c0,0,0,0.1,0,0.1
		c0,0-0.1,0.1-0.1,0.1c0,0-0.1,0-0.2,0.1c-0.1,0-0.2,0-0.3,0c-0.1,0-0.2,0-0.3,0c-0.1,0-0.1,0-0.2-0.1c0,0-0.1,0-0.1-0.1
		c0,0,0-0.1,0-0.1v-9.3c0,0,0-0.1,0-0.1c0,0,0-0.1,0.1-0.1c0,0,0.1,0,0.2-0.1c0.1,0,0.2,0,0.3,0s0.2,0,0.3,0c0.1,0,0.1,0,0.2,0.1
		c0,0,0.1,0.1,0.1,0.1c0,0,0,0.1,0,0.1v1.3c0.5-0.6,1.1-1,1.6-1.3c0.5-0.3,1-0.4,1.5-0.4c0.6,0,1.1,0.1,1.5,0.3s0.8,0.5,1,0.8
		c0.3,0.3,0.4,0.8,0.6,1.2c0.1,0.5,0.2,1,0.2,1.7V437.8z"/>
	<path fill="#919191" d="M1528.9,428.8c0,0.2,0,0.3-0.1,0.4c-0.1,0.1-0.1,0.1-0.2,0.1h-1.5c0.3,0.3,0.5,0.6,0.6,1
		c0.1,0.3,0.2,0.7,0.2,1.1c0,0.5-0.1,1-0.3,1.4c-0.2,0.4-0.4,0.8-0.7,1c-0.3,0.3-0.7,0.5-1.1,0.7c-0.4,0.2-0.9,0.2-1.4,0.2
		c-0.4,0-0.8-0.1-1.2-0.2s-0.7-0.3-0.9-0.4c-0.1,0.1-0.2,0.3-0.3,0.5c-0.1,0.2-0.1,0.4-0.1,0.6c0,0.3,0.1,0.5,0.4,0.7
		c0.2,0.2,0.6,0.3,1,0.3l2.5,0.1c0.4,0,0.8,0.1,1.2,0.2c0.4,0.1,0.7,0.3,1,0.5c0.3,0.2,0.5,0.4,0.7,0.7s0.2,0.6,0.2,1
		c0,0.4-0.1,0.8-0.3,1.2c-0.2,0.4-0.4,0.7-0.8,1c-0.4,0.3-0.8,0.5-1.3,0.7c-0.5,0.2-1.2,0.3-2,0.3c-0.7,0-1.3-0.1-1.9-0.2
		c-0.5-0.1-0.9-0.3-1.3-0.5c-0.3-0.2-0.6-0.5-0.7-0.8c-0.1-0.3-0.2-0.6-0.2-1c0-0.2,0-0.5,0.1-0.7c0.1-0.2,0.1-0.4,0.3-0.6
		c0.1-0.2,0.3-0.4,0.4-0.6c0.2-0.2,0.4-0.4,0.6-0.5c-0.3-0.2-0.6-0.4-0.8-0.6c-0.2-0.3-0.2-0.5-0.2-0.8c0-0.4,0.1-0.8,0.2-1.1
		c0.2-0.3,0.4-0.6,0.6-0.9c-0.2-0.3-0.4-0.5-0.5-0.9c-0.1-0.3-0.2-0.7-0.2-1.1c0-0.5,0.1-1,0.3-1.4c0.2-0.4,0.4-0.8,0.7-1.1
		c0.3-0.3,0.7-0.5,1.1-0.7c0.4-0.2,0.9-0.2,1.4-0.2c0.3,0,0.5,0,0.8,0c0.2,0,0.5,0.1,0.7,0.1h2.7c0.1,0,0.2,0,0.3,0.1
		C1528.9,428.5,1528.9,428.7,1528.9,428.8z M1527.6,438.7c0-0.5-0.2-0.8-0.5-1c-0.4-0.2-0.9-0.4-1.5-0.4l-2.7-0.1
		c-0.2,0.2-0.4,0.4-0.6,0.5c-0.2,0.2-0.3,0.3-0.4,0.5c-0.1,0.2-0.2,0.3-0.2,0.5c0,0.2-0.1,0.3-0.1,0.5c0,0.5,0.3,0.9,0.8,1.1
		c0.5,0.3,1.2,0.4,2.1,0.4c0.6,0,1.1-0.1,1.4-0.2c0.4-0.1,0.7-0.3,0.9-0.4c0.2-0.2,0.4-0.4,0.5-0.6
		C1527.6,439.2,1527.6,439,1527.6,438.7z M1526.7,431.4c0-0.7-0.2-1.3-0.6-1.7c-0.4-0.4-0.9-0.6-1.6-0.6c-0.4,0-0.7,0.1-1,0.2
		c-0.3,0.1-0.5,0.3-0.7,0.5c-0.2,0.2-0.3,0.5-0.4,0.7c-0.1,0.3-0.1,0.6-0.1,0.9c0,0.7,0.2,1.2,0.6,1.6c0.4,0.4,0.9,0.6,1.6,0.6
		c0.4,0,0.7-0.1,1-0.2c0.3-0.1,0.5-0.3,0.7-0.5c0.2-0.2,0.3-0.5,0.4-0.7C1526.6,432,1526.7,431.7,1526.7,431.4z"/>
</g>
<g>
	<g>
		<path fill="#1B264C" d="M1434.4,358h-2.2l-4.1-12.8l-3.7,16.6h-1.9l4.5-19.9h1.8l4.7,14.4l9.5-14.4h2l-2.5,19.9h-1.9l2-16.4
			L1434.4,358z"/>
	</g>
	<g>
		<path fill="#1B264C" d="M1460.1,353c0,1.1-0.2,2.1-0.5,3.2c-0.3,1.1-0.8,2.1-1.5,2.9c-0.7,0.8-1.5,1.6-2.4,2.1
			c-1,0.5-2,0.8-3.3,0.8c-0.9,0-1.7-0.1-2.3-0.5c-0.7-0.3-1.2-0.7-1.7-1.2c-0.5-0.5-0.8-1.1-1-1.8c-0.2-0.7-0.3-1.4-0.3-2.2
			c0-1.1,0.2-2.2,0.5-3.3c0.3-1.1,0.8-2.1,1.5-2.9c0.6-0.9,1.4-1.6,2.4-2.1c0.9-0.5,2-0.8,3.3-0.8c0.9,0,1.7,0.2,2.4,0.5
			c0.7,0.3,1.2,0.7,1.7,1.3c0.5,0.5,0.8,1.1,1,1.8C1460,351.5,1460.1,352.2,1460.1,353z M1452.6,360.6c0.9,0,1.6-0.2,2.3-0.7
			c0.7-0.4,1.3-1,1.7-1.7c0.5-0.7,0.9-1.5,1.1-2.4c0.3-0.9,0.4-1.8,0.4-2.7c0-0.6-0.1-1.2-0.2-1.7s-0.4-1-0.7-1.4
			c-0.3-0.4-0.7-0.7-1.1-0.9c-0.5-0.2-1-0.3-1.6-0.3c-0.8,0-1.6,0.2-2.3,0.6c-0.7,0.4-1.2,1-1.7,1.7c-0.5,0.7-0.8,1.5-1.1,2.4
			c-0.3,0.9-0.4,1.8-0.4,2.8c0,0.6,0.1,1.2,0.2,1.7s0.3,1,0.6,1.4s0.6,0.7,1.1,0.9C1451.4,360.5,1452,360.6,1452.6,360.6z"/>
	</g>
	<g>
		<path fill="#1B264C" d="M1462.9,347.6h2.7l0.7-3.9h2l-0.7,3.9h4.7l-0.3,1.6h-4.7l-1.5,8.4c0,0.2-0.1,0.3-0.1,0.5
			c0,0.2,0,0.4,0,0.5c0,0.6,0.1,1.1,0.4,1.5c0.3,0.4,0.8,0.5,1.5,0.5c0.5,0,1-0.1,1.5-0.2c0.5-0.1,0.9-0.3,1.3-0.5l0.2,1.5
			c-0.4,0.2-0.9,0.4-1.5,0.5c-0.6,0.1-1.2,0.2-1.8,0.2c-1.2,0-2.2-0.3-2.7-0.9c-0.6-0.6-0.9-1.5-0.9-2.6c0-0.2,0-0.4,0-0.6
			c0-0.2,0-0.4,0.1-0.5l1.5-8.4h-2.7L1462.9,347.6z"/>
	</g>
	<g>
		<path fill="#1B264C" d="M1473.2,361.8l2.5-14.3h1.9l-2.5,14.3H1473.2z M1476.1,343.4c0-0.4,0.1-0.8,0.4-1.1
			c0.3-0.3,0.7-0.5,1.2-0.5c0.4,0,0.7,0.1,0.9,0.3c0.2,0.2,0.3,0.5,0.3,0.9s-0.1,0.8-0.5,1.1c-0.3,0.3-0.7,0.4-1.1,0.4
			s-0.7-0.1-0.9-0.3C1476.2,344,1476.1,343.7,1476.1,343.4z"/>
	</g>
	<g>
		<path fill="#1B264C" d="M1493,353c0,1.1-0.2,2.1-0.5,3.2c-0.3,1.1-0.8,2.1-1.5,2.9c-0.7,0.8-1.5,1.6-2.4,2.1c-1,0.5-2,0.8-3.3,0.8
			c-0.9,0-1.7-0.1-2.3-0.5c-0.7-0.3-1.2-0.7-1.7-1.2s-0.8-1.1-1-1.8c-0.2-0.7-0.3-1.4-0.3-2.2c0-1.1,0.2-2.2,0.5-3.3
			c0.3-1.1,0.8-2.1,1.5-2.9c0.6-0.9,1.4-1.6,2.4-2.1c0.9-0.5,2-0.8,3.3-0.8c0.9,0,1.7,0.2,2.4,0.5c0.7,0.3,1.2,0.7,1.7,1.3
			c0.5,0.5,0.8,1.1,1,1.8C1492.8,351.5,1493,352.2,1493,353z M1485.5,360.6c0.9,0,1.6-0.2,2.3-0.7c0.7-0.4,1.3-1,1.7-1.7
			c0.5-0.7,0.9-1.5,1.1-2.4c0.3-0.9,0.4-1.8,0.4-2.7c0-0.6-0.1-1.2-0.2-1.7c-0.1-0.5-0.4-1-0.7-1.4c-0.3-0.4-0.7-0.7-1.1-0.9
			c-0.5-0.2-1-0.3-1.6-0.3c-0.8,0-1.6,0.2-2.3,0.6s-1.2,1-1.7,1.7c-0.5,0.7-0.8,1.5-1.1,2.4s-0.4,1.8-0.4,2.8c0,0.6,0.1,1.2,0.2,1.7
			c0.1,0.5,0.3,1,0.6,1.4c0.3,0.4,0.6,0.7,1.1,0.9C1484.3,360.5,1484.8,360.6,1485.5,360.6z"/>
	</g>
	<g>
		<path fill="#1B264C" d="M1495.1,361.8l2.5-14.3h1.9l-0.7,4.1c0.3-0.6,0.6-1.1,1-1.6c0.4-0.5,0.8-1,1.2-1.4c0.5-0.4,1-0.7,1.5-1
			s1.2-0.4,1.8-0.4c0.6,0,1.2,0.1,1.6,0.4c0.5,0.2,0.8,0.6,1.1,1c0.3,0.4,0.5,0.9,0.7,1.5c0.1,0.6,0.2,1.2,0.2,1.9
			c0,0.3,0,0.7,0,1.1s-0.1,0.8-0.2,1.2l-1.3,7.5h-2l1.3-7.3c0.1-0.8,0.2-1.5,0.2-2.3c0-1-0.2-1.8-0.5-2.4c-0.3-0.6-0.9-1-1.7-1
			c-0.5,0-1,0.2-1.5,0.5s-1,0.7-1.5,1.2s-0.9,1.1-1.3,1.8s-0.8,1.3-1.2,2l-1.3,7.5C1496.9,361.8,1495.1,361.8,1495.1,361.8z"/>
	</g>
	<g>
		<path fill="#1B264C" d="M1529.2,341.6c1.2,0,2.3,0.1,3.5,0.3c1.2,0.2,2.2,0.6,3.2,1.1l-0.5,1.6c-1.1-0.5-2.1-0.9-3.2-1.1
			c-1.1-0.2-2.1-0.3-3.1-0.3c-1.5,0-2.8,0.3-3.9,0.8c-1.2,0.5-2.1,1.2-2.9,2.1c-0.8,0.9-1.4,2-1.8,3.2s-0.6,2.5-0.6,3.9
			c0,2.4,0.7,4.2,2,5.5c1.3,1.3,3.2,2,5.8,2c0.6,0,1.3,0,1.9-0.1s1.2-0.2,1.8-0.3l1.2-6.8h1.9l-1.4,7.9c-0.4,0.1-0.8,0.2-1.2,0.3
			c-0.5,0.1-0.9,0.2-1.4,0.3s-1,0.1-1.5,0.2c-0.5,0-1,0.1-1.4,0.1c-1.5,0-2.8-0.2-4-0.7c-1.2-0.4-2.2-1.1-3-1.9s-1.4-1.7-1.8-2.9
			c-0.4-1.2-0.6-2.3-0.6-3.6c0-1.6,0.2-3.1,0.7-4.5c0.5-1.4,1.2-2.6,2.1-3.7c1-1.1,2.1-1.9,3.5-2.5
			C1525.7,341.9,1527.4,341.6,1529.2,341.6z"/>
	</g>
	<g>
		<path fill="#1B264C" d="M1546.5,349.3c-0.1,0-0.2,0-0.4,0c-1.3,0-2.3,0.5-3.2,1.4s-1.6,2.3-2.3,3.9l-1.3,7.3h-2l2.5-14.3h1.9
			l-0.8,4.5c0.2-0.6,0.4-1.2,0.7-1.8c0.3-0.5,0.6-1,1-1.4c0.4-0.4,0.8-0.7,1.3-1c0.5-0.2,1.1-0.4,1.7-0.4c0.1,0,0.3,0,0.5,0
			s0.3,0,0.4,0.1L1546.5,349.3z"/>
	</g>
	<g>
		<path fill="#1B264C" d="M1557.2,361.8h-1.9l1-5.6c-0.3,0.6-0.6,1.2-1,1.9c-0.4,0.7-0.8,1.3-1.3,1.9c-0.5,0.6-1,1.1-1.6,1.5
			c-0.6,0.4-1.2,0.6-1.9,0.6c-0.6,0-1.2-0.1-1.6-0.4c-0.4-0.3-0.8-0.6-1.1-1.1s-0.5-1-0.6-1.6c-0.1-0.6-0.2-1.2-0.2-1.9
			c0-1.3,0.2-2.5,0.5-3.7c0.3-1.2,0.9-2.2,1.6-3.2c0.7-0.9,1.5-1.7,2.6-2.2c1-0.6,2.2-0.8,3.6-0.8c0.8,0,1.6,0.1,2.4,0.2
			c0.8,0.2,1.5,0.4,2.1,0.6L1557.2,361.8z M1550.7,360.6c0.6,0,1.2-0.3,1.8-0.9c0.6-0.6,1.2-1.3,1.8-2.2c0.6-0.9,1.1-1.8,1.6-2.8
			c0.5-1,0.9-2,1.3-2.9l0.5-2.7c-0.7-0.2-1.5-0.3-2.4-0.3c-1,0-1.9,0.2-2.7,0.7c-0.8,0.5-1.4,1.1-2,1.8c-0.5,0.8-0.9,1.7-1.2,2.7
			c-0.3,1-0.4,2.1-0.4,3.1c0,0.5,0,0.9,0.1,1.3s0.2,0.8,0.3,1.1c0.1,0.3,0.3,0.6,0.5,0.8C1550,360.5,1550.3,360.6,1550.7,360.6z"/>
	</g>
	<g>
		<path fill="#1B264C" d="M1564.5,347.6h1.9l-0.8,4.5c0.3-0.6,0.7-1.2,1.1-1.7c0.4-0.6,0.8-1.1,1.3-1.5c0.5-0.4,1-0.8,1.6-1.1
			c0.6-0.3,1.2-0.4,1.9-0.4c0.6,0,1.1,0.1,1.6,0.4c0.5,0.3,0.9,0.6,1.2,1.1c0.3,0.5,0.5,1,0.7,1.6c0.2,0.6,0.2,1.3,0.2,1.9
			c0,1.3-0.2,2.5-0.5,3.7c-0.3,1.2-0.9,2.2-1.5,3.1c-0.6,0.9-1.5,1.6-2.5,2.2c-1,0.6-2.2,0.8-3.6,0.8c-0.5,0-1.1,0-1.6-0.1
			s-1-0.2-1.5-0.4l-1.1,6.4h-2L1564.5,347.6z M1571.1,348.9c-0.5,0-1.1,0.2-1.6,0.6c-0.6,0.4-1.1,0.9-1.6,1.5
			c-0.5,0.6-1,1.3-1.5,2.1c-0.5,0.8-0.9,1.5-1.3,2.3l-0.9,4.9c0.4,0.2,0.8,0.3,1.3,0.4s0.9,0.1,1.4,0.1c1.1,0,2-0.2,2.9-0.7
			c0.8-0.5,1.5-1.1,2-1.8c0.5-0.7,0.9-1.6,1.1-2.6c0.2-1,0.4-2,0.4-3c0-0.4,0-0.9-0.1-1.3c-0.1-0.4-0.2-0.8-0.4-1.2
			c-0.2-0.3-0.4-0.6-0.7-0.8C1571.8,349,1571.5,348.9,1571.1,348.9z"/>
	</g>
	<g>
		<path fill="#1B264C" d="M1577.4,361.8l3.7-21.1h2l-1.9,10.9c0.3-0.5,0.6-1.1,0.9-1.6c0.3-0.5,0.8-1,1.2-1.4c0.5-0.4,1-0.7,1.5-1
			c0.6-0.2,1.2-0.4,1.8-0.4c0.6,0,1.2,0.1,1.6,0.4c0.5,0.2,0.8,0.6,1.1,1c0.3,0.4,0.5,0.9,0.7,1.5c0.1,0.6,0.2,1.2,0.2,1.9
			c0,0.3,0,0.7,0,1.1c0,0.4-0.1,0.8-0.2,1.2l-1.3,7.5h-2l1.3-7.3c0.1-0.8,0.2-1.5,0.2-2.3c0-1-0.2-1.8-0.5-2.4c-0.3-0.6-0.9-1-1.7-1
			c-0.5,0-1.1,0.2-1.6,0.5s-1,0.7-1.5,1.2c-0.5,0.5-0.9,1.1-1.3,1.8c-0.4,0.7-0.8,1.3-1.2,2l-1.3,7.5L1577.4,361.8L1577.4,361.8z"/>
	</g>
	<g>
		<path fill="#1B264C" d="M1593.3,361.8l2.5-14.3h1.9l-2.5,14.3H1593.3z M1596.2,343.4c0-0.4,0.1-0.8,0.4-1.1
			c0.3-0.3,0.7-0.5,1.2-0.5c0.4,0,0.7,0.1,0.9,0.3c0.2,0.2,0.3,0.5,0.3,0.9s-0.1,0.8-0.5,1.1c-0.3,0.3-0.7,0.4-1.1,0.4
			c-0.4,0-0.7-0.1-0.9-0.3C1596.3,344,1596.2,343.7,1596.2,343.4z"/>
	</g>
	<g>
		<path fill="#1B264C" d="M1607.7,347.3c1.5,0,2.8,0.3,3.8,0.9l-0.4,1.6c-0.6-0.3-1.1-0.5-1.6-0.7c-0.5-0.2-1.1-0.2-1.8-0.2
			c-0.9,0-1.7,0.2-2.4,0.6c-0.7,0.4-1.3,0.9-1.8,1.6s-0.8,1.5-1.1,2.4c-0.2,0.9-0.4,1.9-0.4,2.9c0,1.3,0.3,2.3,0.9,3.1
			s1.5,1.2,2.8,1.2c0.6,0,1.2-0.1,1.8-0.2c0.6-0.1,1.1-0.4,1.6-0.6l0.4,1.5c-0.6,0.3-1.2,0.5-1.9,0.7c-0.7,0.2-1.4,0.2-2.2,0.2
			c-1,0-1.8-0.2-2.5-0.5c-0.7-0.3-1.2-0.8-1.7-1.3c-0.5-0.5-0.8-1.2-1-1.9c-0.2-0.7-0.3-1.5-0.3-2.2c0-1.2,0.2-2.3,0.5-3.4
			c0.3-1.1,0.8-2,1.5-2.9c0.6-0.8,1.4-1.5,2.4-2C1605.4,347.6,1606.5,347.3,1607.7,347.3z"/>
	</g>
</g>
<g>
	<rect x="1419.9" y="291.2" fill="#15FFA5" width="267.7" height="30.6"/>
</g>
<g>
	<path fill="#1B264C" d="M1451.9,316.5c-3.7,3.6-8.4,5.3-13.6,5.3c-13.3,0-18.9-9.1-18.9-18.4c-0.1-9.3,6-18.8,18.9-18.8
		c4.8,0,9.4,1.8,13.1,5.5l-4.5,4.3c-2.3-2.3-5.5-3.4-8.6-3.4c-8.6,0-12.3,6.4-12.3,12.4c0.1,5.9,3.5,12.1,12.3,12.1
		c3.1,0,6.6-1.3,9-3.6L1451.9,316.5z"/>
	<path fill="#1B264C" d="M1459.4,295.9l0.5,2.9c1.9-3.1,4.5-3.6,7.1-3.6c2.6,0,5.1,1,6.5,2.4l-2.8,5.4c-1.3-1.1-2.4-1.6-4.5-1.6
		c-3.3,0-6.3,1.7-6.3,6.4V321h-6.2v-25.1H1459.4z"/>
	<path fill="#1B264C" d="M1495.8,295.9h6V321h-5.9l-0.3-3.7c-1.4,3-5.4,4.4-8.2,4.4c-7.4,0.1-13-4.5-13-13.4
		c0-8.7,5.8-13.2,13.1-13.2c3.4,0,6.6,1.6,8,4.1L1495.8,295.9z M1480.7,308.4c0,4.8,3.3,7.6,7.4,7.6c9.8,0,9.8-15.2,0-15.2
		C1484,300.8,1480.7,303.6,1480.7,308.4z"/>
	<path fill="#1B264C" d="M1531.5,295.8l-10.7,25.3h-6.7l-10.8-25.3h6.8l3.5,8.3l3.9,10.6l3.8-10.5l3.5-8.4H1531.5z"/>
	<path fill="#1B264C" d="M1539.8,310.6c0.4,3.1,3.1,5.4,7.5,5.4c2.3,0,5.3-0.9,6.7-2.3l4,3.9c-2.7,2.8-7,4.1-10.8,4.1
		c-8.7,0-13.8-5.4-13.8-13.4c0-7.6,5.2-13.2,13.4-13.2c8.4,0,13.7,5.2,12.7,15.6H1539.8z M1553.4,305.5c-0.4-3.3-3-4.9-6.5-4.9
		c-3.4,0-6.1,1.6-7,4.9H1553.4z"/>
	<path fill="#1B264C" d="M1590,300l9.5-14.7h8.1v0.3l-14.2,20.7V321h-6.7v-14.7l-13.7-20.7v-0.3h8L1590,300z"/>
	<path fill="#1B264C" d="M1629.2,308.5c0,7.2-4.9,13.1-13.1,13.1s-13.1-5.9-13.1-13.1c0-7.2,5-13.1,13-13.1
		C1624.1,295.3,1629.2,301.3,1629.2,308.5z M1609.3,308.5c0,3.8,2.3,7.4,6.8,7.4c4.5,0,6.8-3.6,6.8-7.4c0-3.8-2.7-7.4-6.8-7.4
		C1611.6,301,1609.3,304.7,1609.3,308.5z"/>
	<path fill="#1B264C" d="M1639.9,295.9V309c0,3.8,2.1,6.7,6.1,6.7c3.8,0,6.4-3.2,6.4-7v-12.9h6.2v25.2h-5.6l-0.4-3.4
		c-2.6,2.5-5,3.8-8.5,3.8c-6,0-10.4-4.5-10.4-12.3v-13.2H1639.9z"/>
</g>
<g>
	<rect x="1385" y="381.5" fill="#AFAFAF" width="535" height="1"/>
</g>
<g>
	<rect x="1383.6" y="-3" fill="#AFAFAF" width="1" height="4252.1"/>
</g>
<circle fill="#FFFFFF" cx="1553.8" cy="1529" r="8.9"/>
</svg>
