<?xml version="1.0" encoding="utf-8"?>
<!-- Generator: Adobe Illustrator 17.1.0, SVG Export Plug-In . SVG Version: 6.00 Build 0)  -->
<!DOCTYPE svg PUBLIC "-//W3C//DTD SVG 1.1//EN" "http://www.w3.org/Graphics/SVG/1.1/DTD/svg11.dtd">
<svg version="1.1" id="Layer_1" xmlns="http://www.w3.org/2000/svg" xmlns:xlink="http://www.w3.org/1999/xlink" x="0px" y="0px"
	 viewBox="0 0 1920 4265" enable-background="new 0 0 1920 4265" xml:space="preserve">
<g display="none">
	<path display="inline" fill="#15FFA5" d="M1653.9,42c0,19-28.8,19-28.8,0C1625.1,23,1653.9,23,1653.9,42z M1627.3,69.4v99h24.4v-99
		H1627.3z"/>
	<path display="inline" fill="#15FFA5" d="M1686.3,69.8l1.8,11.4c7.6-12.2,17.8-14,27.8-14c10.2,0,20,4,25.4,9.4l-11,21.2
		c-5-4.2-9.6-6.4-17.6-6.4c-12.8,0-24.6,6.8-24.6,25v52h-24.4V69.8H1686.3z"/>
	<path display="inline" fill="#15FFA5" d="M1761.3,127.8c1.6,12.2,12.2,21,29.4,21c9,0,20.8-3.4,26.4-9.2l15.6,15.4
		c-10.4,10.8-27.4,16-42.4,16c-34,0-54.2-21-54.2-52.6c0-30,20.4-51.6,52.4-51.6c33,0,53.6,20.4,49.8,61H1761.3z M1814.9,107.6
		c-1.6-12.8-11.6-19.2-25.6-19.2c-13.2,0-24,6.4-27.6,19.2H1814.9z"/>
	<path display="inline" fill="#15FFA5" d="M1919.7,168.4v-51.6c0-15-8.2-26.4-23.8-26.4c-15,0-25.2,12.6-25.2,27.6v50.4h-24.2V69.6
		h21.8l1.6,13.4c10-9.8,20-14.8,32.4-14.8c23.2,0,41.8,17.4,41.8,48.4v51.8H1919.7z"/>
</g>
<text transform="matrix(1 0 0 1 1418 422.8604)"><tspan x="0" y="0" fill="#919191" font-family="'Calibri-Light'" font-size="21">2D animation portraying young generation </tspan><tspan x="0" y="22" fill="#919191" font-family="'Calibri-Light'" font-size="21">in Hong Kong</tspan></text>
<g>
	<path fill="#1B264C" d="M1434.4,364.9h-2.2l-4.1-12.8l-3.7,16.6h-1.9l4.5-19.9h1.8l4.7,14.4l9.5-14.4h2l-2.5,19.9h-1.9l2-16.4
		L1434.4,364.9z"/>
	<path fill="#1B264C" d="M1460.1,359.9c0,1.1-0.2,2.1-0.5,3.2c-0.3,1.1-0.8,2.1-1.5,2.9c-0.7,0.8-1.5,1.6-2.4,2.1
		c-1,0.5-2,0.8-3.3,0.8c-0.9,0-1.7-0.1-2.3-0.5c-0.7-0.3-1.2-0.7-1.7-1.2c-0.5-0.5-0.8-1.1-1-1.8c-0.2-0.7-0.3-1.4-0.3-2.2
		c0-1.1,0.2-2.2,0.5-3.3c0.3-1.1,0.8-2.1,1.5-2.9c0.6-0.9,1.4-1.6,2.4-2.1c0.9-0.5,2-0.8,3.3-0.8c0.9,0,1.7,0.2,2.4,0.5
		c0.7,0.3,1.2,0.7,1.7,1.3c0.5,0.5,0.8,1.1,1,1.8C1460,358.4,1460.1,359.1,1460.1,359.9z M1452.6,367.5c0.9,0,1.6-0.2,2.3-0.7
		c0.7-0.4,1.3-1,1.7-1.7c0.5-0.7,0.9-1.5,1.1-2.4c0.3-0.9,0.4-1.8,0.4-2.7c0-0.6-0.1-1.2-0.2-1.7s-0.4-1-0.7-1.4
		c-0.3-0.4-0.7-0.7-1.1-0.9c-0.5-0.2-1-0.3-1.6-0.3c-0.8,0-1.6,0.2-2.3,0.6c-0.7,0.4-1.2,1-1.7,1.7c-0.5,0.7-0.8,1.5-1.1,2.4
		c-0.3,0.9-0.4,1.8-0.4,2.8c0,0.6,0.1,1.2,0.2,1.7s0.3,1,0.6,1.4s0.6,0.7,1.1,0.9C1451.4,367.4,1452,367.5,1452.6,367.5z"/>
	<path fill="#1B264C" d="M1462.9,354.4h2.7l0.7-3.9h2l-0.7,3.9h4.7l-0.3,1.6h-4.7l-1.5,8.4c0,0.2-0.1,0.3-0.1,0.5c0,0.2,0,0.4,0,0.5
		c0,0.6,0.1,1.1,0.4,1.5c0.3,0.4,0.8,0.5,1.5,0.5c0.5,0,1-0.1,1.5-0.2c0.5-0.1,0.9-0.3,1.3-0.5l0.2,1.5c-0.4,0.2-0.9,0.4-1.5,0.5
		c-0.6,0.1-1.2,0.2-1.8,0.2c-1.2,0-2.2-0.3-2.7-0.9c-0.6-0.6-0.9-1.5-0.9-2.6c0-0.2,0-0.4,0-0.6c0-0.2,0-0.4,0.1-0.5l1.5-8.4h-2.7
		L1462.9,354.4z"/>
	<path fill="#1B264C" d="M1473.2,368.7l2.5-14.3h1.9l-2.5,14.3H1473.2z M1476.1,350.2c0-0.4,0.1-0.8,0.4-1.1
		c0.3-0.3,0.7-0.5,1.2-0.5c0.4,0,0.7,0.1,0.9,0.3c0.2,0.2,0.3,0.5,0.3,0.9s-0.1,0.8-0.5,1.1c-0.3,0.3-0.7,0.4-1.1,0.4
		s-0.7-0.1-0.9-0.3C1476.2,350.8,1476.1,350.5,1476.1,350.2z"/>
	<path fill="#1B264C" d="M1493,359.9c0,1.1-0.2,2.1-0.5,3.2c-0.3,1.1-0.8,2.1-1.5,2.9c-0.7,0.8-1.5,1.6-2.4,2.1
		c-1,0.5-2,0.8-3.3,0.8c-0.9,0-1.7-0.1-2.3-0.5c-0.7-0.3-1.2-0.7-1.7-1.2s-0.8-1.1-1-1.8c-0.2-0.7-0.3-1.4-0.3-2.2
		c0-1.1,0.2-2.2,0.5-3.3c0.3-1.1,0.8-2.1,1.5-2.9c0.6-0.9,1.4-1.6,2.4-2.1c0.9-0.5,2-0.8,3.3-0.8c0.9,0,1.7,0.2,2.4,0.5
		c0.7,0.3,1.2,0.7,1.7,1.3c0.5,0.5,0.8,1.1,1,1.8C1492.8,358.4,1493,359.1,1493,359.9z M1485.5,367.5c0.9,0,1.6-0.2,2.3-0.7
		c0.7-0.4,1.3-1,1.7-1.7c0.5-0.7,0.9-1.5,1.1-2.4c0.3-0.9,0.4-1.8,0.4-2.7c0-0.6-0.1-1.2-0.2-1.7c-0.1-0.5-0.4-1-0.7-1.4
		c-0.3-0.4-0.7-0.7-1.1-0.9c-0.5-0.2-1-0.3-1.6-0.3c-0.8,0-1.6,0.2-2.3,0.6s-1.2,1-1.7,1.7c-0.5,0.7-0.8,1.5-1.1,2.4
		s-0.4,1.8-0.4,2.8c0,0.6,0.1,1.2,0.2,1.7c0.1,0.5,0.3,1,0.6,1.4c0.3,0.4,0.6,0.7,1.1,0.9C1484.3,367.4,1484.8,367.5,1485.5,367.5z"
		/>
	<path fill="#1B264C" d="M1495.1,368.7l2.5-14.3h1.9l-0.7,4.1c0.3-0.6,0.6-1.1,1-1.6c0.4-0.5,0.8-1,1.2-1.4c0.5-0.4,1-0.7,1.5-1
		s1.2-0.4,1.8-0.4c0.6,0,1.2,0.1,1.6,0.4c0.5,0.2,0.8,0.6,1.1,1c0.3,0.4,0.5,0.9,0.7,1.5c0.1,0.6,0.2,1.2,0.2,1.9c0,0.3,0,0.7,0,1.1
		s-0.1,0.8-0.2,1.2l-1.3,7.5h-2l1.3-7.3c0.1-0.8,0.2-1.5,0.2-2.3c0-1-0.2-1.8-0.5-2.4c-0.3-0.6-0.9-1-1.7-1c-0.5,0-1,0.2-1.5,0.5
		s-1,0.7-1.5,1.2s-0.9,1.1-1.3,1.8s-0.8,1.3-1.2,2l-1.3,7.5C1496.9,368.7,1495.1,368.7,1495.1,368.7z"/>
	<path fill="#1B264C" d="M1529.2,348.4c1.2,0,2.3,0.1,3.5,0.3c1.2,0.2,2.2,0.6,3.2,1.1l-0.5,1.6c-1.1-0.5-2.1-0.9-3.2-1.1
		c-1.1-0.2-2.1-0.3-3.1-0.3c-1.5,0-2.8,0.3-3.9,0.8c-1.2,0.5-2.1,1.2-2.9,2.1c-0.8,0.9-1.4,2-1.8,3.2s-0.6,2.5-0.6,3.9
		c0,2.4,0.7,4.2,2,5.5c1.3,1.3,3.2,2,5.8,2c0.6,0,1.3,0,1.9-0.1s1.2-0.2,1.8-0.3l1.2-6.8h1.9l-1.4,7.9c-0.4,0.1-0.8,0.2-1.2,0.3
		c-0.5,0.1-0.9,0.2-1.4,0.3s-1,0.1-1.5,0.2c-0.5,0-1,0.1-1.4,0.1c-1.5,0-2.8-0.2-4-0.7c-1.2-0.4-2.2-1.1-3-1.9s-1.4-1.7-1.8-2.9
		c-0.4-1.2-0.6-2.3-0.6-3.6c0-1.6,0.2-3.1,0.7-4.5c0.5-1.4,1.2-2.6,2.1-3.7c1-1.1,2.1-1.9,3.5-2.5
		C1525.7,348.7,1527.4,348.4,1529.2,348.4z"/>
	<path fill="#1B264C" d="M1546.5,356.1c-0.1,0-0.2,0-0.4,0c-1.3,0-2.3,0.5-3.2,1.4s-1.6,2.3-2.3,3.9l-1.3,7.3h-2l2.5-14.3h1.9
		l-0.8,4.5c0.2-0.6,0.4-1.2,0.7-1.8c0.3-0.5,0.6-1,1-1.4c0.4-0.4,0.8-0.7,1.3-1c0.5-0.2,1.1-0.4,1.7-0.4c0.1,0,0.3,0,0.5,0
		s0.3,0,0.4,0.1L1546.5,356.1z"/>
	<path fill="#1B264C" d="M1557.2,368.7h-1.9l1-5.6c-0.3,0.6-0.6,1.2-1,1.9c-0.4,0.7-0.8,1.3-1.3,1.9c-0.5,0.6-1,1.1-1.6,1.5
		c-0.6,0.4-1.2,0.6-1.9,0.6c-0.6,0-1.2-0.1-1.6-0.4c-0.4-0.3-0.8-0.6-1.1-1.1s-0.5-1-0.6-1.6c-0.1-0.6-0.2-1.2-0.2-1.9
		c0-1.3,0.2-2.5,0.5-3.7c0.3-1.2,0.9-2.2,1.6-3.2c0.7-0.9,1.5-1.7,2.6-2.2c1-0.6,2.2-0.8,3.6-0.8c0.8,0,1.6,0.1,2.4,0.2
		c0.8,0.2,1.5,0.4,2.1,0.6L1557.2,368.7z M1550.7,367.5c0.6,0,1.2-0.3,1.8-0.9c0.6-0.6,1.2-1.3,1.8-2.2c0.6-0.9,1.1-1.8,1.6-2.8
		c0.5-1,0.9-2,1.3-2.9l0.5-2.7c-0.7-0.2-1.5-0.3-2.4-0.3c-1,0-1.9,0.2-2.7,0.7c-0.8,0.5-1.4,1.1-2,1.8c-0.5,0.8-0.9,1.7-1.2,2.7
		c-0.3,1-0.4,2.1-0.4,3.1c0,0.5,0,0.9,0.1,1.3s0.2,0.8,0.3,1.1c0.1,0.3,0.3,0.6,0.5,0.8C1550,367.4,1550.3,367.5,1550.7,367.5z"/>
	<path fill="#1B264C" d="M1564.5,354.4h1.9l-0.8,4.5c0.3-0.6,0.7-1.2,1.1-1.7c0.4-0.6,0.8-1.1,1.3-1.5c0.5-0.4,1-0.8,1.6-1.1
		c0.6-0.3,1.2-0.4,1.9-0.4c0.6,0,1.1,0.1,1.6,0.4c0.5,0.3,0.9,0.6,1.2,1.1c0.3,0.5,0.5,1,0.7,1.6c0.2,0.6,0.2,1.3,0.2,1.9
		c0,1.3-0.2,2.5-0.5,3.7c-0.3,1.2-0.9,2.2-1.5,3.1c-0.6,0.9-1.5,1.6-2.5,2.2c-1,0.6-2.2,0.8-3.6,0.8c-0.5,0-1.1,0-1.6-0.1
		s-1-0.2-1.5-0.4l-1.1,6.4h-2L1564.5,354.4z M1571.1,355.7c-0.5,0-1.1,0.2-1.6,0.6c-0.6,0.4-1.1,0.9-1.6,1.5c-0.5,0.6-1,1.3-1.5,2.1
		c-0.5,0.8-0.9,1.5-1.3,2.3l-0.9,4.9c0.4,0.2,0.8,0.3,1.3,0.4s0.9,0.1,1.4,0.1c1.1,0,2-0.2,2.9-0.7c0.8-0.5,1.5-1.1,2-1.8
		c0.5-0.7,0.9-1.6,1.1-2.6c0.2-1,0.4-2,0.4-3c0-0.4,0-0.9-0.1-1.3c-0.1-0.4-0.2-0.8-0.4-1.2c-0.2-0.3-0.4-0.6-0.7-0.8
		C1571.8,355.8,1571.5,355.7,1571.1,355.7z"/>
	<path fill="#1B264C" d="M1577.4,368.7l3.7-21.1h2l-1.9,10.9c0.3-0.5,0.6-1.1,0.9-1.6c0.3-0.5,0.8-1,1.2-1.4c0.5-0.4,1-0.7,1.5-1
		c0.6-0.2,1.2-0.4,1.8-0.4c0.6,0,1.2,0.1,1.6,0.4c0.5,0.2,0.8,0.6,1.1,1c0.3,0.4,0.5,0.9,0.7,1.5c0.1,0.6,0.2,1.2,0.2,1.9
		c0,0.3,0,0.7,0,1.1c0,0.4-0.1,0.8-0.2,1.2l-1.3,7.5h-2l1.3-7.3c0.1-0.8,0.2-1.5,0.2-2.3c0-1-0.2-1.8-0.5-2.4c-0.3-0.6-0.9-1-1.7-1
		c-0.5,0-1.1,0.2-1.6,0.5s-1,0.7-1.5,1.2c-0.5,0.5-0.9,1.1-1.3,1.8c-0.4,0.7-0.8,1.3-1.2,2l-1.3,7.5L1577.4,368.7L1577.4,368.7z"/>
	<path fill="#1B264C" d="M1593.3,368.7l2.5-14.3h1.9l-2.5,14.3H1593.3z M1596.2,350.2c0-0.4,0.1-0.8,0.4-1.1
		c0.3-0.3,0.7-0.5,1.2-0.5c0.4,0,0.7,0.1,0.9,0.3c0.2,0.2,0.3,0.5,0.3,0.9s-0.1,0.8-0.5,1.1c-0.3,0.3-0.7,0.4-1.1,0.4
		c-0.4,0-0.7-0.1-0.9-0.3C1596.3,350.8,1596.2,350.5,1596.2,350.2z"/>
	<path fill="#1B264C" d="M1607.7,354.1c1.5,0,2.8,0.3,3.8,0.9l-0.4,1.6c-0.6-0.3-1.1-0.5-1.6-0.7c-0.5-0.2-1.1-0.2-1.8-0.2
		c-0.9,0-1.7,0.2-2.4,0.6c-0.7,0.4-1.3,0.9-1.8,1.6s-0.8,1.5-1.1,2.4c-0.2,0.9-0.4,1.9-0.4,2.9c0,1.3,0.3,2.3,0.9,3.1
		s1.5,1.2,2.8,1.2c0.6,0,1.2-0.1,1.8-0.2c0.6-0.1,1.1-0.4,1.6-0.6l0.4,1.5c-0.6,0.3-1.2,0.5-1.9,0.7c-0.7,0.2-1.4,0.2-2.2,0.2
		c-1,0-1.8-0.2-2.5-0.5c-0.7-0.3-1.2-0.8-1.7-1.3c-0.5-0.5-0.8-1.2-1-1.9c-0.2-0.7-0.3-1.5-0.3-2.2c0-1.2,0.2-2.3,0.5-3.4
		c0.3-1.1,0.8-2,1.5-2.9c0.6-0.8,1.4-1.5,2.4-2C1605.4,354.4,1606.5,354.1,1607.7,354.1z"/>
</g>
<rect x="1419.9" y="298.1" fill="#15FFA5" width="267.7" height="30.6"/>
<text transform="matrix(1 0 0 1 1414.2607 327.8601)" fill="#1B264C" font-family="'NexaBold'" font-size="51">Crave You</text>
<line fill="none" stroke="#AFAFAF" stroke-miterlimit="10" x1="1385" y1="388.9" x2="1920" y2="388.9"/>
<line fill="none" stroke="#AFAFAF" stroke-miterlimit="10" x1="1384.1" y1="4256" x2="1384.1" y2="3.9"/>
<circle fill="#FFFFFF" cx="1553.8" cy="1529" r="8.9"/>
</svg>
