<?xml version="1.0" encoding="utf-8"?>
<!-- Generator: Adobe Illustrator 17.1.0, SVG Export Plug-In . SVG Version: 6.00 Build 0)  -->
<!DOCTYPE svg PUBLIC "-//W3C//DTD SVG 1.1//EN" "http://www.w3.org/Graphics/SVG/1.1/DTD/svg11.dtd">
<svg version="1.1" id="Layer_1" xmlns="http://www.w3.org/2000/svg" xmlns:xlink="http://www.w3.org/1999/xlink" x="0px" y="0px"
	 viewBox="0 0 1920 4265" enable-background="new 0 0 1920 4265" xml:space="preserve">
<g display="none">
	<path display="inline" fill="#15FFA5" d="M1653.9,42c0,19-28.8,19-28.8,0C1625.1,23,1653.9,23,1653.9,42z M1627.3,69.4v99h24.4v-99
		H1627.3z"/>
	<path display="inline" fill="#15FFA5" d="M1686.3,69.8l1.8,11.4c7.6-12.2,17.8-14,27.8-14c10.2,0,20,4,25.4,9.4l-11,21.2
		c-5-4.2-9.6-6.4-17.6-6.4c-12.8,0-24.6,6.8-24.6,25v52h-24.4V69.8H1686.3z"/>
	<path display="inline" fill="#15FFA5" d="M1761.3,127.8c1.6,12.2,12.2,21,29.4,21c9,0,20.8-3.4,26.4-9.2l15.6,15.4
		c-10.4,10.8-27.4,16-42.4,16c-34,0-54.2-21-54.2-52.6c0-30,20.4-51.6,52.4-51.6c33,0,53.6,20.4,49.8,61H1761.3z M1814.9,107.6
		c-1.6-12.8-11.6-19.2-25.6-19.2c-13.2,0-24,6.4-27.6,19.2H1814.9z"/>
	<path display="inline" fill="#15FFA5" d="M1919.7,168.4v-51.6c0-15-8.2-26.4-23.8-26.4c-15,0-25.2,12.6-25.2,27.6v50.4h-24.2V69.6
		h21.8l1.6,13.4c10-9.8,20-14.8,32.4-14.8c23.2,0,41.8,17.4,41.8,48.4v51.8H1919.7z"/>
</g>
<g>
	<path fill="#919191" d="M1422.4,418.1c0,0.6-0.1,1.2-0.3,1.7c-0.2,0.5-0.5,1-0.9,1.3s-0.9,0.7-1.4,0.9s-1.2,0.3-2,0.3h-1.7v5.1
		c0,0,0,0.1,0,0.1s-0.1,0.1-0.1,0.1s-0.1,0-0.2,0.1c-0.1,0-0.2,0-0.3,0c-0.1,0-0.2,0-0.3,0s-0.1,0-0.2-0.1s-0.1,0-0.1-0.1
		s0-0.1,0-0.1V415c0-0.2,0.1-0.4,0.2-0.5c0.1-0.1,0.3-0.1,0.4-0.1h2.7c0.3,0,0.5,0,0.8,0c0.3,0,0.5,0.1,0.9,0.2
		c0.3,0.1,0.7,0.2,1,0.4c0.4,0.2,0.7,0.5,0.9,0.8c0.2,0.3,0.4,0.7,0.6,1.1C1422.4,417.2,1422.4,417.7,1422.4,418.1z M1421.1,418.2
		c0-0.6-0.1-1.1-0.3-1.5c-0.2-0.4-0.5-0.7-0.8-0.9c-0.3-0.2-0.7-0.3-1-0.4c-0.4-0.1-0.7-0.1-1-0.1h-1.9v5.8h1.8
		c0.6,0,1.1-0.1,1.5-0.2c0.4-0.1,0.7-0.4,1-0.6c0.3-0.3,0.5-0.6,0.6-0.9C1421,419.1,1421.1,418.7,1421.1,418.2z"/>
	<path fill="#919191" d="M1430.2,418.6c0,0.1,0,0.2,0,0.3c0,0.1,0,0.1,0,0.2c0,0,0,0.1-0.1,0.1c0,0-0.1,0-0.1,0c-0.1,0-0.1,0-0.2,0
		c-0.1,0-0.2-0.1-0.3-0.1s-0.2-0.1-0.4-0.1c-0.1,0-0.3,0-0.4,0c-0.2,0-0.4,0-0.5,0.1c-0.2,0.1-0.4,0.2-0.6,0.4
		c-0.2,0.2-0.4,0.4-0.6,0.7c-0.2,0.3-0.5,0.6-0.7,1.1v6.3c0,0,0,0.1,0,0.1c0,0-0.1,0.1-0.1,0.1c0,0-0.1,0-0.2,0.1
		c-0.1,0-0.2,0-0.3,0c-0.1,0-0.2,0-0.3,0c-0.1,0-0.1,0-0.2-0.1c0,0-0.1,0-0.1-0.1c0,0,0-0.1,0-0.1v-9.3c0,0,0-0.1,0-0.1
		c0,0,0-0.1,0.1-0.1c0,0,0.1,0,0.2-0.1c0.1,0,0.2,0,0.3,0s0.2,0,0.3,0c0.1,0,0.1,0,0.2,0.1c0,0,0.1,0.1,0.1,0.1c0,0,0,0.1,0,0.1v1.5
		c0.3-0.4,0.5-0.7,0.7-0.9c0.2-0.2,0.4-0.4,0.6-0.6c0.2-0.1,0.4-0.2,0.6-0.3c0.2,0,0.4-0.1,0.6-0.1c0.1,0,0.2,0,0.3,0
		c0.1,0,0.2,0,0.4,0.1c0.1,0,0.3,0.1,0.4,0.1c0.1,0,0.2,0.1,0.2,0.1c0,0,0.1,0.1,0.1,0.1c0,0,0,0.1,0,0.1c0,0,0,0.1,0,0.2
		C1430.2,418.4,1430.2,418.5,1430.2,418.6z"/>
	<path fill="#919191" d="M1440.1,422.7c0,0.7-0.1,1.4-0.3,2s-0.5,1.2-0.9,1.6c-0.4,0.5-0.9,0.8-1.4,1.1c-0.6,0.3-1.2,0.4-2,0.4
		c-0.7,0-1.4-0.1-1.9-0.3c-0.5-0.2-1-0.6-1.4-1c-0.4-0.4-0.6-0.9-0.8-1.6c-0.2-0.6-0.3-1.3-0.3-2.1c0-0.7,0.1-1.4,0.3-2
		c0.2-0.6,0.5-1.2,0.9-1.6c0.4-0.5,0.9-0.8,1.4-1.1s1.2-0.4,2-0.4c0.7,0,1.4,0.1,1.9,0.3c0.5,0.2,1,0.6,1.4,1
		c0.4,0.4,0.6,0.9,0.8,1.6C1440,421.2,1440.1,421.9,1440.1,422.7z M1438.8,422.8c0-0.5-0.1-1-0.2-1.5c-0.1-0.5-0.3-0.9-0.5-1.3
		c-0.2-0.4-0.6-0.7-1-0.9c-0.4-0.2-0.9-0.3-1.5-0.3c-0.6,0-1,0.1-1.4,0.3s-0.7,0.5-1,0.8c-0.3,0.4-0.4,0.8-0.6,1.2s-0.2,1-0.2,1.5
		c0,0.5,0.1,1,0.2,1.5c0.1,0.5,0.3,0.9,0.5,1.3c0.2,0.4,0.6,0.7,1,0.9c0.4,0.2,0.9,0.3,1.5,0.3c0.6,0,1-0.1,1.4-0.3
		c0.4-0.2,0.7-0.5,1-0.8c0.3-0.3,0.4-0.8,0.6-1.2S1438.8,423.3,1438.8,422.8z"/>
	<path fill="#919191" d="M1456,427.4c0,0,0,0.1,0,0.1s-0.1,0.1-0.1,0.1c0,0-0.1,0-0.2,0.1c-0.1,0-0.2,0-0.3,0c-0.1,0-0.2,0-0.3,0
		c-0.1,0-0.1,0-0.2-0.1s-0.1,0-0.1-0.1c0,0,0-0.1,0-0.1v-5.7c0-0.4,0-0.8-0.1-1.2c-0.1-0.4-0.2-0.7-0.4-0.9
		c-0.2-0.3-0.4-0.5-0.6-0.6c-0.3-0.1-0.6-0.2-0.9-0.2c-0.4,0-0.9,0.2-1.3,0.5c-0.4,0.3-0.9,0.8-1.5,1.5v6.7c0,0,0,0.1,0,0.1
		s-0.1,0.1-0.1,0.1c0,0-0.1,0-0.2,0.1c-0.1,0-0.2,0-0.3,0s-0.2,0-0.3,0c-0.1,0-0.1,0-0.2-0.1s-0.1,0-0.1-0.1c0,0,0-0.1,0-0.1v-5.7
		c0-0.4,0-0.8-0.1-1.2c-0.1-0.4-0.2-0.7-0.4-0.9c-0.2-0.3-0.4-0.5-0.6-0.6c-0.3-0.1-0.6-0.2-0.9-0.2c-0.4,0-0.9,0.2-1.3,0.5
		c-0.4,0.3-0.9,0.8-1.4,1.5v6.7c0,0,0,0.1,0,0.1c0,0-0.1,0.1-0.1,0.1c0,0-0.1,0-0.2,0.1c-0.1,0-0.2,0-0.3,0c-0.1,0-0.2,0-0.3,0
		c-0.1,0-0.1,0-0.2-0.1c0,0-0.1,0-0.1-0.1c0,0,0-0.1,0-0.1v-9.3c0,0,0-0.1,0-0.1c0,0,0-0.1,0.1-0.1c0,0,0.1,0,0.2-0.1
		c0.1,0,0.2,0,0.3,0s0.2,0,0.3,0c0.1,0,0.1,0,0.2,0.1c0,0,0.1,0.1,0.1,0.1c0,0,0,0.1,0,0.1v1.3c0.5-0.6,1-1,1.5-1.3s1-0.4,1.4-0.4
		c0.4,0,0.7,0,1,0.1c0.3,0.1,0.6,0.2,0.8,0.4c0.2,0.2,0.4,0.4,0.6,0.6s0.3,0.5,0.4,0.8c0.3-0.4,0.6-0.7,0.9-0.9
		c0.3-0.2,0.6-0.4,0.8-0.6c0.3-0.1,0.5-0.3,0.7-0.3c0.2-0.1,0.5-0.1,0.7-0.1c0.6,0,1.1,0.1,1.5,0.3c0.4,0.2,0.7,0.5,1,0.8
		c0.2,0.3,0.4,0.8,0.5,1.2c0.1,0.5,0.2,1,0.2,1.5V427.4z"/>
	<path fill="#919191" d="M1467.6,422.7c0,0.7-0.1,1.4-0.3,2s-0.5,1.2-0.9,1.6c-0.4,0.5-0.9,0.8-1.4,1.1c-0.6,0.3-1.2,0.4-2,0.4
		c-0.7,0-1.4-0.1-1.9-0.3c-0.5-0.2-1-0.6-1.4-1c-0.4-0.4-0.6-0.9-0.8-1.6c-0.2-0.6-0.3-1.3-0.3-2.1c0-0.7,0.1-1.4,0.3-2
		c0.2-0.6,0.5-1.2,0.9-1.6c0.4-0.5,0.9-0.8,1.4-1.1s1.2-0.4,2-0.4c0.7,0,1.4,0.1,1.9,0.3c0.5,0.2,1,0.6,1.4,1
		c0.4,0.4,0.6,0.9,0.8,1.6C1467.5,421.2,1467.6,421.9,1467.6,422.7z M1466.3,422.8c0-0.5-0.1-1-0.2-1.5c-0.1-0.5-0.3-0.9-0.5-1.3
		c-0.2-0.4-0.6-0.7-1-0.9c-0.4-0.2-0.9-0.3-1.5-0.3c-0.6,0-1,0.1-1.4,0.3s-0.7,0.5-1,0.8c-0.3,0.4-0.4,0.8-0.6,1.2s-0.2,1-0.2,1.5
		c0,0.5,0.1,1,0.2,1.5c0.1,0.5,0.3,0.9,0.5,1.3c0.2,0.4,0.6,0.7,1,0.9c0.4,0.2,0.9,0.3,1.5,0.3c0.6,0,1-0.1,1.4-0.3
		c0.4-0.2,0.7-0.5,1-0.8c0.3-0.3,0.4-0.8,0.6-1.2S1466.3,423.3,1466.3,422.8z"/>
	<path fill="#919191" d="M1477.9,417.9c0.2,0,0.3,0,0.3,0.1c0.1,0.1,0.1,0.2,0.1,0.3v9.1c0,0,0,0.1,0,0.1c0,0-0.1,0.1-0.1,0.1
		c0,0-0.1,0-0.2,0.1c-0.1,0-0.2,0-0.3,0c-0.1,0-0.2,0-0.3,0c-0.1,0-0.1,0-0.2-0.1c0,0-0.1,0-0.1-0.1s0-0.1,0-0.1v-8.5h-5.1v5.6
		c0,0.7,0.1,1.2,0.3,1.6c0.2,0.4,0.6,0.6,1.1,0.6c0.2,0,0.3,0,0.4-0.1c0.1,0,0.3-0.1,0.4-0.1s0.2-0.1,0.3-0.1c0.1,0,0.1-0.1,0.2-0.1
		c0,0,0.1,0,0.1,0c0,0,0,0,0.1,0.1c0,0,0,0.1,0,0.1c0,0.1,0,0.1,0,0.2c0,0.1,0,0.3,0,0.3c0,0.1-0.1,0.2-0.1,0.2
		c-0.1,0.1-0.1,0.1-0.2,0.1c-0.1,0-0.2,0.1-0.3,0.1c-0.1,0-0.3,0.1-0.4,0.1c-0.1,0-0.3,0-0.4,0c-0.5,0-0.8-0.1-1.2-0.2
		s-0.6-0.3-0.8-0.6c-0.2-0.2-0.4-0.6-0.4-0.9c-0.1-0.4-0.1-0.8-0.1-1.4v-5.8h-1.4c-0.1,0-0.2,0-0.2-0.1c-0.1-0.1-0.1-0.2-0.1-0.4
		c0-0.1,0-0.2,0-0.2c0-0.1,0-0.1,0.1-0.2c0,0,0.1-0.1,0.1-0.1c0,0,0.1,0,0.1,0h1.4v-2.3c0,0,0-0.1,0-0.1c0,0,0-0.1,0.1-0.1
		c0,0,0.1,0,0.2-0.1c0.1,0,0.2,0,0.3,0c0.1,0,0.2,0,0.3,0c0.1,0,0.1,0,0.2,0.1c0,0,0.1,0.1,0.1,0.1s0,0.1,0,0.1v2.3H1477.9z
		 M1478.5,415c0,0.3-0.1,0.5-0.2,0.7c-0.1,0.1-0.3,0.2-0.6,0.2c-0.3,0-0.5-0.1-0.6-0.2c-0.1-0.1-0.2-0.3-0.2-0.7s0.1-0.6,0.2-0.7
		c0.1-0.1,0.3-0.2,0.6-0.2c0.3,0,0.5,0.1,0.6,0.2C1478.5,414.4,1478.5,414.7,1478.5,415z"/>
	<path fill="#919191" d="M1490,422.7c0,0.7-0.1,1.4-0.3,2s-0.5,1.2-0.9,1.6c-0.4,0.5-0.9,0.8-1.4,1.1c-0.6,0.3-1.2,0.4-2,0.4
		c-0.7,0-1.4-0.1-1.9-0.3c-0.5-0.2-1-0.6-1.4-1c-0.4-0.4-0.6-0.9-0.8-1.6c-0.2-0.6-0.3-1.3-0.3-2.1c0-0.7,0.1-1.4,0.3-2
		c0.2-0.6,0.5-1.2,0.9-1.6c0.4-0.5,0.9-0.8,1.4-1.1s1.2-0.4,2-0.4c0.7,0,1.4,0.1,1.9,0.3c0.5,0.2,1,0.6,1.4,1
		c0.4,0.4,0.6,0.9,0.8,1.6C1489.9,421.2,1490,421.9,1490,422.7z M1488.7,422.8c0-0.5-0.1-1-0.2-1.5c-0.1-0.5-0.3-0.9-0.5-1.3
		c-0.2-0.4-0.6-0.7-1-0.9c-0.4-0.2-0.9-0.3-1.5-0.3c-0.6,0-1,0.1-1.4,0.3s-0.7,0.5-1,0.8c-0.3,0.4-0.4,0.8-0.6,1.2s-0.2,1-0.2,1.5
		c0,0.5,0.1,1,0.2,1.5c0.1,0.5,0.3,0.9,0.5,1.3c0.2,0.4,0.6,0.7,1,0.9c0.4,0.2,0.9,0.3,1.5,0.3c0.6,0,1-0.1,1.4-0.3
		c0.4-0.2,0.7-0.5,1-0.8c0.3-0.3,0.4-0.8,0.6-1.2S1488.7,423.3,1488.7,422.8z"/>
	<path fill="#919191" d="M1500.2,427.4c0,0,0,0.1,0,0.1s-0.1,0.1-0.1,0.1c0,0-0.1,0-0.2,0.1c-0.1,0-0.2,0-0.3,0c-0.1,0-0.2,0-0.3,0
		c-0.1,0-0.1,0-0.2-0.1c0,0-0.1,0-0.1-0.1c0,0,0-0.1,0-0.1v-5.5c0-0.6,0-1-0.1-1.4c-0.1-0.4-0.2-0.7-0.4-0.9
		c-0.2-0.3-0.4-0.5-0.7-0.6c-0.3-0.1-0.6-0.2-1-0.2c-0.5,0-0.9,0.2-1.4,0.5c-0.5,0.3-1,0.8-1.5,1.5v6.7c0,0,0,0.1,0,0.1
		c0,0-0.1,0.1-0.1,0.1c0,0-0.1,0-0.2,0.1c-0.1,0-0.2,0-0.3,0c-0.1,0-0.2,0-0.3,0c-0.1,0-0.1,0-0.2-0.1c0,0-0.1,0-0.1-0.1
		c0,0,0-0.1,0-0.1v-9.3c0,0,0-0.1,0-0.1c0,0,0-0.1,0.1-0.1c0,0,0.1,0,0.2-0.1c0.1,0,0.2,0,0.3,0s0.2,0,0.3,0c0.1,0,0.1,0,0.2,0.1
		c0,0,0.1,0.1,0.1,0.1c0,0,0,0.1,0,0.1v1.3c0.5-0.6,1.1-1,1.6-1.3c0.5-0.3,1-0.4,1.5-0.4c0.6,0,1.1,0.1,1.5,0.3s0.8,0.5,1,0.8
		c0.3,0.3,0.4,0.8,0.6,1.2c0.1,0.5,0.2,1,0.2,1.7V427.4z"/>
	<path fill="#919191" d="M1510.1,427.4c0,0.1,0,0.1-0.1,0.2c0,0-0.1,0.1-0.2,0.1c-0.1,0-0.2,0-0.3,0c-0.1,0-0.2,0-0.3,0
		c-0.1,0-0.1,0-0.2-0.1c0,0-0.1-0.1-0.1-0.2v-1c-0.4,0.5-0.9,0.8-1.4,1c-0.5,0.2-1,0.4-1.6,0.4c-0.5,0-0.9-0.1-1.3-0.2
		c-0.4-0.1-0.7-0.3-1-0.5c-0.3-0.2-0.5-0.5-0.6-0.9c-0.1-0.3-0.2-0.7-0.2-1.1c0-0.5,0.1-1,0.3-1.3c0.2-0.4,0.5-0.7,0.9-0.9
		c0.4-0.3,0.9-0.4,1.4-0.6c0.5-0.1,1.2-0.2,1.8-0.2h1.5v-0.8c0-0.4,0-0.7-0.1-1.1c-0.1-0.3-0.2-0.6-0.4-0.8
		c-0.2-0.2-0.4-0.4-0.7-0.5s-0.7-0.2-1.1-0.2c-0.4,0-0.8,0-1.1,0.1c-0.3,0.1-0.6,0.2-0.9,0.3s-0.4,0.2-0.6,0.3
		c-0.2,0.1-0.3,0.1-0.3,0.1c0,0-0.1,0-0.1,0s-0.1,0-0.1-0.1c0,0,0-0.1-0.1-0.1c0-0.1,0-0.1,0-0.2c0-0.1,0-0.3,0-0.3
		c0-0.1,0.1-0.2,0.2-0.3c0.1-0.1,0.2-0.2,0.5-0.3c0.2-0.1,0.5-0.2,0.8-0.3c0.3-0.1,0.6-0.2,0.9-0.2s0.7-0.1,1-0.1
		c0.6,0,1.2,0.1,1.6,0.2c0.4,0.2,0.8,0.4,1.1,0.7c0.3,0.3,0.5,0.6,0.6,1.1c0.1,0.4,0.2,0.9,0.2,1.4V427.4z M1508.9,423h-1.7
		c-0.5,0-0.9,0-1.3,0.1c-0.4,0.1-0.7,0.2-0.9,0.4c-0.2,0.2-0.4,0.4-0.5,0.6c-0.1,0.2-0.2,0.5-0.2,0.8c0,0.5,0.2,1,0.5,1.3
		c0.3,0.3,0.8,0.5,1.4,0.5c0.5,0,0.9-0.1,1.4-0.4c0.4-0.2,0.9-0.6,1.3-1.2V423z"/>
	<path fill="#919191" d="M1514.7,427.4c0,0,0,0.1,0,0.1c0,0-0.1,0.1-0.1,0.1c0,0-0.1,0-0.2,0.1c-0.1,0-0.2,0-0.3,0
		c-0.1,0-0.2,0-0.3,0c-0.1,0-0.1,0-0.2-0.1c0,0-0.1,0-0.1-0.1c0,0,0-0.1,0-0.1v-13.8c0,0,0-0.1,0-0.1c0,0,0-0.1,0.1-0.1
		c0,0,0.1,0,0.2-0.1c0.1,0,0.2,0,0.3,0c0.1,0,0.2,0,0.3,0c0.1,0,0.1,0,0.2,0.1c0,0,0.1,0.1,0.1,0.1c0,0,0,0.1,0,0.1V427.4z"/>
	<path fill="#919191" d="M1536.1,427.4c0,0,0,0.1,0,0.1s-0.1,0.1-0.1,0.1c0,0-0.1,0-0.2,0.1c-0.1,0-0.2,0-0.3,0c-0.1,0-0.2,0-0.3,0
		c-0.1,0-0.1,0-0.2-0.1s-0.1,0-0.1-0.1c0,0,0-0.1,0-0.1v-5.7c0-0.4,0-0.8-0.1-1.2c-0.1-0.4-0.2-0.7-0.4-0.9
		c-0.2-0.3-0.4-0.5-0.6-0.6c-0.3-0.1-0.6-0.2-0.9-0.2c-0.4,0-0.9,0.2-1.3,0.5c-0.4,0.3-0.9,0.8-1.5,1.5v6.7c0,0,0,0.1,0,0.1
		s-0.1,0.1-0.1,0.1c0,0-0.1,0-0.2,0.1c-0.1,0-0.2,0-0.3,0s-0.2,0-0.3,0c-0.1,0-0.1,0-0.2-0.1s-0.1,0-0.1-0.1c0,0,0-0.1,0-0.1v-5.7
		c0-0.4,0-0.8-0.1-1.2c-0.1-0.4-0.2-0.7-0.4-0.9c-0.2-0.3-0.4-0.5-0.6-0.6c-0.3-0.1-0.6-0.2-0.9-0.2c-0.4,0-0.9,0.2-1.3,0.5
		c-0.4,0.3-0.9,0.8-1.4,1.5v6.7c0,0,0,0.1,0,0.1c0,0-0.1,0.1-0.1,0.1c0,0-0.1,0-0.2,0.1c-0.1,0-0.2,0-0.3,0c-0.1,0-0.2,0-0.3,0
		c-0.1,0-0.1,0-0.2-0.1c0,0-0.1,0-0.1-0.1c0,0,0-0.1,0-0.1v-9.3c0,0,0-0.1,0-0.1c0,0,0-0.1,0.1-0.1c0,0,0.1,0,0.2-0.1
		c0.1,0,0.2,0,0.3,0s0.2,0,0.3,0c0.1,0,0.1,0,0.2,0.1c0,0,0.1,0.1,0.1,0.1c0,0,0,0.1,0,0.1v1.3c0.5-0.6,1-1,1.5-1.3s1-0.4,1.4-0.4
		c0.4,0,0.7,0,1,0.1c0.3,0.1,0.6,0.2,0.8,0.4c0.2,0.2,0.4,0.4,0.6,0.6s0.3,0.5,0.4,0.8c0.3-0.4,0.6-0.7,0.9-0.9
		c0.3-0.2,0.6-0.4,0.8-0.6c0.3-0.1,0.5-0.3,0.7-0.3c0.2-0.1,0.5-0.1,0.7-0.1c0.6,0,1.1,0.1,1.5,0.3c0.4,0.2,0.7,0.5,1,0.8
		c0.2,0.3,0.4,0.8,0.5,1.2c0.1,0.5,0.2,1,0.2,1.5V427.4z"/>
	<path fill="#919191" d="M1546,427.4c0,0.1,0,0.1-0.1,0.2c0,0-0.1,0.1-0.2,0.1c-0.1,0-0.2,0-0.3,0c-0.1,0-0.2,0-0.3,0
		c-0.1,0-0.1,0-0.2-0.1c0,0-0.1-0.1-0.1-0.2v-1c-0.4,0.5-0.9,0.8-1.4,1c-0.5,0.2-1,0.4-1.6,0.4c-0.5,0-0.9-0.1-1.3-0.2
		c-0.4-0.1-0.7-0.3-1-0.5c-0.3-0.2-0.5-0.5-0.6-0.9c-0.1-0.3-0.2-0.7-0.2-1.1c0-0.5,0.1-1,0.3-1.3c0.2-0.4,0.5-0.7,0.9-0.9
		c0.4-0.3,0.9-0.4,1.4-0.6c0.5-0.1,1.2-0.2,1.8-0.2h1.5v-0.8c0-0.4,0-0.7-0.1-1.1c-0.1-0.3-0.2-0.6-0.4-0.8
		c-0.2-0.2-0.4-0.4-0.7-0.5s-0.7-0.2-1.1-0.2c-0.4,0-0.8,0-1.1,0.1c-0.3,0.1-0.6,0.2-0.9,0.3s-0.4,0.2-0.6,0.3
		c-0.2,0.1-0.3,0.1-0.3,0.1c0,0-0.1,0-0.1,0s-0.1,0-0.1-0.1c0,0,0-0.1-0.1-0.1c0-0.1,0-0.1,0-0.2c0-0.1,0-0.3,0-0.3
		c0-0.1,0.1-0.2,0.2-0.3c0.1-0.1,0.2-0.2,0.5-0.3c0.2-0.1,0.5-0.2,0.8-0.3c0.3-0.1,0.6-0.2,0.9-0.2s0.7-0.1,1-0.1
		c0.6,0,1.2,0.1,1.6,0.2c0.4,0.2,0.8,0.4,1.1,0.7c0.3,0.3,0.5,0.6,0.6,1.1c0.1,0.4,0.2,0.9,0.2,1.4V427.4z M1544.8,423h-1.7
		c-0.5,0-0.9,0-1.3,0.1c-0.4,0.1-0.7,0.2-0.9,0.4c-0.2,0.2-0.4,0.4-0.5,0.6c-0.1,0.2-0.2,0.5-0.2,0.8c0,0.5,0.2,1,0.5,1.3
		c0.3,0.3,0.8,0.5,1.4,0.5c0.5,0,0.9-0.1,1.4-0.4c0.4-0.2,0.9-0.6,1.3-1.2V423z"/>
	<path fill="#919191" d="M1553.6,426.8c0,0.1,0,0.3,0,0.3c0,0.1-0.1,0.2-0.1,0.2c-0.1,0.1-0.1,0.1-0.2,0.1c-0.1,0-0.2,0.1-0.3,0.1
		c-0.1,0-0.3,0.1-0.4,0.1c-0.1,0-0.3,0-0.4,0c-0.5,0-0.8-0.1-1.2-0.2s-0.6-0.3-0.8-0.6c-0.2-0.2-0.4-0.6-0.4-0.9
		c-0.1-0.4-0.1-0.8-0.1-1.4v-5.8h-1.4c-0.1,0-0.2,0-0.2-0.1c-0.1-0.1-0.1-0.2-0.1-0.4c0-0.1,0-0.2,0-0.2c0-0.1,0-0.1,0.1-0.2
		c0,0,0.1-0.1,0.1-0.1c0,0,0.1,0,0.1,0h1.4v-2.3c0,0,0-0.1,0-0.1c0,0,0-0.1,0.1-0.1c0,0,0.1,0,0.2-0.1c0.1,0,0.2,0,0.3,0
		c0.1,0,0.2,0,0.3,0c0.1,0,0.1,0,0.2,0.1c0,0,0.1,0.1,0.1,0.1s0,0.1,0,0.1v2.3h2.6c0,0,0.1,0,0.1,0c0,0,0.1,0.1,0.1,0.1
		c0,0,0,0.1,0.1,0.2c0,0.1,0,0.1,0,0.2c0,0.2,0,0.3-0.1,0.4c-0.1,0.1-0.1,0.1-0.2,0.1h-2.6v5.6c0,0.7,0.1,1.2,0.3,1.6
		c0.2,0.4,0.6,0.6,1.1,0.6c0.2,0,0.3,0,0.4-0.1c0.1,0,0.3-0.1,0.4-0.1s0.2-0.1,0.3-0.1c0.1,0,0.1-0.1,0.2-0.1c0,0,0.1,0,0.1,0
		c0,0,0,0,0.1,0.1c0,0,0,0.1,0,0.1C1553.6,426.7,1553.6,426.8,1553.6,426.8z"/>
	<path fill="#919191" d="M1563.4,422.3c0,0.2-0.1,0.4-0.2,0.5c-0.1,0.1-0.3,0.1-0.4,0.1h-6.3c0,0.6,0.1,1.1,0.2,1.6
		c0.1,0.5,0.3,0.9,0.6,1.2c0.3,0.3,0.6,0.6,1,0.8s0.9,0.3,1.5,0.3c0.4,0,0.8,0,1.2-0.1c0.3-0.1,0.6-0.2,0.9-0.3
		c0.2-0.1,0.5-0.2,0.6-0.3c0.2-0.1,0.3-0.1,0.3-0.1c0,0,0.1,0,0.1,0s0.1,0.1,0.1,0.1c0,0,0,0.1,0,0.2c0,0.1,0,0.2,0,0.3
		c0,0,0,0.1,0,0.1c0,0,0,0.1,0,0.1c0,0,0,0.1,0,0.1c0,0,0,0.1-0.1,0.1c0,0-0.1,0.1-0.3,0.2c-0.2,0.1-0.4,0.2-0.7,0.3
		c-0.3,0.1-0.6,0.2-1,0.2c-0.4,0.1-0.8,0.1-1.2,0.1c-0.7,0-1.4-0.1-1.9-0.3c-0.6-0.2-1-0.5-1.4-1c-0.4-0.4-0.7-0.9-0.9-1.6
		c-0.2-0.6-0.3-1.3-0.3-2.2c0-0.8,0.1-1.5,0.3-2.1c0.2-0.6,0.5-1.2,0.9-1.6c0.4-0.4,0.8-0.8,1.4-1c0.5-0.2,1.1-0.3,1.8-0.3
		c0.7,0,1.3,0.1,1.8,0.3s0.9,0.5,1.2,0.9c0.3,0.4,0.5,0.8,0.7,1.4c0.1,0.5,0.2,1.1,0.2,1.6V422.3z M1562.2,421.9
		c0-1-0.2-1.8-0.7-2.3s-1.2-0.8-2.1-0.8c-0.5,0-0.9,0.1-1.2,0.3c-0.4,0.2-0.6,0.4-0.9,0.7c-0.2,0.3-0.4,0.6-0.6,1
		c-0.1,0.4-0.2,0.8-0.2,1.2H1562.2z"/>
	<path fill="#919191" d="M1571.4,418.6c0,0.1,0,0.2,0,0.3c0,0.1,0,0.1,0,0.2c0,0,0,0.1-0.1,0.1c0,0-0.1,0-0.1,0c-0.1,0-0.1,0-0.2,0
		c-0.1,0-0.2-0.1-0.3-0.1s-0.2-0.1-0.4-0.1c-0.1,0-0.3,0-0.4,0c-0.2,0-0.4,0-0.5,0.1c-0.2,0.1-0.4,0.2-0.6,0.4
		c-0.2,0.2-0.4,0.4-0.6,0.7c-0.2,0.3-0.5,0.6-0.7,1.1v6.3c0,0,0,0.1,0,0.1c0,0-0.1,0.1-0.1,0.1c0,0-0.1,0-0.2,0.1
		c-0.1,0-0.2,0-0.3,0c-0.1,0-0.2,0-0.3,0c-0.1,0-0.1,0-0.2-0.1c0,0-0.1,0-0.1-0.1c0,0,0-0.1,0-0.1v-9.3c0,0,0-0.1,0-0.1
		c0,0,0-0.1,0.1-0.1c0,0,0.1,0,0.2-0.1c0.1,0,0.2,0,0.3,0s0.2,0,0.3,0c0.1,0,0.1,0,0.2,0.1c0,0,0.1,0.1,0.1,0.1c0,0,0,0.1,0,0.1v1.5
		c0.3-0.4,0.5-0.7,0.7-0.9c0.2-0.2,0.4-0.4,0.6-0.6c0.2-0.1,0.4-0.2,0.6-0.3c0.2,0,0.4-0.1,0.6-0.1c0.1,0,0.2,0,0.3,0
		c0.1,0,0.2,0,0.4,0.1c0.1,0,0.3,0.1,0.4,0.1c0.1,0,0.2,0.1,0.2,0.1c0,0,0.1,0.1,0.1,0.1c0,0,0,0.1,0,0.1c0,0,0,0.1,0,0.2
		C1571.4,418.4,1571.4,418.5,1571.4,418.6z"/>
	<path fill="#919191" d="M1574.9,415c0,0.3-0.1,0.5-0.2,0.7c-0.1,0.1-0.3,0.2-0.6,0.2c-0.3,0-0.5-0.1-0.6-0.2
		c-0.1-0.1-0.2-0.3-0.2-0.7s0.1-0.6,0.2-0.7c0.1-0.1,0.3-0.2,0.6-0.2c0.3,0,0.5,0.1,0.6,0.2C1574.8,414.4,1574.9,414.7,1574.9,415z
		 M1574.7,427.4c0,0,0,0.1,0,0.1c0,0-0.1,0.1-0.1,0.1c0,0-0.1,0-0.2,0.1c-0.1,0-0.2,0-0.3,0c-0.1,0-0.2,0-0.3,0
		c-0.1,0-0.1,0-0.2-0.1c0,0-0.1,0-0.1-0.1c0,0,0-0.1,0-0.1v-9.3c0,0,0-0.1,0-0.1c0,0,0-0.1,0.1-0.1c0,0,0.1,0,0.2-0.1
		c0.1,0,0.2,0,0.3,0c0.1,0,0.2,0,0.3,0c0.1,0,0.1,0,0.2,0.1c0,0,0.1,0.1,0.1,0.1c0,0,0,0.1,0,0.1V427.4z"/>
	<path fill="#919191" d="M1584.6,427.4c0,0.1,0,0.1-0.1,0.2c0,0-0.1,0.1-0.2,0.1c-0.1,0-0.2,0-0.3,0c-0.1,0-0.2,0-0.3,0
		c-0.1,0-0.1,0-0.2-0.1c0,0-0.1-0.1-0.1-0.2v-1c-0.4,0.5-0.9,0.8-1.4,1c-0.5,0.2-1,0.4-1.6,0.4c-0.5,0-0.9-0.1-1.3-0.2
		c-0.4-0.1-0.7-0.3-1-0.5c-0.3-0.2-0.5-0.5-0.6-0.9c-0.1-0.3-0.2-0.7-0.2-1.1c0-0.5,0.1-1,0.3-1.3c0.2-0.4,0.5-0.7,0.9-0.9
		c0.4-0.3,0.9-0.4,1.4-0.6c0.5-0.1,1.2-0.2,1.8-0.2h1.5v-0.8c0-0.4,0-0.7-0.1-1.1c-0.1-0.3-0.2-0.6-0.4-0.8
		c-0.2-0.2-0.4-0.4-0.7-0.5s-0.7-0.2-1.1-0.2c-0.4,0-0.8,0-1.1,0.1c-0.3,0.1-0.6,0.2-0.9,0.3s-0.4,0.2-0.6,0.3
		c-0.2,0.1-0.3,0.1-0.3,0.1c0,0-0.1,0-0.1,0s-0.1,0-0.1-0.1c0,0,0-0.1-0.1-0.1c0-0.1,0-0.1,0-0.2c0-0.1,0-0.3,0-0.3
		c0-0.1,0.1-0.2,0.2-0.3c0.1-0.1,0.2-0.2,0.5-0.3c0.2-0.1,0.5-0.2,0.8-0.3c0.3-0.1,0.6-0.2,0.9-0.2s0.7-0.1,1-0.1
		c0.6,0,1.2,0.1,1.6,0.2c0.4,0.2,0.8,0.4,1.1,0.7c0.3,0.3,0.5,0.6,0.6,1.1c0.1,0.4,0.2,0.9,0.2,1.4V427.4z M1583.4,423h-1.7
		c-0.5,0-0.9,0-1.3,0.1c-0.4,0.1-0.7,0.2-0.9,0.4c-0.2,0.2-0.4,0.4-0.5,0.6c-0.1,0.2-0.2,0.5-0.2,0.8c0,0.5,0.2,1,0.5,1.3
		c0.3,0.3,0.8,0.5,1.4,0.5c0.5,0,0.9-0.1,1.4-0.4c0.4-0.2,0.9-0.6,1.3-1.2V423z"/>
	<path fill="#919191" d="M1589.2,427.4c0,0,0,0.1,0,0.1c0,0-0.1,0.1-0.1,0.1c0,0-0.1,0-0.2,0.1c-0.1,0-0.2,0-0.3,0
		c-0.1,0-0.2,0-0.3,0c-0.1,0-0.1,0-0.2-0.1c0,0-0.1,0-0.1-0.1c0,0,0-0.1,0-0.1v-13.8c0,0,0-0.1,0-0.1c0,0,0-0.1,0.1-0.1
		c0,0,0.1,0,0.2-0.1c0.1,0,0.2,0,0.3,0c0.1,0,0.2,0,0.3,0c0.1,0,0.1,0,0.2,0.1c0,0,0.1,0.1,0.1,0.1c0,0,0,0.1,0,0.1V427.4z"/>
	<path fill="#919191" d="M1598.1,424.9c0,0.4-0.1,0.8-0.2,1.2c-0.2,0.4-0.4,0.7-0.7,0.9c-0.3,0.2-0.7,0.4-1.1,0.6
		c-0.4,0.1-0.9,0.2-1.4,0.2c-0.3,0-0.6,0-0.9-0.1c-0.3-0.1-0.5-0.1-0.8-0.2c-0.2-0.1-0.4-0.2-0.6-0.3c-0.2-0.1-0.3-0.2-0.4-0.2
		s-0.1-0.2-0.2-0.3c0-0.1-0.1-0.2-0.1-0.4c0-0.1,0-0.2,0-0.2c0-0.1,0-0.1,0.1-0.2c0,0,0-0.1,0.1-0.1c0,0,0.1,0,0.1,0
		c0.1,0,0.2,0,0.3,0.1c0.1,0.1,0.3,0.2,0.5,0.3c0.2,0.1,0.5,0.2,0.8,0.3c0.3,0.1,0.6,0.1,1,0.1c0.3,0,0.6,0,0.9-0.1
		c0.3-0.1,0.5-0.2,0.7-0.3s0.3-0.3,0.4-0.5c0.1-0.2,0.2-0.5,0.2-0.8s-0.1-0.5-0.2-0.7s-0.3-0.4-0.5-0.5c-0.2-0.1-0.5-0.3-0.8-0.4
		c-0.3-0.1-0.6-0.2-0.9-0.3c-0.3-0.1-0.6-0.3-0.9-0.4c-0.3-0.1-0.5-0.3-0.8-0.5c-0.2-0.2-0.4-0.5-0.5-0.7s-0.2-0.6-0.2-1
		c0-0.3,0.1-0.6,0.2-0.9c0.1-0.3,0.3-0.6,0.6-0.8c0.3-0.2,0.6-0.4,1-0.6c0.4-0.2,0.9-0.2,1.4-0.2c0.2,0,0.5,0,0.7,0.1
		c0.2,0,0.4,0.1,0.6,0.1c0.2,0.1,0.3,0.1,0.5,0.2c0.1,0.1,0.2,0.1,0.3,0.2c0.1,0.1,0.1,0.1,0.1,0.1c0,0,0,0.1,0.1,0.1
		c0,0,0,0.1,0,0.1c0,0.1,0,0.1,0,0.2s0,0.2,0,0.2c0,0.1,0,0.1,0,0.2c0,0,0,0.1-0.1,0.1c0,0-0.1,0-0.1,0c-0.1,0-0.1,0-0.2-0.1
		s-0.3-0.2-0.4-0.2s-0.4-0.2-0.6-0.2s-0.5-0.1-0.9-0.1c-0.3,0-0.6,0-0.8,0.1c-0.2,0.1-0.4,0.2-0.6,0.3s-0.3,0.3-0.4,0.5
		c-0.1,0.2-0.1,0.4-0.1,0.6c0,0.3,0.1,0.6,0.2,0.8s0.3,0.4,0.5,0.5c0.2,0.2,0.5,0.3,0.8,0.4s0.6,0.2,0.9,0.3
		c0.3,0.1,0.6,0.2,0.9,0.4c0.3,0.1,0.5,0.3,0.8,0.5c0.2,0.2,0.4,0.4,0.5,0.7C1598,424.2,1598.1,424.5,1598.1,424.9z"/>
	<path fill="#919191" d="M1610.3,414.2c0,0.1,0,0.2,0,0.2c0,0.1,0,0.1,0,0.1c0,0,0,0.1-0.1,0.1c0,0-0.1,0-0.1,0
		c-0.1,0-0.1,0-0.2-0.1s-0.2-0.1-0.3-0.1c-0.1,0-0.2-0.1-0.4-0.1c-0.2,0-0.3-0.1-0.5-0.1c-0.3,0-0.5,0-0.7,0.1
		c-0.2,0.1-0.4,0.2-0.5,0.4c-0.1,0.2-0.2,0.5-0.3,0.8c-0.1,0.3-0.1,0.7-0.1,1.2v1.1h2.3c0,0,0.1,0,0.1,0s0.1,0.1,0.1,0.1
		c0,0,0,0.1,0.1,0.2c0,0.1,0,0.1,0,0.2c0,0.2,0,0.3-0.1,0.4c-0.1,0.1-0.1,0.1-0.2,0.1h-2.3v8.5c0,0,0,0.1,0,0.1s-0.1,0.1-0.1,0.1
		c0,0-0.1,0-0.2,0.1s-0.2,0-0.3,0c-0.1,0-0.2,0-0.3,0c-0.1,0-0.1,0-0.2-0.1s-0.1,0-0.1-0.1c0,0,0-0.1,0-0.1v-8.5h-1.4
		c-0.1,0-0.2,0-0.2-0.1c-0.1-0.1-0.1-0.2-0.1-0.4c0-0.1,0-0.2,0-0.2c0-0.1,0-0.1,0.1-0.2c0,0,0.1-0.1,0.1-0.1c0,0,0.1,0,0.1,0h1.4
		v-1.1c0-0.6,0.1-1.2,0.2-1.7s0.3-0.8,0.5-1.1c0.2-0.3,0.5-0.5,0.9-0.6c0.4-0.1,0.8-0.2,1.2-0.2c0.2,0,0.5,0,0.7,0.1
		c0.2,0,0.4,0.1,0.5,0.1c0.1,0.1,0.2,0.1,0.2,0.1c0,0,0.1,0.1,0.1,0.1c0,0.1,0,0.1,0.1,0.2C1610.3,414,1610.3,414.1,1610.3,414.2z"
		/>
	<path fill="#919191" d="M1619.5,422.7c0,0.7-0.1,1.4-0.3,2s-0.5,1.2-0.9,1.6c-0.4,0.5-0.9,0.8-1.4,1.1c-0.6,0.3-1.2,0.4-2,0.4
		c-0.7,0-1.4-0.1-1.9-0.3c-0.5-0.2-1-0.6-1.4-1c-0.4-0.4-0.6-0.9-0.8-1.6c-0.2-0.6-0.3-1.3-0.3-2.1c0-0.7,0.1-1.4,0.3-2
		c0.2-0.6,0.5-1.2,0.9-1.6c0.4-0.5,0.9-0.8,1.4-1.1s1.2-0.4,2-0.4c0.7,0,1.4,0.1,1.9,0.3c0.5,0.2,1,0.6,1.4,1
		c0.4,0.4,0.6,0.9,0.8,1.6C1619.4,421.2,1619.5,421.9,1619.5,422.7z M1618.2,422.8c0-0.5-0.1-1-0.2-1.5c-0.1-0.5-0.3-0.9-0.5-1.3
		c-0.2-0.4-0.6-0.7-1-0.9c-0.4-0.2-0.9-0.3-1.5-0.3c-0.6,0-1,0.1-1.4,0.3s-0.7,0.5-1,0.8c-0.3,0.4-0.4,0.8-0.6,1.2s-0.2,1-0.2,1.5
		c0,0.5,0.1,1,0.2,1.5c0.1,0.5,0.3,0.9,0.5,1.3c0.2,0.4,0.6,0.7,1,0.9c0.4,0.2,0.9,0.3,1.5,0.3c0.6,0,1-0.1,1.4-0.3
		c0.4-0.2,0.7-0.5,1-0.8c0.3-0.3,0.4-0.8,0.6-1.2S1618.2,423.3,1618.2,422.8z"/>
	<path fill="#919191" d="M1627.4,418.6c0,0.1,0,0.2,0,0.3c0,0.1,0,0.1,0,0.2c0,0,0,0.1-0.1,0.1c0,0-0.1,0-0.1,0c-0.1,0-0.1,0-0.2,0
		c-0.1,0-0.2-0.1-0.3-0.1s-0.2-0.1-0.4-0.1c-0.1,0-0.3,0-0.4,0c-0.2,0-0.4,0-0.5,0.1c-0.2,0.1-0.4,0.2-0.6,0.4
		c-0.2,0.2-0.4,0.4-0.6,0.7c-0.2,0.3-0.5,0.6-0.7,1.1v6.3c0,0,0,0.1,0,0.1c0,0-0.1,0.1-0.1,0.1c0,0-0.1,0-0.2,0.1
		c-0.1,0-0.2,0-0.3,0c-0.1,0-0.2,0-0.3,0c-0.1,0-0.1,0-0.2-0.1c0,0-0.1,0-0.1-0.1c0,0,0-0.1,0-0.1v-9.3c0,0,0-0.1,0-0.1
		c0,0,0-0.1,0.1-0.1c0,0,0.1,0,0.2-0.1c0.1,0,0.2,0,0.3,0s0.2,0,0.3,0c0.1,0,0.1,0,0.2,0.1c0,0,0.1,0.1,0.1,0.1c0,0,0,0.1,0,0.1v1.5
		c0.3-0.4,0.5-0.7,0.7-0.9c0.2-0.2,0.4-0.4,0.6-0.6c0.2-0.1,0.4-0.2,0.6-0.3c0.2,0,0.4-0.1,0.6-0.1c0.1,0,0.2,0,0.3,0
		c0.1,0,0.2,0,0.4,0.1c0.1,0,0.3,0.1,0.4,0.1c0.1,0,0.2,0.1,0.2,0.1c0,0,0.1,0.1,0.1,0.1c0,0,0,0.1,0,0.1c0,0,0,0.1,0,0.2
		C1627.4,418.4,1627.4,418.5,1627.4,418.6z"/>
	<path fill="#919191" d="M1638.7,426.8c0,0.1,0,0.3,0,0.3c0,0.1-0.1,0.2-0.1,0.2c-0.1,0.1-0.1,0.1-0.2,0.1c-0.1,0-0.2,0.1-0.3,0.1
		c-0.1,0-0.3,0.1-0.4,0.1c-0.1,0-0.3,0-0.4,0c-0.5,0-0.8-0.1-1.2-0.2s-0.6-0.3-0.8-0.6c-0.2-0.2-0.4-0.6-0.4-0.9
		c-0.1-0.4-0.1-0.8-0.1-1.4v-5.8h-1.4c-0.1,0-0.2,0-0.2-0.1c-0.1-0.1-0.1-0.2-0.1-0.4c0-0.1,0-0.2,0-0.2c0-0.1,0-0.1,0.1-0.2
		c0,0,0.1-0.1,0.1-0.1c0,0,0.1,0,0.1,0h1.4v-2.3c0,0,0-0.1,0-0.1c0,0,0-0.1,0.1-0.1c0,0,0.1,0,0.2-0.1c0.1,0,0.2,0,0.3,0
		c0.1,0,0.2,0,0.3,0c0.1,0,0.1,0,0.2,0.1c0,0,0.1,0.1,0.1,0.1s0,0.1,0,0.1v2.3h2.6c0,0,0.1,0,0.1,0c0,0,0.1,0.1,0.1,0.1
		c0,0,0,0.1,0.1,0.2c0,0.1,0,0.1,0,0.2c0,0.2,0,0.3-0.1,0.4c-0.1,0.1-0.1,0.1-0.2,0.1h-2.6v5.6c0,0.7,0.1,1.2,0.3,1.6
		c0.2,0.4,0.6,0.6,1.1,0.6c0.2,0,0.3,0,0.4-0.1c0.1,0,0.3-0.1,0.4-0.1s0.2-0.1,0.3-0.1c0.1,0,0.1-0.1,0.2-0.1c0,0,0.1,0,0.1,0
		c0,0,0,0,0.1,0.1c0,0,0,0.1,0,0.1C1638.7,426.7,1638.7,426.8,1638.7,426.8z"/>
	<path fill="#919191" d="M1648.6,427.4c0,0,0,0.1,0,0.1s-0.1,0.1-0.1,0.1c0,0-0.1,0-0.2,0.1c-0.1,0-0.2,0-0.3,0c-0.1,0-0.2,0-0.3,0
		c-0.1,0-0.1,0-0.2-0.1c0,0-0.1,0-0.1-0.1c0,0,0-0.1,0-0.1v-5.5c0-0.6,0-1-0.1-1.4c-0.1-0.4-0.2-0.7-0.4-0.9
		c-0.2-0.3-0.4-0.5-0.7-0.6c-0.3-0.1-0.6-0.2-1-0.2c-0.5,0-0.9,0.2-1.4,0.5c-0.5,0.3-1,0.8-1.5,1.5v6.7c0,0,0,0.1,0,0.1
		c0,0-0.1,0.1-0.1,0.1c0,0-0.1,0-0.2,0.1c-0.1,0-0.2,0-0.3,0c-0.1,0-0.2,0-0.3,0c-0.1,0-0.1,0-0.2-0.1c0,0-0.1,0-0.1-0.1
		c0,0,0-0.1,0-0.1v-13.8c0,0,0-0.1,0-0.1c0,0,0-0.1,0.1-0.1c0,0,0.1,0,0.2-0.1c0.1,0,0.2,0,0.3,0c0.1,0,0.2,0,0.3,0
		c0.1,0,0.1,0,0.2,0.1c0,0,0.1,0.1,0.1,0.1c0,0,0,0.1,0,0.1v5.8c0.5-0.6,1-1,1.5-1.2c0.5-0.3,1-0.4,1.5-0.4c0.6,0,1.1,0.1,1.5,0.3
		s0.8,0.5,1,0.8c0.3,0.3,0.4,0.8,0.6,1.2c0.1,0.5,0.2,1,0.2,1.7V427.4z"/>
	<path fill="#919191" d="M1659.6,422.3c0,0.2-0.1,0.4-0.2,0.5c-0.1,0.1-0.3,0.1-0.4,0.1h-6.3c0,0.6,0.1,1.1,0.2,1.6
		c0.1,0.5,0.3,0.9,0.6,1.2c0.3,0.3,0.6,0.6,1,0.8s0.9,0.3,1.5,0.3c0.4,0,0.8,0,1.2-0.1c0.3-0.1,0.6-0.2,0.9-0.3
		c0.2-0.1,0.5-0.2,0.6-0.3c0.2-0.1,0.3-0.1,0.3-0.1c0,0,0.1,0,0.1,0s0.1,0.1,0.1,0.1c0,0,0,0.1,0,0.2c0,0.1,0,0.2,0,0.3
		c0,0,0,0.1,0,0.1c0,0,0,0.1,0,0.1c0,0,0,0.1,0,0.1c0,0,0,0.1-0.1,0.1c0,0-0.1,0.1-0.3,0.2c-0.2,0.1-0.4,0.2-0.7,0.3
		c-0.3,0.1-0.6,0.2-1,0.2c-0.4,0.1-0.8,0.1-1.2,0.1c-0.7,0-1.4-0.1-1.9-0.3c-0.6-0.2-1-0.5-1.4-1c-0.4-0.4-0.7-0.9-0.9-1.6
		c-0.2-0.6-0.3-1.3-0.3-2.2c0-0.8,0.1-1.5,0.3-2.1c0.2-0.6,0.5-1.2,0.9-1.6c0.4-0.4,0.8-0.8,1.4-1c0.5-0.2,1.1-0.3,1.8-0.3
		c0.7,0,1.3,0.1,1.8,0.3s0.9,0.5,1.2,0.9c0.3,0.4,0.5,0.8,0.7,1.4c0.1,0.5,0.2,1.1,0.2,1.6V422.3z M1658.3,421.9
		c0-1-0.2-1.8-0.7-2.3s-1.2-0.8-2.1-0.8c-0.5,0-0.9,0.1-1.2,0.3c-0.4,0.2-0.6,0.4-0.9,0.7c-0.2,0.3-0.4,0.6-0.6,1
		c-0.1,0.4-0.2,0.8-0.2,1.2H1658.3z"/>
	<path fill="#919191" d="M1674.1,424c0,0.6-0.1,1.1-0.3,1.6s-0.5,0.9-0.9,1.2c-0.4,0.3-0.8,0.6-1.4,0.7c-0.5,0.2-1.1,0.3-1.7,0.3
		c-0.4,0-0.8,0-1.2-0.1c-0.4-0.1-0.7-0.2-1-0.3s-0.5-0.2-0.7-0.3c-0.2-0.1-0.3-0.2-0.4-0.3c-0.1-0.1-0.1-0.2-0.2-0.3
		c0-0.1-0.1-0.2-0.1-0.4c0-0.1,0-0.2,0-0.3c0-0.1,0-0.1,0.1-0.2c0,0,0.1-0.1,0.1-0.1c0,0,0.1,0,0.1,0c0.1,0,0.2,0.1,0.4,0.2
		c0.2,0.1,0.4,0.2,0.7,0.4c0.3,0.1,0.6,0.3,1,0.4c0.4,0.1,0.8,0.2,1.3,0.2c0.4,0,0.8-0.1,1.1-0.2c0.3-0.1,0.6-0.3,0.9-0.5
		s0.4-0.5,0.6-0.8c0.1-0.3,0.2-0.7,0.2-1.1c0-0.4-0.1-0.8-0.3-1.1c-0.2-0.3-0.4-0.6-0.7-0.8c-0.3-0.2-0.6-0.4-1-0.6
		c-0.4-0.2-0.7-0.4-1.1-0.5c-0.4-0.2-0.8-0.4-1.1-0.6s-0.7-0.5-1-0.7c-0.3-0.3-0.5-0.6-0.7-1c-0.2-0.4-0.3-0.8-0.3-1.4
		c0-0.5,0.1-1,0.3-1.4c0.2-0.4,0.4-0.8,0.8-1c0.3-0.3,0.7-0.5,1.2-0.7c0.5-0.2,1-0.2,1.5-0.2c0.3,0,0.6,0,0.9,0.1s0.6,0.1,0.8,0.2
		c0.3,0.1,0.5,0.2,0.7,0.3c0.2,0.1,0.3,0.2,0.4,0.3c0.1,0.1,0.1,0.1,0.1,0.1c0,0,0,0.1,0,0.1c0,0,0,0.1,0,0.2c0,0.1,0,0.1,0,0.2
		c0,0.1,0,0.2,0,0.2c0,0.1,0,0.1,0,0.2c0,0.1,0,0.1-0.1,0.1c0,0-0.1,0-0.1,0c-0.1,0-0.2,0-0.3-0.1c-0.2-0.1-0.3-0.2-0.6-0.3
		c-0.2-0.1-0.5-0.2-0.8-0.3c-0.3-0.1-0.7-0.1-1.1-0.1c-0.4,0-0.8,0.1-1.1,0.2s-0.6,0.3-0.7,0.4c-0.2,0.2-0.3,0.4-0.4,0.7
		c-0.1,0.3-0.1,0.5-0.1,0.8c0,0.4,0.1,0.8,0.3,1.1c0.2,0.3,0.4,0.6,0.7,0.8c0.3,0.2,0.6,0.4,1,0.6c0.4,0.2,0.8,0.4,1.1,0.5
		c0.4,0.2,0.8,0.4,1.1,0.6c0.4,0.2,0.7,0.5,1,0.7c0.3,0.3,0.5,0.6,0.7,1C1674,423,1674.1,423.5,1674.1,424z"/>
	<path fill="#919191" d="M1683.1,426c0,0.1,0,0.2,0,0.2c0,0.1,0,0.1,0,0.2c0,0,0,0.1-0.1,0.1c0,0-0.1,0.1-0.2,0.2s-0.2,0.2-0.4,0.3
		c-0.2,0.1-0.4,0.3-0.7,0.4s-0.5,0.2-0.8,0.3c-0.3,0.1-0.6,0.1-0.9,0.1c-0.6,0-1.2-0.1-1.7-0.3c-0.5-0.2-0.9-0.5-1.2-1
		c-0.3-0.4-0.6-0.9-0.8-1.5c-0.2-0.6-0.3-1.3-0.3-2.1c0-0.9,0.1-1.7,0.3-2.3c0.2-0.6,0.5-1.2,0.9-1.6s0.8-0.7,1.3-0.9
		c0.5-0.2,1-0.3,1.6-0.3c0.3,0,0.6,0,0.9,0.1c0.3,0.1,0.5,0.1,0.8,0.2c0.2,0.1,0.4,0.2,0.6,0.3c0.2,0.1,0.3,0.2,0.4,0.3
		c0.1,0.1,0.1,0.2,0.2,0.2c0,0,0.1,0.1,0.1,0.1c0,0.1,0,0.1,0,0.2c0,0.1,0,0.1,0,0.2c0,0.2,0,0.3-0.1,0.4c-0.1,0.1-0.1,0.1-0.2,0.1
		c-0.1,0-0.2-0.1-0.4-0.2c-0.1-0.1-0.3-0.3-0.5-0.4c-0.2-0.1-0.5-0.3-0.8-0.4c-0.3-0.1-0.7-0.2-1.1-0.2c-0.9,0-1.6,0.3-2.1,1
		c-0.5,0.7-0.7,1.7-0.7,3c0,0.6,0.1,1.2,0.2,1.7c0.1,0.5,0.3,0.9,0.6,1.2c0.2,0.3,0.5,0.6,0.9,0.7c0.3,0.2,0.7,0.2,1.2,0.2
		c0.4,0,0.8-0.1,1.1-0.2c0.3-0.1,0.6-0.3,0.8-0.4c0.2-0.2,0.4-0.3,0.6-0.4c0.2-0.1,0.3-0.2,0.3-0.2c0,0,0.1,0,0.1,0
		c0,0,0.1,0.1,0.1,0.1c0,0.1,0,0.1,0,0.2C1683.1,425.8,1683.1,425.9,1683.1,426z"/>
	<path fill="#919191" d="M1693.1,427.4c0,0,0,0.1,0,0.1s-0.1,0.1-0.1,0.1c0,0-0.1,0-0.2,0.1c-0.1,0-0.2,0-0.3,0c-0.1,0-0.2,0-0.3,0
		c-0.1,0-0.1,0-0.2-0.1c0,0-0.1,0-0.1-0.1c0,0,0-0.1,0-0.1v-5.5c0-0.6,0-1-0.1-1.4c-0.1-0.4-0.2-0.7-0.4-0.9
		c-0.2-0.3-0.4-0.5-0.7-0.6c-0.3-0.1-0.6-0.2-1-0.2c-0.5,0-0.9,0.2-1.4,0.5c-0.5,0.3-1,0.8-1.5,1.5v6.7c0,0,0,0.1,0,0.1
		c0,0-0.1,0.1-0.1,0.1c0,0-0.1,0-0.2,0.1c-0.1,0-0.2,0-0.3,0c-0.1,0-0.2,0-0.3,0c-0.1,0-0.1,0-0.2-0.1c0,0-0.1,0-0.1-0.1
		c0,0,0-0.1,0-0.1v-13.8c0,0,0-0.1,0-0.1c0,0,0-0.1,0.1-0.1c0,0,0.1,0,0.2-0.1c0.1,0,0.2,0,0.3,0c0.1,0,0.2,0,0.3,0
		c0.1,0,0.1,0,0.2,0.1c0,0,0.1,0.1,0.1,0.1c0,0,0,0.1,0,0.1v5.8c0.5-0.6,1-1,1.5-1.2c0.5-0.3,1-0.4,1.5-0.4c0.6,0,1.1,0.1,1.5,0.3
		s0.8,0.5,1,0.8c0.3,0.3,0.4,0.8,0.6,1.2c0.1,0.5,0.2,1,0.2,1.7V427.4z"/>
	<path fill="#919191" d="M1704.7,422.7c0,0.7-0.1,1.4-0.3,2s-0.5,1.2-0.9,1.6c-0.4,0.5-0.9,0.8-1.4,1.1c-0.6,0.3-1.2,0.4-2,0.4
		c-0.7,0-1.4-0.1-1.9-0.3c-0.5-0.2-1-0.6-1.4-1c-0.4-0.4-0.6-0.9-0.8-1.6c-0.2-0.6-0.3-1.3-0.3-2.1c0-0.7,0.1-1.4,0.3-2
		c0.2-0.6,0.5-1.2,0.9-1.6c0.4-0.5,0.9-0.8,1.4-1.1s1.2-0.4,2-0.4c0.7,0,1.4,0.1,1.9,0.3c0.5,0.2,1,0.6,1.4,1
		c0.4,0.4,0.6,0.9,0.8,1.6C1704.6,421.2,1704.7,421.9,1704.7,422.7z M1703.4,422.8c0-0.5-0.1-1-0.2-1.5c-0.1-0.5-0.3-0.9-0.5-1.3
		c-0.2-0.4-0.6-0.7-1-0.9c-0.4-0.2-0.9-0.3-1.5-0.3c-0.6,0-1,0.1-1.4,0.3s-0.7,0.5-1,0.8c-0.3,0.4-0.4,0.8-0.6,1.2s-0.2,1-0.2,1.5
		c0,0.5,0.1,1,0.2,1.5c0.1,0.5,0.3,0.9,0.5,1.3c0.2,0.4,0.6,0.7,1,0.9c0.4,0.2,0.9,0.3,1.5,0.3c0.6,0,1-0.1,1.4-0.3
		c0.4-0.2,0.7-0.5,1-0.8c0.3-0.3,0.4-0.8,0.6-1.2S1703.4,423.3,1703.4,422.8z"/>
	<path fill="#919191" d="M1715.6,422.7c0,0.7-0.1,1.4-0.3,2s-0.5,1.2-0.9,1.6c-0.4,0.5-0.9,0.8-1.4,1.1c-0.6,0.3-1.2,0.4-2,0.4
		c-0.7,0-1.4-0.1-1.9-0.3c-0.5-0.2-1-0.6-1.4-1c-0.4-0.4-0.6-0.9-0.8-1.6c-0.2-0.6-0.3-1.3-0.3-2.1c0-0.7,0.1-1.4,0.3-2
		c0.2-0.6,0.5-1.2,0.9-1.6c0.4-0.5,0.9-0.8,1.4-1.1s1.2-0.4,2-0.4c0.7,0,1.4,0.1,1.9,0.3c0.5,0.2,1,0.6,1.4,1
		c0.4,0.4,0.6,0.9,0.8,1.6C1715.6,421.2,1715.6,421.9,1715.6,422.7z M1714.4,422.8c0-0.5-0.1-1-0.2-1.5c-0.1-0.5-0.3-0.9-0.5-1.3
		c-0.2-0.4-0.6-0.7-1-0.9c-0.4-0.2-0.9-0.3-1.5-0.3c-0.6,0-1,0.1-1.4,0.3s-0.7,0.5-1,0.8c-0.3,0.4-0.4,0.8-0.6,1.2s-0.2,1-0.2,1.5
		c0,0.5,0.1,1,0.2,1.5c0.1,0.5,0.3,0.9,0.5,1.3c0.2,0.4,0.6,0.7,1,0.9c0.4,0.2,0.9,0.3,1.5,0.3c0.6,0,1-0.1,1.4-0.3
		c0.4-0.2,0.7-0.5,1-0.8c0.3-0.3,0.4-0.8,0.6-1.2S1714.4,423.3,1714.4,422.8z"/>
	<path fill="#919191" d="M1719.6,427.4c0,0,0,0.1,0,0.1c0,0-0.1,0.1-0.1,0.1c0,0-0.1,0-0.2,0.1c-0.1,0-0.2,0-0.3,0
		c-0.1,0-0.2,0-0.3,0c-0.1,0-0.1,0-0.2-0.1c0,0-0.1,0-0.1-0.1c0,0,0-0.1,0-0.1v-13.8c0,0,0-0.1,0-0.1c0,0,0-0.1,0.1-0.1
		c0,0,0.1,0,0.2-0.1c0.1,0,0.2,0,0.3,0c0.1,0,0.2,0,0.3,0c0.1,0,0.1,0,0.2,0.1c0,0,0.1,0.1,0.1,0.1c0,0,0,0.1,0,0.1V427.4z"/>
	<path fill="#919191" d="M1736,422.7c0,0.7-0.1,1.4-0.3,2s-0.5,1.2-0.9,1.6c-0.4,0.5-0.9,0.8-1.4,1.1c-0.6,0.3-1.2,0.4-2,0.4
		c-0.7,0-1.4-0.1-1.9-0.3c-0.5-0.2-1-0.6-1.4-1c-0.4-0.4-0.6-0.9-0.8-1.6c-0.2-0.6-0.3-1.3-0.3-2.1c0-0.7,0.1-1.4,0.3-2
		c0.2-0.6,0.5-1.2,0.9-1.6c0.4-0.5,0.9-0.8,1.4-1.1s1.2-0.4,2-0.4c0.7,0,1.4,0.1,1.9,0.3c0.5,0.2,1,0.6,1.4,1
		c0.4,0.4,0.6,0.9,0.8,1.6C1735.9,421.2,1736,421.9,1736,422.7z M1734.7,422.8c0-0.5-0.1-1-0.2-1.5c-0.1-0.5-0.3-0.9-0.5-1.3
		c-0.2-0.4-0.6-0.7-1-0.9c-0.4-0.2-0.9-0.3-1.5-0.3c-0.6,0-1,0.1-1.4,0.3s-0.7,0.5-1,0.8c-0.3,0.4-0.4,0.8-0.6,1.2s-0.2,1-0.2,1.5
		c0,0.5,0.1,1,0.2,1.5c0.1,0.5,0.3,0.9,0.5,1.3c0.2,0.4,0.6,0.7,1,0.9c0.4,0.2,0.9,0.3,1.5,0.3c0.6,0,1-0.1,1.4-0.3
		c0.4-0.2,0.7-0.5,1-0.8c0.3-0.3,0.4-0.8,0.6-1.2S1734.7,423.3,1734.7,422.8z"/>
	<path fill="#919191" d="M1743.5,414.2c0,0.1,0,0.2,0,0.2c0,0.1,0,0.1,0,0.1c0,0,0,0.1-0.1,0.1c0,0-0.1,0-0.1,0
		c-0.1,0-0.1,0-0.2-0.1s-0.2-0.1-0.3-0.1c-0.1,0-0.2-0.1-0.4-0.1c-0.2,0-0.3-0.1-0.5-0.1c-0.3,0-0.5,0-0.7,0.1
		c-0.2,0.1-0.4,0.2-0.5,0.4c-0.1,0.2-0.2,0.5-0.3,0.8c-0.1,0.3-0.1,0.7-0.1,1.2v1.1h2.3c0,0,0.1,0,0.1,0s0.1,0.1,0.1,0.1
		c0,0,0,0.1,0.1,0.2c0,0.1,0,0.1,0,0.2c0,0.2,0,0.3-0.1,0.4c-0.1,0.1-0.1,0.1-0.2,0.1h-2.3v8.5c0,0,0,0.1,0,0.1s-0.1,0.1-0.1,0.1
		c0,0-0.1,0-0.2,0.1s-0.2,0-0.3,0c-0.1,0-0.2,0-0.3,0c-0.1,0-0.1,0-0.2-0.1s-0.1,0-0.1-0.1c0,0,0-0.1,0-0.1v-8.5h-1.4
		c-0.1,0-0.2,0-0.2-0.1c-0.1-0.1-0.1-0.2-0.1-0.4c0-0.1,0-0.2,0-0.2c0-0.1,0-0.1,0.1-0.2c0,0,0.1-0.1,0.1-0.1c0,0,0.1,0,0.1,0h1.4
		v-1.1c0-0.6,0.1-1.2,0.2-1.7s0.3-0.8,0.5-1.1c0.2-0.3,0.5-0.5,0.9-0.6c0.4-0.1,0.8-0.2,1.2-0.2c0.2,0,0.5,0,0.7,0.1
		c0.2,0,0.4,0.1,0.5,0.1c0.1,0.1,0.2,0.1,0.2,0.1c0,0,0.1,0.1,0.1,0.1c0,0.1,0,0.1,0.1,0.2C1743.5,414,1743.5,414.1,1743.5,414.2z"
		/>
	<path fill="#919191" d="M1754.6,427.4c0,0.1-0.1,0.1-0.1,0.1c0,0-0.1,0.1-0.2,0.1c-0.1,0-0.1,0-0.2,0c-0.1,0-0.2,0-0.3,0
		c-0.1,0-0.2,0-0.2,0c-0.1,0-0.1,0-0.2,0c-0.1,0-0.1,0-0.1,0s-0.1,0-0.1-0.1s-0.1,0-0.1-0.1s0-0.1-0.1-0.1l-4.5-12.6
		c0-0.1-0.1-0.2-0.1-0.3c0-0.1,0-0.1,0.1-0.1c0,0,0.1-0.1,0.2-0.1c0.1,0,0.2,0,0.4,0c0.1,0,0.2,0,0.3,0c0.1,0,0.1,0,0.2,0
		c0,0,0.1,0,0.1,0.1c0,0,0,0.1,0.1,0.1l4.1,11.7h0l4-11.7c0,0,0-0.1,0.1-0.1c0,0,0.1-0.1,0.1-0.1c0.1,0,0.1,0,0.2,0
		c0.1,0,0.2,0,0.3,0c0.2,0,0.3,0,0.4,0c0.1,0,0.2,0,0.2,0.1c0,0,0.1,0.1,0.1,0.1c0,0.1,0,0.1-0.1,0.2L1754.6,427.4z"/>
	<path fill="#919191" d="M1762.8,415c0,0.3-0.1,0.5-0.2,0.7c-0.1,0.1-0.3,0.2-0.6,0.2c-0.3,0-0.5-0.1-0.6-0.2
		c-0.1-0.1-0.2-0.3-0.2-0.7s0.1-0.6,0.2-0.7c0.1-0.1,0.3-0.2,0.6-0.2c0.3,0,0.5,0.1,0.6,0.2C1762.7,414.4,1762.8,414.7,1762.8,415z
		 M1762.6,427.4c0,0,0,0.1,0,0.1c0,0-0.1,0.1-0.1,0.1c0,0-0.1,0-0.2,0.1c-0.1,0-0.2,0-0.3,0c-0.1,0-0.2,0-0.3,0
		c-0.1,0-0.1,0-0.2-0.1c0,0-0.1,0-0.1-0.1c0,0,0-0.1,0-0.1v-9.3c0,0,0-0.1,0-0.1c0,0,0-0.1,0.1-0.1c0,0,0.1,0,0.2-0.1
		c0.1,0,0.2,0,0.3,0c0.1,0,0.2,0,0.3,0c0.1,0,0.1,0,0.2,0.1c0,0,0.1,0.1,0.1,0.1c0,0,0,0.1,0,0.1V427.4z"/>
	<path fill="#919191" d="M1771.5,424.9c0,0.4-0.1,0.8-0.2,1.2c-0.2,0.4-0.4,0.7-0.7,0.9c-0.3,0.2-0.7,0.4-1.1,0.6
		c-0.4,0.1-0.9,0.2-1.4,0.2c-0.3,0-0.6,0-0.9-0.1c-0.3-0.1-0.5-0.1-0.8-0.2c-0.2-0.1-0.4-0.2-0.6-0.3c-0.2-0.1-0.3-0.2-0.4-0.2
		s-0.1-0.2-0.2-0.3c0-0.1-0.1-0.2-0.1-0.4c0-0.1,0-0.2,0-0.2c0-0.1,0-0.1,0.1-0.2c0,0,0-0.1,0.1-0.1c0,0,0.1,0,0.1,0
		c0.1,0,0.2,0,0.3,0.1c0.1,0.1,0.3,0.2,0.5,0.3c0.2,0.1,0.5,0.2,0.8,0.3c0.3,0.1,0.6,0.1,1,0.1c0.3,0,0.6,0,0.9-0.1
		c0.3-0.1,0.5-0.2,0.7-0.3s0.3-0.3,0.4-0.5c0.1-0.2,0.2-0.5,0.2-0.8s-0.1-0.5-0.2-0.7s-0.3-0.4-0.5-0.5c-0.2-0.1-0.5-0.3-0.8-0.4
		c-0.3-0.1-0.6-0.2-0.9-0.3c-0.3-0.1-0.6-0.3-0.9-0.4c-0.3-0.1-0.5-0.3-0.8-0.5c-0.2-0.2-0.4-0.5-0.5-0.7s-0.2-0.6-0.2-1
		c0-0.3,0.1-0.6,0.2-0.9c0.1-0.3,0.3-0.6,0.6-0.8c0.3-0.2,0.6-0.4,1-0.6c0.4-0.2,0.9-0.2,1.4-0.2c0.2,0,0.5,0,0.7,0.1
		c0.2,0,0.4,0.1,0.6,0.1c0.2,0.1,0.3,0.1,0.5,0.2c0.1,0.1,0.2,0.1,0.3,0.2c0.1,0.1,0.1,0.1,0.1,0.1c0,0,0,0.1,0.1,0.1
		c0,0,0,0.1,0,0.1c0,0.1,0,0.1,0,0.2s0,0.2,0,0.2c0,0.1,0,0.1,0,0.2c0,0,0,0.1-0.1,0.1c0,0-0.1,0-0.1,0c-0.1,0-0.1,0-0.2-0.1
		s-0.3-0.2-0.4-0.2s-0.4-0.2-0.6-0.2s-0.5-0.1-0.9-0.1c-0.3,0-0.6,0-0.8,0.1c-0.2,0.1-0.4,0.2-0.6,0.3s-0.3,0.3-0.4,0.5
		c-0.1,0.2-0.1,0.4-0.1,0.6c0,0.3,0.1,0.6,0.2,0.8s0.3,0.4,0.5,0.5c0.2,0.2,0.5,0.3,0.8,0.4s0.6,0.2,0.9,0.3
		c0.3,0.1,0.6,0.2,0.9,0.4c0.3,0.1,0.5,0.3,0.8,0.5c0.2,0.2,0.4,0.4,0.5,0.7C1771.4,424.2,1771.5,424.5,1771.5,424.9z"/>
	<path fill="#919191" d="M1781.6,427.4c0,0,0,0.1,0,0.1c0,0,0,0.1-0.1,0.1s-0.1,0-0.2,0.1c-0.1,0-0.2,0-0.3,0c-0.1,0-0.2,0-0.3,0
		c-0.1,0-0.1,0-0.2-0.1s-0.1,0-0.1-0.1c0,0,0-0.1,0-0.1v-1.3c-0.5,0.6-1.1,1-1.6,1.3c-0.5,0.3-1,0.4-1.5,0.4c-0.6,0-1.1-0.1-1.5-0.3
		s-0.8-0.5-1-0.8c-0.3-0.4-0.4-0.8-0.6-1.2c-0.1-0.5-0.2-1-0.2-1.7v-5.6c0,0,0-0.1,0-0.1c0,0,0-0.1,0.1-0.1c0,0,0.1,0,0.2-0.1
		c0.1,0,0.2,0,0.3,0c0.1,0,0.2,0,0.3,0c0.1,0,0.1,0,0.2,0.1c0,0,0.1,0.1,0.1,0.1c0,0,0,0.1,0,0.1v5.5c0,0.6,0,1,0.1,1.4
		c0.1,0.4,0.2,0.7,0.4,0.9c0.2,0.3,0.4,0.5,0.7,0.6c0.3,0.1,0.6,0.2,1,0.2c0.5,0,0.9-0.2,1.4-0.5c0.5-0.3,1-0.8,1.5-1.5v-6.7
		c0,0,0-0.1,0-0.1c0,0,0-0.1,0.1-0.1c0,0,0.1,0,0.2-0.1c0.1,0,0.2,0,0.3,0c0.1,0,0.2,0,0.3,0c0.1,0,0.1,0,0.2,0.1
		c0,0,0.1,0.1,0.1,0.1c0,0,0,0.1,0,0.1V427.4z"/>
	<path fill="#919191" d="M1791.5,427.4c0,0.1,0,0.1-0.1,0.2c0,0-0.1,0.1-0.2,0.1c-0.1,0-0.2,0-0.3,0c-0.1,0-0.2,0-0.3,0
		c-0.1,0-0.1,0-0.2-0.1c0,0-0.1-0.1-0.1-0.2v-1c-0.4,0.5-0.9,0.8-1.4,1c-0.5,0.2-1,0.4-1.6,0.4c-0.5,0-0.9-0.1-1.3-0.2
		c-0.4-0.1-0.7-0.3-1-0.5c-0.3-0.2-0.5-0.5-0.6-0.9c-0.1-0.3-0.2-0.7-0.2-1.1c0-0.5,0.1-1,0.3-1.3c0.2-0.4,0.5-0.7,0.9-0.9
		c0.4-0.3,0.9-0.4,1.4-0.6c0.5-0.1,1.2-0.2,1.8-0.2h1.5v-0.8c0-0.4,0-0.7-0.1-1.1c-0.1-0.3-0.2-0.6-0.4-0.8
		c-0.2-0.2-0.4-0.4-0.7-0.5s-0.7-0.2-1.1-0.2c-0.4,0-0.8,0-1.1,0.1c-0.3,0.1-0.6,0.2-0.9,0.3s-0.4,0.2-0.6,0.3
		c-0.2,0.1-0.3,0.1-0.3,0.1c0,0-0.1,0-0.1,0s-0.1,0-0.1-0.1c0,0,0-0.1-0.1-0.1c0-0.1,0-0.1,0-0.2c0-0.1,0-0.3,0-0.3
		c0-0.1,0.1-0.2,0.2-0.3c0.1-0.1,0.2-0.2,0.5-0.3c0.2-0.1,0.5-0.2,0.8-0.3c0.3-0.1,0.6-0.2,0.9-0.2s0.7-0.1,1-0.1
		c0.6,0,1.2,0.1,1.6,0.2c0.4,0.2,0.8,0.4,1.1,0.7c0.3,0.3,0.5,0.6,0.6,1.1c0.1,0.4,0.2,0.9,0.2,1.4V427.4z M1790.3,423h-1.7
		c-0.5,0-0.9,0-1.3,0.1c-0.4,0.1-0.7,0.2-0.9,0.4c-0.2,0.2-0.4,0.4-0.5,0.6c-0.1,0.2-0.2,0.5-0.2,0.8c0,0.5,0.2,1,0.5,1.3
		c0.3,0.3,0.8,0.5,1.4,0.5c0.5,0,0.9-0.1,1.4-0.4c0.4-0.2,0.9-0.6,1.3-1.2V423z"/>
	<path fill="#919191" d="M1796.2,427.4c0,0,0,0.1,0,0.1c0,0-0.1,0.1-0.1,0.1c0,0-0.1,0-0.2,0.1c-0.1,0-0.2,0-0.3,0
		c-0.1,0-0.2,0-0.3,0c-0.1,0-0.1,0-0.2-0.1c0,0-0.1,0-0.1-0.1c0,0,0-0.1,0-0.1v-13.8c0,0,0-0.1,0-0.1c0,0,0-0.1,0.1-0.1
		c0,0,0.1,0,0.2-0.1c0.1,0,0.2,0,0.3,0c0.1,0,0.2,0,0.3,0c0.1,0,0.1,0,0.2,0.1c0,0,0.1,0.1,0.1,0.1c0,0,0,0.1,0,0.1V427.4z"/>
	<path fill="#919191" d="M1814,427.2c0,0.1,0.1,0.2,0.1,0.3c0,0.1,0,0.1-0.1,0.1c0,0-0.1,0.1-0.2,0.1c-0.1,0-0.2,0-0.4,0
		s-0.3,0-0.3,0c-0.1,0-0.2,0-0.2,0c0,0-0.1,0-0.1-0.1c0,0,0-0.1-0.1-0.1l-1.3-3.5h-5.8l-1.2,3.5c0,0,0,0.1-0.1,0.1
		c0,0-0.1,0.1-0.1,0.1c0,0-0.1,0-0.2,0.1c-0.1,0-0.2,0-0.3,0c-0.1,0-0.3,0-0.4,0s-0.2,0-0.2-0.1c0,0-0.1-0.1-0.1-0.1
		c0-0.1,0-0.1,0.1-0.2l4.6-12.6c0-0.1,0.1-0.1,0.1-0.1c0,0,0.1-0.1,0.2-0.1c0.1,0,0.1,0,0.2,0c0.1,0,0.2,0,0.3,0c0.1,0,0.2,0,0.3,0
		c0.1,0,0.2,0,0.2,0c0.1,0,0.1,0,0.2,0.1c0,0,0.1,0.1,0.1,0.1L1814,427.2z M1808.5,415.7L1808.5,415.7l-2.5,7.1h5.1L1808.5,415.7z"
		/>
	<path fill="#919191" d="M1821.3,418.6c0,0.1,0,0.2,0,0.3c0,0.1,0,0.1,0,0.2c0,0,0,0.1-0.1,0.1c0,0-0.1,0-0.1,0c-0.1,0-0.1,0-0.2,0
		c-0.1,0-0.2-0.1-0.3-0.1s-0.2-0.1-0.4-0.1c-0.1,0-0.3,0-0.4,0c-0.2,0-0.4,0-0.5,0.1c-0.2,0.1-0.4,0.2-0.6,0.4
		c-0.2,0.2-0.4,0.4-0.6,0.7c-0.2,0.3-0.5,0.6-0.7,1.1v6.3c0,0,0,0.1,0,0.1c0,0-0.1,0.1-0.1,0.1c0,0-0.1,0-0.2,0.1
		c-0.1,0-0.2,0-0.3,0c-0.1,0-0.2,0-0.3,0c-0.1,0-0.1,0-0.2-0.1c0,0-0.1,0-0.1-0.1c0,0,0-0.1,0-0.1v-9.3c0,0,0-0.1,0-0.1
		c0,0,0-0.1,0.1-0.1c0,0,0.1,0,0.2-0.1c0.1,0,0.2,0,0.3,0s0.2,0,0.3,0c0.1,0,0.1,0,0.2,0.1c0,0,0.1,0.1,0.1,0.1c0,0,0,0.1,0,0.1v1.5
		c0.3-0.4,0.5-0.7,0.7-0.9c0.2-0.2,0.4-0.4,0.6-0.6c0.2-0.1,0.4-0.2,0.6-0.3c0.2,0,0.4-0.1,0.6-0.1c0.1,0,0.2,0,0.3,0
		c0.1,0,0.2,0,0.4,0.1c0.1,0,0.3,0.1,0.4,0.1c0.1,0,0.2,0.1,0.2,0.1c0,0,0.1,0.1,0.1,0.1c0,0,0,0.1,0,0.1c0,0,0,0.1,0,0.2
		C1821.3,418.4,1821.3,418.5,1821.3,418.6z"/>
	<path fill="#919191" d="M1827.9,426.8c0,0.1,0,0.3,0,0.3c0,0.1-0.1,0.2-0.1,0.2c-0.1,0.1-0.1,0.1-0.2,0.1c-0.1,0-0.2,0.1-0.3,0.1
		c-0.1,0-0.3,0.1-0.4,0.1c-0.1,0-0.3,0-0.4,0c-0.5,0-0.8-0.1-1.2-0.2s-0.6-0.3-0.8-0.6c-0.2-0.2-0.4-0.6-0.4-0.9
		c-0.1-0.4-0.1-0.8-0.1-1.4v-5.8h-1.4c-0.1,0-0.2,0-0.2-0.1c-0.1-0.1-0.1-0.2-0.1-0.4c0-0.1,0-0.2,0-0.2c0-0.1,0-0.1,0.1-0.2
		c0,0,0.1-0.1,0.1-0.1c0,0,0.1,0,0.1,0h1.4v-2.3c0,0,0-0.1,0-0.1c0,0,0-0.1,0.1-0.1c0,0,0.1,0,0.2-0.1c0.1,0,0.2,0,0.3,0
		c0.1,0,0.2,0,0.3,0c0.1,0,0.1,0,0.2,0.1c0,0,0.1,0.1,0.1,0.1s0,0.1,0,0.1v2.3h2.6c0,0,0.1,0,0.1,0c0,0,0.1,0.1,0.1,0.1
		c0,0,0,0.1,0.1,0.2c0,0.1,0,0.1,0,0.2c0,0.2,0,0.3-0.1,0.4c-0.1,0.1-0.1,0.1-0.2,0.1h-2.6v5.6c0,0.7,0.1,1.2,0.3,1.6
		c0.2,0.4,0.6,0.6,1.1,0.6c0.2,0,0.3,0,0.4-0.1c0.1,0,0.3-0.1,0.4-0.1s0.2-0.1,0.3-0.1c0.1,0,0.1-0.1,0.2-0.1c0,0,0.1,0,0.1,0
		c0,0,0,0,0.1,0.1c0,0,0,0.1,0,0.1C1827.9,426.7,1827.9,426.8,1827.9,426.8z"/>
	<path fill="#919191" d="M1835.7,424.9c0,0.4-0.1,0.8-0.2,1.2c-0.2,0.4-0.4,0.7-0.7,0.9c-0.3,0.2-0.7,0.4-1.1,0.6
		c-0.4,0.1-0.9,0.2-1.4,0.2c-0.3,0-0.6,0-0.9-0.1c-0.3-0.1-0.5-0.1-0.8-0.2c-0.2-0.1-0.4-0.2-0.6-0.3c-0.2-0.1-0.3-0.2-0.4-0.2
		s-0.1-0.2-0.2-0.3c0-0.1-0.1-0.2-0.1-0.4c0-0.1,0-0.2,0-0.2c0-0.1,0-0.1,0.1-0.2c0,0,0-0.1,0.1-0.1c0,0,0.1,0,0.1,0
		c0.1,0,0.2,0,0.3,0.1c0.1,0.1,0.3,0.2,0.5,0.3c0.2,0.1,0.5,0.2,0.8,0.3c0.3,0.1,0.6,0.1,1,0.1c0.3,0,0.6,0,0.9-0.1
		c0.3-0.1,0.5-0.2,0.7-0.3s0.3-0.3,0.4-0.5c0.1-0.2,0.2-0.5,0.2-0.8s-0.1-0.5-0.2-0.7s-0.3-0.4-0.5-0.5c-0.2-0.1-0.5-0.3-0.8-0.4
		c-0.3-0.1-0.6-0.2-0.9-0.3c-0.3-0.1-0.6-0.3-0.9-0.4c-0.3-0.1-0.5-0.3-0.8-0.5c-0.2-0.2-0.4-0.5-0.5-0.7s-0.2-0.6-0.2-1
		c0-0.3,0.1-0.6,0.2-0.9c0.1-0.3,0.3-0.6,0.6-0.8c0.3-0.2,0.6-0.4,1-0.6c0.4-0.2,0.9-0.2,1.4-0.2c0.2,0,0.5,0,0.7,0.1
		c0.2,0,0.4,0.1,0.6,0.1c0.2,0.1,0.3,0.1,0.5,0.2c0.1,0.1,0.2,0.1,0.3,0.2c0.1,0.1,0.1,0.1,0.1,0.1c0,0,0,0.1,0.1,0.1
		c0,0,0,0.1,0,0.1c0,0.1,0,0.1,0,0.2s0,0.2,0,0.2c0,0.1,0,0.1,0,0.2c0,0,0,0.1-0.1,0.1c0,0-0.1,0-0.1,0c-0.1,0-0.1,0-0.2-0.1
		s-0.3-0.2-0.4-0.2s-0.4-0.2-0.6-0.2s-0.5-0.1-0.9-0.1c-0.3,0-0.6,0-0.8,0.1c-0.2,0.1-0.4,0.2-0.6,0.3s-0.3,0.3-0.4,0.5
		c-0.1,0.2-0.1,0.4-0.1,0.6c0,0.3,0.1,0.6,0.2,0.8s0.3,0.4,0.5,0.5c0.2,0.2,0.5,0.3,0.8,0.4s0.6,0.2,0.9,0.3
		c0.3,0.1,0.6,0.2,0.9,0.4c0.3,0.1,0.5,0.3,0.8,0.5c0.2,0.2,0.4,0.4,0.5,0.7C1835.7,424.2,1835.7,424.5,1835.7,424.9z"/>
	<path fill="#919191" d="M1840.2,426.4c0,0.2,0,0.4,0,0.5c0,0.2,0,0.3-0.1,0.4s-0.1,0.3-0.2,0.4s-0.2,0.3-0.3,0.4l-1.4,2.2
		c0,0-0.1,0.1-0.1,0.1c0,0-0.1,0.1-0.1,0.1c-0.1,0-0.1,0-0.2,0c-0.1,0-0.2,0-0.3,0c-0.1,0-0.1,0-0.2,0c-0.1,0-0.1,0-0.1,0
		c0,0,0,0,0-0.1c0,0,0-0.1,0-0.1l1.4-2.8v-1.1c0-0.2,0-0.3,0-0.4c0-0.1,0.1-0.2,0.1-0.2s0.1-0.1,0.2-0.1c0.1,0,0.2,0,0.3,0
		c0.1,0,0.2,0,0.3,0c0.1,0,0.2,0,0.2,0.1c0.1,0,0.1,0.1,0.1,0.2C1840.2,426.1,1840.2,426.2,1840.2,426.4z"/>
	<path fill="#919191" d="M1423.9,449.4c0,0,0,0.1,0,0.1s-0.1,0.1-0.1,0.1s-0.1,0-0.2,0.1s-0.2,0-0.3,0c-0.1,0-0.2,0-0.3,0
		c-0.1,0-0.1,0-0.2-0.1s-0.1,0-0.1-0.1s0-0.1,0-0.1v-6.2h-6.6v6.2c0,0,0,0.1,0,0.1s-0.1,0.1-0.1,0.1s-0.1,0-0.2,0.1
		c-0.1,0-0.2,0-0.3,0c-0.1,0-0.2,0-0.3,0s-0.1,0-0.2-0.1s-0.1,0-0.1-0.1s0-0.1,0-0.1v-12.9c0,0,0-0.1,0-0.1s0.1-0.1,0.1-0.1
		s0.1,0,0.2-0.1s0.2,0,0.3,0c0.1,0,0.2,0,0.3,0c0.1,0,0.1,0,0.2,0.1s0.1,0,0.1,0.1s0,0.1,0,0.1v5.6h6.6v-5.6c0,0,0-0.1,0-0.1
		s0.1-0.1,0.1-0.1s0.1,0,0.2-0.1c0.1,0,0.2,0,0.3,0c0.1,0,0.2,0,0.3,0s0.1,0,0.2,0.1s0.1,0,0.1,0.1s0,0.1,0,0.1V449.4z"/>
	<path fill="#919191" d="M1435.9,449.4c0,0,0,0.1,0,0.1c0,0,0,0.1-0.1,0.1c0,0-0.1,0-0.2,0.1s-0.2,0-0.3,0c-0.1,0-0.2,0-0.4,0
		c-0.1,0-0.2,0-0.3-0.1c-0.1,0-0.1-0.1-0.2-0.2l-5.4-6.8v6.8c0,0,0,0.1,0,0.1s-0.1,0.1-0.1,0.1s-0.1,0-0.2,0.1c-0.1,0-0.2,0-0.3,0
		c-0.1,0-0.2,0-0.3,0s-0.1,0-0.2-0.1s-0.1,0-0.1-0.1s0-0.1,0-0.1v-12.9c0,0,0-0.1,0-0.1s0.1-0.1,0.1-0.1s0.1,0,0.2-0.1s0.2,0,0.3,0
		c0.1,0,0.2,0,0.3,0c0.1,0,0.1,0,0.2,0.1s0.1,0,0.1,0.1s0,0.1,0,0.1v6l5.1-6c0,0,0.1-0.1,0.1-0.1c0,0,0.1-0.1,0.2-0.1
		c0.1,0,0.1,0,0.2,0c0.1,0,0.2,0,0.3,0s0.2,0,0.3,0s0.1,0,0.2,0.1c0,0,0.1,0.1,0.1,0.1c0,0,0,0.1,0,0.1c0,0.1,0,0.1-0.1,0.2
		c0,0.1-0.1,0.2-0.2,0.2l-4.8,5.5l5.2,6.5c0.1,0.1,0.2,0.2,0.2,0.3C1435.9,449.3,1435.9,449.3,1435.9,449.4z"/>
	<path fill="#919191" d="M1446.7,445.9c0,0.4,0,0.8-0.1,1.1c-0.1,0.3-0.2,0.6-0.4,0.9s-0.4,0.5-0.6,0.7c-0.2,0.2-0.5,0.4-0.8,0.5
		c-0.3,0.1-0.6,0.3-1,0.3c-0.4,0.1-0.8,0.1-1.3,0.1h-3.4c-0.1,0-0.2,0-0.4-0.1c-0.1-0.1-0.2-0.3-0.2-0.5v-12c0-0.2,0.1-0.4,0.2-0.5
		c0.1-0.1,0.3-0.1,0.4-0.1h2.9c0.8,0,1.4,0.1,1.9,0.2s0.9,0.4,1.2,0.7c0.3,0.3,0.5,0.6,0.7,1.1c0.2,0.4,0.2,0.9,0.2,1.4
		c0,0.3,0,0.6-0.1,0.9c-0.1,0.3-0.2,0.6-0.3,0.8s-0.3,0.5-0.5,0.7c-0.2,0.2-0.5,0.4-0.8,0.5c0.4,0.1,0.7,0.2,1,0.4
		c0.3,0.2,0.6,0.4,0.8,0.7c0.2,0.3,0.4,0.6,0.6,1C1446.6,445,1446.7,445.4,1446.7,445.9z M1444.5,439.8c0-0.3,0-0.7-0.1-0.9
		c-0.1-0.3-0.2-0.5-0.5-0.7c-0.2-0.2-0.5-0.4-0.8-0.5s-0.8-0.2-1.3-0.2h-2.1v4.8h2.3c0.5,0,0.9-0.1,1.2-0.2c0.3-0.1,0.6-0.3,0.8-0.5
		s0.3-0.5,0.4-0.8C1444.4,440.4,1444.5,440.1,1444.5,439.8z M1445.3,446c0-0.4-0.1-0.8-0.2-1.2c-0.1-0.3-0.3-0.6-0.6-0.8
		c-0.3-0.2-0.6-0.4-1-0.5s-0.9-0.2-1.5-0.2h-2.4v5.2h2.9c0.4,0,0.8-0.1,1.1-0.2c0.3-0.1,0.6-0.3,0.9-0.5c0.2-0.2,0.4-0.5,0.6-0.8
		C1445.3,446.8,1445.3,446.4,1445.3,446z"/>
	<path fill="#919191" d="M1459.1,444.7c0,0.8-0.1,1.5-0.3,2.2c-0.2,0.6-0.6,1.2-1,1.6c-0.4,0.4-0.9,0.8-1.5,1
		c-0.6,0.2-1.3,0.3-2,0.3c-0.7,0-1.3-0.1-1.9-0.3c-0.6-0.2-1.1-0.5-1.5-0.9c-0.4-0.4-0.7-0.9-1-1.5c-0.2-0.6-0.3-1.3-0.3-2.1v-8.3
		c0,0,0-0.1,0-0.1c0,0,0.1-0.1,0.1-0.1c0.1,0,0.1,0,0.2-0.1s0.2,0,0.3,0c0.1,0,0.2,0,0.3,0s0.1,0,0.2,0.1c0,0,0.1,0,0.1,0.1
		c0,0,0,0.1,0,0.1v8.1c0,0.7,0.1,1.2,0.2,1.7c0.2,0.5,0.4,0.9,0.7,1.2c0.3,0.3,0.7,0.6,1.1,0.7c0.4,0.2,0.9,0.3,1.5,0.3
		c0.6,0,1-0.1,1.5-0.2c0.4-0.2,0.8-0.4,1.1-0.7c0.3-0.3,0.5-0.7,0.7-1.2c0.2-0.5,0.2-1.1,0.2-1.7v-8.2c0,0,0-0.1,0-0.1
		c0,0,0.1-0.1,0.1-0.1c0,0,0.1,0,0.2-0.1s0.2,0,0.3,0c0.1,0,0.2,0,0.3,0s0.1,0,0.2,0.1c0,0,0.1,0,0.1,0.1c0,0,0,0.1,0,0.1V444.7z"/>
	<path fill="#919191" d="M1475.6,444.6c0,0.8-0.1,1.5-0.3,2.1c-0.2,0.6-0.4,1.2-0.8,1.6c-0.3,0.4-0.8,0.8-1.3,1
		c-0.5,0.2-1.1,0.4-1.7,0.4c-0.3,0-0.5,0-0.8-0.1c-0.2-0.1-0.5-0.1-0.7-0.3c-0.2-0.1-0.5-0.3-0.7-0.5c-0.2-0.2-0.5-0.4-0.7-0.7v4.8
		c0,0,0,0.1,0,0.1c0,0-0.1,0.1-0.1,0.1c0,0-0.1,0-0.2,0.1c-0.1,0-0.2,0-0.3,0c-0.1,0-0.2,0-0.3,0c-0.1,0-0.1,0-0.2-0.1
		c0,0-0.1-0.1-0.1-0.1c0,0,0-0.1,0-0.1v-13c0,0,0-0.1,0-0.1c0,0,0-0.1,0.1-0.1c0,0,0.1,0,0.2,0c0.1,0,0.2,0,0.3,0c0.1,0,0.2,0,0.3,0
		c0.1,0,0.1,0,0.2,0c0,0,0.1,0,0.1,0.1c0,0,0,0.1,0,0.1v1.3c0.3-0.3,0.6-0.5,0.8-0.8c0.3-0.2,0.5-0.4,0.8-0.5s0.5-0.2,0.8-0.3
		s0.6-0.1,0.9-0.1c0.7,0,1.2,0.1,1.7,0.4c0.5,0.3,0.9,0.6,1.2,1.1c0.3,0.4,0.5,1,0.6,1.6C1475.5,443.3,1475.6,443.9,1475.6,444.6z
		 M1474.3,444.8c0-0.5,0-1-0.1-1.5c-0.1-0.5-0.2-0.9-0.4-1.3c-0.2-0.4-0.5-0.7-0.8-0.9c-0.3-0.2-0.7-0.3-1.2-0.3
		c-0.2,0-0.5,0-0.7,0.1c-0.2,0.1-0.5,0.2-0.7,0.3s-0.5,0.4-0.8,0.6c-0.3,0.2-0.5,0.6-0.8,0.9v4c0.5,0.6,1,1.1,1.5,1.4
		c0.5,0.3,1,0.5,1.5,0.5c0.5,0,0.9-0.1,1.2-0.3c0.3-0.2,0.6-0.5,0.8-0.9c0.2-0.4,0.4-0.8,0.5-1.3
		C1474.3,445.8,1474.3,445.3,1474.3,444.8z"/>
	<path fill="#919191" d="M1485.9,449.4c0,0,0,0.1,0,0.1s-0.1,0.1-0.1,0.1c0,0-0.1,0-0.2,0.1c-0.1,0-0.2,0-0.3,0c-0.1,0-0.2,0-0.3,0
		c-0.1,0-0.1,0-0.2-0.1c0,0-0.1,0-0.1-0.1c0,0,0-0.1,0-0.1v-5.5c0-0.6,0-1-0.1-1.4c-0.1-0.4-0.2-0.7-0.4-0.9
		c-0.2-0.3-0.4-0.5-0.7-0.6c-0.3-0.1-0.6-0.2-1-0.2c-0.5,0-0.9,0.2-1.4,0.5c-0.5,0.3-1,0.8-1.5,1.5v6.7c0,0,0,0.1,0,0.1
		c0,0-0.1,0.1-0.1,0.1c0,0-0.1,0-0.2,0.1c-0.1,0-0.2,0-0.3,0c-0.1,0-0.2,0-0.3,0c-0.1,0-0.1,0-0.2-0.1c0,0-0.1,0-0.1-0.1
		c0,0,0-0.1,0-0.1v-13.8c0,0,0-0.1,0-0.1c0,0,0-0.1,0.1-0.1c0,0,0.1,0,0.2-0.1c0.1,0,0.2,0,0.3,0c0.1,0,0.2,0,0.3,0
		c0.1,0,0.1,0,0.2,0.1c0,0,0.1,0.1,0.1,0.1c0,0,0,0.1,0,0.1v5.8c0.5-0.6,1-1,1.5-1.2c0.5-0.3,1-0.4,1.5-0.4c0.6,0,1.1,0.1,1.5,0.3
		s0.8,0.5,1,0.8c0.3,0.3,0.4,0.8,0.6,1.2c0.1,0.5,0.2,1,0.2,1.7V449.4z"/>
	<path fill="#919191" d="M1497.5,444.7c0,0.7-0.1,1.4-0.3,2s-0.5,1.2-0.9,1.6c-0.4,0.5-0.9,0.8-1.4,1.1c-0.6,0.3-1.2,0.4-2,0.4
		c-0.7,0-1.4-0.1-1.9-0.3c-0.5-0.2-1-0.6-1.4-1c-0.4-0.4-0.6-0.9-0.8-1.6c-0.2-0.6-0.3-1.3-0.3-2.1c0-0.7,0.1-1.4,0.3-2
		c0.2-0.6,0.5-1.2,0.9-1.6c0.4-0.5,0.9-0.8,1.4-1.1s1.2-0.4,2-0.4c0.7,0,1.4,0.1,1.9,0.3c0.5,0.2,1,0.6,1.4,1
		c0.4,0.4,0.6,0.9,0.8,1.6C1497.4,443.2,1497.5,443.9,1497.5,444.7z M1496.2,444.8c0-0.5-0.1-1-0.2-1.5c-0.1-0.5-0.3-0.9-0.5-1.3
		c-0.2-0.4-0.6-0.7-1-0.9c-0.4-0.2-0.9-0.3-1.5-0.3c-0.6,0-1,0.1-1.4,0.3s-0.7,0.5-1,0.8c-0.3,0.4-0.4,0.8-0.6,1.2s-0.2,1-0.2,1.5
		c0,0.5,0.1,1,0.2,1.5c0.1,0.5,0.3,0.9,0.5,1.3c0.2,0.4,0.6,0.7,1,0.9c0.4,0.2,0.9,0.3,1.5,0.3c0.6,0,1-0.1,1.4-0.3
		c0.4-0.2,0.7-0.5,1-0.8c0.3-0.3,0.4-0.8,0.6-1.2S1496.2,445.3,1496.2,444.8z"/>
	<path fill="#919191" d="M1504.7,448.8c0,0.1,0,0.3,0,0.3c0,0.1-0.1,0.2-0.1,0.2c-0.1,0.1-0.1,0.1-0.2,0.1c-0.1,0-0.2,0.1-0.3,0.1
		c-0.1,0-0.3,0.1-0.4,0.1c-0.1,0-0.3,0-0.4,0c-0.5,0-0.8-0.1-1.2-0.2s-0.6-0.3-0.8-0.6c-0.2-0.2-0.4-0.6-0.4-0.9
		c-0.1-0.4-0.1-0.8-0.1-1.4v-5.8h-1.4c-0.1,0-0.2,0-0.2-0.1c-0.1-0.1-0.1-0.2-0.1-0.4c0-0.1,0-0.2,0-0.2c0-0.1,0-0.1,0.1-0.2
		c0,0,0.1-0.1,0.1-0.1c0,0,0.1,0,0.1,0h1.4v-2.3c0,0,0-0.1,0-0.1c0,0,0-0.1,0.1-0.1c0,0,0.1,0,0.2-0.1c0.1,0,0.2,0,0.3,0
		c0.1,0,0.2,0,0.3,0c0.1,0,0.1,0,0.2,0.1c0,0,0.1,0.1,0.1,0.1s0,0.1,0,0.1v2.3h2.6c0,0,0.1,0,0.1,0c0,0,0.1,0.1,0.1,0.1
		c0,0,0,0.1,0.1,0.2c0,0.1,0,0.1,0,0.2c0,0.2,0,0.3-0.1,0.4c-0.1,0.1-0.1,0.1-0.2,0.1h-2.6v5.6c0,0.7,0.1,1.2,0.3,1.6
		c0.2,0.4,0.6,0.6,1.1,0.6c0.2,0,0.3,0,0.4-0.1c0.1,0,0.3-0.1,0.4-0.1s0.2-0.1,0.3-0.1c0.1,0,0.1-0.1,0.2-0.1c0,0,0.1,0,0.1,0
		c0,0,0,0,0.1,0.1c0,0,0,0.1,0,0.1C1504.7,448.7,1504.7,448.8,1504.7,448.8z"/>
	<path fill="#919191" d="M1515.2,444.7c0,0.7-0.1,1.4-0.3,2s-0.5,1.2-0.9,1.6c-0.4,0.5-0.9,0.8-1.4,1.1c-0.6,0.3-1.2,0.4-2,0.4
		c-0.7,0-1.4-0.1-1.9-0.3c-0.5-0.2-1-0.6-1.4-1c-0.4-0.4-0.6-0.9-0.8-1.6c-0.2-0.6-0.3-1.3-0.3-2.1c0-0.7,0.1-1.4,0.3-2
		c0.2-0.6,0.5-1.2,0.9-1.6c0.4-0.5,0.9-0.8,1.4-1.1s1.2-0.4,2-0.4c0.7,0,1.4,0.1,1.9,0.3c0.5,0.2,1,0.6,1.4,1
		c0.4,0.4,0.6,0.9,0.8,1.6C1515.1,443.2,1515.2,443.9,1515.2,444.7z M1513.9,444.8c0-0.5-0.1-1-0.2-1.5c-0.1-0.5-0.3-0.9-0.5-1.3
		c-0.2-0.4-0.6-0.7-1-0.9c-0.4-0.2-0.9-0.3-1.5-0.3c-0.6,0-1,0.1-1.4,0.3s-0.7,0.5-1,0.8c-0.3,0.4-0.4,0.8-0.6,1.2s-0.2,1-0.2,1.5
		c0,0.5,0.1,1,0.2,1.5c0.1,0.5,0.3,0.9,0.5,1.3c0.2,0.4,0.6,0.7,1,0.9c0.4,0.2,0.9,0.3,1.5,0.3c0.6,0,1-0.1,1.4-0.3
		c0.4-0.2,0.7-0.5,1-0.8c0.3-0.3,0.4-0.8,0.6-1.2S1513.9,445.3,1513.9,444.8z"/>
	<path fill="#919191" d="M1530.2,444.3c0,0.2-0.1,0.4-0.2,0.5c-0.1,0.1-0.3,0.1-0.4,0.1h-6.3c0,0.6,0.1,1.1,0.2,1.6
		c0.1,0.5,0.3,0.9,0.6,1.2c0.3,0.3,0.6,0.6,1,0.8s0.9,0.3,1.5,0.3c0.4,0,0.8,0,1.2-0.1c0.3-0.1,0.6-0.2,0.9-0.3
		c0.2-0.1,0.5-0.2,0.6-0.3c0.2-0.1,0.3-0.1,0.3-0.1c0,0,0.1,0,0.1,0s0.1,0.1,0.1,0.1c0,0,0,0.1,0,0.2c0,0.1,0,0.2,0,0.3
		c0,0,0,0.1,0,0.1c0,0,0,0.1,0,0.1c0,0,0,0.1,0,0.1c0,0,0,0.1-0.1,0.1c0,0-0.1,0.1-0.3,0.2c-0.2,0.1-0.4,0.2-0.7,0.3
		c-0.3,0.1-0.6,0.2-1,0.2c-0.4,0.1-0.8,0.1-1.2,0.1c-0.7,0-1.4-0.1-1.9-0.3c-0.6-0.2-1-0.5-1.4-1c-0.4-0.4-0.7-0.9-0.9-1.6
		c-0.2-0.6-0.3-1.3-0.3-2.2c0-0.8,0.1-1.5,0.3-2.1c0.2-0.6,0.5-1.2,0.9-1.6c0.4-0.4,0.8-0.8,1.4-1c0.5-0.2,1.1-0.3,1.8-0.3
		c0.7,0,1.3,0.1,1.8,0.3s0.9,0.5,1.2,0.9c0.3,0.4,0.5,0.8,0.7,1.4c0.1,0.5,0.2,1.1,0.2,1.6V444.3z M1529,443.9c0-1-0.2-1.8-0.7-2.3
		s-1.2-0.8-2.1-0.8c-0.5,0-0.9,0.1-1.2,0.3c-0.4,0.2-0.6,0.4-0.9,0.7c-0.2,0.3-0.4,0.6-0.6,1c-0.1,0.4-0.2,0.8-0.2,1.2H1529z"/>
	<path fill="#919191" d="M1539.2,449.2c0.1,0.1,0.1,0.2,0.1,0.2c0,0.1,0,0.1-0.1,0.1c0,0-0.1,0.1-0.2,0.1c-0.1,0-0.2,0-0.4,0
		c-0.1,0-0.3,0-0.3,0c-0.1,0-0.2,0-0.2,0c-0.1,0-0.1,0-0.1-0.1c0,0-0.1-0.1-0.1-0.1l-2.5-3.9l-2.5,3.9c0,0-0.1,0.1-0.1,0.1
		c0,0-0.1,0.1-0.1,0.1c-0.1,0-0.1,0-0.2,0c-0.1,0-0.2,0-0.3,0c-0.1,0-0.3,0-0.4,0c-0.1,0-0.2,0-0.2-0.1c0,0-0.1-0.1-0.1-0.1
		c0-0.1,0-0.1,0.1-0.2l3.1-4.5l-2.9-4.4c-0.1-0.1-0.1-0.2-0.1-0.2c0-0.1,0-0.1,0.1-0.1c0.1,0,0.1-0.1,0.2-0.1c0.1,0,0.2,0,0.4,0
		c0.1,0,0.3,0,0.3,0c0.1,0,0.2,0,0.2,0s0.1,0,0.1,0.1c0,0,0.1,0.1,0.1,0.1l2.4,3.6l2.4-3.6c0,0,0.1-0.1,0.1-0.1c0,0,0.1-0.1,0.1-0.1
		c0,0,0.1,0,0.2,0c0.1,0,0.2,0,0.3,0c0.1,0,0.3,0,0.4,0c0.1,0,0.2,0,0.2,0.1c0,0,0.1,0.1,0.1,0.1c0,0.1,0,0.1-0.1,0.2l-2.9,4.4
		L1539.2,449.2z"/>
	<path fill="#919191" d="M1549.1,449.4c0,0,0,0.1,0,0.1s-0.1,0.1-0.1,0.1c0,0-0.1,0-0.2,0.1c-0.1,0-0.2,0-0.3,0c-0.1,0-0.2,0-0.3,0
		c-0.1,0-0.1,0-0.2-0.1c0,0-0.1,0-0.1-0.1c0,0,0-0.1,0-0.1v-5.5c0-0.6,0-1-0.1-1.4c-0.1-0.4-0.2-0.7-0.4-0.9
		c-0.2-0.3-0.4-0.5-0.7-0.6c-0.3-0.1-0.6-0.2-1-0.2c-0.5,0-0.9,0.2-1.4,0.5c-0.5,0.3-1,0.8-1.5,1.5v6.7c0,0,0,0.1,0,0.1
		c0,0-0.1,0.1-0.1,0.1c0,0-0.1,0-0.2,0.1c-0.1,0-0.2,0-0.3,0c-0.1,0-0.2,0-0.3,0c-0.1,0-0.1,0-0.2-0.1c0,0-0.1,0-0.1-0.1
		c0,0,0-0.1,0-0.1v-13.8c0,0,0-0.1,0-0.1c0,0,0-0.1,0.1-0.1c0,0,0.1,0,0.2-0.1c0.1,0,0.2,0,0.3,0c0.1,0,0.2,0,0.3,0
		c0.1,0,0.1,0,0.2,0.1c0,0,0.1,0.1,0.1,0.1c0,0,0,0.1,0,0.1v5.8c0.5-0.6,1-1,1.5-1.2c0.5-0.3,1-0.4,1.5-0.4c0.6,0,1.1,0.1,1.5,0.3
		s0.8,0.5,1,0.8c0.3,0.3,0.4,0.8,0.6,1.2c0.1,0.5,0.2,1,0.2,1.7V449.4z"/>
	<path fill="#919191" d="M1553.8,437c0,0.3-0.1,0.5-0.2,0.7c-0.1,0.1-0.3,0.2-0.6,0.2c-0.3,0-0.5-0.1-0.6-0.2
		c-0.1-0.1-0.2-0.3-0.2-0.7s0.1-0.6,0.2-0.7c0.1-0.1,0.3-0.2,0.6-0.2c0.3,0,0.5,0.1,0.6,0.2C1553.8,436.4,1553.8,436.7,1553.8,437z
		 M1553.7,449.4c0,0,0,0.1,0,0.1c0,0-0.1,0.1-0.1,0.1c0,0-0.1,0-0.2,0.1c-0.1,0-0.2,0-0.3,0c-0.1,0-0.2,0-0.3,0
		c-0.1,0-0.1,0-0.2-0.1c0,0-0.1,0-0.1-0.1c0,0,0-0.1,0-0.1v-9.3c0,0,0-0.1,0-0.1c0,0,0-0.1,0.1-0.1c0,0,0.1,0,0.2-0.1
		c0.1,0,0.2,0,0.3,0c0.1,0,0.2,0,0.3,0c0.1,0,0.1,0,0.2,0.1c0,0,0.1,0.1,0.1,0.1c0,0,0,0.1,0,0.1V449.4z"/>
	<path fill="#919191" d="M1565.2,444.6c0,0.8-0.1,1.5-0.3,2.1c-0.2,0.6-0.4,1.2-0.8,1.6c-0.3,0.4-0.8,0.8-1.3,1
		c-0.5,0.2-1.1,0.4-1.7,0.4c-0.3,0-0.6,0-0.8-0.1c-0.2-0.1-0.5-0.2-0.7-0.3s-0.5-0.3-0.7-0.5c-0.2-0.2-0.5-0.4-0.8-0.7v1.2
		c0,0,0,0.1,0,0.1c0,0-0.1,0.1-0.1,0.1c0,0-0.1,0-0.2,0c-0.1,0-0.2,0-0.3,0c-0.1,0-0.2,0-0.3,0c-0.1,0-0.1,0-0.2,0
		c0,0-0.1,0-0.1-0.1c0,0,0-0.1,0-0.1v-13.8c0,0,0-0.1,0-0.1c0,0,0-0.1,0.1-0.1c0,0,0.1,0,0.2-0.1c0.1,0,0.2,0,0.3,0
		c0.1,0,0.2,0,0.3,0c0.1,0,0.1,0,0.2,0.1c0,0,0.1,0.1,0.1,0.1c0,0,0,0.1,0,0.1v5.8c0.3-0.3,0.6-0.6,0.8-0.8c0.3-0.2,0.5-0.4,0.8-0.5
		c0.3-0.1,0.5-0.2,0.8-0.3c0.2-0.1,0.5-0.1,0.8-0.1c0.7,0,1.2,0.1,1.7,0.4c0.5,0.3,0.9,0.6,1.2,1.1c0.3,0.4,0.5,1,0.7,1.6
		S1565.2,444,1565.2,444.6z M1563.9,444.8c0-0.5,0-1-0.1-1.5c-0.1-0.5-0.2-0.9-0.4-1.3c-0.2-0.4-0.5-0.7-0.8-0.9
		c-0.3-0.2-0.7-0.3-1.2-0.3c-0.2,0-0.5,0-0.7,0.1c-0.2,0.1-0.5,0.2-0.7,0.3s-0.5,0.4-0.8,0.6c-0.3,0.2-0.5,0.6-0.8,0.9v4
		c0.5,0.6,1,1.1,1.5,1.4c0.5,0.3,1,0.5,1.5,0.5c0.5,0,0.9-0.1,1.2-0.3c0.3-0.2,0.6-0.5,0.8-0.9s0.4-0.8,0.5-1.3
		S1563.9,445.3,1563.9,444.8z"/>
	<path fill="#919191" d="M1569.4,437c0,0.3-0.1,0.5-0.2,0.7c-0.1,0.1-0.3,0.2-0.6,0.2c-0.3,0-0.5-0.1-0.6-0.2
		c-0.1-0.1-0.2-0.3-0.2-0.7s0.1-0.6,0.2-0.7c0.1-0.1,0.3-0.2,0.6-0.2c0.3,0,0.5,0.1,0.6,0.2C1569.3,436.4,1569.4,436.7,1569.4,437z
		 M1569.2,449.4c0,0,0,0.1,0,0.1c0,0-0.1,0.1-0.1,0.1c0,0-0.1,0-0.2,0.1c-0.1,0-0.2,0-0.3,0c-0.1,0-0.2,0-0.3,0
		c-0.1,0-0.1,0-0.2-0.1c0,0-0.1,0-0.1-0.1c0,0,0-0.1,0-0.1v-9.3c0,0,0-0.1,0-0.1c0,0,0-0.1,0.1-0.1c0,0,0.1,0,0.2-0.1
		c0.1,0,0.2,0,0.3,0c0.1,0,0.2,0,0.3,0c0.1,0,0.1,0,0.2,0.1c0,0,0.1,0.1,0.1,0.1c0,0,0,0.1,0,0.1V449.4z"/>
	<path fill="#919191" d="M1580.2,439.9c0.2,0,0.3,0,0.3,0.1c0.1,0.1,0.1,0.2,0.1,0.3v9.1c0,0,0,0.1,0,0.1c0,0-0.1,0.1-0.1,0.1
		c0,0-0.1,0-0.2,0.1c-0.1,0-0.2,0-0.3,0c-0.1,0-0.2,0-0.3,0c-0.1,0-0.1,0-0.2-0.1c0,0-0.1,0-0.1-0.1s0-0.1,0-0.1v-8.5h-5.1v5.6
		c0,0.7,0.1,1.2,0.3,1.6c0.2,0.4,0.6,0.6,1.1,0.6c0.2,0,0.3,0,0.4-0.1c0.1,0,0.3-0.1,0.4-0.1s0.2-0.1,0.3-0.1c0.1,0,0.1-0.1,0.2-0.1
		c0,0,0.1,0,0.1,0c0,0,0,0,0.1,0.1c0,0,0,0.1,0,0.1c0,0.1,0,0.1,0,0.2c0,0.1,0,0.3,0,0.3c0,0.1-0.1,0.2-0.1,0.2
		c-0.1,0.1-0.1,0.1-0.2,0.1c-0.1,0-0.2,0.1-0.3,0.1c-0.1,0-0.3,0.1-0.4,0.1c-0.1,0-0.3,0-0.4,0c-0.5,0-0.8-0.1-1.2-0.2
		s-0.6-0.3-0.8-0.6c-0.2-0.2-0.4-0.6-0.4-0.9c-0.1-0.4-0.1-0.8-0.1-1.4v-5.8h-1.4c-0.1,0-0.2,0-0.2-0.1c-0.1-0.1-0.1-0.2-0.1-0.4
		c0-0.1,0-0.2,0-0.2c0-0.1,0-0.1,0.1-0.2c0,0,0.1-0.1,0.1-0.1c0,0,0.1,0,0.1,0h1.4v-2.3c0,0,0-0.1,0-0.1c0,0,0-0.1,0.1-0.1
		c0,0,0.1,0,0.2-0.1c0.1,0,0.2,0,0.3,0c0.1,0,0.2,0,0.3,0c0.1,0,0.1,0,0.2,0.1c0,0,0.1,0.1,0.1,0.1s0,0.1,0,0.1v2.3H1580.2z
		 M1580.7,437c0,0.3-0.1,0.5-0.2,0.7c-0.1,0.1-0.3,0.2-0.6,0.2c-0.3,0-0.5-0.1-0.6-0.2c-0.1-0.1-0.2-0.3-0.2-0.7s0.1-0.6,0.2-0.7
		c0.1-0.1,0.3-0.2,0.6-0.2c0.3,0,0.5,0.1,0.6,0.2C1580.7,436.4,1580.7,436.7,1580.7,437z"/>
	<path fill="#919191" d="M1592.2,444.7c0,0.7-0.1,1.4-0.3,2s-0.5,1.2-0.9,1.6c-0.4,0.5-0.9,0.8-1.4,1.1c-0.6,0.3-1.2,0.4-2,0.4
		c-0.7,0-1.4-0.1-1.9-0.3c-0.5-0.2-1-0.6-1.4-1c-0.4-0.4-0.6-0.9-0.8-1.6c-0.2-0.6-0.3-1.3-0.3-2.1c0-0.7,0.1-1.4,0.3-2
		c0.2-0.6,0.5-1.2,0.9-1.6c0.4-0.5,0.9-0.8,1.4-1.1s1.2-0.4,2-0.4c0.7,0,1.4,0.1,1.9,0.3c0.5,0.2,1,0.6,1.4,1
		c0.4,0.4,0.6,0.9,0.8,1.6C1592.1,443.2,1592.2,443.9,1592.2,444.7z M1590.9,444.8c0-0.5-0.1-1-0.2-1.5c-0.1-0.5-0.3-0.9-0.5-1.3
		c-0.2-0.4-0.6-0.7-1-0.9c-0.4-0.2-0.9-0.3-1.5-0.3c-0.6,0-1,0.1-1.4,0.3s-0.7,0.5-1,0.8c-0.3,0.4-0.4,0.8-0.6,1.2s-0.2,1-0.2,1.5
		c0,0.5,0.1,1,0.2,1.5c0.1,0.5,0.3,0.9,0.5,1.3c0.2,0.4,0.6,0.7,1,0.9c0.4,0.2,0.9,0.3,1.5,0.3c0.6,0,1-0.1,1.4-0.3
		c0.4-0.2,0.7-0.5,1-0.8c0.3-0.3,0.4-0.8,0.6-1.2S1590.9,445.3,1590.9,444.8z"/>
	<path fill="#919191" d="M1602.5,449.4c0,0,0,0.1,0,0.1s-0.1,0.1-0.1,0.1c0,0-0.1,0-0.2,0.1c-0.1,0-0.2,0-0.3,0c-0.1,0-0.2,0-0.3,0
		c-0.1,0-0.1,0-0.2-0.1c0,0-0.1,0-0.1-0.1c0,0,0-0.1,0-0.1v-5.5c0-0.6,0-1-0.1-1.4c-0.1-0.4-0.2-0.7-0.4-0.9
		c-0.2-0.3-0.4-0.5-0.7-0.6c-0.3-0.1-0.6-0.2-1-0.2c-0.5,0-0.9,0.2-1.4,0.5c-0.5,0.3-1,0.8-1.5,1.5v6.7c0,0,0,0.1,0,0.1
		c0,0-0.1,0.1-0.1,0.1c0,0-0.1,0-0.2,0.1c-0.1,0-0.2,0-0.3,0c-0.1,0-0.2,0-0.3,0c-0.1,0-0.1,0-0.2-0.1c0,0-0.1,0-0.1-0.1
		c0,0,0-0.1,0-0.1v-9.3c0,0,0-0.1,0-0.1c0,0,0-0.1,0.1-0.1c0,0,0.1,0,0.2-0.1c0.1,0,0.2,0,0.3,0s0.2,0,0.3,0c0.1,0,0.1,0,0.2,0.1
		c0,0,0.1,0.1,0.1,0.1c0,0,0,0.1,0,0.1v1.3c0.5-0.6,1.1-1,1.6-1.3c0.5-0.3,1-0.4,1.5-0.4c0.6,0,1.1,0.1,1.5,0.3s0.8,0.5,1,0.8
		c0.3,0.3,0.4,0.8,0.6,1.2c0.1,0.5,0.2,1,0.2,1.7V449.4z"/>
</g>
<g>
	<rect x="1412.6" y="296.2" fill="#15FFA5" width="242.6" height="30.7"/>
</g>
<g>
	<rect x="1412.6" y="240.3" fill="#15FFA5" width="300.9" height="30.7"/>
</g>
<g>
	<g>
		<path fill="#1B264C" d="M1429.1,261h-9.9v10.3h-6.6v-35c5.5,0,11-0.1,16.5-0.1C1446.2,236.2,1446.3,261,1429.1,261z M1419.2,254.9
			h9.9c8.5,0,8.4-12.4,0-12.4h-9.9V254.9z"/>
	</g>
	<g>
		<path fill="#1B264C" d="M1452.1,236.3V250c2.2-2.9,4.9-3.7,7.7-3.7c7,0,10.1,4.8,10.1,12v13h-6.1v-13c0-4.5-2.3-6.4-5.6-6.4
			c-3.6,0-6.1,3.1-6.1,6.8v12.6h-6.1v-35H1452.1z"/>
	</g>
	<g>
		<path fill="#1B264C" d="M1499.5,259c0,7.1-4.9,12.9-12.9,12.9s-12.8-5.8-12.8-12.9c0-7.1,4.9-12.9,12.8-12.9
			S1499.5,251.9,1499.5,259z M1480,259c0,3.8,2.2,7.2,6.7,7.2c4.5,0,6.7-3.5,6.7-7.2c0-3.7-2.6-7.3-6.7-7.3
			C1482.3,251.7,1480,255.3,1480,259z"/>
	</g>
	<g>
		<path fill="#1B264C" d="M1511.8,239.7v7h6.8v5.3h-6.9v10.7c0,2.3,1.3,3.5,3.2,3.5c1,0,2-0.3,3-0.8l1.7,5.2c-1.8,0.7-3.2,1-5.1,1
			c-5.4,0.2-8.9-2.8-8.9-9v-10.7h-4.6v-5.3h4.6v-6.4L1511.8,239.7z"/>
	</g>
	<g>
		<path fill="#1B264C" d="M1547.6,259c0,7.1-4.9,12.9-12.9,12.9s-12.8-5.8-12.8-12.9c0-7.1,4.9-12.9,12.8-12.9
			C1542.6,246.1,1547.6,251.9,1547.6,259z M1528.1,259c0,3.8,2.2,7.2,6.7,7.2s6.7-3.5,6.7-7.2c0-3.7-2.6-7.3-6.7-7.3
			C1530.4,251.7,1528.1,255.3,1528.1,259z"/>
	</g>
	<g>
		<path fill="#1B264C" d="M1571.1,244.1l4.5,3.4l-2.8,3.5c1.9,2.1,2.6,4.6,2.6,7.3c0,3.1-1.1,7.4-5.2,9.2c4.1,2,5.1,5,5.1,8.2
			c0,6.8-5.2,11-12.4,11s-12.5-4.4-12.5-11h6.1c0,3.2,3,5.3,6.5,5.3c3.5,0,6.2-1.9,6.2-5.3s-3.2-5-6.2-5c-7.7,0-12.5-4.7-12.5-12.4
			s5.6-12.5,12.5-12.5c2,0,4,0.2,5.7,1.4L1571.1,244.1z M1556.6,258.3c0,4.3,2.9,6.9,6.5,6.9c3.5,0,6.4-2.6,6.4-6.9
			c0-4.2-2.9-7-6.4-7C1559.5,251.4,1556.6,254,1556.6,258.3z"/>
	</g>
	<g>
		<path fill="#1B264C" d="M1585,246.6l0.5,2.9c1.9-3.1,4.5-3.5,7-3.5c2.6,0,5,1,6.4,2.4l-2.8,5.3c-1.2-1-2.4-1.6-4.4-1.6
			c-3.2,0-6.2,1.7-6.2,6.2v13h-6.1v-24.7C1579.4,246.6,1585,246.6,1585,246.6z"/>
	</g>
	<g>
		<path fill="#1B264C" d="M1620.6,246.6h5.8v24.7h-5.8l-0.3-3.6c-1.4,2.9-5.3,4.3-8,4.4c-7.3,0-12.7-4.5-12.7-13.1
			c0-8.5,5.7-13,12.9-12.9c3.3,0,6.5,1.5,7.9,4L1620.6,246.6z M1605.8,258.9c0,4.7,3.3,7.5,7.3,7.5c9.6,0,9.6-15,0-15
			C1609.1,251.5,1605.8,254.2,1605.8,258.9z"/>
	</g>
	<g>
		<path fill="#1B264C" d="M1631.6,281.6v-35h5.7l0.4,3.4c1.9-2.8,5.2-4,8-4c7.6,0,12.7,5.7,12.7,12.9c0,7.2-4.6,12.9-12.5,12.9
			c-2.6,0-6.5-0.8-8.2-3.5v13.2L1631.6,281.6L1631.6,281.6z M1652.3,259c0-3.9-2.6-7-7-7c-4.4,0-7,3.1-7,7c0,3.9,2.9,7,7,7
			S1652.3,262.8,1652.3,259z"/>
	</g>
	<g>
		<path fill="#1B264C" d="M1669,236.3V250c2.2-2.9,4.9-3.7,7.7-3.7c7,0,10.1,4.8,10.1,12v13h-6.1v-13c0-4.5-2.3-6.4-5.6-6.4
			c-3.6,0-6.1,3.1-6.1,6.8v12.6h-6.1v-35H1669z"/>
	</g>
	<g>
		<path fill="#1B264C" d="M1715.6,246.6l-15.1,35h-6.7l4.6-10.7l-9.9-24.3h7.1l3.8,10.7l2.4,7l2.5-6.8l4.5-10.8L1715.6,246.6
			L1715.6,246.6z"/>
	</g>
</g>
<g>
	<g>
		<path fill="#1B264C" d="M1433.5,296.9h5.8v24.7h-5.8l-0.3-3.6c-1.4,2.9-5.3,4.3-8,4.4c-7.3,0-12.7-4.5-12.7-13.1
			c0-8.5,5.7-13,12.9-12.9c3.3,0,6.5,1.5,7.9,4L1433.5,296.9z M1418.7,309.2c0,4.7,3.3,7.5,7.3,7.5c9.6,0,9.6-15,0-15
			C1422,301.8,1418.7,304.5,1418.7,309.2z"/>
	</g>
	<g>
		<path fill="#1B264C" d="M1460.6,303.5c-1.8-1.6-3.8-2.2-6.1-2.2c-2.9,0-4.5,0.9-4.5,2.4c0,1.6,1.5,2.5,4.6,2.7
			c4.7,0.3,10.6,1.4,10.6,7.9c0,4.3-3.5,8.1-10.6,8.1c-3.9,0-7.8-0.6-11.4-4.4l3-4.4c1.8,2,5.8,3.4,8.5,3.5c2.3,0,4.5-1.2,4.5-3
			c0-1.7-1.4-2.4-4.9-2.6c-4.7-0.3-10.2-2-10.2-7.7c0-5.7,5.9-7.7,10.4-7.7c3.9,0,6.8,0.8,9.6,3.2L1460.6,303.5z"/>
	</g>
	<g>
		<path fill="#1B264C" d="M1510.1,296.2l-11.4,15.2h-1.3l-11.2-15.3v25.5h-6.6v-35h7.6l11,15.1l11-15.1h7.6v35h-6.6L1510.1,296.2
			L1510.1,296.2z"/>
	</g>
	<g>
		<path fill="#1B264C" d="M1527.7,311.4c0.4,3,3.1,5.2,7.4,5.2c2.2,0,5.2-0.8,6.6-2.3l3.9,3.8c-2.6,2.7-6.9,4-10.6,4
			c-8.5,0-13.6-5.3-13.6-13.2c0-7.5,5.1-12.9,13.1-12.9c8.2,0,13.4,5.1,12.5,15.3L1527.7,311.4L1527.7,311.4z M1541,306.4
			c-0.4-3.2-2.9-4.8-6.4-4.8c-3.3,0-6,1.6-6.9,4.8H1541z"/>
	</g>
	<g>
		<path fill="#1B264C" d="M1559.1,290v7h6.8v5.3h-6.9V313c0,2.3,1.3,3.5,3.2,3.5c1,0,2-0.3,3-0.8l1.7,5.2c-1.8,0.7-3.2,1-5.1,1
			c-5.3,0.2-8.9-2.8-8.9-9v-10.7h-4.6v-5.3h4.6v-6.4L1559.1,290z"/>
	</g>
	<g>
		<path fill="#1B264C" d="M1576.5,286.6v13.7c2.2-2.9,4.9-3.7,7.7-3.7c7,0,10.1,4.8,10.1,12v13h-6.1v-13c0-4.5-2.3-6.4-5.6-6.4
			c-3.6,0-6.1,3.1-6.1,6.8v12.6h-6.1v-35H1576.5z"/>
	</g>
	<g>
		<path fill="#1B264C" d="M1624,309.3c0,7.1-4.9,12.9-12.9,12.9s-12.8-5.8-12.8-12.9c0-7.1,4.9-12.9,12.8-12.9
			C1619,296.4,1624,302.2,1624,309.3z M1604.4,309.3c0,3.8,2.2,7.2,6.7,7.2s6.7-3.5,6.7-7.2c0-3.7-2.6-7.3-6.7-7.3
			C1606.7,302,1604.4,305.6,1604.4,309.3z"/>
	</g>
	<g>
		<path fill="#1B264C" d="M1653.8,286.6v35h-5.7l-0.4-3.4c-1.9,3-5,4-8,4c-7.2,0-12.7-4.8-12.7-12.9c0-8.5,5.4-12.9,12.6-12.9
			c2.6,0,6.7,1.4,8.1,4v-13.7L1653.8,286.6L1653.8,286.6z M1633.1,309.2c0,4.3,3.1,7.2,7,7.2c3.8,0,7.2-2.8,7.2-7.2
			c0-4.3-3.3-7.2-7.2-7.2C1636.2,302,1633.1,304.8,1633.1,309.2z"/>
	</g>
</g>
<g>
	<g>
		<path fill="#1B264C" d="M1424.6,361h-2.7l-3.5-11.3l-3.3,14.9h-2.5l4.3-19.3h2.4l4.2,13.6l8.7-13.6h2.6l-2.4,19.3h-2.5l1.8-14.5
			L1424.6,361z"/>
	</g>
	<g>
		<path fill="#1B264C" d="M1449.7,356c0,1-0.2,2.1-0.5,3.1c-0.3,1.1-0.8,2-1.5,2.8c-0.6,0.8-1.4,1.5-2.4,2c-0.9,0.5-2,0.8-3.2,0.8
			c-0.9,0-1.6-0.1-2.3-0.4c-0.7-0.3-1.2-0.7-1.7-1.2c-0.5-0.5-0.8-1.1-1-1.8c-0.2-0.7-0.3-1.4-0.3-2.2c0-1.1,0.2-2.2,0.5-3.3
			c0.3-1.1,0.8-2,1.5-2.8c0.6-0.8,1.4-1.5,2.4-2c0.9-0.5,2-0.7,3.2-0.7c0.9,0,1.6,0.1,2.3,0.4c0.7,0.3,1.3,0.7,1.7,1.2
			c0.4,0.5,0.8,1.1,1.1,1.8C1449.6,354.5,1449.7,355.2,1449.7,356z M1442.2,362.9c0.8,0,1.5-0.2,2.1-0.6c0.6-0.4,1.1-0.9,1.6-1.6
			c0.5-0.7,0.7-1.4,1-2.2c0.2-0.8,0.3-1.6,0.3-2.4c0-0.5-0.1-1-0.2-1.5c-0.1-0.5-0.3-0.9-0.6-1.2c-0.3-0.3-0.6-0.6-1-0.8
			c-0.4-0.2-0.9-0.3-1.4-0.3c-0.7,0-1.4,0.2-2,0.6c-0.6,0.4-1.1,0.9-1.5,1.5c-0.4,0.6-0.7,1.4-1,2.2c-0.2,0.8-0.3,1.7-0.3,2.6
			c0,1.1,0.2,2,0.7,2.7C1440.4,362.6,1441.2,362.9,1442.2,362.9z"/>
	</g>
	<g>
		<path fill="#1B264C" d="M1452.2,350.6h2.6l0.6-3.7h2.6l-0.6,3.7h4.5l-0.4,2.1h-4.5l-1.3,7.5c-0.1,0.3-0.1,0.6-0.1,0.9
			c0,0.6,0.1,1,0.4,1.3c0.3,0.3,0.7,0.4,1.2,0.4s1-0.1,1.4-0.2c0.5-0.1,0.9-0.2,1.3-0.4l0.2,1.9c-0.4,0.2-0.9,0.4-1.6,0.5
			c-0.6,0.1-1.2,0.2-1.8,0.2c-1.2,0-2.1-0.3-2.8-0.9c-0.7-0.6-1-1.5-1-2.6c0-0.2,0-0.4,0-0.6c0-0.2,0-0.4,0.1-0.6l1.3-7.4h-2.6
			L1452.2,350.6z"/>
	</g>
	<g>
		<path fill="#1B264C" d="M1462.6,364.5l2.5-13.9h2.6l-2.5,13.9H1462.6z M1465.4,346.7c0-0.5,0.2-0.9,0.5-1.3
			c0.3-0.3,0.8-0.5,1.3-0.5c0.4,0,0.8,0.1,1.1,0.4c0.3,0.3,0.4,0.6,0.4,1c0,0.5-0.2,0.9-0.5,1.3c-0.3,0.3-0.8,0.5-1.3,0.5
			c-0.4,0-0.8-0.1-1-0.4C1465.5,347.4,1465.4,347.1,1465.4,346.7z"/>
	</g>
	<g>
		<path fill="#1B264C" d="M1482.6,356c0,1-0.2,2.1-0.5,3.1c-0.3,1.1-0.8,2-1.5,2.8c-0.6,0.8-1.4,1.5-2.4,2c-0.9,0.5-2,0.8-3.2,0.8
			c-0.9,0-1.6-0.1-2.3-0.4c-0.7-0.3-1.2-0.7-1.7-1.2c-0.5-0.5-0.8-1.1-1-1.8c-0.2-0.7-0.3-1.4-0.3-2.2c0-1.1,0.2-2.2,0.5-3.3
			c0.3-1.1,0.8-2,1.5-2.8c0.6-0.8,1.4-1.5,2.4-2c0.9-0.5,2-0.7,3.2-0.7c0.9,0,1.6,0.1,2.3,0.4c0.7,0.3,1.3,0.7,1.7,1.2
			c0.4,0.5,0.8,1.1,1.1,1.8C1482.5,354.5,1482.6,355.2,1482.6,356z M1475.1,362.9c0.8,0,1.5-0.2,2.1-0.6c0.6-0.4,1.1-0.9,1.6-1.6
			s0.7-1.4,1-2.2c0.2-0.8,0.3-1.6,0.3-2.4c0-0.5-0.1-1-0.2-1.5c-0.1-0.5-0.3-0.9-0.6-1.2c-0.3-0.3-0.6-0.6-1-0.8
			c-0.4-0.2-0.9-0.3-1.4-0.3c-0.7,0-1.4,0.2-2,0.6c-0.6,0.4-1.1,0.9-1.5,1.5s-0.7,1.4-1,2.2c-0.2,0.8-0.3,1.7-0.3,2.6
			c0,1.1,0.2,2,0.7,2.7S1474.1,362.9,1475.1,362.9z"/>
	</g>
	<g>
		<path fill="#1B264C" d="M1484.5,364.5l2.5-13.9h2.5l-0.6,3.4c0.3-0.5,0.6-1,0.9-1.4c0.3-0.4,0.7-0.8,1.1-1.2
			c0.4-0.3,0.9-0.6,1.4-0.8c0.5-0.2,1.1-0.3,1.7-0.3c0.6,0,1.1,0.1,1.6,0.4c0.5,0.2,0.8,0.6,1.1,1s0.5,0.9,0.7,1.5s0.2,1.2,0.2,2
			c0,0.3,0,0.6,0,0.9c0,0.3-0.1,0.7-0.1,1l-1.3,7.4h-2.6l1.3-7.2c0.1-0.7,0.2-1.3,0.2-1.9c0-0.9-0.1-1.6-0.4-2.1
			c-0.3-0.6-0.8-0.9-1.5-0.9c-0.5,0-0.9,0.1-1.3,0.4c-0.4,0.3-0.9,0.6-1.2,1c-0.3,0.4-0.8,0.9-1.1,1.5c-0.3,0.6-0.7,1.1-1,1.7
			l-1.3,7.5H1484.5z"/>
	</g>
	<g>
		<path fill="#1B264C" d="M1517.8,344.9c1.1,0,2.2,0.1,3.2,0.3c1.1,0.2,2,0.6,2.9,1l-0.6,2.1c-0.9-0.4-1.8-0.7-2.7-0.9
			c-0.9-0.2-1.8-0.3-2.8-0.3c-1.4,0-2.6,0.2-3.6,0.7c-1,0.5-1.9,1.1-2.6,1.9s-1.3,1.8-1.6,2.9c-0.4,1.1-0.6,2.3-0.6,3.6
			c0,2.1,0.6,3.8,1.8,4.9c1.2,1.2,2.9,1.7,5,1.7c0.6,0,1.2,0,1.7-0.1c0.6-0.1,1.1-0.2,1.6-0.4l1-6.1h2.4l-1.3,7.6
			c-0.8,0.3-1.6,0.6-2.6,0.8c-1,0.2-2,0.3-3,0.3c-1.5,0-2.8-0.2-3.9-0.7c-1.1-0.5-2.1-1.1-2.9-1.9c-0.8-0.8-1.4-1.7-1.8-2.8
			c-0.4-1.1-0.6-2.2-0.6-3.4c0-1.5,0.2-3,0.7-4.4s1.2-2.6,2.1-3.6c0.9-1,2.1-1.8,3.5-2.4C1514.5,345.2,1516.1,344.9,1517.8,344.9z"
			/>
	</g>
	<g>
		<path fill="#1B264C" d="M1534.7,352.8c-0.1,0-0.2,0-0.3,0c-0.1,0-0.2,0-0.3,0c-1,0-1.9,0.3-2.7,1c-0.8,0.7-1.5,1.6-2.1,2.8
			l-1.4,7.9h-2.6l2.5-13.9h2.5l-0.6,3.6c0.4-1.2,1-2.1,1.7-2.8c0.7-0.6,1.6-0.9,2.6-0.9c0.2,0,0.3,0,0.5,0s0.3,0,0.4,0.1
			L1534.7,352.8z"/>
	</g>
	<g>
		<path fill="#1B264C" d="M1545.4,364.5h-2.4l0.9-5.1c-0.3,0.6-0.6,1.2-0.9,1.8c-0.3,0.6-0.8,1.2-1.2,1.7c-0.5,0.5-1,1-1.5,1.3
			c-0.5,0.3-1.1,0.5-1.8,0.5c-0.6,0-1.1-0.1-1.6-0.4c-0.5-0.3-0.8-0.6-1.1-1.1c-0.3-0.4-0.5-1-0.7-1.6s-0.2-1.2-0.2-1.9
			c0-1.3,0.2-2.5,0.5-3.6c0.4-1.1,0.9-2.2,1.6-3.1s1.5-1.6,2.6-2.1c1-0.5,2.1-0.8,3.4-0.8c0.9,0,1.7,0.1,2.6,0.3
			c0.9,0.2,1.6,0.4,2.2,0.7L1545.4,364.5z M1539,362.8c0.5,0,1.1-0.3,1.6-0.8c0.5-0.5,1-1.2,1.5-2c0.5-0.8,0.9-1.7,1.3-2.6
			c0.4-0.9,0.8-1.8,1.1-2.7l0.3-1.9c-0.6-0.3-1.3-0.4-2.1-0.4c-0.8,0-1.6,0.2-2.2,0.7s-1.2,1-1.7,1.7c-0.5,0.7-0.8,1.5-1.1,2.4
			s-0.4,1.8-0.4,2.7c0,0.4,0,0.7,0.1,1.1c0,0.4,0.1,0.7,0.2,1c0.1,0.3,0.3,0.5,0.5,0.7C1538.3,362.9,1538.7,362.8,1539,362.8z"/>
	</g>
	<g>
		<path fill="#1B264C" d="M1552.1,350.6h2.4l-0.6,3.7c0.3-0.5,0.6-1,0.9-1.5c0.3-0.5,0.7-0.9,1.2-1.3c0.4-0.4,0.9-0.7,1.5-0.9
			c0.5-0.2,1.1-0.3,1.8-0.3c0.6,0,1.1,0.1,1.6,0.4c0.5,0.3,0.9,0.6,1.2,1.1c0.3,0.4,0.6,1,0.7,1.6c0.1,0.6,0.2,1.3,0.2,2
			c0,1.1-0.2,2.2-0.5,3.3s-0.8,2.1-1.5,3c-0.7,0.9-1.5,1.6-2.5,2.2c-1,0.6-2.2,0.9-3.5,0.9c-0.4,0-0.9,0-1.4-0.1s-1-0.2-1.4-0.3
			l-1.1,6.1h-2.6L1552.1,350.6z M1558.5,352.3c-0.5,0-1,0.2-1.5,0.5c-0.5,0.3-0.9,0.8-1.4,1.3c-0.4,0.5-0.8,1.1-1.2,1.8
			c-0.4,0.7-0.7,1.3-1.1,1.9l-0.8,4.6c0.7,0.3,1.5,0.4,2.3,0.4c0.9,0,1.7-0.2,2.4-0.6c0.7-0.4,1.3-1,1.8-1.6
			c0.5-0.7,0.8-1.5,1.1-2.4c0.3-0.9,0.4-1.8,0.4-2.8c0-0.4,0-0.8-0.1-1.2c-0.1-0.4-0.2-0.7-0.3-1c-0.1-0.3-0.3-0.5-0.6-0.7
			C1559.3,352.4,1558.9,352.3,1558.5,352.3z"/>
	</g>
	<g>
		<path fill="#1B264C" d="M1564.9,364.5l3.6-20.5h2.6l-1.7,9.8c0.3-0.5,0.6-0.9,0.9-1.3c0.3-0.4,0.7-0.8,1.1-1.1
			c0.4-0.3,0.9-0.6,1.3-0.8c0.5-0.2,1-0.3,1.6-0.3s1.1,0.1,1.6,0.4c0.5,0.2,0.8,0.6,1.1,1c0.3,0.4,0.5,0.9,0.7,1.5
			c0.2,0.6,0.2,1.2,0.2,2c0,0.3,0,0.6,0,0.9c0,0.3-0.1,0.7-0.1,1l-1.3,7.4h-2.6l1.3-7.2c0.1-0.7,0.2-1.3,0.2-1.9
			c0-0.9-0.1-1.6-0.4-2.1c-0.3-0.6-0.8-0.9-1.5-0.9c-0.5,0-0.9,0.1-1.3,0.4c-0.4,0.3-0.9,0.6-1.2,1c-0.3,0.4-0.8,0.9-1.1,1.5
			s-0.7,1.1-1,1.7l-1.3,7.5H1564.9z"/>
	</g>
	<g>
		<path fill="#1B264C" d="M1580.6,364.5l2.5-13.9h2.6l-2.5,13.9H1580.6z M1583.4,346.7c0-0.5,0.2-0.9,0.5-1.3
			c0.3-0.3,0.8-0.5,1.3-0.5c0.4,0,0.8,0.1,1.1,0.4c0.3,0.3,0.4,0.6,0.4,1c0,0.5-0.2,0.9-0.5,1.3c-0.3,0.3-0.8,0.5-1.3,0.5
			c-0.4,0-0.8-0.1-1-0.4C1583.6,347.4,1583.4,347.1,1583.4,346.7z"/>
	</g>
	<g>
		<path fill="#1B264C" d="M1595.2,350.3c0.8,0,1.5,0.1,2.1,0.3c0.6,0.2,1.2,0.4,1.6,0.7l-0.6,1.9c-0.4-0.2-0.9-0.4-1.5-0.6
			c-0.6-0.2-1.1-0.2-1.7-0.2c-0.8,0-1.5,0.2-2.2,0.5c-0.6,0.3-1.2,0.8-1.6,1.4c-0.4,0.6-0.8,1.3-1,2.1c-0.2,0.8-0.3,1.7-0.3,2.6
			c0,0.5,0.1,1,0.2,1.4c0.1,0.5,0.3,0.8,0.5,1.2c0.2,0.3,0.6,0.6,1,0.8c0.4,0.2,0.9,0.3,1.6,0.3c0.6,0,1.2-0.1,1.8-0.2
			c0.6-0.2,1.1-0.4,1.6-0.6l0.5,1.9c-0.6,0.3-1.2,0.6-1.9,0.8c-0.7,0.2-1.4,0.3-2.2,0.3c-0.9,0-1.7-0.2-2.4-0.4
			c-0.7-0.3-1.3-0.7-1.7-1.2c-0.5-0.5-0.8-1.1-1-1.8c-0.2-0.7-0.3-1.4-0.3-2.2c0-1.2,0.2-2.3,0.5-3.3c0.3-1.1,0.8-2,1.5-2.8
			s1.4-1.4,2.4-1.9C1592.9,350.6,1594,350.3,1595.2,350.3z"/>
	</g>
	<g>
		<path fill="#1B264C" d="M1610.4,344.2l2,1l-11.2,22.2l-1.9-1L1610.4,344.2z"/>
	</g>
	<g>
		<path fill="#1B264C" d="M1628.1,345.2l-0.3,2.1h-5.2l-3,17.3h-2.6l3-17.3h-5.2l0.3-2.1H1628.1z"/>
	</g>
	<g>
		<path fill="#1B264C" d="M1632.9,363.7c-1,1.4-2.2,2.7-3.6,3.9c-1.4,1.2-3,2.3-4.6,3.1l-1.1-1.8c1.1-0.6,2.1-1.3,3.2-2.1
			s2-1.6,2.8-2.5c-0.3-2.5-0.8-4.9-1.4-7.2c-0.6-2.3-1.3-4.6-2.1-6.6h2.5c0.3,0.8,0.6,1.7,0.9,2.7c0.3,1,0.6,1.9,0.8,3
			c0.3,1,0.5,2.1,0.7,3.1c0.2,1,0.4,2.1,0.5,3c2-3.7,3.3-7.6,3.9-11.8h2.5c-0.2,1.3-0.4,2.5-0.8,3.8c-0.3,1.2-0.7,2.4-1.1,3.6
			c-0.4,1.1-0.9,2.2-1.4,3.2C1634,362.1,1633.5,363,1632.9,363.7z"/>
	</g>
	<g>
		<path fill="#1B264C" d="M1641.1,350.6h2.4l-0.6,3.7c0.3-0.5,0.6-1,0.9-1.5c0.3-0.5,0.7-0.9,1.2-1.3c0.4-0.4,0.9-0.7,1.5-0.9
			c0.5-0.2,1.1-0.3,1.8-0.3c0.6,0,1.1,0.1,1.6,0.4c0.5,0.3,0.9,0.6,1.2,1.1c0.3,0.4,0.6,1,0.7,1.6c0.1,0.6,0.2,1.3,0.2,2
			c0,1.1-0.2,2.2-0.5,3.3c-0.3,1.1-0.8,2.1-1.5,3c-0.7,0.9-1.5,1.6-2.5,2.2c-1,0.6-2.2,0.9-3.5,0.9c-0.4,0-0.9,0-1.4-0.1
			s-1-0.2-1.4-0.3l-1.1,6.1h-2.6L1641.1,350.6z M1647.5,352.3c-0.5,0-1,0.2-1.5,0.5c-0.5,0.3-0.9,0.8-1.4,1.3
			c-0.4,0.5-0.8,1.1-1.2,1.8c-0.4,0.7-0.7,1.3-1.1,1.9l-0.8,4.6c0.7,0.3,1.5,0.4,2.3,0.4c0.9,0,1.7-0.2,2.4-0.6
			c0.7-0.4,1.3-1,1.8-1.6c0.5-0.7,0.8-1.5,1.1-2.4c0.3-0.9,0.4-1.8,0.4-2.8c0-0.4,0-0.8-0.1-1.2c-0.1-0.4-0.2-0.7-0.3-1
			c-0.1-0.3-0.3-0.5-0.6-0.7C1648.2,352.4,1647.9,352.3,1647.5,352.3z"/>
	</g>
	<g>
		<path fill="#1B264C" d="M1667.1,356c0,1-0.2,2.1-0.5,3.1c-0.3,1.1-0.8,2-1.5,2.8c-0.6,0.8-1.4,1.5-2.4,2c-0.9,0.5-2,0.8-3.2,0.8
			c-0.9,0-1.6-0.1-2.3-0.4c-0.7-0.3-1.2-0.7-1.7-1.2s-0.8-1.1-1-1.8c-0.2-0.7-0.3-1.4-0.3-2.2c0-1.1,0.2-2.2,0.5-3.3
			c0.3-1.1,0.8-2,1.5-2.8c0.6-0.8,1.4-1.5,2.4-2c0.9-0.5,2-0.7,3.2-0.7c0.9,0,1.6,0.1,2.3,0.4c0.7,0.3,1.3,0.7,1.7,1.2
			c0.4,0.5,0.8,1.1,1.1,1.8C1667,354.5,1667.1,355.2,1667.1,356z M1659.7,362.9c0.8,0,1.5-0.2,2.1-0.6c0.6-0.4,1.1-0.9,1.6-1.6
			c0.5-0.7,0.7-1.4,1-2.2c0.2-0.8,0.3-1.6,0.3-2.4c0-0.5-0.1-1-0.2-1.5c-0.1-0.5-0.3-0.9-0.6-1.2c-0.3-0.3-0.6-0.6-1-0.8
			c-0.4-0.2-0.9-0.3-1.4-0.3c-0.7,0-1.4,0.2-2,0.6c-0.6,0.4-1.1,0.9-1.5,1.5c-0.4,0.6-0.7,1.4-1,2.2c-0.2,0.8-0.3,1.7-0.3,2.6
			c0,1.1,0.2,2,0.7,2.7C1657.9,362.6,1658.7,362.9,1659.7,362.9z"/>
	</g>
	<g>
		<path fill="#1B264C" d="M1680.2,363.4c-0.4,2.4-1.2,4.3-2.3,5.5c-1.1,1.3-2.7,1.9-4.7,1.9c-0.9,0-1.7-0.1-2.5-0.2
			c-0.8-0.1-1.6-0.4-2.4-0.8l0.6-2c0.6,0.3,1.3,0.6,2,0.7c0.7,0.2,1.4,0.3,2.1,0.3c1.4,0,2.5-0.5,3.2-1.4c0.7-0.9,1.3-2.3,1.6-4
			l0.6-3.6c-0.3,0.6-0.6,1.1-1,1.7c-0.4,0.6-0.8,1-1.2,1.5c-0.4,0.4-0.9,0.8-1.5,1c-0.5,0.3-1.1,0.4-1.7,0.4c-0.7,0-1.3-0.1-1.7-0.4
			c-0.5-0.3-0.9-0.6-1.1-1c-0.3-0.4-0.5-0.9-0.6-1.4c-0.1-0.5-0.2-1.1-0.2-1.6c0-1.3,0.2-2.5,0.6-3.6s0.9-2.2,1.6-3
			c0.7-0.8,1.6-1.6,2.6-2.1c1-0.5,2.2-0.8,3.5-0.8c0.9,0,1.8,0.1,2.7,0.3c0.8,0.2,1.5,0.4,2.2,0.7L1680.2,363.4z M1673.5,362.3
			c0.5,0,1-0.2,1.5-0.5c0.5-0.3,1-0.8,1.4-1.3c0.5-0.6,0.9-1.2,1.3-2s0.8-1.5,1.2-2.4l0.6-3.4c-0.3-0.1-0.6-0.2-1-0.3
			c-0.4-0.1-0.8-0.1-1.2-0.1c-0.9,0-1.7,0.2-2.3,0.7s-1.2,1-1.7,1.7c-0.5,0.7-0.8,1.5-1,2.4s-0.3,1.8-0.3,2.7c0,0.7,0.1,1.3,0.4,1.7
			C1672.5,362,1672.9,362.3,1673.5,362.3z"/>
	</g>
	<g>
		<path fill="#1B264C" d="M1693.6,352.8c-0.1,0-0.2,0-0.3,0c-0.1,0-0.2,0-0.3,0c-1,0-1.9,0.3-2.7,1c-0.8,0.7-1.5,1.6-2.1,2.8
			l-1.4,7.9h-2.6l2.5-13.9h2.5l-0.6,3.6c0.4-1.2,1-2.1,1.7-2.8c0.7-0.6,1.6-0.9,2.6-0.9c0.2,0,0.3,0,0.5,0s0.3,0,0.4,0.1
			L1693.6,352.8z"/>
	</g>
	<g>
		<path fill="#1B264C" d="M1704.3,364.5h-2.4l0.9-5.1c-0.3,0.6-0.6,1.2-0.9,1.8c-0.3,0.6-0.8,1.2-1.2,1.7c-0.5,0.5-1,1-1.5,1.3
			c-0.5,0.3-1.1,0.5-1.8,0.5c-0.6,0-1.1-0.1-1.6-0.4c-0.5-0.3-0.8-0.6-1.1-1.1c-0.3-0.4-0.5-1-0.7-1.6s-0.2-1.2-0.2-1.9
			c0-1.3,0.2-2.5,0.5-3.6c0.4-1.1,0.9-2.2,1.6-3.1c0.7-0.9,1.5-1.6,2.6-2.1c1-0.5,2.1-0.8,3.4-0.8c0.9,0,1.7,0.1,2.6,0.3
			c0.9,0.2,1.6,0.4,2.2,0.7L1704.3,364.5z M1697.9,362.8c0.5,0,1.1-0.3,1.6-0.8c0.5-0.5,1-1.2,1.5-2s0.9-1.7,1.3-2.6
			c0.4-0.9,0.8-1.8,1.1-2.7l0.3-1.9c-0.6-0.3-1.3-0.4-2.1-0.4s-1.6,0.2-2.2,0.7s-1.2,1-1.7,1.7s-0.8,1.5-1.1,2.4
			c-0.3,0.9-0.4,1.8-0.4,2.7c0,0.4,0,0.7,0.1,1.1c0,0.4,0.1,0.7,0.2,1c0.1,0.3,0.3,0.5,0.5,0.7
			C1697.2,362.9,1697.6,362.8,1697.9,362.8z"/>
	</g>
	<g>
		<path fill="#1B264C" d="M1711.1,350.6h2.4l-0.6,3.7c0.3-0.5,0.6-1,0.9-1.5c0.3-0.5,0.7-0.9,1.2-1.3c0.4-0.4,0.9-0.7,1.5-0.9
			c0.5-0.2,1.1-0.3,1.8-0.3c0.6,0,1.1,0.1,1.6,0.4c0.5,0.3,0.9,0.6,1.2,1.1c0.3,0.4,0.6,1,0.7,1.6c0.1,0.6,0.2,1.3,0.2,2
			c0,1.1-0.2,2.2-0.5,3.3s-0.8,2.1-1.5,3c-0.7,0.9-1.5,1.6-2.5,2.2c-1,0.6-2.2,0.9-3.5,0.9c-0.4,0-0.9,0-1.4-0.1s-1-0.2-1.4-0.3
			l-1.1,6.1h-2.6L1711.1,350.6z M1717.5,352.3c-0.5,0-1,0.2-1.5,0.5c-0.5,0.3-0.9,0.8-1.4,1.3c-0.4,0.5-0.8,1.1-1.2,1.8
			c-0.4,0.7-0.7,1.3-1.1,1.9l-0.8,4.6c0.7,0.3,1.5,0.4,2.3,0.4c0.9,0,1.7-0.2,2.4-0.6c0.7-0.4,1.3-1,1.8-1.6
			c0.5-0.7,0.8-1.5,1.1-2.4c0.3-0.9,0.4-1.8,0.4-2.8c0-0.4,0-0.8-0.1-1.2c-0.1-0.4-0.2-0.7-0.3-1c-0.1-0.3-0.3-0.5-0.6-0.7
			C1718.2,352.4,1717.9,352.3,1717.5,352.3z"/>
	</g>
	<g>
		<path fill="#1B264C" d="M1723.8,364.5l3.6-20.5h2.6l-1.7,9.8c0.3-0.5,0.6-0.9,0.9-1.3c0.3-0.4,0.7-0.8,1.1-1.1
			c0.4-0.3,0.9-0.6,1.3-0.8c0.5-0.2,1-0.3,1.6-0.3c0.6,0,1.1,0.1,1.6,0.4c0.5,0.2,0.8,0.6,1.1,1s0.5,0.9,0.7,1.5s0.2,1.2,0.2,2
			c0,0.3,0,0.6,0,0.9c0,0.3-0.1,0.7-0.1,1l-1.3,7.4h-2.6l1.3-7.2c0.1-0.7,0.2-1.3,0.2-1.9c0-0.9-0.1-1.6-0.4-2.1
			c-0.3-0.6-0.8-0.9-1.5-0.9c-0.5,0-0.9,0.1-1.3,0.4c-0.4,0.3-0.9,0.6-1.2,1c-0.3,0.4-0.8,0.9-1.1,1.5c-0.3,0.6-0.7,1.1-1,1.7
			l-1.3,7.5H1723.8z"/>
	</g>
	<g>
		<path fill="#1B264C" d="M1746.3,363.7c-1,1.4-2.2,2.7-3.6,3.9c-1.4,1.2-3,2.3-4.6,3.1l-1.1-1.8c1.1-0.6,2.1-1.3,3.2-2.1
			s2-1.6,2.8-2.5c-0.3-2.5-0.8-4.9-1.4-7.2s-1.3-4.6-2.1-6.6h2.5c0.3,0.8,0.6,1.7,0.9,2.7c0.3,1,0.6,1.9,0.8,3
			c0.3,1,0.5,2.1,0.7,3.1c0.2,1,0.4,2.1,0.5,3c2-3.7,3.3-7.6,3.9-11.8h2.5c-0.2,1.3-0.4,2.5-0.8,3.8c-0.3,1.2-0.7,2.4-1.1,3.6
			c-0.4,1.1-0.9,2.2-1.4,3.2C1747.3,362.1,1746.8,363,1746.3,363.7z"/>
	</g>
</g>
<g>
	<rect x="1380.3" y="386.1" fill="#AFAFAF" width="532.5" height="1"/>
</g>
<g>
	<rect x="1376.5" y="1.6" fill="#AFAFAF" width="1" height="4265"/>
</g>
<circle fill="#FFFFFF" cx="1553.8" cy="1529" r="8.9"/>
</svg>
