<?xml version="1.0" encoding="utf-8"?>
<!-- Generator: Adobe Illustrator 17.1.0, SVG Export Plug-In . SVG Version: 6.00 Build 0)  -->
<!DOCTYPE svg PUBLIC "-//W3C//DTD SVG 1.1//EN" "http://www.w3.org/Graphics/SVG/1.1/DTD/svg11.dtd">
<svg version="1.1" id="Layer_1" xmlns="http://www.w3.org/2000/svg" xmlns:xlink="http://www.w3.org/1999/xlink" x="0px" y="0px"
	 viewBox="0 0 1920 4265" enable-background="new 0 0 1920 4265" xml:space="preserve">
<g display="none">
	<path display="inline" fill="#15FFA5" d="M1653.9,42c0,19-28.8,19-28.8,0C1625.1,23,1653.9,23,1653.9,42z M1627.3,69.4v99h24.4v-99
		H1627.3z"/>
	<path display="inline" fill="#15FFA5" d="M1686.3,69.8l1.8,11.4c7.6-12.2,17.8-14,27.8-14c10.2,0,20,4,25.4,9.4l-11,21.2
		c-5-4.2-9.6-6.4-17.6-6.4c-12.8,0-24.6,6.8-24.6,25v52h-24.4V69.8H1686.3z"/>
	<path display="inline" fill="#15FFA5" d="M1761.3,127.8c1.6,12.2,12.2,21,29.4,21c9,0,20.8-3.4,26.4-9.2l15.6,15.4
		c-10.4,10.8-27.4,16-42.4,16c-34,0-54.2-21-54.2-52.6c0-30,20.4-51.6,52.4-51.6c33,0,53.6,20.4,49.8,61H1761.3z M1814.9,107.6
		c-1.6-12.8-11.6-19.2-25.6-19.2c-13.2,0-24,6.4-27.6,19.2H1814.9z"/>
	<path display="inline" fill="#15FFA5" d="M1919.7,168.4v-51.6c0-15-8.2-26.4-23.8-26.4c-15,0-25.2,12.6-25.2,27.6v50.4h-24.2V69.6
		h21.8l1.6,13.4c10-9.8,20-14.8,32.4-14.8c23.2,0,41.8,17.4,41.8,48.4v51.8H1919.7z"/>
</g>
<circle fill="#FFFFFF" cx="1553.8" cy="1529" r="8.9"/>
<text transform="matrix(1 0 0 1 1420 426.9995)"><tspan x="0" y="0" fill="#919191" font-family="'Calibri-Light'" font-size="21">Promotional materials for the School of Visual Arts, </tspan><tspan x="0" y="22" fill="#919191" font-family="'Calibri-Light'" font-size="21">HKBU photo exhibition</tspan></text>
<rect x="1419.8" y="299.5" fill="#15FFA5" width="242.6" height="30.7"/>
<rect x="1419.8" y="243.6" fill="#15FFA5" width="300.9" height="30.7"/>
<g>
	<path fill="#1B264C" d="M1436.3,264.3h-9.9v10.3h-6.6v-35c5.5,0,11-0.1,16.5-0.1C1453.3,239.5,1453.4,264.3,1436.3,264.3z
		 M1426.4,258.2h9.9c8.5,0,8.4-12.4,0-12.4h-9.9V258.2z"/>
	<path fill="#1B264C" d="M1459.2,239.6v13.7c2.2-2.9,4.9-3.7,7.7-3.7c7,0,10.1,4.8,10.1,12v13h-6.1v-13c0-4.5-2.3-6.4-5.6-6.4
		c-3.6,0-6.1,3.1-6.1,6.8v12.6h-6.1v-35H1459.2z"/>
	<path fill="#1B264C" d="M1506.6,262.3c0,7.1-4.9,12.9-12.9,12.9s-12.8-5.8-12.8-12.9c0-7.1,4.9-12.9,12.8-12.9
		C1501.6,249.4,1506.6,255.2,1506.6,262.3z M1487.1,262.3c0,3.8,2.2,7.2,6.7,7.2s6.7-3.5,6.7-7.2s-2.6-7.3-6.7-7.3
		C1489.4,255,1487.1,258.6,1487.1,262.3z"/>
	<path fill="#1B264C" d="M1518.9,243v7h6.8v5.3h-6.9V266c0,2.3,1.3,3.5,3.2,3.5c1,0,2-0.3,3-0.8l1.7,5.2c-1.8,0.7-3.2,1-5.1,1
		c-5.4,0.2-8.9-2.8-8.9-9v-10.7h-4.6v-5.3h4.6v-6.4L1518.9,243z"/>
	<path fill="#1B264C" d="M1554.8,262.3c0,7.1-4.9,12.9-12.9,12.9s-12.8-5.8-12.8-12.9c0-7.1,4.9-12.9,12.8-12.9
		C1549.8,249.4,1554.8,255.2,1554.8,262.3z M1535.2,262.3c0,3.8,2.2,7.2,6.7,7.2c4.5,0,6.7-3.5,6.7-7.2s-2.6-7.3-6.7-7.3
		C1537.5,255,1535.2,258.6,1535.2,262.3z"/>
	<path fill="#1B264C" d="M1578.3,247.4l4.5,3.4l-2.8,3.5c1.9,2.1,2.6,4.6,2.6,7.3c0,3.1-1.1,7.4-5.2,9.2c4.1,2,5.1,5,5.1,8.2
		c0,6.8-5.2,11-12.4,11c-7.2,0-12.5-4.4-12.5-11h6.1c0,3.2,3,5.3,6.5,5.3c3.5,0,6.2-1.9,6.2-5.3s-3.2-5-6.2-5
		c-7.7,0-12.5-4.7-12.5-12.4c0-7.7,5.6-12.5,12.5-12.5c2,0,4,0.2,5.7,1.4L1578.3,247.4z M1563.8,261.6c0,4.3,2.9,6.9,6.5,6.9
		c3.5,0,6.4-2.6,6.4-6.9c0-4.2-2.9-7-6.4-7C1566.7,254.7,1563.8,257.3,1563.8,261.6z"/>
	<path fill="#1B264C" d="M1592.2,249.9l0.5,2.9c1.9-3.1,4.5-3.5,7-3.5c2.6,0,5,1,6.4,2.4l-2.8,5.3c-1.2-1-2.4-1.6-4.4-1.6
		c-3.2,0-6.2,1.7-6.2,6.2v13h-6.1v-24.7C1586.6,249.9,1592.2,249.9,1592.2,249.9z"/>
	<path fill="#1B264C" d="M1627.7,249.9h5.8v24.7h-5.8l-0.3-3.6c-1.4,2.9-5.3,4.3-8,4.4c-7.3,0-12.7-4.5-12.7-13.1
		c0-8.5,5.7-13,12.9-12.9c3.3,0,6.5,1.5,7.9,4L1627.7,249.9z M1612.9,262.2c0,4.7,3.3,7.5,7.3,7.5c9.6,0,9.6-15,0-15
		C1616.2,254.8,1612.9,257.5,1612.9,262.2z"/>
	<path fill="#1B264C" d="M1638.7,284.9v-35h5.7l0.4,3.4c1.9-2.8,5.2-4,8-4c7.6,0,12.7,5.7,12.7,12.9s-4.6,12.9-12.5,12.9
		c-2.6,0-6.5-0.8-8.2-3.5v13.2L1638.7,284.9L1638.7,284.9z M1659.4,262.3c0-3.9-2.6-7-7-7s-7,3.1-7,7s2.9,7,7,7
		S1659.4,266.1,1659.4,262.3z"/>
	<path fill="#1B264C" d="M1676.1,239.6v13.7c2.2-2.9,4.9-3.7,7.7-3.7c7,0,10.1,4.8,10.1,12v13h-6.1v-13c0-4.5-2.3-6.4-5.6-6.4
		c-3.6,0-6.1,3.1-6.1,6.8v12.6h-6.1v-35H1676.1z"/>
	<path fill="#1B264C" d="M1722.8,249.9l-15.1,35h-6.7l4.6-10.7l-9.9-24.3h7.1l3.8,10.7l2.4,7l2.5-6.8l4.5-10.8L1722.8,249.9
		L1722.8,249.9z"/>
</g>
<g>
	<path fill="#1B264C" d="M1440.7,300.2h5.8v24.7h-5.8l-0.3-3.6c-1.4,2.9-5.3,4.3-8,4.4c-7.3,0-12.7-4.5-12.7-13.1
		c0-8.5,5.7-13,12.9-12.9c3.3,0,6.5,1.5,7.9,4L1440.7,300.2z M1425.9,312.5c0,4.7,3.3,7.5,7.3,7.5c9.6,0,9.6-15,0-15
		C1429.2,305.1,1425.9,307.8,1425.9,312.5z"/>
	<path fill="#1B264C" d="M1467.7,306.8c-1.8-1.6-3.8-2.2-6.1-2.2c-2.9,0-4.5,0.9-4.5,2.4c0,1.6,1.5,2.5,4.6,2.7
		c4.7,0.3,10.6,1.4,10.6,7.9c0,4.3-3.5,8.1-10.6,8.1c-3.9,0-7.8-0.6-11.4-4.4l3-4.4c1.8,2,5.8,3.4,8.5,3.5c2.3,0,4.5-1.2,4.5-3
		c0-1.7-1.4-2.4-4.9-2.6c-4.7-0.3-10.2-2-10.2-7.7c0-5.7,5.9-7.7,10.4-7.7c3.9,0,6.8,0.8,9.6,3.2L1467.7,306.8z"/>
	<path fill="#1B264C" d="M1517.2,299.5l-11.4,15.2h-1.3l-11.2-15.3v25.5h-6.6v-35h7.6l11,15.1l11-15.1h7.6v35h-6.6L1517.2,299.5
		L1517.2,299.5z"/>
	<path fill="#1B264C" d="M1534.8,314.7c0.4,3,3.1,5.2,7.4,5.2c2.2,0,5.2-0.8,6.6-2.3l3.9,3.8c-2.6,2.7-6.9,4-10.6,4
		c-8.5,0-13.6-5.3-13.6-13.2c0-7.5,5.1-12.9,13.1-12.9c8.2,0,13.4,5.1,12.5,15.3L1534.8,314.7L1534.8,314.7z M1548.2,309.7
		c-0.4-3.2-2.9-4.8-6.4-4.8c-3.3,0-6,1.6-6.9,4.8H1548.2z"/>
	<path fill="#1B264C" d="M1566.3,293.3v7h6.8v5.3h-6.9v10.7c0,2.3,1.3,3.5,3.2,3.5c1,0,2-0.3,3-0.8l1.7,5.2c-1.8,0.7-3.2,1-5.1,1
		c-5.3,0.2-8.9-2.8-8.9-9v-10.7h-4.6v-5.3h4.6v-6.4L1566.3,293.3z"/>
	<path fill="#1B264C" d="M1583.7,289.9v13.7c2.2-2.9,4.9-3.7,7.7-3.7c7,0,10.1,4.8,10.1,12v13h-6.1v-13c0-4.5-2.3-6.4-5.6-6.4
		c-3.6,0-6.1,3.1-6.1,6.8v12.6h-6.1v-35H1583.7z"/>
	<path fill="#1B264C" d="M1631.1,312.6c0,7.1-4.9,12.9-12.9,12.9c-8,0-12.8-5.8-12.8-12.9c0-7.1,4.9-12.9,12.8-12.9
		C1626.1,299.7,1631.1,305.5,1631.1,312.6z M1611.5,312.6c0,3.8,2.2,7.2,6.7,7.2c4.5,0,6.7-3.5,6.7-7.2c0-3.7-2.6-7.3-6.7-7.3
		C1613.8,305.3,1611.5,308.9,1611.5,312.6z"/>
	<path fill="#1B264C" d="M1660.9,289.9v35h-5.7l-0.4-3.4c-1.9,3-5,4-8,4c-7.2,0-12.7-4.8-12.7-12.9c0-8.5,5.4-12.9,12.6-12.9
		c2.6,0,6.7,1.4,8.1,4V290L1660.9,289.9L1660.9,289.9z M1640.2,312.5c0,4.3,3.1,7.2,7,7.2c3.8,0,7.2-2.8,7.2-7.2
		c0-4.3-3.3-7.2-7.2-7.2C1643.3,305.3,1640.2,308.1,1640.2,312.5z"/>
</g>
<g>
	<path fill="#1B264C" d="M1431.8,364.3h-2.7l-3.5-11.3l-3.3,14.9h-2.5l4.3-19.3h2.4l4.2,13.6l8.7-13.6h2.6l-2.4,19.3h-2.5l1.8-14.5
		L1431.8,364.3z"/>
	<path fill="#1B264C" d="M1456.8,359.3c0,1-0.2,2.1-0.5,3.1c-0.3,1.1-0.8,2-1.5,2.8c-0.6,0.8-1.4,1.5-2.4,2c-0.9,0.5-2,0.8-3.2,0.8
		c-0.9,0-1.6-0.1-2.3-0.4c-0.7-0.3-1.2-0.7-1.7-1.2c-0.5-0.5-0.8-1.1-1-1.8c-0.2-0.7-0.3-1.4-0.3-2.2c0-1.1,0.2-2.2,0.5-3.3
		s0.8-2,1.5-2.8c0.6-0.8,1.4-1.5,2.4-2c0.9-0.5,2-0.7,3.2-0.7c0.9,0,1.6,0.1,2.3,0.4c0.7,0.3,1.3,0.7,1.7,1.2s0.8,1.1,1.1,1.8
		C1456.7,357.8,1456.8,358.5,1456.8,359.3z M1449.4,366.2c0.8,0,1.5-0.2,2.1-0.6c0.6-0.4,1.1-0.9,1.6-1.6c0.5-0.7,0.7-1.4,1-2.2
		c0.2-0.8,0.3-1.6,0.3-2.4c0-0.5-0.1-1-0.2-1.5c-0.1-0.5-0.3-0.9-0.6-1.2c-0.3-0.3-0.6-0.6-1-0.8c-0.4-0.2-0.9-0.3-1.4-0.3
		c-0.7,0-1.4,0.2-2,0.6c-0.6,0.4-1.1,0.9-1.5,1.5c-0.4,0.6-0.7,1.4-1,2.2c-0.2,0.8-0.3,1.7-0.3,2.6c0,1.1,0.2,2,0.7,2.7
		S1448.4,366.2,1449.4,366.2z"/>
	<path fill="#1B264C" d="M1459.3,353.9h2.6l0.6-3.7h2.6l-0.6,3.7h4.5l-0.4,2.1h-4.5l-1.3,7.5c-0.1,0.3-0.1,0.6-0.1,0.9
		c0,0.6,0.1,1,0.4,1.3c0.3,0.3,0.7,0.4,1.2,0.4s1-0.1,1.4-0.2c0.5-0.1,0.9-0.2,1.3-0.4l0.2,1.9c-0.4,0.2-0.9,0.4-1.6,0.5
		c-0.6,0.1-1.2,0.2-1.8,0.2c-1.2,0-2.1-0.3-2.8-0.9c-0.7-0.6-1-1.5-1-2.6c0-0.2,0-0.4,0-0.6s0-0.4,0.1-0.6l1.3-7.4h-2.6
		L1459.3,353.9z"/>
	<path fill="#1B264C" d="M1469.7,367.7l2.5-13.9h2.6l-2.5,13.9H1469.7z M1472.5,350c0-0.5,0.2-0.9,0.5-1.3c0.3-0.3,0.8-0.5,1.3-0.5
		c0.4,0,0.8,0.1,1.1,0.4c0.3,0.3,0.4,0.6,0.4,1c0,0.5-0.2,0.9-0.5,1.3c-0.3,0.3-0.8,0.5-1.3,0.5c-0.4,0-0.8-0.1-1-0.4
		C1472.6,350.7,1472.5,350.4,1472.5,350z"/>
	<path fill="#1B264C" d="M1489.7,359.3c0,1-0.2,2.1-0.5,3.1c-0.3,1.1-0.8,2-1.5,2.8c-0.6,0.8-1.4,1.5-2.4,2c-0.9,0.5-2,0.8-3.2,0.8
		c-0.9,0-1.6-0.1-2.3-0.4c-0.7-0.3-1.2-0.7-1.7-1.2c-0.5-0.5-0.8-1.1-1-1.8c-0.2-0.7-0.3-1.4-0.3-2.2c0-1.1,0.2-2.2,0.5-3.3
		c0.3-1.1,0.8-2,1.5-2.8c0.6-0.8,1.4-1.5,2.4-2c0.9-0.5,2-0.7,3.2-0.7c0.9,0,1.6,0.1,2.3,0.4c0.7,0.3,1.3,0.7,1.7,1.2
		s0.8,1.1,1.1,1.8C1489.6,357.8,1489.7,358.5,1489.7,359.3z M1482.2,366.2c0.8,0,1.5-0.2,2.1-0.6c0.6-0.4,1.1-0.9,1.6-1.6
		s0.7-1.4,1-2.2c0.2-0.8,0.3-1.6,0.3-2.4c0-0.5-0.1-1-0.2-1.5c-0.1-0.5-0.3-0.9-0.6-1.2s-0.6-0.6-1-0.8s-0.9-0.3-1.4-0.3
		c-0.7,0-1.4,0.2-2,0.6c-0.6,0.4-1.1,0.9-1.5,1.5c-0.4,0.6-0.7,1.4-1,2.2c-0.2,0.8-0.3,1.7-0.3,2.6c0,1.1,0.2,2,0.7,2.7
		C1480.4,365.9,1481.2,366.2,1482.2,366.2z"/>
	<path fill="#1B264C" d="M1491.6,367.7l2.5-13.9h2.5l-0.6,3.4c0.3-0.5,0.6-1,0.9-1.4c0.3-0.4,0.7-0.8,1.1-1.2
		c0.4-0.3,0.9-0.6,1.4-0.8c0.5-0.2,1.1-0.3,1.7-0.3c0.6,0,1.1,0.1,1.6,0.4c0.5,0.2,0.8,0.6,1.1,1c0.3,0.4,0.5,0.9,0.7,1.5
		s0.2,1.2,0.2,2c0,0.3,0,0.6,0,0.9s-0.1,0.7-0.1,1l-1.3,7.4h-2.6l1.3-7.2c0.1-0.7,0.2-1.3,0.2-1.9c0-0.9-0.1-1.6-0.4-2.1
		c-0.3-0.6-0.8-0.9-1.5-0.9c-0.5,0-0.9,0.1-1.3,0.4c-0.4,0.3-0.9,0.6-1.2,1c-0.3,0.4-0.8,0.9-1.1,1.5s-0.7,1.1-1,1.7l-1.3,7.5
		H1491.6z"/>
	<path fill="#1B264C" d="M1524.9,348.2c1.1,0,2.2,0.1,3.2,0.3c1.1,0.2,2,0.6,2.9,1l-0.6,2.1c-0.9-0.4-1.8-0.7-2.7-0.9
		c-0.9-0.2-1.8-0.3-2.8-0.3c-1.4,0-2.6,0.2-3.6,0.7c-1,0.5-1.9,1.1-2.6,1.9c-0.7,0.8-1.3,1.8-1.6,2.9c-0.4,1.1-0.6,2.3-0.6,3.6
		c0,2.1,0.6,3.8,1.8,4.9c1.2,1.2,2.9,1.7,5,1.7c0.6,0,1.2,0,1.7-0.1c0.6-0.1,1.1-0.2,1.6-0.4l1-6.1h2.4l-1.3,7.6
		c-0.8,0.3-1.6,0.6-2.6,0.8c-1,0.2-2,0.3-3,0.3c-1.5,0-2.8-0.2-3.9-0.7c-1.1-0.5-2.1-1.1-2.9-1.9s-1.4-1.7-1.8-2.8
		c-0.4-1.1-0.6-2.2-0.6-3.4c0-1.5,0.2-3,0.7-4.4s1.2-2.6,2.1-3.6c0.9-1,2.1-1.8,3.5-2.4C1521.6,348.5,1523.2,348.2,1524.9,348.2z"/>
	<path fill="#1B264C" d="M1541.8,356.1c-0.1,0-0.2,0-0.3,0c-0.1,0-0.2,0-0.3,0c-1,0-1.9,0.3-2.7,1c-0.8,0.7-1.5,1.6-2.1,2.8
		l-1.4,7.9h-2.6l2.5-13.9h2.5l-0.6,3.6c0.4-1.2,1-2.1,1.7-2.8c0.7-0.6,1.6-0.9,2.6-0.9c0.2,0,0.3,0,0.5,0s0.3,0,0.4,0.1
		L1541.8,356.1z"/>
	<path fill="#1B264C" d="M1552.6,367.7h-2.4l0.9-5.1c-0.3,0.6-0.6,1.2-0.9,1.8c-0.3,0.6-0.8,1.2-1.2,1.7c-0.5,0.5-1,1-1.5,1.3
		c-0.5,0.3-1.1,0.5-1.8,0.5c-0.6,0-1.1-0.1-1.6-0.4c-0.5-0.3-0.8-0.6-1.1-1.1c-0.3-0.4-0.5-1-0.7-1.6c-0.2-0.6-0.2-1.2-0.2-1.9
		c0-1.3,0.2-2.5,0.5-3.6c0.4-1.1,0.9-2.2,1.6-3.1c0.7-0.9,1.5-1.6,2.6-2.1c1-0.5,2.1-0.8,3.4-0.8c0.9,0,1.7,0.1,2.6,0.3
		c0.9,0.2,1.6,0.4,2.2,0.7L1552.6,367.7z M1546.2,366.1c0.5,0,1.1-0.3,1.6-0.8c0.5-0.5,1-1.2,1.5-2s0.9-1.7,1.3-2.6s0.8-1.8,1.1-2.7
		l0.3-1.9c-0.6-0.3-1.3-0.4-2.1-0.4c-0.8,0-1.6,0.2-2.2,0.7c-0.6,0.5-1.2,1-1.7,1.7c-0.5,0.7-0.8,1.5-1.1,2.4
		c-0.3,0.9-0.4,1.8-0.4,2.7c0,0.4,0,0.7,0.1,1.1c0,0.4,0.1,0.7,0.2,1c0.1,0.3,0.3,0.5,0.5,0.7
		C1545.5,366.2,1545.9,366.1,1546.2,366.1z"/>
	<path fill="#1B264C" d="M1559.3,353.9h2.4l-0.6,3.7c0.3-0.5,0.6-1,0.9-1.5c0.3-0.5,0.7-0.9,1.2-1.3c0.4-0.4,0.9-0.7,1.5-0.9
		c0.5-0.2,1.1-0.3,1.8-0.3c0.6,0,1.1,0.1,1.6,0.4c0.5,0.3,0.9,0.6,1.2,1.1c0.3,0.4,0.6,1,0.7,1.6c0.1,0.6,0.2,1.3,0.2,2
		c0,1.1-0.2,2.2-0.5,3.3c-0.3,1.1-0.8,2.1-1.5,3c-0.7,0.9-1.5,1.6-2.5,2.2c-1,0.6-2.2,0.9-3.5,0.9c-0.4,0-0.9,0-1.4-0.1
		s-1-0.2-1.4-0.3l-1.1,6.1h-2.6L1559.3,353.9z M1565.7,355.6c-0.5,0-1,0.2-1.5,0.5c-0.5,0.3-0.9,0.8-1.4,1.3
		c-0.4,0.5-0.8,1.1-1.2,1.8c-0.4,0.7-0.7,1.3-1.1,1.9l-0.8,4.6c0.7,0.3,1.5,0.4,2.3,0.4c0.9,0,1.7-0.2,2.4-0.6
		c0.7-0.4,1.3-1,1.8-1.6c0.5-0.7,0.8-1.5,1.1-2.4c0.3-0.9,0.4-1.8,0.4-2.8c0-0.4,0-0.8-0.1-1.2c-0.1-0.4-0.2-0.7-0.3-1
		c-0.1-0.3-0.3-0.5-0.6-0.7C1566.5,355.7,1566.1,355.6,1565.7,355.6z"/>
	<path fill="#1B264C" d="M1572.1,367.7l3.6-20.5h2.6l-1.7,9.8c0.3-0.5,0.6-0.9,0.9-1.3c0.3-0.4,0.7-0.8,1.1-1.1
		c0.4-0.3,0.9-0.6,1.3-0.8c0.5-0.2,1-0.3,1.6-0.3s1.1,0.1,1.6,0.4c0.5,0.2,0.8,0.6,1.1,1c0.3,0.4,0.5,0.9,0.7,1.5s0.2,1.2,0.2,2
		c0,0.3,0,0.6,0,0.9s-0.1,0.7-0.1,1l-1.3,7.4h-2.6l1.3-7.2c0.1-0.7,0.2-1.3,0.2-1.9c0-0.9-0.1-1.6-0.4-2.1c-0.3-0.6-0.8-0.9-1.5-0.9
		c-0.5,0-0.9,0.1-1.3,0.4c-0.4,0.3-0.9,0.6-1.2,1c-0.3,0.4-0.8,0.9-1.1,1.5c-0.3,0.6-0.7,1.1-1,1.7l-1.3,7.5H1572.1z"/>
	<path fill="#1B264C" d="M1587.8,367.7l2.5-13.9h2.6l-2.5,13.9H1587.8z M1590.6,350c0-0.5,0.2-0.9,0.5-1.3c0.3-0.3,0.8-0.5,1.3-0.5
		c0.4,0,0.8,0.1,1.1,0.4c0.3,0.3,0.4,0.6,0.4,1c0,0.5-0.2,0.9-0.5,1.3c-0.3,0.3-0.8,0.5-1.3,0.5c-0.4,0-0.8-0.1-1-0.4
		C1590.8,350.7,1590.6,350.4,1590.6,350z"/>
	<path fill="#1B264C" d="M1602.4,353.6c0.8,0,1.5,0.1,2.1,0.3c0.6,0.2,1.2,0.4,1.6,0.7l-0.6,1.9c-0.4-0.2-0.9-0.4-1.5-0.6
		s-1.1-0.2-1.7-0.2c-0.8,0-1.5,0.2-2.2,0.5c-0.6,0.3-1.2,0.8-1.6,1.4c-0.4,0.6-0.8,1.3-1,2.1c-0.2,0.8-0.3,1.7-0.3,2.6
		c0,0.5,0.1,1,0.2,1.4c0.1,0.5,0.3,0.8,0.5,1.2c0.2,0.3,0.6,0.6,1,0.8c0.4,0.2,0.9,0.3,1.6,0.3c0.6,0,1.2-0.1,1.8-0.2
		c0.6-0.2,1.1-0.4,1.6-0.6l0.5,1.9c-0.6,0.3-1.2,0.6-1.9,0.8c-0.7,0.2-1.4,0.3-2.2,0.3c-0.9,0-1.7-0.2-2.4-0.4
		c-0.7-0.3-1.3-0.7-1.7-1.2c-0.5-0.5-0.8-1.1-1-1.8c-0.2-0.7-0.3-1.4-0.3-2.2c0-1.2,0.2-2.3,0.5-3.3c0.3-1.1,0.8-2,1.5-2.8
		c0.7-0.8,1.4-1.4,2.4-1.9C1600.1,353.9,1601.2,353.6,1602.4,353.6z"/>
	<path fill="#1B264C" d="M1617.5,347.5l2,1l-11.2,22.2l-1.9-1L1617.5,347.5z"/>
	<path fill="#1B264C" d="M1635.2,348.5l-0.3,2.1h-5.2l-3,17.3h-2.6l3-17.3h-5.2l0.3-2.1H1635.2z"/>
	<path fill="#1B264C" d="M1640,366.9c-1,1.4-2.2,2.7-3.6,3.9c-1.4,1.2-3,2.3-4.6,3.1l-1.1-1.8c1.1-0.6,2.1-1.3,3.2-2.1
		s2-1.6,2.8-2.5c-0.3-2.5-0.8-4.9-1.4-7.2c-0.6-2.3-1.3-4.6-2.1-6.6h2.5c0.3,0.8,0.6,1.7,0.9,2.7c0.3,1,0.6,1.9,0.8,3
		c0.3,1,0.5,2.1,0.7,3.1c0.2,1,0.4,2.1,0.5,3c2-3.7,3.3-7.6,3.9-11.8h2.5c-0.2,1.3-0.4,2.5-0.8,3.8c-0.3,1.2-0.7,2.4-1.1,3.6
		c-0.4,1.1-0.9,2.2-1.4,3.2C1641.1,365.4,1640.6,366.2,1640,366.9z"/>
	<path fill="#1B264C" d="M1648.2,353.9h2.4l-0.6,3.7c0.3-0.5,0.6-1,0.9-1.5s0.7-0.9,1.2-1.3c0.4-0.4,0.9-0.7,1.5-0.9
		c0.5-0.2,1.1-0.3,1.8-0.3c0.6,0,1.1,0.1,1.6,0.4c0.5,0.3,0.9,0.6,1.2,1.1c0.3,0.4,0.6,1,0.7,1.6s0.2,1.3,0.2,2
		c0,1.1-0.2,2.2-0.5,3.3c-0.3,1.1-0.8,2.1-1.5,3c-0.7,0.9-1.5,1.6-2.5,2.2c-1,0.6-2.2,0.9-3.5,0.9c-0.4,0-0.9,0-1.4-0.1
		c-0.5-0.1-1-0.2-1.4-0.3l-1.1,6.1h-2.6L1648.2,353.9z M1654.6,355.6c-0.5,0-1,0.2-1.5,0.5c-0.5,0.3-0.9,0.8-1.4,1.3
		c-0.4,0.5-0.8,1.1-1.2,1.8c-0.4,0.7-0.7,1.3-1.1,1.9l-0.8,4.6c0.7,0.3,1.5,0.4,2.3,0.4c0.9,0,1.7-0.2,2.4-0.6
		c0.7-0.4,1.3-1,1.8-1.6c0.5-0.7,0.8-1.5,1.1-2.4s0.4-1.8,0.4-2.8c0-0.4,0-0.8-0.1-1.2c-0.1-0.4-0.2-0.7-0.3-1
		c-0.1-0.3-0.3-0.5-0.6-0.7C1655.3,355.7,1655,355.6,1654.6,355.6z"/>
	<path fill="#1B264C" d="M1674.2,359.3c0,1-0.2,2.1-0.5,3.1c-0.3,1.1-0.8,2-1.5,2.8c-0.6,0.8-1.4,1.5-2.4,2c-0.9,0.5-2,0.8-3.2,0.8
		c-0.9,0-1.6-0.1-2.3-0.4c-0.7-0.3-1.2-0.7-1.7-1.2c-0.5-0.5-0.8-1.1-1-1.8c-0.2-0.7-0.3-1.4-0.3-2.2c0-1.1,0.2-2.2,0.5-3.3
		c0.3-1.1,0.8-2,1.5-2.8c0.6-0.8,1.4-1.5,2.4-2c0.9-0.5,2-0.7,3.2-0.7c0.9,0,1.6,0.1,2.3,0.4c0.7,0.3,1.3,0.7,1.7,1.2
		s0.8,1.1,1.1,1.8C1674.1,357.8,1674.2,358.5,1674.2,359.3z M1666.8,366.2c0.8,0,1.5-0.2,2.1-0.6c0.6-0.4,1.1-0.9,1.6-1.6
		c0.5-0.7,0.7-1.4,1-2.2c0.2-0.8,0.3-1.6,0.3-2.4c0-0.5-0.1-1-0.2-1.5c-0.1-0.5-0.3-0.9-0.6-1.2c-0.3-0.3-0.6-0.6-1-0.8
		c-0.4-0.2-0.9-0.3-1.4-0.3c-0.7,0-1.4,0.2-2,0.6c-0.6,0.4-1.1,0.9-1.5,1.5c-0.4,0.6-0.7,1.4-1,2.2c-0.2,0.8-0.3,1.7-0.3,2.6
		c0,1.1,0.2,2,0.7,2.7S1665.8,366.2,1666.8,366.2z"/>
	<path fill="#1B264C" d="M1687.3,366.6c-0.4,2.4-1.2,4.3-2.3,5.5c-1.1,1.3-2.7,1.9-4.7,1.9c-0.9,0-1.7-0.1-2.5-0.2
		c-0.8-0.1-1.6-0.4-2.4-0.8l0.6-2c0.6,0.3,1.3,0.6,2,0.7c0.7,0.2,1.4,0.3,2.1,0.3c1.4,0,2.5-0.5,3.2-1.4c0.7-0.9,1.3-2.3,1.6-4
		l0.6-3.6c-0.3,0.6-0.6,1.1-1,1.7c-0.4,0.6-0.8,1-1.2,1.5c-0.4,0.4-0.9,0.8-1.5,1c-0.5,0.3-1.1,0.4-1.7,0.4c-0.7,0-1.3-0.1-1.7-0.4
		c-0.5-0.3-0.9-0.6-1.1-1c-0.3-0.4-0.5-0.9-0.6-1.4c-0.1-0.5-0.2-1.1-0.2-1.6c0-1.3,0.2-2.5,0.6-3.6c0.4-1.1,0.9-2.2,1.6-3
		c0.7-0.8,1.6-1.6,2.6-2.1c1-0.5,2.2-0.8,3.5-0.8c0.9,0,1.8,0.1,2.7,0.3c0.8,0.2,1.5,0.4,2.2,0.7L1687.3,366.6z M1680.6,365.6
		c0.5,0,1-0.2,1.5-0.5c0.5-0.3,1-0.8,1.4-1.3c0.5-0.6,0.9-1.2,1.3-2c0.4-0.8,0.8-1.5,1.2-2.4l0.6-3.4c-0.3-0.1-0.6-0.2-1-0.3
		s-0.8-0.1-1.2-0.1c-0.9,0-1.7,0.2-2.3,0.7c-0.6,0.5-1.2,1-1.7,1.7c-0.5,0.7-0.8,1.5-1,2.4c-0.2,0.9-0.3,1.8-0.3,2.7
		c0,0.7,0.1,1.3,0.4,1.7C1679.6,365.3,1680,365.6,1680.6,365.6z"/>
	<path fill="#1B264C" d="M1700.8,356.1c-0.1,0-0.2,0-0.3,0c-0.1,0-0.2,0-0.3,0c-1,0-1.9,0.3-2.7,1c-0.8,0.7-1.5,1.6-2.1,2.8
		l-1.4,7.9h-2.6l2.5-13.9h2.5l-0.6,3.6c0.4-1.2,1-2.1,1.7-2.8c0.7-0.6,1.6-0.9,2.6-0.9c0.2,0,0.3,0,0.5,0s0.3,0,0.4,0.1
		L1700.8,356.1z"/>
	<path fill="#1B264C" d="M1711.5,367.7h-2.4l0.9-5.1c-0.3,0.6-0.6,1.2-0.9,1.8c-0.3,0.6-0.8,1.2-1.2,1.7c-0.5,0.5-1,1-1.5,1.3
		s-1.1,0.5-1.8,0.5c-0.6,0-1.1-0.1-1.6-0.4c-0.5-0.3-0.8-0.6-1.1-1.1c-0.3-0.4-0.5-1-0.7-1.6s-0.2-1.2-0.2-1.9
		c0-1.3,0.2-2.5,0.5-3.6c0.4-1.1,0.9-2.2,1.6-3.1c0.7-0.9,1.5-1.6,2.6-2.1c1-0.5,2.1-0.8,3.4-0.8c0.9,0,1.7,0.1,2.6,0.3
		c0.9,0.2,1.6,0.4,2.2,0.7L1711.5,367.7z M1705.1,366.1c0.5,0,1.1-0.3,1.6-0.8c0.5-0.5,1-1.2,1.5-2c0.5-0.8,0.9-1.7,1.3-2.6
		c0.4-0.9,0.8-1.8,1.1-2.7l0.3-1.9c-0.6-0.3-1.3-0.4-2.1-0.4s-1.6,0.2-2.2,0.7c-0.6,0.5-1.2,1-1.7,1.7s-0.8,1.5-1.1,2.4
		c-0.3,0.9-0.4,1.8-0.4,2.7c0,0.4,0,0.7,0.1,1.1c0,0.4,0.1,0.7,0.2,1c0.1,0.3,0.3,0.5,0.5,0.7
		C1704.4,366.2,1704.8,366.1,1705.1,366.1z"/>
	<path fill="#1B264C" d="M1718.3,353.9h2.4l-0.6,3.7c0.3-0.5,0.6-1,0.9-1.5c0.3-0.5,0.7-0.9,1.2-1.3c0.4-0.4,0.9-0.7,1.5-0.9
		c0.5-0.2,1.1-0.3,1.8-0.3c0.6,0,1.1,0.1,1.6,0.4c0.5,0.3,0.9,0.6,1.2,1.1c0.3,0.4,0.6,1,0.7,1.6c0.1,0.6,0.2,1.3,0.2,2
		c0,1.1-0.2,2.2-0.5,3.3c-0.3,1.1-0.8,2.1-1.5,3c-0.7,0.9-1.5,1.6-2.5,2.2c-1,0.6-2.2,0.9-3.5,0.9c-0.4,0-0.9,0-1.4-0.1
		s-1-0.2-1.4-0.3l-1.1,6.1h-2.6L1718.3,353.9z M1724.7,355.6c-0.5,0-1,0.2-1.5,0.5c-0.5,0.3-0.9,0.8-1.4,1.3
		c-0.4,0.5-0.8,1.1-1.2,1.8c-0.4,0.7-0.7,1.3-1.1,1.9l-0.8,4.6c0.7,0.3,1.5,0.4,2.3,0.4c0.9,0,1.7-0.2,2.4-0.6
		c0.7-0.4,1.3-1,1.8-1.6c0.5-0.7,0.8-1.5,1.1-2.4c0.3-0.9,0.4-1.8,0.4-2.8c0-0.4,0-0.8-0.1-1.2c-0.1-0.4-0.2-0.7-0.3-1
		c-0.1-0.3-0.3-0.5-0.6-0.7C1725.4,355.7,1725.1,355.6,1724.7,355.6z"/>
	<path fill="#1B264C" d="M1731,367.7l3.6-20.5h2.6l-1.7,9.8c0.3-0.5,0.6-0.9,0.9-1.3c0.3-0.4,0.7-0.8,1.1-1.1s0.9-0.6,1.3-0.8
		c0.5-0.2,1-0.3,1.6-0.3c0.6,0,1.1,0.1,1.6,0.4c0.5,0.2,0.8,0.6,1.1,1c0.3,0.4,0.5,0.9,0.7,1.5s0.2,1.2,0.2,2c0,0.3,0,0.6,0,0.9
		s-0.1,0.7-0.1,1l-1.3,7.4h-2.6l1.3-7.2c0.1-0.7,0.2-1.3,0.2-1.9c0-0.9-0.1-1.6-0.4-2.1c-0.3-0.6-0.8-0.9-1.5-0.9
		c-0.5,0-0.9,0.1-1.3,0.4c-0.4,0.3-0.9,0.6-1.2,1c-0.3,0.4-0.8,0.9-1.1,1.5s-0.7,1.1-1,1.7l-1.3,7.5H1731z"/>
	<path fill="#1B264C" d="M1753.5,366.9c-1,1.4-2.2,2.7-3.6,3.9c-1.4,1.2-3,2.3-4.6,3.1l-1.1-1.8c1.1-0.6,2.1-1.3,3.2-2.1
		s2-1.6,2.8-2.5c-0.3-2.5-0.8-4.9-1.4-7.2c-0.6-2.3-1.3-4.6-2.1-6.6h2.5c0.3,0.8,0.6,1.7,0.9,2.7c0.3,1,0.6,1.9,0.8,3
		c0.3,1,0.5,2.1,0.7,3.1c0.2,1,0.4,2.1,0.5,3c2-3.7,3.3-7.6,3.9-11.8h2.5c-0.2,1.3-0.4,2.5-0.8,3.8c-0.3,1.2-0.7,2.4-1.1,3.6
		c-0.4,1.1-0.9,2.2-1.4,3.2C1754.5,365.4,1754,366.2,1753.5,366.9z"/>
</g>
<line fill="none" stroke="#AFAFAF" stroke-miterlimit="10" x1="1387.5" y1="389.9" x2="1920" y2="389.9"/>
<line fill="none" stroke="#AFAFAF" stroke-miterlimit="10" x1="1384.1" y1="4269.9" x2="1384.1" y2="4.9"/>
</svg>
