<?xml version="1.0" encoding="utf-8"?>
<!-- Generator: Adobe Illustrator 17.1.0, SVG Export Plug-In . SVG Version: 6.00 Build 0)  -->
<!DOCTYPE svg PUBLIC "-//W3C//DTD SVG 1.1//EN" "http://www.w3.org/Graphics/SVG/1.1/DTD/svg11.dtd">
<svg version="1.1" id="Layer_1" xmlns="http://www.w3.org/2000/svg" xmlns:xlink="http://www.w3.org/1999/xlink" x="0px" y="0px"
	 viewBox="0 0 1920 1080" enable-background="new 0 0 1920 1080" xml:space="preserve">
<g>
	<g>
		<defs>
			<rect id="SVGID_1_" x="2020" y="-2361" width="1913" height="642"/>
		</defs>
		<clipPath id="SVGID_2_">
			<use xlink:href="#SVGID_1_"  overflow="visible"/>
		</clipPath>
		<g clip-path="url(#SVGID_2_)">
			<g>
				<defs>
					<rect id="SVGID_9_" x="1030" y="-1770" width="2000" height="2000"/>
				</defs>
				<clipPath id="SVGID_4_">
					<use xlink:href="#SVGID_9_"  overflow="visible"/>
				</clipPath>
				<g clip-path="url(#SVGID_4_)">
					<polygon fill="none" points="1030,-1770 3030,-1770 3030,230 1030,230 					"/>
					<g>
						<polygon fill="none" stroke="#F7F7F7" stroke-width="20" stroke-miterlimit="10" points="1175.7,-62.6 1096.6,-74.6 
							1125.8,-0.1 1175.7,-62.6 1096.6,-74.6 1125.8,-0.1 						"/>
						<path fill="none" stroke="#F7F7F7" stroke-width="20" stroke-miterlimit="10" d="M1374,14c-22.1,0-40-17.9-40-40
							s17.9-40,40-40s40,17.9,40,40S1396.1,14,1374,14z"/>
					</g>
					<g>
						<polygon fill="none" stroke="#F7F7F7" stroke-width="20" stroke-miterlimit="10" points="1575.7,137.4 1496.6,125.4 
							1525.8,199.9 1575.7,137.4 1496.6,125.4 1525.8,199.9 						"/>
						<polygon fill="none" stroke="#F7F7F7" stroke-width="20" stroke-miterlimit="10" points="1704.3,-35.7 1636.7,-10.7 
							1611.7,-78.2 1679.3,-103.2 						"/>
						<path fill="none" stroke="#F7F7F7" stroke-width="20" stroke-miterlimit="10" d="M1774,214c-22.1,0-40-17.9-40-40
							s17.9-40,40-40s40,17.9,40,40S1796.1,214,1774,214z"/>
					</g>
					<g>
						<polygon fill="none" stroke="#F7F7F7" stroke-width="20" stroke-miterlimit="10" points="1304.3,264.3 1236.7,289.3 
							1211.7,221.8 1279.3,196.8 						"/>
					</g>
				</g>
			</g>
		</g>
	</g>
</g>
<g display="none">
	<path display="inline" fill="#15FFA5" d="M-44.1,127.8c1.6,12.2,12.2,21,29.4,21c9,0,20.8-3.4,26.4-9.2L27.3,155
		c-10.4,10.8-27.4,16-42.4,16c-34,0-54.2-21-54.2-52.6c0-30,20.4-51.6,52.4-51.6c33,0,53.6,20.4,49.8,61H-44.1z M9.5,107.6
		C7.9,94.8-2.1,88.4-16.1,88.4c-13.2,0-24,6.4-27.6,19.2H9.5z"/>
	<path display="inline" fill="#15FFA5" d="M136.5,96c-7-6.6-15-8.8-24.4-8.8c-11.6,0-18,3.6-18,9.8c0,6.4,5.8,10,18.4,10.8
		c18.6,1.2,42.2,5.4,42.2,31.6c0,17.4-14.2,32.4-42.4,32.4c-15.6,0-31.2-2.6-45.6-17.6l12-17.4c7,7.8,23,13.6,34,13.8
		c9.2,0.2,17.8-4.6,17.8-11.8c0-6.8-5.6-9.6-19.6-10.4c-18.6-1.4-40.8-8.2-40.8-30.6C70.1,75,93.7,67,111.7,67c15.4,0,27,3,38.4,13
		L136.5,96z"/>
	<path display="inline" fill="#15FFA5" d="M186.9,42c0,19-28.8,19-28.8,0C158.1,23,186.9,23,186.9,42z M160.3,69.4v99h24.4v-99
		H160.3z"/>
	<path display="inline" fill="#15FFA5" d="M221.7,69.8v51.6c0,15,8.2,26.4,23.8,26.4c15,0,25.2-12.6,25.2-27.6V69.8h24.2v98.8h-21.8
		l-1.6-13.4c-10.2,10-19.6,14.8-33.4,14.8c-23.6,0-40.8-17.8-40.8-48.4V69.8H221.7z"/>
</g>
<text transform="matrix(1 0 0 1 1421 426)" fill="#999999" font-family="'Calibri-Light'" font-size="21">Chinese New Year card 2017</text>
<rect x="1419.7" y="283.4" fill="#15FFA5" width="439.1" height="30.7"/>
<g>
	<path fill="#1B264C" d="M1426.8,293.9l9.3-14.5h8v0.3l-14,20.3v14.5h-6.6V300l-13.5-20.3v-0.3h7.9L1426.8,293.9z"/>
	<path fill="#1B264C" d="M1445,304.3c0.4,3,3.1,5.2,7.4,5.2c2.2,0,5.2-0.8,6.6-2.3l3.9,3.8c-2.6,2.7-6.9,4-10.6,4
		c-8.5,0-13.6-5.3-13.6-13.2c0-7.5,5.1-12.9,13.1-12.9c8.2,0,13.4,5.1,12.5,15.3H1445V304.3z M1458.4,299.2
		c-0.4-3.2-2.9-4.8-6.4-4.8c-3.3,0-6,1.6-6.9,4.8H1458.4z"/>
	<path fill="#1B264C" d="M1488.5,289.8h5.8v24.7h-5.8l-0.3-3.6c-1.4,2.9-5.3,4.3-8,4.4c-7.3,0-12.7-4.5-12.7-13.1
		c0-8.5,5.7-13,12.9-12.9c3.3,0,6.5,1.5,7.9,4L1488.5,289.8z M1473.7,302.1c0,4.7,3.3,7.5,7.3,7.5c9.6,0,9.6-15,0-15
		C1476.9,294.6,1473.7,297.4,1473.7,302.1z"/>
	<path fill="#1B264C" d="M1505.1,289.8l0.5,2.9c1.9-3.1,4.5-3.5,7-3.5c2.6,0,5,1,6.4,2.4l-2.8,5.3c-1.2-1-2.4-1.6-4.4-1.6
		c-3.2,0-6.2,1.7-6.2,6.2v13h-6.1v-24.7L1505.1,289.8L1505.1,289.8z"/>
	<path fill="#1B264C" d="M1555.8,302.1c0,7.1-4.9,12.9-12.9,12.9s-12.8-5.8-12.8-12.9c0-7.1,4.9-12.9,12.8-12.9
		C1550.8,289.2,1555.8,295.1,1555.8,302.1z M1536.2,302.1c0,3.8,2.2,7.2,6.7,7.2c4.5,0,6.7-3.5,6.7-7.2s-2.6-7.3-6.7-7.3
		C1538.5,294.8,1536.2,298.4,1536.2,302.1z"/>
	<path fill="#1B264C" d="M1561.9,314.4v-19h-4.6V290h4.6v-1.7c0-6.6,4.5-9.7,9.4-9.7c2.2,0,4.4,0.7,6.4,2l-2.2,4.6
		c-1.3-0.9-2.5-1.3-3.8-1.3c-2.1,0-3.7,1.4-3.7,4.4v1.7h7.2v5.4h-7.2v19H1561.9z"/>
	<path fill="#1B264C" d="M1598.8,282.8v7h6.8v5.3h-6.9v10.7c0,2.3,1.3,3.5,3.2,3.5c1,0,2-0.3,3-0.8l1.7,5.2c-1.8,0.7-3.2,1-5.1,1
		c-5.4,0.2-8.9-2.8-8.9-9V295h-4.6v-5.3h4.6v-6.4L1598.8,282.8z"/>
	<path fill="#1B264C" d="M1616.2,279.4v13.7c2.2-2.9,4.9-3.7,7.7-3.7c7,0,10.1,4.8,10.1,12v13h-6.1v-13c0-4.5-2.3-6.4-5.6-6.4
		c-3.6,0-6.1,3.1-6.1,6.8v12.6h-6.1v-35H1616.2z"/>
	<path fill="#1B264C" d="M1644.4,304.3c0.4,3,3.1,5.2,7.4,5.2c2.2,0,5.2-0.8,6.6-2.3l3.9,3.8c-2.6,2.7-6.9,4-10.6,4
		c-8.5,0-13.6-5.3-13.6-13.2c0-7.5,5.1-12.9,13.1-12.9c8.2,0,13.4,5.1,12.5,15.3h-19.3V304.3z M1657.8,299.2
		c-0.4-3.2-2.9-4.8-6.4-4.8c-3.3,0-6,1.6-6.9,4.8H1657.8z"/>
	<path fill="#1B264C" d="M1709.9,314.4h-7.9l-10.2-11.7h-6.4v11.7h-6.6v-35.1c5.6,0,11.1,0.1,16.7,0.1c8.2,0,12.6,5.6,12.6,11.6
		c0,4.8-2.2,9.7-8.9,11l10.6,12v0.4H1709.9z M1685.5,285.6v11.2h10.1c4.2,0,6-2.8,6-5.6s-1.8-5.6-6-5.6H1685.5z"/>
	<path fill="#1B264C" d="M1736.7,302.1c0,7.1-4.9,12.9-12.9,12.9s-12.8-5.8-12.8-12.9c0-7.1,4.9-12.9,12.8-12.9
		S1736.7,295.1,1736.7,302.1z M1717.1,302.1c0,3.8,2.2,7.2,6.7,7.2s6.7-3.5,6.7-7.2s-2.6-7.3-6.7-7.3
		C1719.4,294.8,1717.1,298.4,1717.1,302.1z"/>
	<path fill="#1B264C" d="M1765.4,302.1c0,7.1-4.9,12.9-12.9,12.9s-12.8-5.8-12.8-12.9c0-7.1,4.9-12.9,12.8-12.9
		S1765.4,295.1,1765.4,302.1z M1745.8,302.1c0,3.8,2.2,7.2,6.7,7.2s6.7-3.5,6.7-7.2s-2.6-7.3-6.7-7.3
		C1748.1,294.8,1745.8,298.4,1745.8,302.1z"/>
	<path fill="#1B264C" d="M1785.7,296.3c-1.8-1.6-3.8-2.2-6.1-2.2c-2.9,0-4.5,0.9-4.5,2.4c0,1.6,1.5,2.5,4.6,2.7
		c4.7,0.3,10.6,1.4,10.6,7.9c0,4.3-3.5,8.1-10.6,8.1c-3.9,0-7.8-0.6-11.4-4.4l3-4.4c1.8,2,5.8,3.4,8.5,3.5c2.3,0,4.5-1.2,4.5-3
		c0-1.7-1.4-2.4-4.9-2.6c-4.7-0.3-10.2-2-10.2-7.7c0-5.7,5.9-7.7,10.4-7.7c3.9,0,6.8,0.8,9.6,3.2L1785.7,296.3z"/>
	<path fill="#1B264C" d="M1802.7,282.8v7h6.8v5.3h-6.9v10.7c0,2.3,1.3,3.5,3.2,3.5c1,0,2-0.3,3-0.8l1.7,5.2c-1.8,0.7-3.2,1-5.1,1
		c-5.4,0.2-8.9-2.8-8.9-9V295h-4.6v-5.3h4.6v-6.4L1802.7,282.8z"/>
	<path fill="#1B264C" d="M1819.3,304.3c0.4,3,3.1,5.2,7.4,5.2c2.2,0,5.2-0.8,6.6-2.3l3.9,3.8c-2.6,2.7-6.9,4-10.6,4
		c-8.5,0-13.6-5.3-13.6-13.2c0-7.5,5.1-12.9,13.1-12.9c8.2,0,13.4,5.1,12.5,15.3h-19.3V304.3z M1832.7,299.2
		c-0.4-3.2-2.9-4.8-6.4-4.8c-3.3,0-6,1.6-6.9,4.8H1832.7z"/>
	<path fill="#1B264C" d="M1848.9,289.8l0.5,2.9c1.9-3.1,4.5-3.5,7-3.5c2.5,0,5,1,6.4,2.4l-2.8,5.3c-1.2-1-2.4-1.6-4.4-1.6
		c-3.2,0-6.2,1.7-6.2,6.2v13h-6.1v-24.7L1848.9,289.8L1848.9,289.8z"/>
</g>
<g>
	<path fill="#1B264C" d="M1432.7,335.1c1.1,0,2.2,0.1,3.2,0.3c1.1,0.2,2,0.6,2.9,1l-0.6,2.1c-0.9-0.4-1.8-0.7-2.7-0.9
		c-0.9-0.2-1.8-0.3-2.8-0.3c-1.4,0-2.6,0.2-3.6,0.7s-1.9,1.1-2.6,1.9c-0.7,0.8-1.3,1.8-1.6,2.9c-0.4,1.1-0.6,2.3-0.6,3.6
		c0,2.1,0.6,3.8,1.8,4.9c1.2,1.2,2.9,1.7,5,1.7c0.6,0,1.2,0,1.7-0.1c0.6-0.1,1.1-0.2,1.6-0.4l1-6.1h2.4l-1.3,7.6
		c-0.8,0.3-1.6,0.6-2.6,0.8s-2,0.3-3,0.3c-1.5,0-2.8-0.2-3.9-0.7c-1.1-0.5-2.1-1.1-2.9-1.9c-0.8-0.8-1.4-1.7-1.8-2.8
		s-0.6-2.2-0.6-3.4c0-1.5,0.2-3,0.7-4.4c0.5-1.4,1.2-2.6,2.1-3.6c0.9-1,2.1-1.8,3.5-2.4C1429.4,335.4,1431,335.1,1432.7,335.1z"/>
	<path fill="#1B264C" d="M1449.6,343.1c-0.1,0-0.2,0-0.3,0c-0.1,0-0.2,0-0.3,0c-1,0-1.9,0.3-2.7,1s-1.5,1.6-2.1,2.8l-1.4,7.9h-2.6
		l2.5-13.9h2.5l-0.6,3.6c0.4-1.2,1-2.1,1.7-2.8c0.7-0.6,1.6-0.9,2.6-0.9c0.2,0,0.3,0,0.5,0c0.2,0,0.3,0,0.4,0.1L1449.6,343.1z"/>
	<path fill="#1B264C" d="M1460.4,354.8h-2.4l0.9-5.1c-0.3,0.6-0.6,1.2-0.9,1.8s-0.8,1.2-1.2,1.7c-0.4,0.5-1,1-1.5,1.3
		c-0.5,0.3-1.1,0.5-1.8,0.5c-0.6,0-1.1-0.1-1.6-0.4s-0.8-0.6-1.1-1.1c-0.3-0.4-0.5-1-0.7-1.6c-0.2-0.6-0.2-1.2-0.2-1.9
		c0-1.3,0.2-2.5,0.5-3.6c0.4-1.1,0.9-2.2,1.6-3.1c0.7-0.9,1.5-1.6,2.6-2.1c1-0.5,2.1-0.8,3.4-0.8c0.9,0,1.7,0.1,2.6,0.3
		c0.9,0.2,1.6,0.4,2.2,0.7L1460.4,354.8z M1454,353c0.5,0,1.1-0.3,1.6-0.8c0.5-0.5,1-1.2,1.5-2c0.5-0.8,0.9-1.7,1.3-2.6
		c0.4-0.9,0.8-1.8,1.1-2.7l0.3-1.9c-0.6-0.3-1.3-0.4-2.1-0.4c-0.8,0-1.6,0.2-2.2,0.7c-0.6,0.5-1.2,1-1.7,1.7
		c-0.5,0.7-0.8,1.5-1.1,2.4s-0.4,1.8-0.4,2.7c0,0.4,0,0.7,0.1,1.1c0,0.4,0.1,0.7,0.2,1s0.3,0.5,0.5,0.7
		C1453.4,352.9,1453.6,353,1454,353z"/>
	<path fill="#1B264C" d="M1467.1,340.9h2.4l-0.6,3.7c0.3-0.5,0.6-1,0.9-1.5c0.3-0.5,0.7-0.9,1.2-1.3c0.4-0.4,0.9-0.7,1.5-0.9
		c0.5-0.2,1.1-0.3,1.8-0.3c0.6,0,1.1,0.1,1.6,0.4s0.9,0.6,1.2,1.1c0.3,0.4,0.6,1,0.7,1.6c0.1,0.6,0.2,1.3,0.2,2
		c0,1.1-0.2,2.2-0.5,3.3c-0.3,1.1-0.8,2.1-1.5,3c-0.7,0.9-1.5,1.6-2.5,2.2c-1,0.6-2.2,0.9-3.5,0.9c-0.4,0-0.9,0-1.4-0.1
		c-0.5-0.1-1-0.2-1.4-0.3l-1.1,6.1h-2.6L1467.1,340.9z M1473.5,342.6c-0.5,0-1,0.2-1.5,0.5c-0.5,0.3-0.9,0.8-1.4,1.3
		c-0.4,0.5-0.8,1.1-1.2,1.8c-0.4,0.7-0.7,1.3-1.1,1.9l-0.8,4.6c0.7,0.3,1.5,0.4,2.3,0.4c0.9,0,1.7-0.2,2.4-0.6s1.3-0.9,1.8-1.6
		c0.5-0.7,0.8-1.5,1.1-2.4s0.4-1.8,0.4-2.8c0-0.4,0-0.8-0.1-1.2c-0.1-0.4-0.2-0.7-0.3-1c-0.1-0.3-0.3-0.5-0.6-0.7
		C1474.2,342.7,1473.9,342.6,1473.5,342.6z"/>
	<path fill="#1B264C" d="M1479.9,354.8l3.6-20.5h2.6l-1.7,9.8c0.3-0.5,0.6-0.9,0.9-1.3s0.7-0.8,1.1-1.1c0.4-0.3,0.9-0.6,1.3-0.8
		c0.5-0.2,1-0.3,1.6-0.3c0.6,0,1.1,0.1,1.6,0.4c0.5,0.2,0.8,0.6,1.1,1c0.3,0.4,0.5,0.9,0.7,1.5c0.2,0.6,0.2,1.2,0.2,2
		c0,0.3,0,0.6,0,0.9c0,0.3-0.1,0.7-0.1,1l-1.3,7.4h-2.6l1.3-7.2c0.1-0.7,0.2-1.3,0.2-1.9c0-0.9-0.1-1.6-0.4-2.1
		c-0.3-0.6-0.8-0.9-1.5-0.9c-0.5,0-0.9,0.1-1.3,0.4c-0.4,0.3-0.9,0.6-1.2,1s-0.8,0.9-1.1,1.5c-0.3,0.6-0.7,1.1-1,1.7l-1.3,7.5
		H1479.9z"/>
	<path fill="#1B264C" d="M1495.6,354.8l2.5-13.9h2.6l-2.5,13.9H1495.6z M1498.4,337c0-0.5,0.2-0.9,0.5-1.3c0.3-0.3,0.8-0.5,1.3-0.5
		c0.4,0,0.8,0.1,1.1,0.4c0.3,0.3,0.4,0.6,0.4,1c0,0.5-0.2,0.9-0.5,1.3c-0.3,0.3-0.8,0.5-1.3,0.5c-0.4,0-0.8-0.1-1-0.4
		C1498.5,337.7,1498.4,337.4,1498.4,337z"/>
	<path fill="#1B264C" d="M1510.2,340.6c0.8,0,1.5,0.1,2.1,0.3c0.6,0.2,1.2,0.4,1.6,0.7l-0.6,1.9c-0.4-0.2-0.9-0.4-1.5-0.6
		c-0.6-0.2-1.1-0.2-1.7-0.2c-0.8,0-1.5,0.2-2.2,0.5c-0.6,0.3-1.2,0.8-1.6,1.4c-0.4,0.6-0.8,1.3-1,2.1c-0.2,0.8-0.3,1.7-0.3,2.6
		c0,0.5,0.1,1,0.2,1.4c0.1,0.5,0.3,0.8,0.5,1.2c0.2,0.3,0.6,0.6,1,0.8s0.9,0.3,1.6,0.3c0.6,0,1.2-0.1,1.8-0.2
		c0.6-0.2,1.1-0.4,1.6-0.6l0.5,1.9c-0.6,0.3-1.2,0.6-1.9,0.8c-0.7,0.2-1.4,0.3-2.2,0.3c-0.9,0-1.7-0.1-2.4-0.4
		c-0.7-0.3-1.3-0.7-1.7-1.2c-0.5-0.5-0.8-1.1-1-1.8c-0.2-0.7-0.3-1.4-0.3-2.2c0-1.2,0.2-2.3,0.5-3.3c0.3-1.1,0.8-2,1.5-2.8
		c0.7-0.8,1.4-1.4,2.4-1.9C1507.9,340.8,1509,340.6,1510.2,340.6z"/>
	<path fill="#1B264C" d="M1524.5,335.5h5c1.4,0,2.7,0.2,3.8,0.6c1.1,0.4,2.1,1,2.9,1.7c0.8,0.7,1.4,1.6,1.9,2.6
		c0.4,1,0.7,2.2,0.7,3.4c0,1.6-0.3,3.1-0.9,4.4c-0.6,1.3-1.4,2.5-2.5,3.5c-1.1,1-2.3,1.7-3.8,2.3s-3.2,0.8-5,0.8h-5.5L1524.5,335.5z
		 M1526.7,352.7c1.5,0,2.8-0.3,4-0.7c1.2-0.5,2.2-1.1,2.9-1.9c0.7-0.8,1.4-1.7,1.8-2.8s0.6-2.2,0.6-3.5c0-1-0.2-1.9-0.5-2.6
		c-0.3-0.8-0.8-1.4-1.4-2c-0.6-0.5-1.3-0.9-2.2-1.2c-0.9-0.3-1.8-0.4-2.8-0.4h-2.5l-2.7,15.1H1526.7z"/>
	<path fill="#1B264C" d="M1547.9,340.6c1.1,0,2.1,0.3,2.8,0.9c0.7,0.6,1.1,1.4,1.1,2.4c0,1-0.3,1.8-0.9,2.4
		c-0.6,0.6-1.3,1.1-2.2,1.5c-0.9,0.4-1.8,0.6-2.9,0.8c-1,0.2-2,0.3-3,0.3c-0.1,0.3-0.1,0.7-0.1,1.1c0,0.9,0.2,1.7,0.6,2.3
		c0.4,0.6,1.2,0.9,2.3,0.9c0.7,0,1.4-0.1,2-0.3c0.7-0.2,1.3-0.5,1.9-0.8l0.5,1.8c-0.7,0.4-1.4,0.7-2.2,0.9c-0.8,0.2-1.6,0.3-2.5,0.3
		c-0.9,0-1.6-0.1-2.2-0.4c-0.6-0.3-1.2-0.6-1.6-1.1c-0.4-0.5-0.7-1-0.9-1.7c-0.2-0.6-0.3-1.3-0.3-2.1c0-1.2,0.2-2.3,0.5-3.4
		c0.3-1.1,0.9-2.1,1.5-2.9s1.5-1.5,2.4-2.1C1545.6,340.8,1546.8,340.6,1547.9,340.6z M1547.6,342.5c-0.6,0-1.1,0.1-1.6,0.4
		c-0.5,0.3-0.9,0.6-1.3,1c-0.4,0.4-0.7,0.9-0.9,1.4c-0.3,0.5-0.4,1.1-0.6,1.6c0.7,0,1.4-0.1,2.1-0.2c0.7-0.1,1.4-0.3,2-0.5
		c0.6-0.2,1.1-0.5,1.5-0.9s0.6-0.8,0.6-1.3c0-0.4-0.2-0.8-0.5-1.1S1548.1,342.5,1547.6,342.5z"/>
	<path fill="#1B264C" d="M1562.5,350.9c0,0.7-0.1,1.2-0.4,1.8c-0.3,0.6-0.7,1-1.1,1.3c-0.5,0.4-1,0.6-1.7,0.8
		c-0.6,0.2-1.3,0.3-2,0.3c-0.7,0-1.5-0.1-2.2-0.2c-0.7-0.1-1.5-0.4-2-0.6l0.6-2c0.6,0.3,1.2,0.5,1.8,0.6c0.6,0.2,1.3,0.2,1.9,0.2
		c0.4,0,0.7,0,1.1-0.1c0.3-0.1,0.6-0.2,0.9-0.3c0.3-0.2,0.5-0.4,0.6-0.6c0.2-0.2,0.2-0.5,0.2-0.9c0-0.5-0.2-1-0.6-1.4
		c-0.4-0.4-1-0.8-1.7-1.2c-0.4-0.3-0.8-0.5-1.2-0.8s-0.7-0.6-1.1-0.9c-0.3-0.3-0.6-0.7-0.8-1.1c-0.2-0.4-0.3-0.8-0.3-1.3
		c0-1.3,0.4-2.2,1.3-2.9c0.9-0.7,2.1-1,3.5-1c0.7,0,1.4,0.1,2.1,0.3c0.6,0.2,1.3,0.4,1.8,0.7l-0.5,1.9c-1.1-0.6-2.3-0.9-3.4-0.9
		c-0.7,0-1.2,0.1-1.6,0.3c-0.4,0.2-0.6,0.7-0.6,1.3c0,0.5,0.2,0.9,0.6,1.2c0.4,0.3,0.9,0.7,1.5,1.1c0.4,0.2,0.8,0.5,1.2,0.8
		s0.8,0.6,1.2,0.9s0.6,0.7,0.9,1.2C1562.3,349.8,1562.5,350.3,1562.5,350.9z"/>
	<path fill="#1B264C" d="M1564.8,354.8l2.5-13.9h2.6l-2.5,13.9H1564.8z M1567.6,337c0-0.5,0.2-0.9,0.5-1.3c0.3-0.3,0.8-0.5,1.3-0.5
		c0.4,0,0.8,0.1,1.1,0.4s0.4,0.6,0.4,1c0,0.5-0.2,0.9-0.5,1.3c-0.3,0.3-0.8,0.5-1.3,0.5c-0.4,0-0.8-0.1-1-0.4
		C1567.7,337.7,1567.6,337.4,1567.6,337z"/>
	<path fill="#1B264C" d="M1582.7,353.7c-0.4,2.4-1.2,4.3-2.3,5.5c-1.1,1.3-2.7,1.9-4.7,1.9c-0.9,0-1.7-0.1-2.5-0.3
		c-0.8-0.2-1.6-0.4-2.4-0.8l0.6-2c0.6,0.3,1.3,0.6,2,0.7c0.7,0.2,1.4,0.3,2.1,0.3c1.4,0,2.5-0.5,3.2-1.4c0.7-0.9,1.3-2.3,1.6-4
		l0.6-3.6c-0.3,0.6-0.6,1.1-1,1.7c-0.4,0.6-0.8,1-1.2,1.5c-0.4,0.4-0.9,0.8-1.5,1c-0.5,0.3-1.1,0.4-1.7,0.4c-0.7,0-1.3-0.1-1.7-0.4
		c-0.5-0.3-0.9-0.6-1.1-1c-0.3-0.4-0.5-0.9-0.6-1.4s-0.2-1.1-0.2-1.6c0-1.3,0.2-2.5,0.6-3.6c0.4-1.1,0.9-2.2,1.6-3
		c0.7-0.8,1.6-1.6,2.6-2.1c1-0.5,2.2-0.8,3.5-0.8c0.9,0,1.8,0.1,2.7,0.3c0.8,0.2,1.5,0.4,2.2,0.7L1582.7,353.7z M1576,352.5
		c0.5,0,1-0.2,1.5-0.5c0.5-0.3,1-0.8,1.4-1.3c0.4-0.5,0.9-1.2,1.3-2c0.4-0.8,0.8-1.5,1.2-2.4l0.6-3.4c-0.3-0.1-0.6-0.2-1-0.3
		c-0.4-0.1-0.8-0.1-1.2-0.1c-0.9,0-1.7,0.2-2.3,0.7c-0.6,0.5-1.2,1-1.7,1.7c-0.5,0.7-0.8,1.5-1,2.4s-0.3,1.8-0.3,2.7
		c0,0.7,0.1,1.3,0.4,1.7C1575,352.3,1575.4,352.5,1576,352.5z"/>
	<path fill="#1B264C" d="M1586.9,354.8l2.5-13.9h2.5l-0.6,3.4c0.3-0.5,0.6-1,0.9-1.4s0.7-0.8,1.1-1.2c0.4-0.3,0.9-0.6,1.4-0.8
		c0.5-0.2,1.1-0.3,1.7-0.3c0.6,0,1.1,0.1,1.6,0.4c0.5,0.2,0.8,0.6,1.1,1c0.3,0.4,0.5,0.9,0.7,1.5c0.2,0.6,0.2,1.2,0.2,2
		c0,0.3,0,0.6,0,0.9c0,0.3-0.1,0.7-0.1,1l-1.3,7.4h-2.6l1.3-7.2c0.1-0.7,0.2-1.3,0.2-1.9c0-0.9-0.1-1.6-0.4-2.1
		c-0.3-0.6-0.8-0.9-1.5-0.9c-0.5,0-0.9,0.1-1.3,0.4c-0.4,0.3-0.9,0.6-1.2,1c-0.3,0.4-0.8,0.9-1.1,1.5c-0.3,0.6-0.7,1.1-1,1.7
		l-1.3,7.5H1586.9z"/>
</g>
<line fill="none" stroke="#AFAFAF" stroke-miterlimit="10" x1="1383" y1="382" x2="1919" y2="382"/>
<line fill="none" stroke="#AFAFAF" stroke-miterlimit="10" x1="1383.1" y1="1077" x2="1383.1" y2="-3"/>
<line fill="none" stroke="#AFAFAF" stroke-miterlimit="10" x1="1918" y1="380.4" x2="1383" y2="380.4"/>
</svg>
