<?xml version="1.0" encoding="utf-8"?>
<!-- Generator: Adobe Illustrator 17.1.0, SVG Export Plug-In . SVG Version: 6.00 Build 0)  -->
<!DOCTYPE svg PUBLIC "-//W3C//DTD SVG 1.1//EN" "http://www.w3.org/Graphics/SVG/1.1/DTD/svg11.dtd">
<svg version="1.1" id="Layer_1" xmlns="http://www.w3.org/2000/svg" xmlns:xlink="http://www.w3.org/1999/xlink" x="0px" y="0px"
	 viewBox="0 0 1920 1080" enable-background="new 0 0 1920 1080" xml:space="preserve">
<g>
	<path fill="#1B264C" d="M1423.4,357.8h-2.2l-4.1-12.8l-3.7,16.6h-1.9l4.5-19.9h1.8l4.7,14.4l9.5-14.4h2l-2.5,19.9h-1.9l2-16.4
		L1423.4,357.8z"/>
	<path fill="#1B264C" d="M1449.1,352.8c0,1.1-0.2,2.1-0.5,3.2c-0.3,1.1-0.8,2.1-1.5,2.9c-0.7,0.8-1.5,1.6-2.4,2.1
		c-1,0.5-2,0.8-3.3,0.8c-0.9,0-1.7-0.1-2.3-0.5c-0.7-0.3-1.2-0.7-1.7-1.2c-0.5-0.5-0.8-1.1-1-1.8c-0.2-0.7-0.3-1.4-0.3-2.2
		c0-1.1,0.2-2.2,0.5-3.3c0.3-1.1,0.8-2.1,1.5-2.9c0.6-0.9,1.4-1.6,2.4-2.1c0.9-0.5,2-0.8,3.3-0.8c0.9,0,1.7,0.2,2.4,0.5
		c0.7,0.3,1.2,0.7,1.7,1.3c0.5,0.5,0.8,1.1,1,1.8C1449,351.3,1449.1,352,1449.1,352.8z M1441.7,360.4c0.9,0,1.6-0.2,2.3-0.7
		c0.7-0.4,1.3-1,1.7-1.7c0.5-0.7,0.9-1.5,1.1-2.4c0.3-0.9,0.4-1.8,0.4-2.7c0-0.6-0.1-1.2-0.2-1.7c-0.1-0.5-0.4-1-0.7-1.4
		c-0.3-0.4-0.7-0.7-1.1-0.9c-0.5-0.2-1-0.3-1.6-0.3c-0.8,0-1.6,0.2-2.3,0.6c-0.7,0.4-1.2,1-1.7,1.7c-0.5,0.7-0.8,1.5-1.1,2.4
		s-0.4,1.8-0.4,2.8c0,0.6,0.1,1.2,0.2,1.7c0.1,0.5,0.3,1,0.6,1.4c0.3,0.4,0.6,0.7,1.1,0.9C1440.5,360.3,1441.1,360.4,1441.7,360.4z"
		/>
	<path fill="#1B264C" d="M1451.9,347.3h2.7l0.7-3.9h2l-0.7,3.9h4.7l-0.3,1.6h-4.7l-1.5,8.4c0,0.2-0.1,0.3-0.1,0.5c0,0.2,0,0.4,0,0.5
		c0,0.6,0.1,1.1,0.4,1.5c0.3,0.4,0.8,0.5,1.5,0.5c0.5,0,1-0.1,1.5-0.2c0.5-0.1,0.9-0.3,1.3-0.5l0.2,1.5c-0.4,0.2-0.9,0.4-1.5,0.5
		s-1.2,0.2-1.8,0.2c-1.2,0-2.2-0.3-2.7-0.9c-0.6-0.6-0.9-1.5-0.9-2.6c0-0.2,0-0.4,0-0.6s0-0.4,0.1-0.5l1.5-8.4h-2.7L1451.9,347.3z"
		/>
	<path fill="#1B264C" d="M1462.2,361.6l2.5-14.3h1.9l-2.5,14.3H1462.2z M1465.1,343.1c0-0.4,0.1-0.8,0.4-1.1
		c0.3-0.3,0.7-0.5,1.2-0.5c0.4,0,0.7,0.1,0.9,0.3c0.2,0.2,0.3,0.5,0.3,0.9c0,0.4-0.1,0.8-0.5,1.1c-0.3,0.3-0.7,0.4-1.1,0.4
		s-0.7-0.1-0.9-0.3C1465.2,343.7,1465.1,343.4,1465.1,343.1z"/>
	<path fill="#1B264C" d="M1482.1,352.8c0,1.1-0.2,2.1-0.5,3.2c-0.3,1.1-0.8,2.1-1.5,2.9c-0.7,0.8-1.5,1.6-2.4,2.1
		c-1,0.5-2,0.8-3.3,0.8c-0.9,0-1.7-0.1-2.3-0.5c-0.7-0.3-1.2-0.7-1.7-1.2c-0.5-0.5-0.8-1.1-1-1.8c-0.2-0.7-0.3-1.4-0.3-2.2
		c0-1.1,0.2-2.2,0.5-3.3c0.3-1.1,0.8-2.1,1.5-2.9c0.6-0.9,1.4-1.6,2.4-2.1c0.9-0.5,2-0.8,3.3-0.8c0.9,0,1.7,0.2,2.4,0.5
		c0.7,0.3,1.2,0.7,1.7,1.3c0.5,0.5,0.8,1.1,1,1.8C1481.9,351.3,1482.1,352,1482.1,352.8z M1474.6,360.4c0.9,0,1.6-0.2,2.3-0.7
		c0.7-0.4,1.3-1,1.7-1.7c0.5-0.7,0.9-1.5,1.1-2.4c0.3-0.9,0.4-1.8,0.4-2.7c0-0.6-0.1-1.2-0.2-1.7s-0.4-1-0.7-1.4s-0.7-0.7-1.1-0.9
		c-0.5-0.2-1-0.3-1.6-0.3c-0.8,0-1.6,0.2-2.3,0.6c-0.7,0.4-1.2,1-1.7,1.7c-0.5,0.7-0.8,1.5-1.1,2.4c-0.3,0.9-0.4,1.8-0.4,2.8
		c0,0.6,0.1,1.2,0.2,1.7s0.3,1,0.6,1.4c0.3,0.4,0.6,0.7,1.1,0.9C1473.4,360.3,1473.9,360.4,1474.6,360.4z"/>
	<path fill="#1B264C" d="M1484.2,361.6l2.5-14.3h1.9l-0.7,4.1c0.3-0.6,0.6-1.1,1-1.6s0.8-1,1.2-1.4c0.5-0.4,1-0.7,1.5-1
		c0.5-0.3,1.2-0.4,1.8-0.4c0.6,0,1.2,0.1,1.6,0.4c0.5,0.2,0.8,0.6,1.1,1c0.3,0.4,0.5,0.9,0.7,1.5c0.1,0.6,0.2,1.2,0.2,1.9
		c0,0.3,0,0.7,0,1.1s-0.1,0.8-0.2,1.2l-1.3,7.5h-2l1.3-7.3c0.1-0.8,0.2-1.5,0.2-2.3c0-1-0.2-1.8-0.5-2.4c-0.3-0.6-0.9-1-1.7-1
		c-0.5,0-1,0.2-1.5,0.5c-0.5,0.3-1,0.7-1.5,1.2s-0.9,1.1-1.3,1.8c-0.4,0.7-0.8,1.3-1.2,2l-1.3,7.5
		C1485.9,361.6,1484.2,361.6,1484.2,361.6z"/>
	<path fill="#1B264C" d="M1518.3,341.3c1.2,0,2.3,0.1,3.5,0.3c1.2,0.2,2.2,0.6,3.2,1.1l-0.5,1.6c-1.1-0.5-2.1-0.9-3.2-1.1
		c-1.1-0.2-2.1-0.3-3.1-0.3c-1.5,0-2.8,0.3-3.9,0.8c-1.2,0.5-2.1,1.2-2.9,2.1c-0.8,0.9-1.4,2-1.8,3.2c-0.4,1.2-0.6,2.5-0.6,3.9
		c0,2.4,0.7,4.2,2,5.5c1.3,1.3,3.2,2,5.8,2c0.6,0,1.3,0,1.9-0.1s1.2-0.2,1.8-0.3l1.2-6.8h1.9l-1.4,7.9c-0.4,0.1-0.8,0.2-1.2,0.3
		c-0.5,0.1-0.9,0.2-1.4,0.3s-1,0.1-1.5,0.2c-0.5,0-1,0.1-1.4,0.1c-1.5,0-2.8-0.2-4-0.7c-1.2-0.4-2.2-1.1-3-1.9
		c-0.8-0.8-1.4-1.7-1.8-2.9s-0.6-2.3-0.6-3.6c0-1.6,0.2-3.1,0.7-4.5c0.5-1.4,1.2-2.6,2.1-3.7c1-1.1,2.1-1.9,3.5-2.5
		C1514.8,341.6,1516.5,341.3,1518.3,341.3z"/>
	<path fill="#1B264C" d="M1535.5,349c-0.1,0-0.2,0-0.4,0c-1.3,0-2.3,0.5-3.2,1.4c-0.9,0.9-1.6,2.3-2.3,3.9l-1.3,7.3h-2l2.5-14.3h1.9
		l-0.8,4.5c0.2-0.6,0.4-1.2,0.7-1.8c0.3-0.5,0.6-1,1-1.4s0.8-0.7,1.3-1c0.5-0.2,1.1-0.4,1.7-0.4c0.1,0,0.3,0,0.5,0
		c0.2,0,0.3,0,0.4,0.1L1535.5,349z"/>
	<path fill="#1B264C" d="M1546.3,361.6h-1.9l1-5.6c-0.3,0.6-0.6,1.2-1,1.9c-0.4,0.7-0.8,1.3-1.3,1.9c-0.5,0.6-1,1.1-1.6,1.5
		s-1.2,0.6-1.9,0.6c-0.6,0-1.2-0.1-1.6-0.4c-0.4-0.3-0.8-0.6-1.1-1.1c-0.3-0.5-0.5-1-0.6-1.6c-0.1-0.6-0.2-1.2-0.2-1.9
		c0-1.3,0.2-2.5,0.5-3.7c0.3-1.2,0.9-2.2,1.6-3.2c0.7-0.9,1.5-1.7,2.6-2.2c1-0.6,2.2-0.8,3.6-0.8c0.8,0,1.6,0.1,2.4,0.2
		c0.8,0.2,1.5,0.4,2.1,0.6L1546.3,361.6z M1539.7,360.4c0.6,0,1.2-0.3,1.8-0.9c0.6-0.6,1.2-1.3,1.8-2.2c0.6-0.9,1.1-1.8,1.6-2.8
		c0.5-1,0.9-2,1.3-2.9l0.5-2.7c-0.7-0.2-1.5-0.3-2.4-0.3c-1,0-1.9,0.2-2.7,0.7c-0.8,0.5-1.4,1.1-2,1.8c-0.5,0.8-0.9,1.7-1.2,2.7
		c-0.3,1-0.4,2.1-0.4,3.1c0,0.5,0,0.9,0.1,1.3c0.1,0.4,0.2,0.8,0.3,1.1c0.1,0.3,0.3,0.6,0.5,0.8
		C1539,360.3,1539.3,360.4,1539.7,360.4z"/>
	<path fill="#1B264C" d="M1553.6,347.3h1.9l-0.8,4.5c0.3-0.6,0.7-1.2,1.1-1.7c0.4-0.6,0.8-1.1,1.3-1.5s1-0.8,1.6-1.1
		c0.6-0.3,1.2-0.4,1.9-0.4c0.6,0,1.1,0.1,1.6,0.4c0.5,0.3,0.9,0.6,1.2,1.1s0.5,1,0.7,1.6c0.2,0.6,0.2,1.3,0.2,1.9
		c0,1.3-0.2,2.5-0.5,3.7c-0.3,1.2-0.9,2.2-1.5,3.1s-1.5,1.6-2.5,2.2c-1,0.6-2.2,0.8-3.6,0.8c-0.5,0-1.1,0-1.6-0.1
		c-0.5-0.1-1-0.2-1.5-0.4l-1.1,6.4h-2L1553.6,347.3z M1560.1,348.6c-0.5,0-1.1,0.2-1.6,0.6c-0.6,0.4-1.1,0.9-1.6,1.5s-1,1.3-1.5,2.1
		s-0.9,1.5-1.3,2.3l-0.9,4.9c0.4,0.2,0.8,0.3,1.3,0.4s0.9,0.1,1.4,0.1c1.1,0,2-0.2,2.9-0.7c0.8-0.5,1.5-1.1,2-1.8
		c0.5-0.7,0.9-1.6,1.1-2.6c0.2-1,0.4-2,0.4-3c0-0.4,0-0.9-0.1-1.3s-0.2-0.8-0.4-1.2c-0.2-0.3-0.4-0.6-0.7-0.8
		C1560.8,348.7,1560.5,348.6,1560.1,348.6z"/>
	<path fill="#1B264C" d="M1566.4,361.6l3.7-21.1h2l-1.9,10.9c0.3-0.5,0.6-1.1,0.9-1.6c0.3-0.5,0.8-1,1.2-1.4c0.5-0.4,1-0.7,1.5-1
		c0.6-0.2,1.2-0.4,1.8-0.4c0.6,0,1.2,0.1,1.6,0.4c0.5,0.2,0.8,0.6,1.1,1c0.3,0.4,0.5,0.9,0.7,1.5c0.1,0.6,0.2,1.2,0.2,1.9
		c0,0.3,0,0.7,0,1.1s-0.1,0.8-0.2,1.2l-1.3,7.5h-2l1.3-7.3c0.1-0.8,0.2-1.5,0.2-2.3c0-1-0.2-1.8-0.5-2.4c-0.3-0.6-0.9-1-1.7-1
		c-0.5,0-1.1,0.2-1.6,0.5s-1,0.7-1.5,1.2s-0.9,1.1-1.3,1.8s-0.8,1.3-1.2,2l-1.3,7.5L1566.4,361.6L1566.4,361.6z"/>
	<path fill="#1B264C" d="M1582.4,361.6l2.5-14.3h1.9l-2.5,14.3H1582.4z M1585.3,343.1c0-0.4,0.1-0.8,0.4-1.1
		c0.3-0.3,0.7-0.5,1.2-0.5c0.4,0,0.7,0.1,0.9,0.3c0.2,0.2,0.3,0.5,0.3,0.9c0,0.4-0.1,0.8-0.5,1.1c-0.3,0.3-0.7,0.4-1.1,0.4
		s-0.7-0.1-0.9-0.3C1585.4,343.7,1585.3,343.4,1585.3,343.1z"/>
	<path fill="#1B264C" d="M1596.8,347c1.5,0,2.8,0.3,3.8,0.9l-0.4,1.6c-0.6-0.3-1.1-0.5-1.6-0.7c-0.5-0.2-1.1-0.2-1.8-0.2
		c-0.9,0-1.7,0.2-2.4,0.6c-0.7,0.4-1.3,0.9-1.8,1.6c-0.5,0.7-0.8,1.5-1.1,2.4c-0.2,0.9-0.4,1.9-0.4,2.9c0,1.3,0.3,2.3,0.9,3.1
		c0.6,0.8,1.5,1.2,2.8,1.2c0.6,0,1.2-0.1,1.8-0.2c0.6-0.1,1.1-0.4,1.6-0.6l0.4,1.5c-0.6,0.3-1.2,0.5-1.9,0.7
		c-0.7,0.2-1.4,0.2-2.2,0.2c-1,0-1.8-0.2-2.5-0.5c-0.7-0.3-1.2-0.8-1.7-1.3s-0.8-1.2-1-1.9c-0.2-0.7-0.3-1.5-0.3-2.2
		c0-1.2,0.2-2.3,0.5-3.4c0.3-1.1,0.8-2,1.5-2.9c0.6-0.8,1.4-1.5,2.4-2C1594.5,347.3,1595.6,347,1596.8,347z"/>
</g>
<rect x="1409" y="290.9" fill="#15FFA5" width="267.7" height="30.6"/>
<g>
	<g>
		<path fill="#1B264C" d="M1432.7,294.7c-1.2-2-4.5-3.9-8.3-3.9c-4.9,0-7.2,2-7.2,4.6c0,3.1,3.6,3.9,7.8,4.4
			c7.3,0.9,14.1,2.8,14.1,11.2c0,7.8-6.9,11.2-14.7,11.2c-7.2,0-12.7-2.2-15.3-8.6l5.5-2.9c1.5,3.9,5.6,5.6,9.9,5.6
			c4.2,0,8.1-1.5,8.1-5.3c0-3.3-3.5-4.7-8.1-5.2c-7.2-0.8-13.8-2.8-13.8-10.6c0-7.2,7.1-10.2,13.6-10.2c5.5,0,11.1,1.5,13.8,7
			L1432.7,294.7z"/>
		<path fill="#1B264C" d="M1464.8,296.7h5.8v24.6h-5.8l-0.3-3.6c-1.4,2.9-5.3,4.3-8,4.4c-7.3,0-12.7-4.5-12.7-13.1
			c0-8.5,5.7-13,12.9-12.9c3.3,0,6.5,1.5,7.9,4L1464.8,296.7z M1450,309c0,4.7,3.3,7.5,7.3,7.5c9.6,0,9.6-15,0-15
			C1453.2,301.5,1450,304.3,1450,309z"/>
		<path fill="#1B264C" d="M1481.8,286.4v34.9h-6.1v-34.9H1481.8z"/>
		<path fill="#1B264C" d="M1495.7,289.8v7h6.8v5.3h-6.9v10.7c0,2.3,1.3,3.5,3.2,3.5c1,0,2-0.3,3-0.8l1.7,5.2c-1.8,0.7-3.2,1-5.1,1
			c-5.4,0.2-8.9-2.8-8.9-9v-10.7h-4.6v-5.3h4.6v-6.4L1495.7,289.8z"/>
		<path fill="#1B264C" d="M1512.2,311.2c0.4,3,3.1,5.2,7.4,5.2c2.2,0,5.2-0.8,6.6-2.3l3.9,3.8c-2.6,2.7-6.9,4-10.6,4
			c-8.5,0-13.6-5.3-13.6-13.2c0-7.5,5.1-12.9,13.1-12.9c8.2,0,13.4,5.1,12.5,15.3L1512.2,311.2L1512.2,311.2z M1525.5,306.1
			c-0.4-3.2-2.9-4.8-6.4-4.8c-3.3,0-6,1.6-6.9,4.8H1525.5z"/>
		<path fill="#1B264C" d="M1561.6,286.4v34.9h-5.7l-0.4-3.4c-1.9,3-5,4-8,4c-7.2,0-12.7-4.8-12.7-12.9c0-8.5,5.4-12.9,12.6-12.9
			c2.6,0,6.7,1.4,8.1,4v-13.7L1561.6,286.4L1561.6,286.4z M1541,309c0,4.3,3.1,7.2,7,7.2c3.8,0,7.2-2.8,7.2-7.2
			c0-4.3-3.3-7.2-7.2-7.2C1544.1,301.8,1541,304.5,1541,309z"/>
		<path fill="#1B264C" d="M1577.4,321.3v-34.9h25.1v6.4H1584v9.6h17.6v6.1H1584v13L1577.4,321.3L1577.4,321.3z"/>
		<path fill="#1B264C" d="M1613.2,289.8c0,4.8-7.2,4.8-7.2,0S1613.2,285,1613.2,289.8z M1606.6,296.6v24.7h6.1v-24.7H1606.6z"/>
		<path fill="#1B264C" d="M1634.2,303.2c-1.8-1.6-3.8-2.2-6.1-2.2c-2.9,0-4.5,0.9-4.5,2.4c0,1.6,1.5,2.5,4.6,2.7
			c4.7,0.3,10.6,1.4,10.6,7.9c0,4.3-3.5,8.1-10.6,8.1c-3.9,0-7.8-0.6-11.4-4.4l3-4.4c1.8,2,5.8,3.4,8.5,3.5c2.3,0,4.5-1.2,4.5-3
			c0-1.7-1.4-2.4-4.9-2.6c-4.7-0.3-10.2-2-10.2-7.7s5.9-7.7,10.4-7.7c3.9,0,6.8,0.8,9.6,3.2L1634.2,303.2z"/>
		<path fill="#1B264C" d="M1648.7,286.4V300c2.2-2.9,4.9-3.7,7.7-3.7c7,0,10.1,4.8,10.1,12v13h-6.1v-13c0-4.5-2.3-6.4-5.6-6.4
			c-3.6,0-6.1,3.1-6.1,6.8v12.6h-6.1v-34.9H1648.7z"/>
	</g>
</g>
<text transform="matrix(1 0 0 1 1411.5804 425.8359)"><tspan x="0" y="0" fill="#919191" font-family="'Calibri-Light'" font-size="21">2D animation portraying young generation </tspan><tspan x="0" y="22" fill="#919191" font-family="'Calibri-Light'" font-size="21">in Hong Kong</tspan></text>
<line fill="none" stroke="#AFAFAF" stroke-miterlimit="10" x1="1377" y1="384.4" x2="1913.6" y2="384.4"/>
<line fill="none" stroke="#AFAFAF" stroke-miterlimit="10" x1="1377.7" y1="1079.4" x2="1377.7" y2="-0.6"/>
</svg>
