<?xml version="1.0" encoding="utf-8"?>
<!-- Generator: Adobe Illustrator 17.1.0, SVG Export Plug-In . SVG Version: 6.00 Build 0)  -->
<!DOCTYPE svg PUBLIC "-//W3C//DTD SVG 1.1//EN" "http://www.w3.org/Graphics/SVG/1.1/DTD/svg11.dtd">
<svg version="1.1" id="Layer_1" xmlns="http://www.w3.org/2000/svg" xmlns:xlink="http://www.w3.org/1999/xlink" x="0px" y="0px"
	 viewBox="0 0 1920 1080" enable-background="new 0 0 1920 1080" xml:space="preserve">
<g display="none">
	<path display="inline" fill="#15FFA5" d="M-44.1-17.2c1.6,12.2,12.2,21,29.4,21c9,0,20.8-3.4,26.4-9.2L27.3,10
		C16.9,20.8-0.1,26-15.1,26c-34,0-54.2-21-54.2-52.6c0-30,20.4-51.6,52.4-51.6c33,0,53.6,20.4,49.8,61H-44.1z M9.5-37.4
		C7.9-50.2-2.1-56.6-16.1-56.6c-13.2,0-24,6.4-27.6,19.2H9.5z"/>
	<path display="inline" fill="#15FFA5" d="M136.5-49c-7-6.6-15-8.8-24.4-8.8c-11.6,0-18,3.6-18,9.8c0,6.4,5.8,10,18.4,10.8
		c18.6,1.2,42.2,5.4,42.2,31.6c0,17.4-14.2,32.4-42.4,32.4c-15.6,0-31.2-2.6-45.6-17.6l12-17.4c7,7.8,23,13.6,34,13.8
		c9.2,0.2,17.8-4.6,17.8-11.8c0-6.8-5.6-9.6-19.6-10.4C92.3-18,70.1-24.8,70.1-47.2C70.1-70,93.7-78,111.7-78c15.4,0,27,3,38.4,13
		L136.5-49z"/>
	<path display="inline" fill="#15FFA5" d="M186.9-103c0,19-28.8,19-28.8,0C158.1-122,186.9-122,186.9-103z M160.3-75.6v99h24.4v-99
		H160.3z"/>
	<path display="inline" fill="#15FFA5" d="M221.7-75.2v51.6c0,15,8.2,26.4,23.8,26.4c15,0,25.2-12.6,25.2-27.6v-50.4h24.2v98.8
		h-21.8l-1.6-13.4c-10.2,10-19.6,14.8-33.4,14.8c-23.6,0-40.8-17.8-40.8-48.4v-51.8H221.7z"/>
</g>
<rect y="0" fill="#1B264C" width="716" height="1078.9"/>
<g>
	
		<text transform="matrix(1 0 0 1 100.4312 207.4026)" fill="#15FFA5" font-family="'NexaBold'" font-size="150" letter-spacing="-7">contact</text>
</g>
<line fill="none" stroke="#15FFA5" stroke-width="7" stroke-linejoin="round" stroke-miterlimit="10" x1="103.4" y1="265" x2="433.4" y2="265"/>
<g>
	<rect x="819" y="265" fill="none" width="762.3" height="580.8"/>
	<text transform="matrix(1 0 0 1 818.9858 290.415)"><tspan x="0" y="0" fill="#757577" font-family="'Seravek-Light'" font-size="36">For general enquiries, </tspan><tspan x="0" y="86.4" fill="#757577" font-family="'Seravek-LightItalic'" font-size="36" letter-spacing="28">		</tspan><tspan x="72" y="86.4" fill="#757577" font-family="'Seravek-LightItalic'" font-size="36">irenesiu0904@gmail.com</tspan><tspan x="0" y="129.6" fill="#757577" font-family="'Seravek-LightItalic'" font-size="36" letter-spacing="28">	</tspan><tspan x="0" y="172.8" fill="#757577" font-family="'Seravek-LightItalic'" font-size="36" letter-spacing="28">		</tspan><tspan x="72" y="172.8" fill="#757577" font-family="'Seravek-LightItalic'" font-size="36">www.behance.com/irenesiu</tspan></text>
</g>
<g>
	
		<rect x="368.5" y="589.2" transform="matrix(0.4341 -0.9008 0.9008 0.4341 -340.9405 687.9224)" fill="#15FFA5" width="17.2" height="52.4"/>
	
		<rect x="368.5" y="589.2" transform="matrix(0.9008 0.4341 -0.4341 0.9008 304.5339 -102.7034)" fill="#15FFA5" width="17.2" height="52.4"/>
</g>
</svg>
