<?xml version="1.0" encoding="utf-8"?>
<!-- Generator: Adobe Illustrator 17.1.0, SVG Export Plug-In . SVG Version: 6.00 Build 0)  -->
<!DOCTYPE svg PUBLIC "-//W3C//DTD SVG 1.1//EN" "http://www.w3.org/Graphics/SVG/1.1/DTD/svg11.dtd">
<svg version="1.1" id="Layer_1" xmlns="http://www.w3.org/2000/svg" xmlns:xlink="http://www.w3.org/1999/xlink" x="0px" y="0px"
	 viewBox="0 0 1920 1080" enable-background="new 0 0 1920 1080" xml:space="preserve">
<polygon fill="#15FFA5" points="1920,196 1688.2,-37.6 1771.8,-38.6 1920,109.6 "/>
<rect x="1429.8" y="756.2" transform="matrix(0.9436 0.3311 -0.3311 0.9436 339.5343 -436.7916)" fill="#15FFA5" width="44" height="44"/>
<rect x="322.1" y="123.3" fill="#1B264C" width="441.5" height="441.5"/>
<g display="none">
	<path display="inline" fill="#15FFA5" d="M1653.9,1077c0,19-28.8,19-28.8,0C1625.1,1058,1653.9,1058,1653.9,1077z M1627.3,1104.4
		v99h24.4v-99H1627.3z"/>
</g>
<polyline fill="none" stroke="#BCBCBC" stroke-width="3" stroke-linecap="round" stroke-linejoin="round" stroke-miterlimit="10" points="
	3.9,0 766.9,763.1 419,1079 "/>
<g>
	<g>
		<polygon fill="#1B264C" points="974.7,241 958.4,224.7 866.1,317 898.6,317 		"/>
		<polygon fill="#1B264C" points="1011.3,277.6 995,261.3 939.3,317 971.8,317 		"/>
		<polygon fill="#1B264C" points="1047.9,314.2 1031.6,297.9 1012.5,317 1045,317 		"/>
	</g>
	<g>
		<polygon fill="#1B264C" points="974.7,874.5 958.4,890.8 866.1,798.5 898.6,798.5 		"/>
		<polygon fill="#1B264C" points="1011.3,837.9 995,854.2 939.3,798.5 971.8,798.5 		"/>
		<polygon fill="#1B264C" points="1047.9,801.3 1031.6,817.6 1012.5,798.5 1045,798.5 		"/>
	</g>
	<g>
		<polygon fill="#E5E5E5" points="352.5,561.1 336.3,544.8 428.6,452.5 428.6,485 		"/>
		<polygon fill="#E5E5E5" points="389.1,597.7 372.9,581.4 428.6,525.7 428.6,558.2 		"/>
		<polygon fill="#E5E5E5" points="425.7,634.3 409.5,618 428.6,598.9 428.6,631.4 		"/>
	</g>
	<g>
		<polygon fill="#E5E5E5" points="1567.5,525.7 1583.7,542 1491.4,634.3 1491.4,601.8 		"/>
		<polygon fill="#E5E5E5" points="1530.9,489.1 1547.1,505.4 1491.4,561.1 1491.4,528.6 		"/>
		<polygon fill="#E5E5E5" points="1494.3,452.5 1510.5,468.8 1491.4,487.9 1491.4,455.4 		"/>
	</g>
</g>
<g>
	
		<rect x="416.4" y="225.8" transform="matrix(0.4341 -0.9008 0.9008 0.4341 13.4896 525.4789)" fill="#15FFA5" width="17.2" height="52.4"/>
	
		<rect x="416.4" y="225.8" transform="matrix(0.9008 0.4341 -0.4341 0.9008 151.5441 -159.5297)" fill="#15FFA5" width="17.2" height="52.4"/>
</g>
<g>
	<polygon fill="#1B264C" points="1559.5,1159.1 1457.2,1159.3 1920,671.8 1920,776 	"/>
</g>
<circle fill="none" stroke="#E5E5E5" stroke-width="16" stroke-miterlimit="10" cx="322.1" cy="123.3" r="34.7"/>
<polygon fill="#15FFA5" points="1448.4,296.6 1399.2,280.6 1437.6,246 "/>
<g>
	<polygon fill="#15FFA5" points="381.5,854.5 391,826.5 416.5,819.1 425.1,793.9 453.4,785.6 456.5,796.3 433.8,803 425.2,828.2 
		399.7,835.6 392.1,858.1 	"/>
</g>
<g>
	<defs>
		<polygon id="SVGID_1_" points="0,704.3 0,1080.1 439.6,1079 0,1080.1 310.3,1079 		"/>
	</defs>
	<clipPath id="SVGID_2_">
		<use xlink:href="#SVGID_1_"  overflow="visible"/>
	</clipPath>
	<circle clip-path="url(#SVGID_2_)" fill="#15FFA5" cx="5.8" cy="512.9" r="8.9"/>
	<circle clip-path="url(#SVGID_2_)" fill="#15FFA5" cx="40.3" cy="512.9" r="8.9"/>
	<circle clip-path="url(#SVGID_2_)" fill="#15FFA5" cx="74.8" cy="512.9" r="8.9"/>
	<circle clip-path="url(#SVGID_2_)" fill="#15FFA5" cx="109.4" cy="512.9" r="8.9"/>
	<circle clip-path="url(#SVGID_2_)" fill="#15FFA5" cx="143.9" cy="512.9" r="8.9"/>
	<circle clip-path="url(#SVGID_2_)" fill="#15FFA5" cx="178.4" cy="512.9" r="8.9"/>
	<circle clip-path="url(#SVGID_2_)" fill="#15FFA5" cx="213" cy="512.9" r="8.9"/>
	<circle clip-path="url(#SVGID_2_)" fill="#15FFA5" cx="247.5" cy="512.9" r="8.9"/>
	<circle clip-path="url(#SVGID_2_)" fill="#15FFA5" cx="282" cy="512.9" r="8.9"/>
	<circle clip-path="url(#SVGID_2_)" fill="#15FFA5" cx="316.5" cy="512.9" r="8.9"/>
	<circle clip-path="url(#SVGID_2_)" fill="#15FFA5" cx="351.1" cy="512.9" r="8.9"/>
	<circle clip-path="url(#SVGID_2_)" fill="#15FFA5" cx="385.6" cy="512.9" r="8.9"/>
	<circle clip-path="url(#SVGID_2_)" fill="#15FFA5" cx="420.1" cy="512.9" r="8.9"/>
	<circle clip-path="url(#SVGID_2_)" fill="#15FFA5" cx="454.7" cy="512.9" r="8.9"/>
	<circle clip-path="url(#SVGID_2_)" fill="#15FFA5" cx="489.2" cy="512.9" r="8.9"/>
	<circle clip-path="url(#SVGID_2_)" fill="#15FFA5" cx="523.7" cy="512.9" r="8.9"/>
	<circle clip-path="url(#SVGID_2_)" fill="#15FFA5" cx="558.3" cy="512.9" r="8.9"/>
	<circle clip-path="url(#SVGID_2_)" fill="#15FFA5" cx="5.8" cy="555.8" r="8.9"/>
	<circle clip-path="url(#SVGID_2_)" fill="#15FFA5" cx="40.3" cy="555.8" r="8.9"/>
	<circle clip-path="url(#SVGID_2_)" fill="#15FFA5" cx="74.8" cy="555.8" r="8.9"/>
	<circle clip-path="url(#SVGID_2_)" fill="#15FFA5" cx="109.4" cy="555.8" r="8.9"/>
	<circle clip-path="url(#SVGID_2_)" fill="#15FFA5" cx="143.9" cy="555.8" r="8.9"/>
	<circle clip-path="url(#SVGID_2_)" fill="#15FFA5" cx="178.4" cy="555.8" r="8.9"/>
	<circle clip-path="url(#SVGID_2_)" fill="#15FFA5" cx="213" cy="555.8" r="8.9"/>
	<circle clip-path="url(#SVGID_2_)" fill="#15FFA5" cx="247.5" cy="555.8" r="8.9"/>
	<circle clip-path="url(#SVGID_2_)" fill="#15FFA5" cx="282" cy="555.8" r="8.9"/>
	<circle clip-path="url(#SVGID_2_)" fill="#15FFA5" cx="316.5" cy="555.8" r="8.9"/>
	<circle clip-path="url(#SVGID_2_)" fill="#15FFA5" cx="351.1" cy="555.8" r="8.9"/>
	<circle clip-path="url(#SVGID_2_)" fill="#15FFA5" cx="385.6" cy="555.8" r="8.9"/>
	<circle clip-path="url(#SVGID_2_)" fill="#15FFA5" cx="420.1" cy="555.8" r="8.9"/>
	<circle clip-path="url(#SVGID_2_)" fill="#15FFA5" cx="454.7" cy="555.8" r="8.9"/>
	<circle clip-path="url(#SVGID_2_)" fill="#15FFA5" cx="489.2" cy="555.8" r="8.9"/>
	<circle clip-path="url(#SVGID_2_)" fill="#15FFA5" cx="523.7" cy="555.8" r="8.9"/>
	<circle clip-path="url(#SVGID_2_)" fill="#15FFA5" cx="558.3" cy="555.8" r="8.9"/>
	<circle clip-path="url(#SVGID_2_)" fill="#15FFA5" cx="5.8" cy="598.8" r="8.9"/>
	<circle clip-path="url(#SVGID_2_)" fill="#15FFA5" cx="40.3" cy="598.8" r="8.9"/>
	<circle clip-path="url(#SVGID_2_)" fill="#15FFA5" cx="74.8" cy="598.8" r="8.9"/>
	<circle clip-path="url(#SVGID_2_)" fill="#15FFA5" cx="109.4" cy="598.8" r="8.9"/>
	<circle clip-path="url(#SVGID_2_)" fill="#15FFA5" cx="143.9" cy="598.8" r="8.9"/>
	<circle clip-path="url(#SVGID_2_)" fill="#15FFA5" cx="178.4" cy="598.8" r="8.9"/>
	<circle clip-path="url(#SVGID_2_)" fill="#15FFA5" cx="213" cy="598.8" r="8.9"/>
	<circle clip-path="url(#SVGID_2_)" fill="#15FFA5" cx="247.5" cy="598.8" r="8.9"/>
	<circle clip-path="url(#SVGID_2_)" fill="#15FFA5" cx="282" cy="598.8" r="8.9"/>
	<circle clip-path="url(#SVGID_2_)" fill="#15FFA5" cx="316.5" cy="598.8" r="8.9"/>
	<circle clip-path="url(#SVGID_2_)" fill="#15FFA5" cx="351.1" cy="598.8" r="8.9"/>
	<circle clip-path="url(#SVGID_2_)" fill="#15FFA5" cx="385.6" cy="598.8" r="8.9"/>
	<circle clip-path="url(#SVGID_2_)" fill="#15FFA5" cx="420.1" cy="598.8" r="8.9"/>
	<circle clip-path="url(#SVGID_2_)" fill="#15FFA5" cx="454.7" cy="598.8" r="8.9"/>
	<circle clip-path="url(#SVGID_2_)" fill="#15FFA5" cx="489.2" cy="598.8" r="8.9"/>
	<circle clip-path="url(#SVGID_2_)" fill="#15FFA5" cx="523.7" cy="598.8" r="8.9"/>
	<circle clip-path="url(#SVGID_2_)" fill="#15FFA5" cx="558.3" cy="598.8" r="8.9"/>
	<circle clip-path="url(#SVGID_2_)" fill="#15FFA5" cx="5.8" cy="641.7" r="8.9"/>
	<circle clip-path="url(#SVGID_2_)" fill="#15FFA5" cx="40.3" cy="641.7" r="8.9"/>
	<circle clip-path="url(#SVGID_2_)" fill="#15FFA5" cx="74.8" cy="641.7" r="8.9"/>
	<circle clip-path="url(#SVGID_2_)" fill="#15FFA5" cx="109.4" cy="641.7" r="8.9"/>
	<circle clip-path="url(#SVGID_2_)" fill="#15FFA5" cx="143.9" cy="641.7" r="8.9"/>
	<circle clip-path="url(#SVGID_2_)" fill="#15FFA5" cx="178.4" cy="641.7" r="8.9"/>
	<circle clip-path="url(#SVGID_2_)" fill="#15FFA5" cx="213" cy="641.7" r="8.9"/>
	<circle clip-path="url(#SVGID_2_)" fill="#15FFA5" cx="247.5" cy="641.7" r="8.9"/>
	<circle clip-path="url(#SVGID_2_)" fill="#15FFA5" cx="282" cy="641.7" r="8.9"/>
	<circle clip-path="url(#SVGID_2_)" fill="#15FFA5" cx="316.5" cy="641.7" r="8.9"/>
	<circle clip-path="url(#SVGID_2_)" fill="#15FFA5" cx="351.1" cy="641.7" r="8.9"/>
	<circle clip-path="url(#SVGID_2_)" fill="#15FFA5" cx="385.6" cy="641.7" r="8.9"/>
	<circle clip-path="url(#SVGID_2_)" fill="#15FFA5" cx="420.1" cy="641.7" r="8.9"/>
	<circle clip-path="url(#SVGID_2_)" fill="#15FFA5" cx="454.7" cy="641.7" r="8.9"/>
	<circle clip-path="url(#SVGID_2_)" fill="#15FFA5" cx="489.2" cy="641.7" r="8.9"/>
	<circle clip-path="url(#SVGID_2_)" fill="#15FFA5" cx="523.7" cy="641.7" r="8.9"/>
	<circle clip-path="url(#SVGID_2_)" fill="#15FFA5" cx="558.3" cy="641.7" r="8.9"/>
	<circle clip-path="url(#SVGID_2_)" fill="#15FFA5" cx="5.8" cy="684.7" r="8.9"/>
	<circle clip-path="url(#SVGID_2_)" fill="#15FFA5" cx="40.3" cy="684.7" r="8.9"/>
	<circle clip-path="url(#SVGID_2_)" fill="#15FFA5" cx="74.8" cy="684.7" r="8.9"/>
	<circle clip-path="url(#SVGID_2_)" fill="#15FFA5" cx="109.4" cy="684.7" r="8.9"/>
	<circle clip-path="url(#SVGID_2_)" fill="#15FFA5" cx="143.9" cy="684.7" r="8.9"/>
	<circle clip-path="url(#SVGID_2_)" fill="#15FFA5" cx="178.4" cy="684.7" r="8.9"/>
	<circle clip-path="url(#SVGID_2_)" fill="#15FFA5" cx="213" cy="684.7" r="8.9"/>
	<circle clip-path="url(#SVGID_2_)" fill="#15FFA5" cx="247.5" cy="684.7" r="8.9"/>
	<circle clip-path="url(#SVGID_2_)" fill="#15FFA5" cx="282" cy="684.7" r="8.9"/>
	<circle clip-path="url(#SVGID_2_)" fill="#15FFA5" cx="316.5" cy="684.7" r="8.9"/>
	<circle clip-path="url(#SVGID_2_)" fill="#15FFA5" cx="351.1" cy="684.7" r="8.9"/>
	<circle clip-path="url(#SVGID_2_)" fill="#15FFA5" cx="385.6" cy="684.7" r="8.9"/>
	<circle clip-path="url(#SVGID_2_)" fill="#15FFA5" cx="420.1" cy="684.7" r="8.9"/>
	<circle clip-path="url(#SVGID_2_)" fill="#15FFA5" cx="454.7" cy="684.7" r="8.9"/>
	<circle clip-path="url(#SVGID_2_)" fill="#15FFA5" cx="489.2" cy="684.7" r="8.9"/>
	<circle clip-path="url(#SVGID_2_)" fill="#15FFA5" cx="523.7" cy="684.7" r="8.9"/>
	<circle clip-path="url(#SVGID_2_)" fill="#15FFA5" cx="558.3" cy="684.7" r="8.9"/>
	<circle clip-path="url(#SVGID_2_)" fill="#15FFA5" cx="5.8" cy="727.6" r="8.9"/>
	<circle clip-path="url(#SVGID_2_)" fill="#15FFA5" cx="40.3" cy="727.6" r="8.9"/>
	<circle clip-path="url(#SVGID_2_)" fill="#15FFA5" cx="74.8" cy="727.6" r="8.9"/>
	<circle clip-path="url(#SVGID_2_)" fill="#15FFA5" cx="109.4" cy="727.6" r="8.9"/>
	<circle clip-path="url(#SVGID_2_)" fill="#15FFA5" cx="143.9" cy="727.6" r="8.9"/>
	<circle clip-path="url(#SVGID_2_)" fill="#15FFA5" cx="178.4" cy="727.6" r="8.9"/>
	<circle clip-path="url(#SVGID_2_)" fill="#15FFA5" cx="213" cy="727.6" r="8.9"/>
	<circle clip-path="url(#SVGID_2_)" fill="#15FFA5" cx="247.5" cy="727.6" r="8.9"/>
	<circle clip-path="url(#SVGID_2_)" fill="#15FFA5" cx="282" cy="727.6" r="8.9"/>
	<circle clip-path="url(#SVGID_2_)" fill="#15FFA5" cx="316.5" cy="727.6" r="8.9"/>
	<circle clip-path="url(#SVGID_2_)" fill="#15FFA5" cx="351.1" cy="727.6" r="8.9"/>
	<circle clip-path="url(#SVGID_2_)" fill="#15FFA5" cx="385.6" cy="727.6" r="8.9"/>
	<circle clip-path="url(#SVGID_2_)" fill="#15FFA5" cx="420.1" cy="727.6" r="8.9"/>
	<circle clip-path="url(#SVGID_2_)" fill="#15FFA5" cx="454.7" cy="727.6" r="8.9"/>
	<circle clip-path="url(#SVGID_2_)" fill="#15FFA5" cx="489.2" cy="727.6" r="8.9"/>
	<circle clip-path="url(#SVGID_2_)" fill="#15FFA5" cx="523.7" cy="727.6" r="8.9"/>
	<circle clip-path="url(#SVGID_2_)" fill="#15FFA5" cx="558.3" cy="727.6" r="8.9"/>
	<circle clip-path="url(#SVGID_2_)" fill="#15FFA5" cx="5.8" cy="770.5" r="8.9"/>
	<circle clip-path="url(#SVGID_2_)" fill="#15FFA5" cx="40.3" cy="770.5" r="8.9"/>
	<circle clip-path="url(#SVGID_2_)" fill="#15FFA5" cx="74.8" cy="770.5" r="8.9"/>
	<circle clip-path="url(#SVGID_2_)" fill="#15FFA5" cx="109.4" cy="770.5" r="8.9"/>
	<circle clip-path="url(#SVGID_2_)" fill="#15FFA5" cx="143.9" cy="770.5" r="8.9"/>
	<circle clip-path="url(#SVGID_2_)" fill="#15FFA5" cx="178.4" cy="770.5" r="8.9"/>
	<circle clip-path="url(#SVGID_2_)" fill="#15FFA5" cx="213" cy="770.5" r="8.9"/>
	<circle clip-path="url(#SVGID_2_)" fill="#15FFA5" cx="247.5" cy="770.5" r="8.9"/>
	<circle clip-path="url(#SVGID_2_)" fill="#15FFA5" cx="282" cy="770.5" r="8.9"/>
	<circle clip-path="url(#SVGID_2_)" fill="#15FFA5" cx="316.5" cy="770.5" r="8.9"/>
	<circle clip-path="url(#SVGID_2_)" fill="#15FFA5" cx="351.1" cy="770.5" r="8.9"/>
	<circle clip-path="url(#SVGID_2_)" fill="#15FFA5" cx="385.6" cy="770.5" r="8.9"/>
	<circle clip-path="url(#SVGID_2_)" fill="#15FFA5" cx="420.1" cy="770.5" r="8.9"/>
	<circle clip-path="url(#SVGID_2_)" fill="#15FFA5" cx="454.7" cy="770.5" r="8.9"/>
	<circle clip-path="url(#SVGID_2_)" fill="#15FFA5" cx="489.2" cy="770.5" r="8.9"/>
	<circle clip-path="url(#SVGID_2_)" fill="#15FFA5" cx="523.7" cy="770.5" r="8.9"/>
	<circle clip-path="url(#SVGID_2_)" fill="#15FFA5" cx="558.3" cy="770.5" r="8.9"/>
	<circle clip-path="url(#SVGID_2_)" fill="#15FFA5" cx="5.8" cy="813.5" r="8.9"/>
	<circle clip-path="url(#SVGID_2_)" fill="#15FFA5" cx="40.3" cy="813.5" r="8.9"/>
	<circle clip-path="url(#SVGID_2_)" fill="#15FFA5" cx="74.8" cy="813.5" r="8.9"/>
	<circle clip-path="url(#SVGID_2_)" fill="#15FFA5" cx="109.4" cy="813.5" r="8.9"/>
	<circle clip-path="url(#SVGID_2_)" fill="#15FFA5" cx="143.9" cy="813.5" r="8.9"/>
	<circle clip-path="url(#SVGID_2_)" fill="#15FFA5" cx="178.4" cy="813.5" r="8.9"/>
	<circle clip-path="url(#SVGID_2_)" fill="#15FFA5" cx="213" cy="813.5" r="8.9"/>
	<circle clip-path="url(#SVGID_2_)" fill="#15FFA5" cx="247.5" cy="813.5" r="8.9"/>
	<circle clip-path="url(#SVGID_2_)" fill="#15FFA5" cx="282" cy="813.5" r="8.9"/>
	<circle clip-path="url(#SVGID_2_)" fill="#15FFA5" cx="316.5" cy="813.5" r="8.9"/>
	<circle clip-path="url(#SVGID_2_)" fill="#15FFA5" cx="351.1" cy="813.5" r="8.9"/>
	<circle clip-path="url(#SVGID_2_)" fill="#15FFA5" cx="385.6" cy="813.5" r="8.9"/>
	<circle clip-path="url(#SVGID_2_)" fill="#15FFA5" cx="420.1" cy="813.5" r="8.9"/>
	<circle clip-path="url(#SVGID_2_)" fill="#15FFA5" cx="454.7" cy="813.5" r="8.9"/>
	<circle clip-path="url(#SVGID_2_)" fill="#15FFA5" cx="489.2" cy="813.5" r="8.9"/>
	<circle clip-path="url(#SVGID_2_)" fill="#15FFA5" cx="523.7" cy="813.5" r="8.9"/>
	<circle clip-path="url(#SVGID_2_)" fill="#15FFA5" cx="558.3" cy="813.5" r="8.9"/>
	<circle clip-path="url(#SVGID_2_)" fill="#15FFA5" cx="5.8" cy="856.4" r="8.9"/>
	<circle clip-path="url(#SVGID_2_)" fill="#15FFA5" cx="40.3" cy="856.4" r="8.9"/>
	<circle clip-path="url(#SVGID_2_)" fill="#15FFA5" cx="74.8" cy="856.4" r="8.9"/>
	<circle clip-path="url(#SVGID_2_)" fill="#15FFA5" cx="109.4" cy="856.4" r="8.9"/>
	<circle clip-path="url(#SVGID_2_)" fill="#15FFA5" cx="143.9" cy="856.4" r="8.9"/>
	<circle clip-path="url(#SVGID_2_)" fill="#15FFA5" cx="178.4" cy="856.4" r="8.9"/>
	<circle clip-path="url(#SVGID_2_)" fill="#15FFA5" cx="213" cy="856.4" r="8.9"/>
	<circle clip-path="url(#SVGID_2_)" fill="#15FFA5" cx="247.5" cy="856.4" r="8.9"/>
	<circle clip-path="url(#SVGID_2_)" fill="#15FFA5" cx="282" cy="856.4" r="8.9"/>
	<circle clip-path="url(#SVGID_2_)" fill="#15FFA5" cx="316.5" cy="856.4" r="8.9"/>
	<circle clip-path="url(#SVGID_2_)" fill="#15FFA5" cx="351.1" cy="856.4" r="8.9"/>
	<circle clip-path="url(#SVGID_2_)" fill="#15FFA5" cx="385.6" cy="856.4" r="8.9"/>
	<circle clip-path="url(#SVGID_2_)" fill="#15FFA5" cx="420.1" cy="856.4" r="8.9"/>
	<circle clip-path="url(#SVGID_2_)" fill="#15FFA5" cx="454.7" cy="856.4" r="8.9"/>
	<circle clip-path="url(#SVGID_2_)" fill="#15FFA5" cx="489.2" cy="856.4" r="8.9"/>
	<circle clip-path="url(#SVGID_2_)" fill="#15FFA5" cx="523.7" cy="856.4" r="8.9"/>
	<circle clip-path="url(#SVGID_2_)" fill="#15FFA5" cx="558.3" cy="856.4" r="8.9"/>
	<circle clip-path="url(#SVGID_2_)" fill="#15FFA5" cx="5.8" cy="898.7" r="8.9"/>
	<circle clip-path="url(#SVGID_2_)" fill="#15FFA5" cx="40.3" cy="898.7" r="8.9"/>
	<circle clip-path="url(#SVGID_2_)" fill="#15FFA5" cx="74.8" cy="898.7" r="8.9"/>
	<circle clip-path="url(#SVGID_2_)" fill="#15FFA5" cx="109.4" cy="898.7" r="8.9"/>
	<circle clip-path="url(#SVGID_2_)" fill="#15FFA5" cx="143.9" cy="898.7" r="8.9"/>
	<circle clip-path="url(#SVGID_2_)" fill="#15FFA5" cx="178.4" cy="898.7" r="8.9"/>
	<circle clip-path="url(#SVGID_2_)" fill="#15FFA5" cx="213" cy="898.7" r="8.9"/>
	<circle clip-path="url(#SVGID_2_)" fill="#15FFA5" cx="247.5" cy="898.7" r="8.9"/>
	<circle clip-path="url(#SVGID_2_)" fill="#15FFA5" cx="282" cy="898.7" r="8.9"/>
	<circle clip-path="url(#SVGID_2_)" fill="#15FFA5" cx="316.5" cy="898.7" r="8.9"/>
	<circle clip-path="url(#SVGID_2_)" fill="#15FFA5" cx="351.1" cy="898.7" r="8.9"/>
	<circle clip-path="url(#SVGID_2_)" fill="#15FFA5" cx="385.6" cy="898.7" r="8.9"/>
	<circle clip-path="url(#SVGID_2_)" fill="#15FFA5" cx="420.1" cy="898.7" r="8.9"/>
	<circle clip-path="url(#SVGID_2_)" fill="#15FFA5" cx="454.7" cy="898.7" r="8.9"/>
	<circle clip-path="url(#SVGID_2_)" fill="#15FFA5" cx="489.2" cy="898.7" r="8.9"/>
	<circle clip-path="url(#SVGID_2_)" fill="#15FFA5" cx="523.7" cy="898.7" r="8.9"/>
	<circle clip-path="url(#SVGID_2_)" fill="#15FFA5" cx="558.3" cy="898.7" r="8.9"/>
	<circle clip-path="url(#SVGID_2_)" fill="#15FFA5" cx="5.8" cy="941" r="8.9"/>
	<circle clip-path="url(#SVGID_2_)" fill="#15FFA5" cx="40.3" cy="941" r="8.9"/>
	<circle clip-path="url(#SVGID_2_)" fill="#15FFA5" cx="74.8" cy="941" r="8.9"/>
	<circle clip-path="url(#SVGID_2_)" fill="#15FFA5" cx="109.4" cy="941" r="8.9"/>
	<circle clip-path="url(#SVGID_2_)" fill="#15FFA5" cx="143.9" cy="941" r="8.9"/>
	<circle clip-path="url(#SVGID_2_)" fill="#15FFA5" cx="178.4" cy="941" r="8.9"/>
	<circle clip-path="url(#SVGID_2_)" fill="#15FFA5" cx="213" cy="941" r="8.9"/>
	<circle clip-path="url(#SVGID_2_)" fill="#15FFA5" cx="247.5" cy="941" r="8.9"/>
	<circle clip-path="url(#SVGID_2_)" fill="#15FFA5" cx="282" cy="941" r="8.9"/>
	<circle clip-path="url(#SVGID_2_)" fill="#15FFA5" cx="316.5" cy="941" r="8.9"/>
	<circle clip-path="url(#SVGID_2_)" fill="#15FFA5" cx="351.1" cy="941" r="8.9"/>
	<circle clip-path="url(#SVGID_2_)" fill="#15FFA5" cx="385.6" cy="941" r="8.9"/>
	<circle clip-path="url(#SVGID_2_)" fill="#15FFA5" cx="420.1" cy="941" r="8.9"/>
	<circle clip-path="url(#SVGID_2_)" fill="#15FFA5" cx="454.7" cy="941" r="8.9"/>
	<circle clip-path="url(#SVGID_2_)" fill="#15FFA5" cx="489.2" cy="941" r="8.9"/>
	<circle clip-path="url(#SVGID_2_)" fill="#15FFA5" cx="523.7" cy="941" r="8.9"/>
	<circle clip-path="url(#SVGID_2_)" fill="#15FFA5" cx="558.3" cy="941" r="8.9"/>
	<circle clip-path="url(#SVGID_2_)" fill="#15FFA5" cx="5.8" cy="983.3" r="8.9"/>
	<circle clip-path="url(#SVGID_2_)" fill="#15FFA5" cx="40.3" cy="983.3" r="8.9"/>
	<circle clip-path="url(#SVGID_2_)" fill="#15FFA5" cx="74.8" cy="983.3" r="8.9"/>
	<circle clip-path="url(#SVGID_2_)" fill="#15FFA5" cx="109.4" cy="983.3" r="8.9"/>
	<circle clip-path="url(#SVGID_2_)" fill="#15FFA5" cx="143.9" cy="983.3" r="8.9"/>
	<circle clip-path="url(#SVGID_2_)" fill="#15FFA5" cx="178.4" cy="983.3" r="8.9"/>
	<circle clip-path="url(#SVGID_2_)" fill="#15FFA5" cx="213" cy="983.3" r="8.9"/>
	<circle clip-path="url(#SVGID_2_)" fill="#15FFA5" cx="247.5" cy="983.3" r="8.9"/>
	<circle clip-path="url(#SVGID_2_)" fill="#15FFA5" cx="282" cy="983.3" r="8.9"/>
	<circle clip-path="url(#SVGID_2_)" fill="#15FFA5" cx="316.5" cy="983.3" r="8.9"/>
	<circle clip-path="url(#SVGID_2_)" fill="#15FFA5" cx="351.1" cy="983.3" r="8.9"/>
	<circle clip-path="url(#SVGID_2_)" fill="#15FFA5" cx="385.6" cy="983.3" r="8.9"/>
	<circle clip-path="url(#SVGID_2_)" fill="#15FFA5" cx="420.1" cy="983.3" r="8.9"/>
	<circle clip-path="url(#SVGID_2_)" fill="#15FFA5" cx="454.7" cy="983.3" r="8.9"/>
	<circle clip-path="url(#SVGID_2_)" fill="#15FFA5" cx="489.2" cy="983.3" r="8.9"/>
	<circle clip-path="url(#SVGID_2_)" fill="#15FFA5" cx="523.7" cy="983.3" r="8.9"/>
	<circle clip-path="url(#SVGID_2_)" fill="#15FFA5" cx="558.3" cy="983.3" r="8.9"/>
	<circle clip-path="url(#SVGID_2_)" fill="#15FFA5" cx="5.8" cy="1025.7" r="8.9"/>
	<circle clip-path="url(#SVGID_2_)" fill="#15FFA5" cx="40.3" cy="1025.7" r="8.9"/>
	<circle clip-path="url(#SVGID_2_)" fill="#15FFA5" cx="74.8" cy="1025.7" r="8.9"/>
	<circle clip-path="url(#SVGID_2_)" fill="#15FFA5" cx="109.4" cy="1025.7" r="8.9"/>
	<circle clip-path="url(#SVGID_2_)" fill="#15FFA5" cx="143.9" cy="1025.7" r="8.9"/>
	<circle clip-path="url(#SVGID_2_)" fill="#15FFA5" cx="178.4" cy="1025.7" r="8.9"/>
	<circle clip-path="url(#SVGID_2_)" fill="#15FFA5" cx="213" cy="1025.7" r="8.9"/>
	<circle clip-path="url(#SVGID_2_)" fill="#15FFA5" cx="247.5" cy="1025.7" r="8.9"/>
	<circle clip-path="url(#SVGID_2_)" fill="#15FFA5" cx="282" cy="1025.7" r="8.9"/>
	<circle clip-path="url(#SVGID_2_)" fill="#15FFA5" cx="316.5" cy="1025.7" r="8.9"/>
	<circle clip-path="url(#SVGID_2_)" fill="#15FFA5" cx="351.1" cy="1025.7" r="8.9"/>
	<circle clip-path="url(#SVGID_2_)" fill="#15FFA5" cx="385.6" cy="1025.7" r="8.9"/>
	<circle clip-path="url(#SVGID_2_)" fill="#15FFA5" cx="420.1" cy="1025.7" r="8.9"/>
	<circle clip-path="url(#SVGID_2_)" fill="#15FFA5" cx="454.7" cy="1025.7" r="8.9"/>
	<circle clip-path="url(#SVGID_2_)" fill="#15FFA5" cx="489.2" cy="1025.7" r="8.9"/>
	<circle clip-path="url(#SVGID_2_)" fill="#15FFA5" cx="523.7" cy="1025.7" r="8.9"/>
	<circle clip-path="url(#SVGID_2_)" fill="#15FFA5" cx="558.3" cy="1025.7" r="8.9"/>
	<circle clip-path="url(#SVGID_2_)" fill="#15FFA5" cx="5.8" cy="1068" r="8.9"/>
	<circle clip-path="url(#SVGID_2_)" fill="#15FFA5" cx="40.3" cy="1068" r="8.9"/>
	<circle clip-path="url(#SVGID_2_)" fill="#15FFA5" cx="74.8" cy="1068" r="8.9"/>
	<circle clip-path="url(#SVGID_2_)" fill="#15FFA5" cx="109.4" cy="1068" r="8.9"/>
	<circle clip-path="url(#SVGID_2_)" fill="#15FFA5" cx="143.9" cy="1068" r="8.9"/>
	<circle clip-path="url(#SVGID_2_)" fill="#15FFA5" cx="178.4" cy="1068" r="8.9"/>
	<circle clip-path="url(#SVGID_2_)" fill="#15FFA5" cx="213" cy="1068" r="8.9"/>
	<circle clip-path="url(#SVGID_2_)" fill="#15FFA5" cx="247.5" cy="1068" r="8.9"/>
	<circle clip-path="url(#SVGID_2_)" fill="#15FFA5" cx="282" cy="1068" r="8.9"/>
	<circle clip-path="url(#SVGID_2_)" fill="#15FFA5" cx="316.5" cy="1068" r="8.9"/>
	<circle clip-path="url(#SVGID_2_)" fill="#15FFA5" cx="351.1" cy="1068" r="8.9"/>
	<circle clip-path="url(#SVGID_2_)" fill="#15FFA5" cx="385.6" cy="1068" r="8.9"/>
	<circle clip-path="url(#SVGID_2_)" fill="#15FFA5" cx="420.1" cy="1068" r="8.9"/>
	<circle clip-path="url(#SVGID_2_)" fill="#15FFA5" cx="454.7" cy="1068" r="8.9"/>
	<circle clip-path="url(#SVGID_2_)" fill="#15FFA5" cx="489.2" cy="1068" r="8.9"/>
	<circle clip-path="url(#SVGID_2_)" fill="#15FFA5" cx="523.7" cy="1068" r="8.9"/>
	<circle clip-path="url(#SVGID_2_)" fill="#15FFA5" cx="558.3" cy="1068" r="8.9"/>
</g>
</svg>
