<?xml version="1.0" encoding="utf-8"?>
<!-- Generator: Adobe Illustrator 17.1.0, SVG Export Plug-In . SVG Version: 6.00 Build 0)  -->
<!DOCTYPE svg PUBLIC "-//W3C//DTD SVG 1.1//EN" "http://www.w3.org/Graphics/SVG/1.1/DTD/svg11.dtd">
<svg version="1.1" id="Layer_1" xmlns="http://www.w3.org/2000/svg" xmlns:xlink="http://www.w3.org/1999/xlink" x="0px" y="0px"
	 viewBox="0 0 1920 1080" enable-background="new 0 0 1920 1080" xml:space="preserve">
<g display="none">
	<path display="inline" fill="#15FFA5" d="M1653.9-103c0,19-28.8,19-28.8,0C1625.1-122,1653.9-122,1653.9-103z M1627.3-75.6v99h24.4
		v-99H1627.3z"/>
	<path display="inline" fill="#15FFA5" d="M1686.3-75.2l1.8,11.4c7.6-12.2,17.8-14,27.8-14c10.2,0,20,4,25.4,9.4l-11,21.2
		c-5-4.2-9.6-6.4-17.6-6.4c-12.8,0-24.6,6.8-24.6,25v52h-24.4v-98.6H1686.3z"/>
	<path display="inline" fill="#15FFA5" d="M1761.3-17.2c1.6,12.2,12.2,21,29.4,21c9,0,20.8-3.4,26.4-9.2l15.6,15.4
		c-10.4,10.8-27.4,16-42.4,16c-34,0-54.2-21-54.2-52.6c0-30,20.4-51.6,52.4-51.6c33,0,53.6,20.4,49.8,61H1761.3z M1814.9-37.4
		c-1.6-12.8-11.6-19.2-25.6-19.2c-13.2,0-24,6.4-27.6,19.2H1814.9z"/>
	<path display="inline" fill="#15FFA5" d="M1919.7,23.4v-51.6c0-15-8.2-26.4-23.8-26.4c-15,0-25.2,12.6-25.2,27.6v50.4h-24.2v-98.8
		h21.8l1.6,13.4c10-9.8,20-14.8,32.4-14.8c23.2,0,41.8,17.4,41.8,48.4v51.8H1919.7z"/>
</g>
<g>
	<rect x="1286.3" y="473.7" fill="none" width="531.7" height="45.1"/>
	<text transform="matrix(1 0 0 1 1461.4143 508.635)" fill="#1B264C" font-family="'NexaBold'" font-size="50">Sweets</text>
</g>
<rect x="1286.3" y="550.4" fill="none" width="531.7" height="36.8"/>
<text transform="matrix(1 0 0 1 1348.1741 572.7562)"><tspan x="0" y="0" fill="#ADADAD" font-family="'Calibri-Light'" font-size="30">A gif collection featuring desserts.</tspan><tspan x="407.9" y="0" fill="#ADADAD" font-family="'Calibri-Light'" font-size="33"> </tspan></text>
<g>
	<rect x="1286.3" y="523.7" fill="none" width="531.7" height="39.1"/>
	<text transform="matrix(1 0 0 1 1433.0667 540.6583)"><tspan x="0" y="0" fill="#565656" font-family="'Seravek-Italic'" font-size="24">Motion Graphic</tspan><tspan x="155.1" y="0" fill="#757575" font-family="'Seravek-Light'" font-size="24"> </tspan><tspan x="160.2" y="0" fill="#757575" font-family="'Seravek-Light'" font-size="20"> </tspan><tspan x="164.5" y="0" fill="#757575" font-family="'Calibri-Light'" font-size="20">Apr 2017</tspan></text>
</g>
<g>
	<defs>
		<polygon id="SVGID_1_" points="0,-475.7 0,-99.9 439.6,-101 0,-99.9 310.3,-101 		"/>
	</defs>
	<clipPath id="SVGID_2_">
		<use xlink:href="#SVGID_1_"  overflow="visible"/>
	</clipPath>
	<circle clip-path="url(#SVGID_2_)" fill="#15FFA5" cx="5.8" cy="14.9" r="8.9"/>
	<circle clip-path="url(#SVGID_2_)" fill="#15FFA5" cx="40.3" cy="14.9" r="8.9"/>
	<circle clip-path="url(#SVGID_2_)" fill="#15FFA5" cx="74.8" cy="14.9" r="8.9"/>
	<circle clip-path="url(#SVGID_2_)" fill="#15FFA5" cx="109.4" cy="14.9" r="8.9"/>
	<circle clip-path="url(#SVGID_2_)" fill="#15FFA5" cx="143.9" cy="14.9" r="8.9"/>
	<circle clip-path="url(#SVGID_2_)" fill="#15FFA5" cx="178.4" cy="14.9" r="8.9"/>
	<circle clip-path="url(#SVGID_2_)" fill="#15FFA5" cx="213" cy="14.9" r="8.9"/>
	<circle clip-path="url(#SVGID_2_)" fill="#15FFA5" cx="247.5" cy="14.9" r="8.9"/>
	<circle clip-path="url(#SVGID_2_)" fill="#15FFA5" cx="282" cy="14.9" r="8.9"/>
	<circle clip-path="url(#SVGID_2_)" fill="#15FFA5" cx="316.5" cy="14.9" r="8.9"/>
	<circle clip-path="url(#SVGID_2_)" fill="#15FFA5" cx="351.1" cy="14.9" r="8.9"/>
	<circle clip-path="url(#SVGID_2_)" fill="#15FFA5" cx="385.6" cy="14.9" r="8.9"/>
	<circle clip-path="url(#SVGID_2_)" fill="#15FFA5" cx="420.1" cy="14.9" r="8.9"/>
	<circle clip-path="url(#SVGID_2_)" fill="#15FFA5" cx="454.7" cy="14.9" r="8.9"/>
	<circle clip-path="url(#SVGID_2_)" fill="#15FFA5" cx="489.2" cy="14.9" r="8.9"/>
	<circle clip-path="url(#SVGID_2_)" fill="#15FFA5" cx="523.7" cy="14.9" r="8.9"/>
	<circle clip-path="url(#SVGID_2_)" fill="#15FFA5" cx="558.3" cy="14.9" r="8.9"/>
	<circle clip-path="url(#SVGID_2_)" fill="#15FFA5" cx="5.8" cy="57.2" r="8.9"/>
	<circle clip-path="url(#SVGID_2_)" fill="#15FFA5" cx="40.3" cy="57.2" r="8.9"/>
	<circle clip-path="url(#SVGID_2_)" fill="#15FFA5" cx="74.8" cy="57.2" r="8.9"/>
	<circle clip-path="url(#SVGID_2_)" fill="#15FFA5" cx="109.4" cy="57.2" r="8.9"/>
	<circle clip-path="url(#SVGID_2_)" fill="#15FFA5" cx="143.9" cy="57.2" r="8.9"/>
	<circle clip-path="url(#SVGID_2_)" fill="#15FFA5" cx="178.4" cy="57.2" r="8.9"/>
	<circle clip-path="url(#SVGID_2_)" fill="#15FFA5" cx="213" cy="57.2" r="8.9"/>
	<circle clip-path="url(#SVGID_2_)" fill="#15FFA5" cx="247.5" cy="57.2" r="8.9"/>
	<circle clip-path="url(#SVGID_2_)" fill="#15FFA5" cx="282" cy="57.2" r="8.9"/>
	<circle clip-path="url(#SVGID_2_)" fill="#15FFA5" cx="316.5" cy="57.2" r="8.9"/>
	<circle clip-path="url(#SVGID_2_)" fill="#15FFA5" cx="351.1" cy="57.2" r="8.9"/>
	<circle clip-path="url(#SVGID_2_)" fill="#15FFA5" cx="385.6" cy="57.2" r="8.9"/>
	<circle clip-path="url(#SVGID_2_)" fill="#15FFA5" cx="420.1" cy="57.2" r="8.9"/>
	<circle clip-path="url(#SVGID_2_)" fill="#15FFA5" cx="454.7" cy="57.2" r="8.9"/>
	<circle clip-path="url(#SVGID_2_)" fill="#15FFA5" cx="489.2" cy="57.2" r="8.9"/>
	<circle clip-path="url(#SVGID_2_)" fill="#15FFA5" cx="523.7" cy="57.2" r="8.9"/>
	<circle clip-path="url(#SVGID_2_)" fill="#15FFA5" cx="558.3" cy="57.2" r="8.9"/>
	<circle clip-path="url(#SVGID_2_)" fill="#15FFA5" cx="5.8" cy="99.5" r="8.9"/>
	<circle clip-path="url(#SVGID_2_)" fill="#15FFA5" cx="40.3" cy="99.5" r="8.9"/>
	<circle clip-path="url(#SVGID_2_)" fill="#15FFA5" cx="74.8" cy="99.5" r="8.9"/>
	<circle clip-path="url(#SVGID_2_)" fill="#15FFA5" cx="109.4" cy="99.5" r="8.9"/>
	<circle clip-path="url(#SVGID_2_)" fill="#15FFA5" cx="143.9" cy="99.5" r="8.9"/>
	<circle clip-path="url(#SVGID_2_)" fill="#15FFA5" cx="178.4" cy="99.5" r="8.9"/>
	<circle clip-path="url(#SVGID_2_)" fill="#15FFA5" cx="213" cy="99.5" r="8.9"/>
	<circle clip-path="url(#SVGID_2_)" fill="#15FFA5" cx="247.5" cy="99.5" r="8.9"/>
	<circle clip-path="url(#SVGID_2_)" fill="#15FFA5" cx="282" cy="99.5" r="8.9"/>
	<circle clip-path="url(#SVGID_2_)" fill="#15FFA5" cx="316.5" cy="99.5" r="8.9"/>
	<circle clip-path="url(#SVGID_2_)" fill="#15FFA5" cx="351.1" cy="99.5" r="8.9"/>
	<circle clip-path="url(#SVGID_2_)" fill="#15FFA5" cx="385.6" cy="99.5" r="8.9"/>
	<circle clip-path="url(#SVGID_2_)" fill="#15FFA5" cx="420.1" cy="99.5" r="8.9"/>
	<circle clip-path="url(#SVGID_2_)" fill="#15FFA5" cx="454.7" cy="99.5" r="8.9"/>
	<circle clip-path="url(#SVGID_2_)" fill="#15FFA5" cx="489.2" cy="99.5" r="8.9"/>
	<circle clip-path="url(#SVGID_2_)" fill="#15FFA5" cx="523.7" cy="99.5" r="8.9"/>
	<circle clip-path="url(#SVGID_2_)" fill="#15FFA5" cx="558.3" cy="99.5" r="8.9"/>
	<circle clip-path="url(#SVGID_2_)" fill="#15FFA5" cx="5.8" cy="141.8" r="8.9"/>
	<circle clip-path="url(#SVGID_2_)" fill="#15FFA5" cx="40.3" cy="141.8" r="8.9"/>
	<circle clip-path="url(#SVGID_2_)" fill="#15FFA5" cx="74.8" cy="141.8" r="8.9"/>
	<circle clip-path="url(#SVGID_2_)" fill="#15FFA5" cx="109.4" cy="141.8" r="8.9"/>
	<circle clip-path="url(#SVGID_2_)" fill="#15FFA5" cx="143.9" cy="141.8" r="8.9"/>
	<circle clip-path="url(#SVGID_2_)" fill="#15FFA5" cx="178.4" cy="141.8" r="8.9"/>
	<circle clip-path="url(#SVGID_2_)" fill="#15FFA5" cx="213" cy="141.8" r="8.9"/>
	<circle clip-path="url(#SVGID_2_)" fill="#15FFA5" cx="247.5" cy="141.8" r="8.9"/>
	<circle clip-path="url(#SVGID_2_)" fill="#15FFA5" cx="282" cy="141.8" r="8.9"/>
	<circle clip-path="url(#SVGID_2_)" fill="#15FFA5" cx="316.5" cy="141.8" r="8.9"/>
	<circle clip-path="url(#SVGID_2_)" fill="#15FFA5" cx="351.1" cy="141.8" r="8.9"/>
	<circle clip-path="url(#SVGID_2_)" fill="#15FFA5" cx="385.6" cy="141.8" r="8.9"/>
	<circle clip-path="url(#SVGID_2_)" fill="#15FFA5" cx="420.1" cy="141.8" r="8.9"/>
	<circle clip-path="url(#SVGID_2_)" fill="#15FFA5" cx="454.7" cy="141.8" r="8.9"/>
	<circle clip-path="url(#SVGID_2_)" fill="#15FFA5" cx="489.2" cy="141.8" r="8.9"/>
	<circle clip-path="url(#SVGID_2_)" fill="#15FFA5" cx="523.7" cy="141.8" r="8.9"/>
	<circle clip-path="url(#SVGID_2_)" fill="#15FFA5" cx="558.3" cy="141.8" r="8.9"/>
	<circle clip-path="url(#SVGID_2_)" fill="#15FFA5" cx="5.8" cy="184.1" r="8.9"/>
	<circle clip-path="url(#SVGID_2_)" fill="#15FFA5" cx="40.3" cy="184.1" r="8.9"/>
	<circle clip-path="url(#SVGID_2_)" fill="#15FFA5" cx="74.8" cy="184.1" r="8.9"/>
	<circle clip-path="url(#SVGID_2_)" fill="#15FFA5" cx="109.4" cy="184.1" r="8.9"/>
	<circle clip-path="url(#SVGID_2_)" fill="#15FFA5" cx="143.9" cy="184.1" r="8.9"/>
	<circle clip-path="url(#SVGID_2_)" fill="#15FFA5" cx="178.4" cy="184.1" r="8.9"/>
	<circle clip-path="url(#SVGID_2_)" fill="#15FFA5" cx="213" cy="184.1" r="8.9"/>
	<circle clip-path="url(#SVGID_2_)" fill="#15FFA5" cx="247.5" cy="184.1" r="8.9"/>
	<circle clip-path="url(#SVGID_2_)" fill="#15FFA5" cx="282" cy="184.1" r="8.9"/>
	<circle clip-path="url(#SVGID_2_)" fill="#15FFA5" cx="316.5" cy="184.1" r="8.9"/>
	<circle clip-path="url(#SVGID_2_)" fill="#15FFA5" cx="351.1" cy="184.1" r="8.9"/>
	<circle clip-path="url(#SVGID_2_)" fill="#15FFA5" cx="385.6" cy="184.1" r="8.9"/>
	<circle clip-path="url(#SVGID_2_)" fill="#15FFA5" cx="420.1" cy="184.1" r="8.9"/>
	<circle clip-path="url(#SVGID_2_)" fill="#15FFA5" cx="454.7" cy="184.1" r="8.9"/>
	<circle clip-path="url(#SVGID_2_)" fill="#15FFA5" cx="489.2" cy="184.1" r="8.9"/>
	<circle clip-path="url(#SVGID_2_)" fill="#15FFA5" cx="523.7" cy="184.1" r="8.9"/>
	<circle clip-path="url(#SVGID_2_)" fill="#15FFA5" cx="558.3" cy="184.1" r="8.9"/>
</g>
</svg>
