<?xml version="1.0" encoding="utf-8"?>
<!-- Generator: Adobe Illustrator 17.1.0, SVG Export Plug-In . SVG Version: 6.00 Build 0)  -->
<!DOCTYPE svg PUBLIC "-//W3C//DTD SVG 1.1//EN" "http://www.w3.org/Graphics/SVG/1.1/DTD/svg11.dtd">
<svg version="1.1" id="Layer_1" xmlns="http://www.w3.org/2000/svg" xmlns:xlink="http://www.w3.org/1999/xlink" x="0px" y="0px"
	 viewBox="0 0 1920 1080" enable-background="new 0 0 1920 1080" xml:space="preserve">
<g>
	<defs>
		<polygon id="SVGID_11_" points="0,-475.7 0,-99.9 439.6,-101 0,-99.9 310.3,-101 		"/>
	</defs>
	<clipPath id="SVGID_2_">
		<use xlink:href="#SVGID_11_"  overflow="visible"/>
	</clipPath>
	<circle clip-path="url(#SVGID_2_)" fill="#15FFA5" cx="5.8" cy="14.9" r="8.9"/>
	<circle clip-path="url(#SVGID_2_)" fill="#15FFA5" cx="40.3" cy="14.9" r="8.9"/>
	<circle clip-path="url(#SVGID_2_)" fill="#15FFA5" cx="74.8" cy="14.9" r="8.9"/>
	<circle clip-path="url(#SVGID_2_)" fill="#15FFA5" cx="109.4" cy="14.9" r="8.9"/>
	<circle clip-path="url(#SVGID_2_)" fill="#15FFA5" cx="143.9" cy="14.9" r="8.9"/>
	<circle clip-path="url(#SVGID_2_)" fill="#15FFA5" cx="178.4" cy="14.9" r="8.9"/>
	<circle clip-path="url(#SVGID_2_)" fill="#15FFA5" cx="213" cy="14.9" r="8.9"/>
	<circle clip-path="url(#SVGID_2_)" fill="#15FFA5" cx="247.5" cy="14.9" r="8.9"/>
	<circle clip-path="url(#SVGID_2_)" fill="#15FFA5" cx="282" cy="14.9" r="8.9"/>
	<circle clip-path="url(#SVGID_2_)" fill="#15FFA5" cx="316.5" cy="14.9" r="8.9"/>
	<circle clip-path="url(#SVGID_2_)" fill="#15FFA5" cx="351.1" cy="14.9" r="8.9"/>
	<circle clip-path="url(#SVGID_2_)" fill="#15FFA5" cx="385.6" cy="14.9" r="8.9"/>
	<circle clip-path="url(#SVGID_2_)" fill="#15FFA5" cx="420.1" cy="14.9" r="8.9"/>
	<circle clip-path="url(#SVGID_2_)" fill="#15FFA5" cx="454.7" cy="14.9" r="8.9"/>
	<circle clip-path="url(#SVGID_2_)" fill="#15FFA5" cx="489.2" cy="14.9" r="8.9"/>
	<circle clip-path="url(#SVGID_2_)" fill="#15FFA5" cx="523.7" cy="14.9" r="8.9"/>
	<circle clip-path="url(#SVGID_2_)" fill="#15FFA5" cx="558.3" cy="14.9" r="8.9"/>
	<circle clip-path="url(#SVGID_2_)" fill="#15FFA5" cx="5.8" cy="57.2" r="8.9"/>
	<circle clip-path="url(#SVGID_2_)" fill="#15FFA5" cx="40.3" cy="57.2" r="8.9"/>
	<circle clip-path="url(#SVGID_2_)" fill="#15FFA5" cx="74.8" cy="57.2" r="8.9"/>
	<circle clip-path="url(#SVGID_2_)" fill="#15FFA5" cx="109.4" cy="57.2" r="8.9"/>
	<circle clip-path="url(#SVGID_2_)" fill="#15FFA5" cx="143.9" cy="57.2" r="8.9"/>
	<circle clip-path="url(#SVGID_2_)" fill="#15FFA5" cx="178.4" cy="57.2" r="8.9"/>
	<circle clip-path="url(#SVGID_2_)" fill="#15FFA5" cx="213" cy="57.2" r="8.9"/>
	<circle clip-path="url(#SVGID_2_)" fill="#15FFA5" cx="247.5" cy="57.2" r="8.9"/>
	<circle clip-path="url(#SVGID_2_)" fill="#15FFA5" cx="282" cy="57.2" r="8.9"/>
	<circle clip-path="url(#SVGID_2_)" fill="#15FFA5" cx="316.5" cy="57.2" r="8.9"/>
	<circle clip-path="url(#SVGID_2_)" fill="#15FFA5" cx="351.1" cy="57.2" r="8.9"/>
	<circle clip-path="url(#SVGID_2_)" fill="#15FFA5" cx="385.6" cy="57.2" r="8.9"/>
	<circle clip-path="url(#SVGID_2_)" fill="#15FFA5" cx="420.1" cy="57.2" r="8.9"/>
	<circle clip-path="url(#SVGID_2_)" fill="#15FFA5" cx="454.7" cy="57.2" r="8.9"/>
	<circle clip-path="url(#SVGID_2_)" fill="#15FFA5" cx="489.2" cy="57.2" r="8.9"/>
	<circle clip-path="url(#SVGID_2_)" fill="#15FFA5" cx="523.7" cy="57.2" r="8.9"/>
	<circle clip-path="url(#SVGID_2_)" fill="#15FFA5" cx="558.3" cy="57.2" r="8.9"/>
	<circle clip-path="url(#SVGID_2_)" fill="#15FFA5" cx="5.8" cy="99.5" r="8.9"/>
	<circle clip-path="url(#SVGID_2_)" fill="#15FFA5" cx="40.3" cy="99.5" r="8.9"/>
	<circle clip-path="url(#SVGID_2_)" fill="#15FFA5" cx="74.8" cy="99.5" r="8.9"/>
	<circle clip-path="url(#SVGID_2_)" fill="#15FFA5" cx="109.4" cy="99.5" r="8.9"/>
	<circle clip-path="url(#SVGID_2_)" fill="#15FFA5" cx="143.9" cy="99.5" r="8.9"/>
	<circle clip-path="url(#SVGID_2_)" fill="#15FFA5" cx="178.4" cy="99.5" r="8.9"/>
	<circle clip-path="url(#SVGID_2_)" fill="#15FFA5" cx="213" cy="99.5" r="8.9"/>
	<circle clip-path="url(#SVGID_2_)" fill="#15FFA5" cx="247.5" cy="99.5" r="8.9"/>
	<circle clip-path="url(#SVGID_2_)" fill="#15FFA5" cx="282" cy="99.5" r="8.9"/>
	<circle clip-path="url(#SVGID_2_)" fill="#15FFA5" cx="316.5" cy="99.5" r="8.9"/>
	<circle clip-path="url(#SVGID_2_)" fill="#15FFA5" cx="351.1" cy="99.5" r="8.9"/>
	<circle clip-path="url(#SVGID_2_)" fill="#15FFA5" cx="385.6" cy="99.5" r="8.9"/>
	<circle clip-path="url(#SVGID_2_)" fill="#15FFA5" cx="420.1" cy="99.5" r="8.9"/>
	<circle clip-path="url(#SVGID_2_)" fill="#15FFA5" cx="454.7" cy="99.5" r="8.9"/>
	<circle clip-path="url(#SVGID_2_)" fill="#15FFA5" cx="489.2" cy="99.5" r="8.9"/>
	<circle clip-path="url(#SVGID_2_)" fill="#15FFA5" cx="523.7" cy="99.5" r="8.9"/>
	<circle clip-path="url(#SVGID_2_)" fill="#15FFA5" cx="558.3" cy="99.5" r="8.9"/>
	<circle clip-path="url(#SVGID_2_)" fill="#15FFA5" cx="5.8" cy="141.8" r="8.9"/>
	<circle clip-path="url(#SVGID_2_)" fill="#15FFA5" cx="40.3" cy="141.8" r="8.9"/>
	<circle clip-path="url(#SVGID_2_)" fill="#15FFA5" cx="74.8" cy="141.8" r="8.9"/>
	<circle clip-path="url(#SVGID_2_)" fill="#15FFA5" cx="109.4" cy="141.8" r="8.9"/>
	<circle clip-path="url(#SVGID_2_)" fill="#15FFA5" cx="143.9" cy="141.8" r="8.9"/>
	<circle clip-path="url(#SVGID_2_)" fill="#15FFA5" cx="178.4" cy="141.8" r="8.9"/>
	<circle clip-path="url(#SVGID_2_)" fill="#15FFA5" cx="213" cy="141.8" r="8.9"/>
	<circle clip-path="url(#SVGID_2_)" fill="#15FFA5" cx="247.5" cy="141.8" r="8.9"/>
	<circle clip-path="url(#SVGID_2_)" fill="#15FFA5" cx="282" cy="141.8" r="8.9"/>
	<circle clip-path="url(#SVGID_2_)" fill="#15FFA5" cx="316.5" cy="141.8" r="8.9"/>
	<circle clip-path="url(#SVGID_2_)" fill="#15FFA5" cx="351.1" cy="141.8" r="8.9"/>
	<circle clip-path="url(#SVGID_2_)" fill="#15FFA5" cx="385.6" cy="141.8" r="8.9"/>
	<circle clip-path="url(#SVGID_2_)" fill="#15FFA5" cx="420.1" cy="141.8" r="8.9"/>
	<circle clip-path="url(#SVGID_2_)" fill="#15FFA5" cx="454.7" cy="141.8" r="8.9"/>
	<circle clip-path="url(#SVGID_2_)" fill="#15FFA5" cx="489.2" cy="141.8" r="8.9"/>
	<circle clip-path="url(#SVGID_2_)" fill="#15FFA5" cx="523.7" cy="141.8" r="8.9"/>
	<circle clip-path="url(#SVGID_2_)" fill="#15FFA5" cx="558.3" cy="141.8" r="8.9"/>
	<circle clip-path="url(#SVGID_2_)" fill="#15FFA5" cx="5.8" cy="184.1" r="8.9"/>
	<circle clip-path="url(#SVGID_2_)" fill="#15FFA5" cx="40.3" cy="184.1" r="8.9"/>
	<circle clip-path="url(#SVGID_2_)" fill="#15FFA5" cx="74.8" cy="184.1" r="8.9"/>
	<circle clip-path="url(#SVGID_2_)" fill="#15FFA5" cx="109.4" cy="184.1" r="8.9"/>
	<circle clip-path="url(#SVGID_2_)" fill="#15FFA5" cx="143.9" cy="184.1" r="8.9"/>
	<circle clip-path="url(#SVGID_2_)" fill="#15FFA5" cx="178.4" cy="184.1" r="8.9"/>
	<circle clip-path="url(#SVGID_2_)" fill="#15FFA5" cx="213" cy="184.1" r="8.9"/>
	<circle clip-path="url(#SVGID_2_)" fill="#15FFA5" cx="247.5" cy="184.1" r="8.9"/>
	<circle clip-path="url(#SVGID_2_)" fill="#15FFA5" cx="282" cy="184.1" r="8.9"/>
	<circle clip-path="url(#SVGID_2_)" fill="#15FFA5" cx="316.5" cy="184.1" r="8.9"/>
	<circle clip-path="url(#SVGID_2_)" fill="#15FFA5" cx="351.1" cy="184.1" r="8.9"/>
	<circle clip-path="url(#SVGID_2_)" fill="#15FFA5" cx="385.6" cy="184.1" r="8.9"/>
	<circle clip-path="url(#SVGID_2_)" fill="#15FFA5" cx="420.1" cy="184.1" r="8.9"/>
	<circle clip-path="url(#SVGID_2_)" fill="#15FFA5" cx="454.7" cy="184.1" r="8.9"/>
	<circle clip-path="url(#SVGID_2_)" fill="#15FFA5" cx="489.2" cy="184.1" r="8.9"/>
	<circle clip-path="url(#SVGID_2_)" fill="#15FFA5" cx="523.7" cy="184.1" r="8.9"/>
	<circle clip-path="url(#SVGID_2_)" fill="#15FFA5" cx="558.3" cy="184.1" r="8.9"/>
</g>
<g>
	<path fill="#919191" d="M1428.9,426c0,0.1,0.1,0.2,0.1,0.3c0,0.1,0,0.1-0.1,0.1c0,0-0.1,0.1-0.2,0.1c-0.1,0-0.2,0-0.4,0
		s-0.3,0-0.3,0c-0.1,0-0.2,0-0.2,0c0,0-0.1,0-0.1-0.1c0,0,0-0.1-0.1-0.1l-1.3-3.5h-5.8l-1.2,3.5c0,0,0,0.1-0.1,0.1s-0.1,0.1-0.1,0.1
		c0,0-0.1,0-0.2,0.1c-0.1,0-0.2,0-0.3,0c-0.1,0-0.3,0-0.4,0s-0.2,0-0.2-0.1c0,0-0.1-0.1-0.1-0.1c0-0.1,0-0.1,0.1-0.2l4.6-12.6
		c0-0.1,0.1-0.1,0.1-0.1c0,0,0.1-0.1,0.2-0.1c0.1,0,0.1,0,0.2,0c0.1,0,0.2,0,0.3,0c0.1,0,0.2,0,0.3,0c0.1,0,0.2,0,0.2,0
		c0.1,0,0.1,0,0.2,0.1c0,0,0.1,0.1,0.1,0.1L1428.9,426z M1423.4,414.5L1423.4,414.5l-2.5,7.1h5.1L1423.4,414.5z"/>
	<path fill="#919191" d="M1439.4,426.4l-1.3,3.5c0,0.1-0.1,0.1-0.2,0.2c-0.1,0.1-0.3,0.1-0.5,0.1c-0.1,0-0.2,0-0.3,0s-0.1,0-0.2-0.1
		c0,0-0.1-0.1-0.1-0.1c0-0.1,0-0.1,0-0.2l1.3-3.3c-0.1,0-0.1-0.1-0.1-0.1s-0.1-0.1-0.1-0.1l-3.4-9.1c0-0.1-0.1-0.2-0.1-0.2
		c0-0.1,0-0.1,0.1-0.1c0,0,0.1-0.1,0.2-0.1c0.1,0,0.2,0,0.3,0c0.2,0,0.3,0,0.4,0c0.1,0,0.2,0,0.2,0c0.1,0,0.1,0,0.1,0.1
		c0,0,0,0.1,0.1,0.1l2.9,8.1h0l2.9-8.1c0-0.1,0.1-0.2,0.1-0.2c0.1,0,0.1-0.1,0.2-0.1c0.1,0,0.2,0,0.3,0c0.1,0,0.2,0,0.3,0
		c0.1,0,0.1,0,0.2,0.1s0.1,0.1,0.1,0.1c0,0.1,0,0.1-0.1,0.2L1439.4,426.4z"/>
	<path fill="#919191" d="M1453,421.5c0,0.7-0.1,1.4-0.3,2s-0.5,1.2-0.9,1.6c-0.4,0.5-0.9,0.8-1.4,1.1c-0.6,0.3-1.2,0.4-2,0.4
		c-0.7,0-1.4-0.1-1.9-0.3c-0.5-0.2-1-0.6-1.4-1c-0.4-0.4-0.6-0.9-0.8-1.6c-0.2-0.6-0.3-1.3-0.3-2.1c0-0.7,0.1-1.4,0.3-2
		c0.2-0.6,0.5-1.2,0.9-1.6c0.4-0.5,0.9-0.8,1.4-1.1s1.2-0.4,2-0.4c0.7,0,1.4,0.1,1.9,0.3c0.5,0.2,1,0.6,1.4,1
		c0.4,0.4,0.6,0.9,0.8,1.6C1452.9,420,1453,420.7,1453,421.5z M1451.7,421.6c0-0.5-0.1-1-0.2-1.5c-0.1-0.5-0.3-0.9-0.5-1.3
		c-0.2-0.4-0.6-0.7-1-0.9c-0.4-0.2-0.9-0.3-1.5-0.3c-0.6,0-1,0.1-1.4,0.3s-0.7,0.5-1,0.8c-0.3,0.4-0.4,0.8-0.6,1.2s-0.2,1-0.2,1.5
		c0,0.5,0.1,1,0.2,1.5c0.1,0.5,0.3,0.9,0.5,1.3c0.2,0.4,0.6,0.6,1,0.9s0.9,0.3,1.5,0.3c0.6,0,1-0.1,1.4-0.3s0.7-0.5,1-0.8
		c0.3-0.3,0.4-0.8,0.6-1.2S1451.7,422.1,1451.7,421.6z"/>
	<path fill="#919191" d="M1463.3,426.2c0,0,0,0.1,0,0.1c0,0,0,0.1-0.1,0.1s-0.1,0-0.2,0.1c-0.1,0-0.2,0-0.3,0c-0.1,0-0.2,0-0.3,0
		c-0.1,0-0.1,0-0.2-0.1s-0.1,0-0.1-0.1c0,0,0-0.1,0-0.1v-1.3c-0.5,0.6-1.1,1-1.6,1.3c-0.5,0.3-1,0.4-1.5,0.4c-0.6,0-1.1-0.1-1.5-0.3
		s-0.8-0.5-1-0.8c-0.3-0.4-0.4-0.8-0.6-1.2c-0.1-0.5-0.2-1-0.2-1.7v-5.6c0,0,0-0.1,0-0.1c0,0,0-0.1,0.1-0.1c0,0,0.1,0,0.2-0.1
		c0.1,0,0.2,0,0.3,0c0.1,0,0.2,0,0.3,0c0.1,0,0.1,0,0.2,0.1c0,0,0.1,0.1,0.1,0.1c0,0,0,0.1,0,0.1v5.5c0,0.6,0,1,0.1,1.4
		c0.1,0.4,0.2,0.7,0.4,0.9c0.2,0.3,0.4,0.5,0.7,0.6c0.3,0.1,0.6,0.2,1,0.2c0.5,0,0.9-0.2,1.4-0.5c0.5-0.3,1-0.8,1.5-1.5v-6.7
		c0,0,0-0.1,0-0.1c0,0,0-0.1,0.1-0.1c0,0,0.1,0,0.2-0.1c0.1,0,0.2,0,0.3,0c0.1,0,0.2,0,0.3,0c0.1,0,0.1,0,0.2,0.1
		c0,0,0.1,0.1,0.1,0.1s0,0.1,0,0.1V426.2z"/>
	<path fill="#919191" d="M1474.2,426.2c0,0,0,0.1,0,0.1s-0.1,0.1-0.1,0.1c0,0-0.1,0-0.2,0.1c-0.1,0-0.2,0-0.3,0c-0.1,0-0.2,0-0.3,0
		c-0.1,0-0.1,0-0.2-0.1c0,0-0.1,0-0.1-0.1c0,0,0-0.1,0-0.1v-5.5c0-0.6,0-1-0.1-1.4c-0.1-0.4-0.2-0.7-0.4-0.9
		c-0.2-0.3-0.4-0.5-0.7-0.6c-0.3-0.1-0.6-0.2-1-0.2c-0.5,0-0.9,0.2-1.4,0.5c-0.5,0.3-1,0.8-1.5,1.5v6.7c0,0,0,0.1,0,0.1
		c0,0-0.1,0.1-0.1,0.1c0,0-0.1,0-0.2,0.1c-0.1,0-0.2,0-0.3,0c-0.1,0-0.2,0-0.3,0c-0.1,0-0.1,0-0.2-0.1c0,0-0.1,0-0.1-0.1
		c0,0,0-0.1,0-0.1v-9.3c0,0,0-0.1,0-0.1c0,0,0-0.1,0.1-0.1c0,0,0.1,0,0.2-0.1c0.1,0,0.2,0,0.3,0s0.2,0,0.3,0c0.1,0,0.1,0,0.2,0.1
		c0,0,0.1,0.1,0.1,0.1c0,0,0,0.1,0,0.1v1.3c0.5-0.6,1.1-1,1.6-1.3c0.5-0.3,1-0.4,1.5-0.4c0.6,0,1.1,0.1,1.5,0.3s0.8,0.5,1,0.8
		c0.3,0.3,0.4,0.8,0.6,1.2c0.1,0.5,0.2,1,0.2,1.7V426.2z"/>
	<path fill="#919191" d="M1485,417.2c0,0.2,0,0.3-0.1,0.4c-0.1,0.1-0.1,0.1-0.2,0.1h-1.5c0.3,0.3,0.5,0.6,0.6,1
		c0.1,0.3,0.2,0.7,0.2,1.1c0,0.5-0.1,1-0.3,1.4c-0.2,0.4-0.4,0.8-0.7,1c-0.3,0.3-0.7,0.5-1.1,0.7c-0.4,0.2-0.9,0.2-1.4,0.2
		c-0.4,0-0.8-0.1-1.2-0.2s-0.7-0.3-0.9-0.4c-0.1,0.1-0.2,0.3-0.3,0.5c-0.1,0.2-0.1,0.4-0.1,0.6c0,0.3,0.1,0.5,0.4,0.7
		c0.2,0.2,0.6,0.3,1,0.3l2.5,0.1c0.4,0,0.8,0.1,1.2,0.2c0.4,0.1,0.7,0.3,1,0.5c0.3,0.2,0.5,0.4,0.7,0.7s0.2,0.6,0.2,1
		c0,0.4-0.1,0.8-0.3,1.2c-0.2,0.4-0.4,0.7-0.8,1c-0.4,0.3-0.8,0.5-1.3,0.7c-0.5,0.2-1.2,0.3-2,0.3c-0.7,0-1.3-0.1-1.9-0.2
		c-0.5-0.1-0.9-0.3-1.3-0.5c-0.3-0.2-0.6-0.5-0.7-0.8c-0.1-0.3-0.2-0.6-0.2-1c0-0.2,0-0.5,0.1-0.7c0.1-0.2,0.1-0.4,0.3-0.6
		c0.1-0.2,0.3-0.4,0.4-0.6c0.2-0.2,0.4-0.4,0.6-0.5c-0.3-0.2-0.6-0.4-0.8-0.6s-0.2-0.5-0.2-0.8c0-0.4,0.1-0.8,0.2-1.1
		c0.2-0.3,0.4-0.6,0.6-0.9c-0.2-0.3-0.4-0.5-0.5-0.9c-0.1-0.3-0.2-0.7-0.2-1.1c0-0.5,0.1-1,0.3-1.4c0.2-0.4,0.4-0.8,0.7-1.1
		c0.3-0.3,0.7-0.5,1.1-0.7c0.4-0.2,0.9-0.2,1.4-0.2c0.3,0,0.5,0,0.8,0c0.2,0,0.5,0.1,0.7,0.1h2.7c0.1,0,0.2,0,0.3,0.1
		C1485,416.9,1485,417.1,1485,417.2z M1483.7,427.1c0-0.5-0.2-0.8-0.5-1c-0.4-0.2-0.9-0.4-1.5-0.4l-2.7-0.1
		c-0.2,0.2-0.4,0.4-0.6,0.5s-0.3,0.3-0.4,0.5c-0.1,0.2-0.2,0.3-0.2,0.5c0,0.2-0.1,0.3-0.1,0.5c0,0.5,0.3,0.9,0.8,1.1
		c0.5,0.3,1.2,0.4,2.1,0.4c0.6,0,1.1-0.1,1.4-0.2c0.4-0.1,0.7-0.3,0.9-0.4c0.2-0.2,0.4-0.4,0.5-0.6
		C1483.7,427.6,1483.7,427.4,1483.7,427.1z M1482.7,419.8c0-0.7-0.2-1.3-0.6-1.7c-0.4-0.4-0.9-0.6-1.6-0.6c-0.4,0-0.7,0.1-1,0.2
		c-0.3,0.1-0.5,0.3-0.7,0.5s-0.3,0.5-0.4,0.7s-0.1,0.6-0.1,0.9c0,0.7,0.2,1.2,0.6,1.6c0.4,0.4,0.9,0.6,1.6,0.6c0.4,0,0.7-0.1,1-0.2
		c0.3-0.1,0.5-0.3,0.7-0.5c0.2-0.2,0.3-0.5,0.4-0.7C1482.7,420.4,1482.7,420.1,1482.7,419.8z"/>
	<path fill="#919191" d="M1489.5,425.2c0,0.2,0,0.4,0,0.5c0,0.2,0,0.3-0.1,0.4s-0.1,0.3-0.2,0.4s-0.2,0.3-0.3,0.4l-1.4,2.2
		c0,0-0.1,0.1-0.1,0.1c0,0-0.1,0.1-0.1,0.1c-0.1,0-0.1,0-0.2,0c-0.1,0-0.2,0-0.3,0c-0.1,0-0.1,0-0.2,0s-0.1,0-0.1,0c0,0,0,0,0-0.1
		c0,0,0-0.1,0-0.1l1.4-2.8v-1.1c0-0.2,0-0.3,0-0.4c0-0.1,0.1-0.2,0.1-0.2s0.1-0.1,0.2-0.1c0.1,0,0.2,0,0.3,0c0.1,0,0.2,0,0.3,0
		c0.1,0,0.2,0,0.2,0.1c0.1,0,0.1,0.1,0.1,0.2C1489.4,424.9,1489.5,425,1489.5,425.2z"/>
	<path fill="#919191" d="M1505.6,421.4c0,0.8-0.1,1.5-0.3,2.1c-0.2,0.6-0.4,1.2-0.8,1.6c-0.3,0.4-0.8,0.8-1.3,1
		c-0.5,0.2-1.1,0.4-1.7,0.4c-0.3,0-0.5,0-0.8-0.1c-0.2-0.1-0.5-0.1-0.7-0.3c-0.2-0.1-0.5-0.3-0.7-0.5c-0.2-0.2-0.5-0.4-0.7-0.7v4.8
		c0,0,0,0.1,0,0.1c0,0-0.1,0.1-0.1,0.1c0,0-0.1,0-0.2,0.1c-0.1,0-0.2,0-0.3,0c-0.1,0-0.2,0-0.3,0c-0.1,0-0.1,0-0.2-0.1
		c0,0-0.1-0.1-0.1-0.1c0,0,0-0.1,0-0.1v-13c0,0,0-0.1,0-0.1c0,0,0-0.1,0.1-0.1c0,0,0.1,0,0.2,0c0.1,0,0.2,0,0.3,0c0.1,0,0.2,0,0.3,0
		c0.1,0,0.1,0,0.2,0c0,0,0.1,0,0.1,0.1c0,0,0,0.1,0,0.1v1.3c0.3-0.3,0.6-0.5,0.8-0.8c0.3-0.2,0.5-0.4,0.8-0.5s0.5-0.2,0.8-0.3
		s0.6-0.1,0.9-0.1c0.7,0,1.2,0.1,1.7,0.4c0.5,0.3,0.9,0.6,1.2,1.1c0.3,0.4,0.5,1,0.6,1.6C1505.6,420.1,1505.6,420.8,1505.6,421.4z
		 M1504.3,421.6c0-0.5,0-1-0.1-1.5c-0.1-0.5-0.2-0.9-0.4-1.3c-0.2-0.4-0.5-0.7-0.8-0.9c-0.3-0.2-0.7-0.3-1.2-0.3
		c-0.2,0-0.5,0-0.7,0.1c-0.2,0.1-0.5,0.2-0.7,0.3s-0.5,0.4-0.8,0.6c-0.3,0.2-0.5,0.6-0.8,0.9v4c0.5,0.6,1,1.1,1.5,1.4
		c0.5,0.3,1,0.5,1.5,0.5c0.5,0,0.9-0.1,1.2-0.3c0.3-0.2,0.6-0.5,0.8-0.9c0.2-0.4,0.4-0.8,0.5-1.3
		C1504.3,422.6,1504.3,422.1,1504.3,421.6z"/>
	<path fill="#919191" d="M1514.9,426.2c0,0.1,0,0.1-0.1,0.2c0,0-0.1,0.1-0.2,0.1c-0.1,0-0.2,0-0.3,0c-0.1,0-0.2,0-0.3,0
		c-0.1,0-0.1,0-0.2-0.1c0,0-0.1-0.1-0.1-0.2v-1c-0.4,0.5-0.9,0.8-1.4,1c-0.5,0.2-1,0.4-1.6,0.4c-0.5,0-0.9-0.1-1.3-0.2
		c-0.4-0.1-0.7-0.3-1-0.5c-0.3-0.2-0.5-0.5-0.6-0.9c-0.1-0.3-0.2-0.7-0.2-1.1c0-0.5,0.1-1,0.3-1.3c0.2-0.4,0.5-0.7,0.9-0.9
		c0.4-0.3,0.9-0.4,1.4-0.6c0.5-0.1,1.2-0.2,1.8-0.2h1.5V420c0-0.4,0-0.7-0.1-1.1c-0.1-0.3-0.2-0.6-0.4-0.8c-0.2-0.2-0.4-0.4-0.7-0.5
		s-0.7-0.2-1.1-0.2c-0.4,0-0.8,0-1.1,0.1c-0.3,0.1-0.6,0.2-0.9,0.3s-0.4,0.2-0.6,0.3c-0.2,0.1-0.3,0.1-0.3,0.1c0,0-0.1,0-0.1,0
		s-0.1,0-0.1-0.1c0,0,0-0.1-0.1-0.1c0-0.1,0-0.1,0-0.2c0-0.1,0-0.3,0-0.3c0-0.1,0.1-0.2,0.2-0.3c0.1-0.1,0.2-0.2,0.5-0.3
		s0.5-0.2,0.8-0.3c0.3-0.1,0.6-0.2,0.9-0.2s0.7-0.1,1-0.1c0.6,0,1.2,0.1,1.6,0.2c0.4,0.2,0.8,0.4,1.1,0.7c0.3,0.3,0.5,0.6,0.6,1.1
		c0.1,0.4,0.2,0.9,0.2,1.4V426.2z M1513.7,421.8h-1.7c-0.5,0-0.9,0-1.3,0.1s-0.7,0.2-0.9,0.4s-0.4,0.4-0.5,0.6
		c-0.1,0.2-0.2,0.5-0.2,0.8c0,0.5,0.2,1,0.5,1.3c0.3,0.3,0.8,0.5,1.4,0.5c0.5,0,0.9-0.1,1.4-0.4c0.4-0.2,0.9-0.6,1.3-1.2V421.8z"/>
	<path fill="#919191" d="M1523.8,423.7c0,0.4-0.1,0.8-0.2,1.2c-0.2,0.4-0.4,0.7-0.7,0.9c-0.3,0.2-0.7,0.4-1.1,0.6s-0.9,0.2-1.4,0.2
		c-0.3,0-0.6,0-0.9-0.1c-0.3-0.1-0.5-0.1-0.8-0.2c-0.2-0.1-0.4-0.2-0.6-0.3c-0.2-0.1-0.3-0.2-0.4-0.2s-0.1-0.2-0.2-0.3
		s-0.1-0.2-0.1-0.4c0-0.1,0-0.2,0-0.2c0-0.1,0-0.1,0.1-0.2s0-0.1,0.1-0.1c0,0,0.1,0,0.1,0c0.1,0,0.2,0,0.3,0.1
		c0.1,0.1,0.3,0.2,0.5,0.3c0.2,0.1,0.5,0.2,0.8,0.3c0.3,0.1,0.6,0.1,1,0.1c0.3,0,0.6,0,0.9-0.1c0.3-0.1,0.5-0.2,0.7-0.3
		s0.3-0.3,0.4-0.5c0.1-0.2,0.2-0.5,0.2-0.8s-0.1-0.5-0.2-0.7s-0.3-0.4-0.5-0.5c-0.2-0.1-0.5-0.3-0.8-0.4c-0.3-0.1-0.6-0.2-0.9-0.3
		c-0.3-0.1-0.6-0.3-0.9-0.4c-0.3-0.1-0.5-0.3-0.8-0.5c-0.2-0.2-0.4-0.5-0.5-0.7s-0.2-0.6-0.2-1c0-0.3,0.1-0.6,0.2-0.9
		c0.1-0.3,0.3-0.6,0.6-0.8c0.3-0.2,0.6-0.4,1-0.6c0.4-0.2,0.9-0.2,1.4-0.2c0.2,0,0.5,0,0.7,0.1c0.2,0,0.4,0.1,0.6,0.1
		c0.2,0.1,0.3,0.1,0.5,0.2c0.1,0.1,0.2,0.1,0.3,0.2c0.1,0.1,0.1,0.1,0.1,0.1c0,0,0,0.1,0.1,0.1c0,0,0,0.1,0,0.1c0,0.1,0,0.1,0,0.2
		s0,0.2,0,0.2c0,0.1,0,0.1,0,0.2s0,0.1-0.1,0.1c0,0-0.1,0-0.1,0c-0.1,0-0.1,0-0.2-0.1s-0.3-0.2-0.4-0.2s-0.4-0.2-0.6-0.2
		s-0.5-0.1-0.9-0.1c-0.3,0-0.6,0-0.8,0.1c-0.2,0.1-0.4,0.2-0.6,0.3s-0.3,0.3-0.4,0.5c-0.1,0.2-0.1,0.4-0.1,0.6
		c0,0.3,0.1,0.6,0.2,0.8s0.3,0.4,0.5,0.5c0.2,0.2,0.5,0.3,0.8,0.4s0.6,0.2,0.9,0.3c0.3,0.1,0.6,0.2,0.9,0.4c0.3,0.1,0.5,0.3,0.8,0.5
		s0.4,0.4,0.5,0.7C1523.7,423,1523.8,423.3,1523.8,423.7z"/>
	<path fill="#919191" d="M1531.9,423.7c0,0.4-0.1,0.8-0.2,1.2c-0.2,0.4-0.4,0.7-0.7,0.9c-0.3,0.2-0.7,0.4-1.1,0.6s-0.9,0.2-1.4,0.2
		c-0.3,0-0.6,0-0.9-0.1c-0.3-0.1-0.5-0.1-0.8-0.2c-0.2-0.1-0.4-0.2-0.6-0.3c-0.2-0.1-0.3-0.2-0.4-0.2s-0.1-0.2-0.2-0.3
		s-0.1-0.2-0.1-0.4c0-0.1,0-0.2,0-0.2c0-0.1,0-0.1,0.1-0.2s0-0.1,0.1-0.1c0,0,0.1,0,0.1,0c0.1,0,0.2,0,0.3,0.1
		c0.1,0.1,0.3,0.2,0.5,0.3c0.2,0.1,0.5,0.2,0.8,0.3c0.3,0.1,0.6,0.1,1,0.1c0.3,0,0.6,0,0.9-0.1c0.3-0.1,0.5-0.2,0.7-0.3
		s0.3-0.3,0.4-0.5c0.1-0.2,0.2-0.5,0.2-0.8s-0.1-0.5-0.2-0.7s-0.3-0.4-0.5-0.5c-0.2-0.1-0.5-0.3-0.8-0.4c-0.3-0.1-0.6-0.2-0.9-0.3
		c-0.3-0.1-0.6-0.3-0.9-0.4c-0.3-0.1-0.5-0.3-0.8-0.5c-0.2-0.2-0.4-0.5-0.5-0.7s-0.2-0.6-0.2-1c0-0.3,0.1-0.6,0.2-0.9
		c0.1-0.3,0.3-0.6,0.6-0.8c0.3-0.2,0.6-0.4,1-0.6c0.4-0.2,0.9-0.2,1.4-0.2c0.2,0,0.5,0,0.7,0.1c0.2,0,0.4,0.1,0.6,0.1
		c0.2,0.1,0.3,0.1,0.5,0.2c0.1,0.1,0.2,0.1,0.3,0.2c0.1,0.1,0.1,0.1,0.1,0.1c0,0,0,0.1,0.1,0.1c0,0,0,0.1,0,0.1c0,0.1,0,0.1,0,0.2
		s0,0.2,0,0.2c0,0.1,0,0.1,0,0.2s0,0.1-0.1,0.1c0,0-0.1,0-0.1,0c-0.1,0-0.1,0-0.2-0.1s-0.3-0.2-0.4-0.2s-0.4-0.2-0.6-0.2
		s-0.5-0.1-0.9-0.1c-0.3,0-0.6,0-0.8,0.1c-0.2,0.1-0.4,0.2-0.6,0.3s-0.3,0.3-0.4,0.5c-0.1,0.2-0.1,0.4-0.1,0.6
		c0,0.3,0.1,0.6,0.2,0.8s0.3,0.4,0.5,0.5c0.2,0.2,0.5,0.3,0.8,0.4s0.6,0.2,0.9,0.3c0.3,0.1,0.6,0.2,0.9,0.4c0.3,0.1,0.5,0.3,0.8,0.5
		s0.4,0.4,0.5,0.7C1531.8,423,1531.9,423.3,1531.9,423.7z"/>
	<path fill="#919191" d="M1536,413.8c0,0.3-0.1,0.6-0.2,0.7c-0.1,0.1-0.3,0.2-0.6,0.2c-0.3,0-0.5-0.1-0.6-0.2
		c-0.1-0.1-0.2-0.3-0.2-0.7s0.1-0.6,0.2-0.7s0.3-0.2,0.6-0.2c0.3,0,0.5,0.1,0.6,0.2C1535.9,413.2,1536,413.5,1536,413.8z
		 M1535.8,426.2c0,0,0,0.1,0,0.1c0,0-0.1,0.1-0.1,0.1c0,0-0.1,0-0.2,0.1c-0.1,0-0.2,0-0.3,0c-0.1,0-0.2,0-0.3,0
		c-0.1,0-0.1,0-0.2-0.1c0,0-0.1,0-0.1-0.1c0,0,0-0.1,0-0.1v-9.3c0,0,0-0.1,0-0.1c0,0,0-0.1,0.1-0.1c0,0,0.1,0,0.2-0.1
		c0.1,0,0.2,0,0.3,0c0.1,0,0.2,0,0.3,0c0.1,0,0.1,0,0.2,0.1c0,0,0.1,0.1,0.1,0.1c0,0,0,0.1,0,0.1V426.2z"/>
	<path fill="#919191" d="M1547.4,421.5c0,0.7-0.1,1.4-0.3,2s-0.5,1.2-0.9,1.6c-0.4,0.5-0.9,0.8-1.4,1.1c-0.6,0.3-1.2,0.4-2,0.4
		c-0.7,0-1.4-0.1-1.9-0.3c-0.5-0.2-1-0.6-1.4-1c-0.4-0.4-0.6-0.9-0.8-1.6c-0.2-0.6-0.3-1.3-0.3-2.1c0-0.7,0.1-1.4,0.3-2
		c0.2-0.6,0.5-1.2,0.9-1.6c0.4-0.5,0.9-0.8,1.4-1.1s1.2-0.4,2-0.4c0.7,0,1.4,0.1,1.9,0.3c0.5,0.2,1,0.6,1.4,1
		c0.4,0.4,0.6,0.9,0.8,1.6C1547.3,420,1547.4,420.7,1547.4,421.5z M1546.1,421.6c0-0.5-0.1-1-0.2-1.5c-0.1-0.5-0.3-0.9-0.5-1.3
		c-0.2-0.4-0.6-0.7-1-0.9c-0.4-0.2-0.9-0.3-1.5-0.3c-0.6,0-1,0.1-1.4,0.3s-0.7,0.5-1,0.8c-0.3,0.4-0.4,0.8-0.6,1.2s-0.2,1-0.2,1.5
		c0,0.5,0.1,1,0.2,1.5c0.1,0.5,0.3,0.9,0.5,1.3c0.2,0.4,0.6,0.6,1,0.9s0.9,0.3,1.5,0.3c0.6,0,1-0.1,1.4-0.3s0.7-0.5,1-0.8
		c0.3-0.3,0.4-0.8,0.6-1.2S1546.1,422.1,1546.1,421.6z"/>
	<path fill="#919191" d="M1557.7,426.2c0,0,0,0.1,0,0.1s-0.1,0.1-0.1,0.1c0,0-0.1,0-0.2,0.1c-0.1,0-0.2,0-0.3,0c-0.1,0-0.2,0-0.3,0
		c-0.1,0-0.1,0-0.2-0.1c0,0-0.1,0-0.1-0.1c0,0,0-0.1,0-0.1v-5.5c0-0.6,0-1-0.1-1.4c-0.1-0.4-0.2-0.7-0.4-0.9
		c-0.2-0.3-0.4-0.5-0.7-0.6c-0.3-0.1-0.6-0.2-1-0.2c-0.5,0-0.9,0.2-1.4,0.5c-0.5,0.3-1,0.8-1.5,1.5v6.7c0,0,0,0.1,0,0.1
		c0,0-0.1,0.1-0.1,0.1c0,0-0.1,0-0.2,0.1c-0.1,0-0.2,0-0.3,0c-0.1,0-0.2,0-0.3,0c-0.1,0-0.1,0-0.2-0.1c0,0-0.1,0-0.1-0.1
		c0,0,0-0.1,0-0.1v-9.3c0,0,0-0.1,0-0.1c0,0,0-0.1,0.1-0.1c0,0,0.1,0,0.2-0.1c0.1,0,0.2,0,0.3,0s0.2,0,0.3,0c0.1,0,0.1,0,0.2,0.1
		c0,0,0.1,0.1,0.1,0.1c0,0,0,0.1,0,0.1v1.3c0.5-0.6,1.1-1,1.6-1.3c0.5-0.3,1-0.4,1.5-0.4c0.6,0,1.1,0.1,1.5,0.3s0.8,0.5,1,0.8
		c0.3,0.3,0.4,0.8,0.6,1.2c0.1,0.5,0.2,1,0.2,1.7V426.2z"/>
	<path fill="#919191" d="M1567.6,426.2c0,0.1,0,0.1-0.1,0.2c0,0-0.1,0.1-0.2,0.1c-0.1,0-0.2,0-0.3,0c-0.1,0-0.2,0-0.3,0
		c-0.1,0-0.1,0-0.2-0.1c0,0-0.1-0.1-0.1-0.2v-1c-0.4,0.5-0.9,0.8-1.4,1c-0.5,0.2-1,0.4-1.6,0.4c-0.5,0-0.9-0.1-1.3-0.2
		c-0.4-0.1-0.7-0.3-1-0.5c-0.3-0.2-0.5-0.5-0.6-0.9c-0.1-0.3-0.2-0.7-0.2-1.1c0-0.5,0.1-1,0.3-1.3c0.2-0.4,0.5-0.7,0.9-0.9
		c0.4-0.3,0.9-0.4,1.4-0.6c0.5-0.1,1.2-0.2,1.8-0.2h1.5V420c0-0.4,0-0.7-0.1-1.1c-0.1-0.3-0.2-0.6-0.4-0.8c-0.2-0.2-0.4-0.4-0.7-0.5
		s-0.7-0.2-1.1-0.2c-0.4,0-0.8,0-1.1,0.1c-0.3,0.1-0.6,0.2-0.9,0.3s-0.4,0.2-0.6,0.3c-0.2,0.1-0.3,0.1-0.3,0.1c0,0-0.1,0-0.1,0
		s-0.1,0-0.1-0.1c0,0,0-0.1-0.1-0.1c0-0.1,0-0.1,0-0.2c0-0.1,0-0.3,0-0.3c0-0.1,0.1-0.2,0.2-0.3c0.1-0.1,0.2-0.2,0.5-0.3
		s0.5-0.2,0.8-0.3c0.3-0.1,0.6-0.2,0.9-0.2s0.7-0.1,1-0.1c0.6,0,1.2,0.1,1.6,0.2c0.4,0.2,0.8,0.4,1.1,0.7c0.3,0.3,0.5,0.6,0.6,1.1
		c0.1,0.4,0.2,0.9,0.2,1.4V426.2z M1566.3,421.8h-1.7c-0.5,0-0.9,0-1.3,0.1s-0.7,0.2-0.9,0.4s-0.4,0.4-0.5,0.6
		c-0.1,0.2-0.2,0.5-0.2,0.8c0,0.5,0.2,1,0.5,1.3c0.3,0.3,0.8,0.5,1.4,0.5c0.5,0,0.9-0.1,1.4-0.4c0.4-0.2,0.9-0.6,1.3-1.2V421.8z"/>
	<path fill="#919191" d="M1575.2,425.6c0,0.1,0,0.3,0,0.3c0,0.1-0.1,0.2-0.1,0.2c-0.1,0.1-0.1,0.1-0.2,0.1c-0.1,0-0.2,0.1-0.3,0.1
		c-0.1,0-0.3,0.1-0.4,0.1c-0.1,0-0.3,0-0.4,0c-0.5,0-0.8-0.1-1.2-0.2s-0.6-0.3-0.8-0.6c-0.2-0.2-0.4-0.6-0.4-0.9
		c-0.1-0.4-0.1-0.8-0.1-1.4v-5.8h-1.4c-0.1,0-0.2,0-0.2-0.1c-0.1-0.1-0.1-0.2-0.1-0.4c0-0.1,0-0.2,0-0.2c0-0.1,0-0.1,0.1-0.2
		c0,0,0.1-0.1,0.1-0.1c0,0,0.1,0,0.1,0h1.4v-2.3c0,0,0-0.1,0-0.1c0,0,0-0.1,0.1-0.1c0,0,0.1,0,0.2-0.1c0.1,0,0.2,0,0.3,0
		c0.1,0,0.2,0,0.3,0c0.1,0,0.1,0,0.2,0.1c0,0,0.1,0.1,0.1,0.1s0,0.1,0,0.1v2.3h2.6c0,0,0.1,0,0.1,0c0,0,0.1,0.1,0.1,0.1
		c0,0,0,0.1,0.1,0.2c0,0.1,0,0.1,0,0.2c0,0.2,0,0.3-0.1,0.4c-0.1,0.1-0.1,0.1-0.2,0.1h-2.6v5.6c0,0.7,0.1,1.2,0.3,1.6
		c0.2,0.4,0.6,0.6,1.1,0.6c0.2,0,0.3,0,0.4-0.1c0.1,0,0.3-0.1,0.4-0.1s0.2-0.1,0.3-0.1c0.1,0,0.1-0.1,0.2-0.1c0,0,0.1,0,0.1,0
		c0,0,0,0,0.1,0.1c0,0,0,0.1,0,0.1C1575.2,425.5,1575.2,425.6,1575.2,425.6z"/>
	<path fill="#919191" d="M1585,421.1c0,0.2-0.1,0.4-0.2,0.5c-0.1,0.1-0.3,0.1-0.4,0.1h-6.3c0,0.6,0.1,1.1,0.2,1.6
		c0.1,0.5,0.3,0.9,0.6,1.2c0.3,0.3,0.6,0.6,1,0.8s0.9,0.3,1.5,0.3c0.4,0,0.8,0,1.2-0.1s0.6-0.2,0.9-0.3c0.2-0.1,0.5-0.2,0.6-0.3
		c0.2-0.1,0.3-0.1,0.3-0.1c0,0,0.1,0,0.1,0s0.1,0.1,0.1,0.1c0,0,0,0.1,0,0.2c0,0.1,0,0.2,0,0.3c0,0,0,0.1,0,0.1c0,0,0,0.1,0,0.1
		c0,0,0,0.1,0,0.1s0,0.1-0.1,0.1s-0.1,0.1-0.3,0.2c-0.2,0.1-0.4,0.2-0.7,0.3c-0.3,0.1-0.6,0.2-1,0.2c-0.4,0.1-0.8,0.1-1.2,0.1
		c-0.7,0-1.4-0.1-1.9-0.3c-0.6-0.2-1-0.5-1.4-1c-0.4-0.4-0.7-0.9-0.9-1.6c-0.2-0.6-0.3-1.3-0.3-2.2c0-0.8,0.1-1.5,0.3-2.1
		c0.2-0.6,0.5-1.2,0.9-1.6c0.4-0.4,0.8-0.8,1.4-1c0.5-0.2,1.1-0.3,1.8-0.3c0.7,0,1.3,0.1,1.8,0.3s0.9,0.5,1.2,0.9
		c0.3,0.4,0.5,0.8,0.7,1.4c0.1,0.5,0.2,1.1,0.2,1.6V421.1z M1583.7,420.7c0-1-0.2-1.8-0.7-2.3s-1.2-0.8-2.1-0.8
		c-0.5,0-0.9,0.1-1.2,0.3c-0.4,0.2-0.6,0.4-0.9,0.7c-0.2,0.3-0.4,0.6-0.6,1c-0.1,0.4-0.2,0.8-0.2,1.2H1583.7z"/>
	<path fill="#919191" d="M1600,426.2c0,0,0,0.1,0,0.1c0,0,0,0.1-0.1,0.1c0,0-0.1,0-0.2,0c-0.1,0-0.2,0-0.3,0c-0.1,0-0.2,0-0.3,0
		c-0.1,0-0.1,0-0.2,0c0,0-0.1,0-0.1-0.1c0,0,0-0.1,0-0.1v-1.3c-0.5,0.5-1,1-1.5,1.3c-0.5,0.3-1.1,0.5-1.7,0.5
		c-0.7,0-1.2-0.1-1.7-0.4c-0.5-0.3-0.9-0.6-1.2-1.1c-0.3-0.4-0.5-1-0.7-1.6c-0.1-0.6-0.2-1.2-0.2-1.9c0-0.8,0.1-1.5,0.3-2.1
		c0.2-0.6,0.4-1.2,0.8-1.6s0.7-0.8,1.2-1s1.1-0.4,1.7-0.4c0.6,0,1.1,0.1,1.5,0.4c0.5,0.2,0.9,0.6,1.4,1.1v-5.6c0,0,0-0.1,0-0.1
		c0,0,0-0.1,0.1-0.1s0.1,0,0.2-0.1c0.1,0,0.2,0,0.3,0c0.1,0,0.2,0,0.3,0c0.1,0,0.1,0,0.2,0.1c0,0,0.1,0,0.1,0.1s0,0.1,0,0.1V426.2z
		 M1598.8,419.5c-0.5-0.6-1-1.1-1.5-1.4c-0.5-0.3-1-0.5-1.5-0.5c-0.5,0-0.9,0.1-1.2,0.3s-0.6,0.5-0.8,0.9s-0.4,0.8-0.5,1.3
		s-0.1,0.9-0.1,1.4c0,0.5,0,1,0.1,1.5s0.2,0.9,0.4,1.3c0.2,0.4,0.5,0.7,0.8,0.9c0.3,0.2,0.7,0.3,1.2,0.3c0.2,0,0.5,0,0.7-0.1
		c0.2-0.1,0.5-0.2,0.7-0.3s0.5-0.4,0.8-0.6c0.3-0.2,0.5-0.6,0.8-0.9V419.5z"/>
	<path fill="#919191" d="M1610,426.2c0,0.1,0,0.1-0.1,0.2c0,0-0.1,0.1-0.2,0.1c-0.1,0-0.2,0-0.3,0c-0.1,0-0.2,0-0.3,0
		c-0.1,0-0.1,0-0.2-0.1c0,0-0.1-0.1-0.1-0.2v-1c-0.4,0.5-0.9,0.8-1.4,1c-0.5,0.2-1,0.4-1.6,0.4c-0.5,0-0.9-0.1-1.3-0.2
		c-0.4-0.1-0.7-0.3-1-0.5c-0.3-0.2-0.5-0.5-0.6-0.9c-0.1-0.3-0.2-0.7-0.2-1.1c0-0.5,0.1-1,0.3-1.3c0.2-0.4,0.5-0.7,0.9-0.9
		c0.4-0.3,0.9-0.4,1.4-0.6c0.5-0.1,1.2-0.2,1.8-0.2h1.5V420c0-0.4,0-0.7-0.1-1.1c-0.1-0.3-0.2-0.6-0.4-0.8c-0.2-0.2-0.4-0.4-0.7-0.5
		s-0.7-0.2-1.1-0.2c-0.4,0-0.8,0-1.1,0.1c-0.3,0.1-0.6,0.2-0.9,0.3s-0.4,0.2-0.6,0.3c-0.2,0.1-0.3,0.1-0.3,0.1c0,0-0.1,0-0.1,0
		s-0.1,0-0.1-0.1c0,0,0-0.1-0.1-0.1c0-0.1,0-0.1,0-0.2c0-0.1,0-0.3,0-0.3c0-0.1,0.1-0.2,0.2-0.3c0.1-0.1,0.2-0.2,0.5-0.3
		s0.5-0.2,0.8-0.3c0.3-0.1,0.6-0.2,0.9-0.2s0.7-0.1,1-0.1c0.6,0,1.2,0.1,1.6,0.2c0.4,0.2,0.8,0.4,1.1,0.7c0.3,0.3,0.5,0.6,0.6,1.1
		c0.1,0.4,0.2,0.9,0.2,1.4V426.2z M1608.8,421.8h-1.7c-0.5,0-0.9,0-1.3,0.1s-0.7,0.2-0.9,0.4s-0.4,0.4-0.5,0.6
		c-0.1,0.2-0.2,0.5-0.2,0.8c0,0.5,0.2,1,0.5,1.3c0.3,0.3,0.8,0.5,1.4,0.5c0.5,0,0.9-0.1,1.4-0.4c0.4-0.2,0.9-0.6,1.3-1.2V421.8z"/>
	<path fill="#919191" d="M1620.9,426.2c0,0,0,0.1,0,0.1s-0.1,0.1-0.1,0.1c0,0-0.1,0-0.2,0.1c-0.1,0-0.2,0-0.3,0c-0.1,0-0.2,0-0.3,0
		c-0.1,0-0.1,0-0.2-0.1c0,0-0.1,0-0.1-0.1c0,0,0-0.1,0-0.1v-5.5c0-0.6,0-1-0.1-1.4c-0.1-0.4-0.2-0.7-0.4-0.9
		c-0.2-0.3-0.4-0.5-0.7-0.6c-0.3-0.1-0.6-0.2-1-0.2c-0.5,0-0.9,0.2-1.4,0.5c-0.5,0.3-1,0.8-1.5,1.5v6.7c0,0,0,0.1,0,0.1
		c0,0-0.1,0.1-0.1,0.1c0,0-0.1,0-0.2,0.1c-0.1,0-0.2,0-0.3,0c-0.1,0-0.2,0-0.3,0c-0.1,0-0.1,0-0.2-0.1c0,0-0.1,0-0.1-0.1
		c0,0,0-0.1,0-0.1v-9.3c0,0,0-0.1,0-0.1c0,0,0-0.1,0.1-0.1c0,0,0.1,0,0.2-0.1c0.1,0,0.2,0,0.3,0s0.2,0,0.3,0c0.1,0,0.1,0,0.2,0.1
		c0,0,0.1,0.1,0.1,0.1c0,0,0,0.1,0,0.1v1.3c0.5-0.6,1.1-1,1.6-1.3c0.5-0.3,1-0.4,1.5-0.4c0.6,0,1.1,0.1,1.5,0.3s0.8,0.5,1,0.8
		c0.3,0.3,0.4,0.8,0.6,1.2c0.1,0.5,0.2,1,0.2,1.7V426.2z"/>
	<path fill="#919191" d="M1630.7,424.8c0,0.1,0,0.2,0,0.2c0,0.1,0,0.1,0,0.2c0,0,0,0.1-0.1,0.1c0,0-0.1,0.1-0.2,0.2
		s-0.2,0.2-0.4,0.3c-0.2,0.1-0.4,0.3-0.7,0.4s-0.5,0.2-0.8,0.3c-0.3,0.1-0.6,0.1-0.9,0.1c-0.6,0-1.2-0.1-1.7-0.3
		c-0.5-0.2-0.9-0.5-1.2-1c-0.3-0.4-0.6-0.9-0.8-1.5c-0.2-0.6-0.3-1.3-0.3-2.1c0-0.9,0.1-1.7,0.3-2.3c0.2-0.6,0.5-1.2,0.9-1.6
		s0.8-0.7,1.3-0.9c0.5-0.2,1-0.3,1.6-0.3c0.3,0,0.6,0,0.9,0.1c0.3,0.1,0.5,0.1,0.8,0.2c0.2,0.1,0.4,0.2,0.6,0.3
		c0.2,0.1,0.3,0.2,0.4,0.3c0.1,0.1,0.1,0.2,0.2,0.2c0,0,0.1,0.1,0.1,0.1c0,0.1,0,0.1,0,0.2c0,0.1,0,0.1,0,0.2c0,0.2,0,0.3-0.1,0.4
		c-0.1,0.1-0.1,0.1-0.2,0.1c-0.1,0-0.2-0.1-0.4-0.2c-0.1-0.1-0.3-0.3-0.5-0.4c-0.2-0.1-0.5-0.3-0.8-0.4c-0.3-0.1-0.7-0.2-1.1-0.2
		c-0.9,0-1.6,0.3-2.1,1c-0.5,0.7-0.7,1.7-0.7,3c0,0.6,0.1,1.2,0.2,1.7c0.1,0.5,0.3,0.9,0.6,1.2c0.2,0.3,0.5,0.6,0.9,0.7
		c0.3,0.2,0.7,0.2,1.2,0.2c0.4,0,0.8-0.1,1.1-0.2s0.6-0.3,0.8-0.4s0.4-0.3,0.6-0.4c0.2-0.1,0.3-0.2,0.3-0.2c0,0,0.1,0,0.1,0
		c0,0,0.1,0.1,0.1,0.1c0,0.1,0,0.1,0,0.2C1630.7,424.6,1630.7,424.7,1630.7,424.8z"/>
	<path fill="#919191" d="M1640.8,421.1c0,0.2-0.1,0.4-0.2,0.5c-0.1,0.1-0.3,0.1-0.4,0.1h-6.3c0,0.6,0.1,1.1,0.2,1.6
		c0.1,0.5,0.3,0.9,0.6,1.2c0.3,0.3,0.6,0.6,1,0.8s0.9,0.3,1.5,0.3c0.4,0,0.8,0,1.2-0.1s0.6-0.2,0.9-0.3c0.2-0.1,0.5-0.2,0.6-0.3
		c0.2-0.1,0.3-0.1,0.3-0.1c0,0,0.1,0,0.1,0s0.1,0.1,0.1,0.1c0,0,0,0.1,0,0.2c0,0.1,0,0.2,0,0.3c0,0,0,0.1,0,0.1c0,0,0,0.1,0,0.1
		c0,0,0,0.1,0,0.1s0,0.1-0.1,0.1s-0.1,0.1-0.3,0.2c-0.2,0.1-0.4,0.2-0.7,0.3c-0.3,0.1-0.6,0.2-1,0.2c-0.4,0.1-0.8,0.1-1.2,0.1
		c-0.7,0-1.4-0.1-1.9-0.3c-0.6-0.2-1-0.5-1.4-1c-0.4-0.4-0.7-0.9-0.9-1.6c-0.2-0.6-0.3-1.3-0.3-2.2c0-0.8,0.1-1.5,0.3-2.1
		c0.2-0.6,0.5-1.2,0.9-1.6c0.4-0.4,0.8-0.8,1.4-1c0.5-0.2,1.1-0.3,1.8-0.3c0.7,0,1.3,0.1,1.8,0.3s0.9,0.5,1.2,0.9
		c0.3,0.4,0.5,0.8,0.7,1.4c0.1,0.5,0.2,1.1,0.2,1.6V421.1z M1639.5,420.7c0-1-0.2-1.8-0.7-2.3s-1.2-0.8-2.1-0.8
		c-0.5,0-0.9,0.1-1.2,0.3c-0.4,0.2-0.6,0.4-0.9,0.7c-0.2,0.3-0.4,0.6-0.6,1c-0.1,0.4-0.2,0.8-0.2,1.2H1639.5z"/>
	<path fill="#919191" d="M1656.4,421.4c0,0.8-0.1,1.5-0.3,2.1c-0.2,0.6-0.4,1.2-0.8,1.6c-0.3,0.4-0.8,0.8-1.3,1
		c-0.5,0.2-1.1,0.4-1.7,0.4c-0.3,0-0.5,0-0.8-0.1c-0.2-0.1-0.5-0.1-0.7-0.3c-0.2-0.1-0.5-0.3-0.7-0.5c-0.2-0.2-0.5-0.4-0.7-0.7v4.8
		c0,0,0,0.1,0,0.1c0,0-0.1,0.1-0.1,0.1c0,0-0.1,0-0.2,0.1c-0.1,0-0.2,0-0.3,0c-0.1,0-0.2,0-0.3,0c-0.1,0-0.1,0-0.2-0.1
		c0,0-0.1-0.1-0.1-0.1c0,0,0-0.1,0-0.1v-13c0,0,0-0.1,0-0.1c0,0,0-0.1,0.1-0.1c0,0,0.1,0,0.2,0c0.1,0,0.2,0,0.3,0c0.1,0,0.2,0,0.3,0
		c0.1,0,0.1,0,0.2,0c0,0,0.1,0,0.1,0.1c0,0,0,0.1,0,0.1v1.3c0.3-0.3,0.6-0.5,0.8-0.8c0.3-0.2,0.5-0.4,0.8-0.5s0.5-0.2,0.8-0.3
		s0.6-0.1,0.9-0.1c0.7,0,1.2,0.1,1.7,0.4c0.5,0.3,0.9,0.6,1.2,1.1c0.3,0.4,0.5,1,0.6,1.6C1656.4,420.1,1656.4,420.8,1656.4,421.4z
		 M1655.1,421.6c0-0.5,0-1-0.1-1.5c-0.1-0.5-0.2-0.9-0.4-1.3c-0.2-0.4-0.5-0.7-0.8-0.9c-0.3-0.2-0.7-0.3-1.2-0.3
		c-0.2,0-0.5,0-0.7,0.1c-0.2,0.1-0.5,0.2-0.7,0.3s-0.5,0.4-0.8,0.6c-0.3,0.2-0.5,0.6-0.8,0.9v4c0.5,0.6,1,1.1,1.5,1.4
		c0.5,0.3,1,0.5,1.5,0.5c0.5,0,0.9-0.1,1.2-0.3c0.3-0.2,0.6-0.5,0.8-0.9c0.2-0.4,0.4-0.8,0.5-1.3
		C1655.1,422.6,1655.1,422.1,1655.1,421.6z"/>
	<path fill="#919191" d="M1666.7,426.2c0,0,0,0.1,0,0.1c0,0,0,0.1-0.1,0.1s-0.1,0-0.2,0.1c-0.1,0-0.2,0-0.3,0c-0.1,0-0.2,0-0.3,0
		c-0.1,0-0.1,0-0.2-0.1s-0.1,0-0.1-0.1c0,0,0-0.1,0-0.1v-1.3c-0.5,0.6-1.1,1-1.6,1.3c-0.5,0.3-1,0.4-1.5,0.4c-0.6,0-1.1-0.1-1.5-0.3
		s-0.8-0.5-1-0.8c-0.3-0.4-0.4-0.8-0.6-1.2c-0.1-0.5-0.2-1-0.2-1.7v-5.6c0,0,0-0.1,0-0.1c0,0,0-0.1,0.1-0.1c0,0,0.1,0,0.2-0.1
		c0.1,0,0.2,0,0.3,0c0.1,0,0.2,0,0.3,0c0.1,0,0.1,0,0.2,0.1c0,0,0.1,0.1,0.1,0.1c0,0,0,0.1,0,0.1v5.5c0,0.6,0,1,0.1,1.4
		c0.1,0.4,0.2,0.7,0.4,0.9c0.2,0.3,0.4,0.5,0.7,0.6c0.3,0.1,0.6,0.2,1,0.2c0.5,0,0.9-0.2,1.4-0.5c0.5-0.3,1-0.8,1.5-1.5v-6.7
		c0,0,0-0.1,0-0.1c0,0,0-0.1,0.1-0.1c0,0,0.1,0,0.2-0.1c0.1,0,0.2,0,0.3,0c0.1,0,0.2,0,0.3,0c0.1,0,0.1,0,0.2,0.1
		c0,0,0.1,0.1,0.1,0.1s0,0.1,0,0.1V426.2z"/>
	<path fill="#919191" d="M1675.3,417.4c0,0.1,0,0.2,0,0.3c0,0.1,0,0.1,0,0.2c0,0,0,0.1-0.1,0.1c0,0-0.1,0-0.1,0c-0.1,0-0.1,0-0.2,0
		c-0.1,0-0.2-0.1-0.3-0.1s-0.2-0.1-0.4-0.1c-0.1,0-0.3,0-0.4,0c-0.2,0-0.4,0-0.5,0.1c-0.2,0.1-0.4,0.2-0.6,0.4
		c-0.2,0.2-0.4,0.4-0.6,0.7c-0.2,0.3-0.5,0.6-0.7,1.1v6.3c0,0,0,0.1,0,0.1c0,0-0.1,0.1-0.1,0.1c0,0-0.1,0-0.2,0.1
		c-0.1,0-0.2,0-0.3,0c-0.1,0-0.2,0-0.3,0c-0.1,0-0.1,0-0.2-0.1c0,0-0.1,0-0.1-0.1c0,0,0-0.1,0-0.1v-9.3c0,0,0-0.1,0-0.1
		c0,0,0-0.1,0.1-0.1c0,0,0.1,0,0.2-0.1c0.1,0,0.2,0,0.3,0s0.2,0,0.3,0c0.1,0,0.1,0,0.2,0.1c0,0,0.1,0.1,0.1,0.1c0,0,0,0.1,0,0.1v1.5
		c0.3-0.4,0.5-0.7,0.7-0.9s0.4-0.4,0.6-0.6c0.2-0.1,0.4-0.2,0.6-0.3c0.2,0,0.4-0.1,0.6-0.1c0.1,0,0.2,0,0.3,0c0.1,0,0.2,0,0.4,0.1
		c0.1,0,0.3,0.1,0.4,0.1c0.1,0,0.2,0.1,0.2,0.1c0,0,0.1,0.1,0.1,0.1c0,0,0,0.1,0,0.1c0,0,0,0.1,0,0.2
		C1675.3,417.2,1675.3,417.3,1675.3,417.4z"/>
	<path fill="#919191" d="M1682.4,423.7c0,0.4-0.1,0.8-0.2,1.2c-0.2,0.4-0.4,0.7-0.7,0.9c-0.3,0.2-0.7,0.4-1.1,0.6s-0.9,0.2-1.4,0.2
		c-0.3,0-0.6,0-0.9-0.1c-0.3-0.1-0.5-0.1-0.8-0.2c-0.2-0.1-0.4-0.2-0.6-0.3c-0.2-0.1-0.3-0.2-0.4-0.2s-0.1-0.2-0.2-0.3
		s-0.1-0.2-0.1-0.4c0-0.1,0-0.2,0-0.2c0-0.1,0-0.1,0.1-0.2s0-0.1,0.1-0.1c0,0,0.1,0,0.1,0c0.1,0,0.2,0,0.3,0.1
		c0.1,0.1,0.3,0.2,0.5,0.3c0.2,0.1,0.5,0.2,0.8,0.3c0.3,0.1,0.6,0.1,1,0.1c0.3,0,0.6,0,0.9-0.1c0.3-0.1,0.5-0.2,0.7-0.3
		s0.3-0.3,0.4-0.5c0.1-0.2,0.2-0.5,0.2-0.8s-0.1-0.5-0.2-0.7s-0.3-0.4-0.5-0.5c-0.2-0.1-0.5-0.3-0.8-0.4c-0.3-0.1-0.6-0.2-0.9-0.3
		c-0.3-0.1-0.6-0.3-0.9-0.4c-0.3-0.1-0.5-0.3-0.8-0.5c-0.2-0.2-0.4-0.5-0.5-0.7s-0.2-0.6-0.2-1c0-0.3,0.1-0.6,0.2-0.9
		c0.1-0.3,0.3-0.6,0.6-0.8c0.3-0.2,0.6-0.4,1-0.6c0.4-0.2,0.9-0.2,1.4-0.2c0.2,0,0.5,0,0.7,0.1c0.2,0,0.4,0.1,0.6,0.1
		c0.2,0.1,0.3,0.1,0.5,0.2c0.1,0.1,0.2,0.1,0.3,0.2c0.1,0.1,0.1,0.1,0.1,0.1c0,0,0,0.1,0.1,0.1c0,0,0,0.1,0,0.1c0,0.1,0,0.1,0,0.2
		s0,0.2,0,0.2c0,0.1,0,0.1,0,0.2s0,0.1-0.1,0.1c0,0-0.1,0-0.1,0c-0.1,0-0.1,0-0.2-0.1s-0.3-0.2-0.4-0.2s-0.4-0.2-0.6-0.2
		s-0.5-0.1-0.9-0.1c-0.3,0-0.6,0-0.8,0.1c-0.2,0.1-0.4,0.2-0.6,0.3s-0.3,0.3-0.4,0.5c-0.1,0.2-0.1,0.4-0.1,0.6
		c0,0.3,0.1,0.6,0.2,0.8s0.3,0.4,0.5,0.5c0.2,0.2,0.5,0.3,0.8,0.4s0.6,0.2,0.9,0.3c0.3,0.1,0.6,0.2,0.9,0.4c0.3,0.1,0.5,0.3,0.8,0.5
		s0.4,0.4,0.5,0.7C1682.4,423,1682.4,423.3,1682.4,423.7z"/>
	<path fill="#919191" d="M1692.6,426.2c0,0,0,0.1,0,0.1c0,0,0,0.1-0.1,0.1s-0.1,0-0.2,0.1c-0.1,0-0.2,0-0.3,0c-0.1,0-0.2,0-0.3,0
		c-0.1,0-0.1,0-0.2-0.1s-0.1,0-0.1-0.1c0,0,0-0.1,0-0.1v-1.3c-0.5,0.6-1.1,1-1.6,1.3c-0.5,0.3-1,0.4-1.5,0.4c-0.6,0-1.1-0.1-1.5-0.3
		s-0.8-0.5-1-0.8c-0.3-0.4-0.4-0.8-0.6-1.2c-0.1-0.5-0.2-1-0.2-1.7v-5.6c0,0,0-0.1,0-0.1c0,0,0-0.1,0.1-0.1c0,0,0.1,0,0.2-0.1
		c0.1,0,0.2,0,0.3,0c0.1,0,0.2,0,0.3,0c0.1,0,0.1,0,0.2,0.1c0,0,0.1,0.1,0.1,0.1c0,0,0,0.1,0,0.1v5.5c0,0.6,0,1,0.1,1.4
		c0.1,0.4,0.2,0.7,0.4,0.9c0.2,0.3,0.4,0.5,0.7,0.6c0.3,0.1,0.6,0.2,1,0.2c0.5,0,0.9-0.2,1.4-0.5c0.5-0.3,1-0.8,1.5-1.5v-6.7
		c0,0,0-0.1,0-0.1c0,0,0-0.1,0.1-0.1c0,0,0.1,0,0.2-0.1c0.1,0,0.2,0,0.3,0c0.1,0,0.2,0,0.3,0c0.1,0,0.1,0,0.2,0.1
		c0,0,0.1,0.1,0.1,0.1s0,0.1,0,0.1V426.2z"/>
	<path fill="#919191" d="M1697.4,413.8c0,0.3-0.1,0.6-0.2,0.7c-0.1,0.1-0.3,0.2-0.6,0.2c-0.3,0-0.5-0.1-0.6-0.2
		c-0.1-0.1-0.2-0.3-0.2-0.7s0.1-0.6,0.2-0.7s0.3-0.2,0.6-0.2c0.3,0,0.5,0.1,0.6,0.2C1697.4,413.2,1697.4,413.5,1697.4,413.8z
		 M1697.2,426.2c0,0,0,0.1,0,0.1c0,0-0.1,0.1-0.1,0.1c0,0-0.1,0-0.2,0.1c-0.1,0-0.2,0-0.3,0c-0.1,0-0.2,0-0.3,0
		c-0.1,0-0.1,0-0.2-0.1c0,0-0.1,0-0.1-0.1c0,0,0-0.1,0-0.1v-9.3c0,0,0-0.1,0-0.1c0,0,0-0.1,0.1-0.1c0,0,0.1,0,0.2-0.1
		c0.1,0,0.2,0,0.3,0c0.1,0,0.2,0,0.3,0c0.1,0,0.1,0,0.2,0.1c0,0,0.1,0.1,0.1,0.1c0,0,0,0.1,0,0.1V426.2z"/>
	<path fill="#919191" d="M1708.2,426.2c0,0,0,0.1,0,0.1s-0.1,0.1-0.1,0.1c0,0-0.1,0-0.2,0.1c-0.1,0-0.2,0-0.3,0c-0.1,0-0.2,0-0.3,0
		c-0.1,0-0.1,0-0.2-0.1c0,0-0.1,0-0.1-0.1c0,0,0-0.1,0-0.1v-5.5c0-0.6,0-1-0.1-1.4c-0.1-0.4-0.2-0.7-0.4-0.9
		c-0.2-0.3-0.4-0.5-0.7-0.6c-0.3-0.1-0.6-0.2-1-0.2c-0.5,0-0.9,0.2-1.4,0.5c-0.5,0.3-1,0.8-1.5,1.5v6.7c0,0,0,0.1,0,0.1
		c0,0-0.1,0.1-0.1,0.1c0,0-0.1,0-0.2,0.1c-0.1,0-0.2,0-0.3,0c-0.1,0-0.2,0-0.3,0c-0.1,0-0.1,0-0.2-0.1c0,0-0.1,0-0.1-0.1
		c0,0,0-0.1,0-0.1v-9.3c0,0,0-0.1,0-0.1c0,0,0-0.1,0.1-0.1c0,0,0.1,0,0.2-0.1c0.1,0,0.2,0,0.3,0s0.2,0,0.3,0c0.1,0,0.1,0,0.2,0.1
		c0,0,0.1,0.1,0.1,0.1c0,0,0,0.1,0,0.1v1.3c0.5-0.6,1.1-1,1.6-1.3c0.5-0.3,1-0.4,1.5-0.4c0.6,0,1.1,0.1,1.5,0.3s0.8,0.5,1,0.8
		c0.3,0.3,0.4,0.8,0.6,1.2c0.1,0.5,0.2,1,0.2,1.7V426.2z"/>
	<path fill="#919191" d="M1719,417.2c0,0.2,0,0.3-0.1,0.4c-0.1,0.1-0.1,0.1-0.2,0.1h-1.5c0.3,0.3,0.5,0.6,0.6,1
		c0.1,0.3,0.2,0.7,0.2,1.1c0,0.5-0.1,1-0.3,1.4c-0.2,0.4-0.4,0.8-0.7,1c-0.3,0.3-0.7,0.5-1.1,0.7c-0.4,0.2-0.9,0.2-1.4,0.2
		c-0.4,0-0.8-0.1-1.2-0.2s-0.7-0.3-0.9-0.4c-0.1,0.1-0.2,0.3-0.3,0.5c-0.1,0.2-0.1,0.4-0.1,0.6c0,0.3,0.1,0.5,0.4,0.7
		c0.2,0.2,0.6,0.3,1,0.3l2.5,0.1c0.4,0,0.8,0.1,1.2,0.2c0.4,0.1,0.7,0.3,1,0.5c0.3,0.2,0.5,0.4,0.7,0.7s0.2,0.6,0.2,1
		c0,0.4-0.1,0.8-0.3,1.2c-0.2,0.4-0.4,0.7-0.8,1c-0.4,0.3-0.8,0.5-1.3,0.7c-0.5,0.2-1.2,0.3-2,0.3c-0.7,0-1.3-0.1-1.9-0.2
		c-0.5-0.1-0.9-0.3-1.3-0.5c-0.3-0.2-0.6-0.5-0.7-0.8c-0.1-0.3-0.2-0.6-0.2-1c0-0.2,0-0.5,0.1-0.7c0.1-0.2,0.1-0.4,0.3-0.6
		c0.1-0.2,0.3-0.4,0.4-0.6c0.2-0.2,0.4-0.4,0.6-0.5c-0.3-0.2-0.6-0.4-0.8-0.6s-0.2-0.5-0.2-0.8c0-0.4,0.1-0.8,0.2-1.1
		c0.2-0.3,0.4-0.6,0.6-0.9c-0.2-0.3-0.4-0.5-0.5-0.9c-0.1-0.3-0.2-0.7-0.2-1.1c0-0.5,0.1-1,0.3-1.4c0.2-0.4,0.4-0.8,0.7-1.1
		c0.3-0.3,0.7-0.5,1.1-0.7c0.4-0.2,0.9-0.2,1.4-0.2c0.3,0,0.5,0,0.8,0c0.2,0,0.5,0.1,0.7,0.1h2.7c0.1,0,0.2,0,0.3,0.1
		C1719,416.9,1719,417.1,1719,417.2z M1717.7,427.1c0-0.5-0.2-0.8-0.5-1c-0.4-0.2-0.9-0.4-1.5-0.4l-2.7-0.1
		c-0.2,0.2-0.4,0.4-0.6,0.5s-0.3,0.3-0.4,0.5c-0.1,0.2-0.2,0.3-0.2,0.5c0,0.2-0.1,0.3-0.1,0.5c0,0.5,0.3,0.9,0.8,1.1
		c0.5,0.3,1.2,0.4,2.1,0.4c0.6,0,1.1-0.1,1.4-0.2c0.4-0.1,0.7-0.3,0.9-0.4c0.2-0.2,0.4-0.4,0.5-0.6
		C1717.6,427.6,1717.7,427.4,1717.7,427.1z M1716.7,419.8c0-0.7-0.2-1.3-0.6-1.7c-0.4-0.4-0.9-0.6-1.6-0.6c-0.4,0-0.7,0.1-1,0.2
		c-0.3,0.1-0.5,0.3-0.7,0.5s-0.3,0.5-0.4,0.7s-0.1,0.6-0.1,0.9c0,0.7,0.2,1.2,0.6,1.6c0.4,0.4,0.9,0.6,1.6,0.6c0.4,0,0.7-0.1,1-0.2
		c0.3-0.1,0.5-0.3,0.7-0.5c0.2-0.2,0.3-0.5,0.4-0.7C1716.7,420.4,1716.7,420.1,1716.7,419.8z"/>
	<path fill="#919191" d="M1733.7,426.2c0,0,0,0.1,0,0.1s-0.1,0.1-0.1,0.1c0,0-0.1,0-0.2,0.1c-0.1,0-0.2,0-0.3,0c-0.1,0-0.2,0-0.3,0
		c-0.1,0-0.1,0-0.2-0.1c0,0-0.1,0-0.1-0.1c0,0,0-0.1,0-0.1v-5.5c0-0.6,0-1-0.1-1.4c-0.1-0.4-0.2-0.7-0.4-0.9
		c-0.2-0.3-0.4-0.5-0.7-0.6c-0.3-0.1-0.6-0.2-1-0.2c-0.5,0-0.9,0.2-1.4,0.5c-0.5,0.3-1,0.8-1.5,1.5v6.7c0,0,0,0.1,0,0.1
		c0,0-0.1,0.1-0.1,0.1c0,0-0.1,0-0.2,0.1c-0.1,0-0.2,0-0.3,0c-0.1,0-0.2,0-0.3,0c-0.1,0-0.1,0-0.2-0.1c0,0-0.1,0-0.1-0.1
		c0,0,0-0.1,0-0.1v-13.8c0,0,0-0.1,0-0.1c0,0,0-0.1,0.1-0.1c0,0,0.1,0,0.2-0.1c0.1,0,0.2,0,0.3,0c0.1,0,0.2,0,0.3,0
		c0.1,0,0.1,0,0.2,0.1c0,0,0.1,0.1,0.1,0.1c0,0,0,0.1,0,0.1v5.8c0.5-0.6,1-1,1.5-1.2c0.5-0.3,1-0.4,1.5-0.4c0.6,0,1.1,0.1,1.5,0.3
		s0.8,0.5,1,0.8c0.3,0.3,0.4,0.8,0.6,1.2c0.1,0.5,0.2,1,0.2,1.7V426.2z"/>
	<path fill="#919191" d="M1738.5,413.8c0,0.3-0.1,0.6-0.2,0.7c-0.1,0.1-0.3,0.2-0.6,0.2c-0.3,0-0.5-0.1-0.6-0.2
		c-0.1-0.1-0.2-0.3-0.2-0.7s0.1-0.6,0.2-0.7s0.3-0.2,0.6-0.2c0.3,0,0.5,0.1,0.6,0.2C1738.4,413.2,1738.5,413.5,1738.5,413.8z
		 M1738.3,426.2c0,0,0,0.1,0,0.1c0,0-0.1,0.1-0.1,0.1c0,0-0.1,0-0.2,0.1c-0.1,0-0.2,0-0.3,0c-0.1,0-0.2,0-0.3,0
		c-0.1,0-0.1,0-0.2-0.1c0,0-0.1,0-0.1-0.1c0,0,0-0.1,0-0.1v-9.3c0,0,0-0.1,0-0.1c0,0,0-0.1,0.1-0.1c0,0,0.1,0,0.2-0.1
		c0.1,0,0.2,0,0.3,0c0.1,0,0.2,0,0.3,0c0.1,0,0.1,0,0.2,0.1c0,0,0.1,0.1,0.1,0.1c0,0,0,0.1,0,0.1V426.2z"/>
	<path fill="#919191" d="M1747.1,423.7c0,0.4-0.1,0.8-0.2,1.2c-0.2,0.4-0.4,0.7-0.7,0.9c-0.3,0.2-0.7,0.4-1.1,0.6s-0.9,0.2-1.4,0.2
		c-0.3,0-0.6,0-0.9-0.1c-0.3-0.1-0.5-0.1-0.8-0.2c-0.2-0.1-0.4-0.2-0.6-0.3c-0.2-0.1-0.3-0.2-0.4-0.2s-0.1-0.2-0.2-0.3
		s-0.1-0.2-0.1-0.4c0-0.1,0-0.2,0-0.2c0-0.1,0-0.1,0.1-0.2s0-0.1,0.1-0.1c0,0,0.1,0,0.1,0c0.1,0,0.2,0,0.3,0.1
		c0.1,0.1,0.3,0.2,0.5,0.3c0.2,0.1,0.5,0.2,0.8,0.3c0.3,0.1,0.6,0.1,1,0.1c0.3,0,0.6,0,0.9-0.1c0.3-0.1,0.5-0.2,0.7-0.3
		s0.3-0.3,0.4-0.5c0.1-0.2,0.2-0.5,0.2-0.8s-0.1-0.5-0.2-0.7s-0.3-0.4-0.5-0.5c-0.2-0.1-0.5-0.3-0.8-0.4c-0.3-0.1-0.6-0.2-0.9-0.3
		c-0.3-0.1-0.6-0.3-0.9-0.4c-0.3-0.1-0.5-0.3-0.8-0.5c-0.2-0.2-0.4-0.5-0.5-0.7s-0.2-0.6-0.2-1c0-0.3,0.1-0.6,0.2-0.9
		c0.1-0.3,0.3-0.6,0.6-0.8c0.3-0.2,0.6-0.4,1-0.6c0.4-0.2,0.9-0.2,1.4-0.2c0.2,0,0.5,0,0.7,0.1c0.2,0,0.4,0.1,0.6,0.1
		c0.2,0.1,0.3,0.1,0.5,0.2c0.1,0.1,0.2,0.1,0.3,0.2c0.1,0.1,0.1,0.1,0.1,0.1c0,0,0,0.1,0.1,0.1c0,0,0,0.1,0,0.1c0,0.1,0,0.1,0,0.2
		s0,0.2,0,0.2c0,0.1,0,0.1,0,0.2s0,0.1-0.1,0.1c0,0-0.1,0-0.1,0c-0.1,0-0.1,0-0.2-0.1s-0.3-0.2-0.4-0.2s-0.4-0.2-0.6-0.2
		s-0.5-0.1-0.9-0.1c-0.3,0-0.6,0-0.8,0.1c-0.2,0.1-0.4,0.2-0.6,0.3s-0.3,0.3-0.4,0.5c-0.1,0.2-0.1,0.4-0.1,0.6
		c0,0.3,0.1,0.6,0.2,0.8s0.3,0.4,0.5,0.5c0.2,0.2,0.5,0.3,0.8,0.4s0.6,0.2,0.9,0.3c0.3,0.1,0.6,0.2,0.9,0.4c0.3,0.1,0.5,0.3,0.8,0.5
		s0.4,0.4,0.5,0.7C1747.1,423,1747.1,423.3,1747.1,423.7z"/>
	<path fill="#919191" d="M1762,426.2c0,0,0,0.1,0,0.1c0,0,0,0.1-0.1,0.1c0,0-0.1,0-0.2,0c-0.1,0-0.2,0-0.3,0c-0.1,0-0.2,0-0.3,0
		c-0.1,0-0.1,0-0.2,0c0,0-0.1,0-0.1-0.1c0,0,0-0.1,0-0.1v-1.3c-0.5,0.5-1,1-1.5,1.3c-0.5,0.3-1.1,0.5-1.7,0.5
		c-0.7,0-1.2-0.1-1.7-0.4c-0.5-0.3-0.9-0.6-1.2-1.1c-0.3-0.4-0.5-1-0.7-1.6c-0.1-0.6-0.2-1.2-0.2-1.9c0-0.8,0.1-1.5,0.3-2.1
		c0.2-0.6,0.4-1.2,0.8-1.6s0.7-0.8,1.2-1s1.1-0.4,1.7-0.4c0.6,0,1.1,0.1,1.5,0.4c0.5,0.2,0.9,0.6,1.4,1.1v-5.6c0,0,0-0.1,0-0.1
		c0,0,0-0.1,0.1-0.1s0.1,0,0.2-0.1c0.1,0,0.2,0,0.3,0c0.1,0,0.2,0,0.3,0c0.1,0,0.1,0,0.2,0.1c0,0,0.1,0,0.1,0.1s0,0.1,0,0.1V426.2z
		 M1760.8,419.5c-0.5-0.6-1-1.1-1.5-1.4c-0.5-0.3-1-0.5-1.5-0.5c-0.5,0-0.9,0.1-1.2,0.3s-0.6,0.5-0.8,0.9s-0.4,0.8-0.5,1.3
		s-0.1,0.9-0.1,1.4c0,0.5,0,1,0.1,1.5s0.2,0.9,0.4,1.3c0.2,0.4,0.5,0.7,0.8,0.9c0.3,0.2,0.7,0.3,1.2,0.3c0.2,0,0.5,0,0.7-0.1
		c0.2-0.1,0.5-0.2,0.7-0.3s0.5-0.4,0.8-0.6c0.3-0.2,0.5-0.6,0.8-0.9V419.5z"/>
	<path fill="#919191" d="M1770.6,417.4c0,0.1,0,0.2,0,0.3c0,0.1,0,0.1,0,0.2c0,0,0,0.1-0.1,0.1c0,0-0.1,0-0.1,0c-0.1,0-0.1,0-0.2,0
		c-0.1,0-0.2-0.1-0.3-0.1s-0.2-0.1-0.4-0.1c-0.1,0-0.3,0-0.4,0c-0.2,0-0.4,0-0.5,0.1c-0.2,0.1-0.4,0.2-0.6,0.4
		c-0.2,0.2-0.4,0.4-0.6,0.7c-0.2,0.3-0.5,0.6-0.7,1.1v6.3c0,0,0,0.1,0,0.1c0,0-0.1,0.1-0.1,0.1c0,0-0.1,0-0.2,0.1
		c-0.1,0-0.2,0-0.3,0c-0.1,0-0.2,0-0.3,0c-0.1,0-0.1,0-0.2-0.1c0,0-0.1,0-0.1-0.1c0,0,0-0.1,0-0.1v-9.3c0,0,0-0.1,0-0.1
		c0,0,0-0.1,0.1-0.1c0,0,0.1,0,0.2-0.1c0.1,0,0.2,0,0.3,0s0.2,0,0.3,0c0.1,0,0.1,0,0.2,0.1c0,0,0.1,0.1,0.1,0.1c0,0,0,0.1,0,0.1v1.5
		c0.3-0.4,0.5-0.7,0.7-0.9s0.4-0.4,0.6-0.6c0.2-0.1,0.4-0.2,0.6-0.3c0.2,0,0.4-0.1,0.6-0.1c0.1,0,0.2,0,0.3,0c0.1,0,0.2,0,0.4,0.1
		c0.1,0,0.3,0.1,0.4,0.1c0.1,0,0.2,0.1,0.2,0.1c0,0,0.1,0.1,0.1,0.1c0,0,0,0.1,0,0.1c0,0,0,0.1,0,0.2
		C1770.6,417.2,1770.6,417.3,1770.6,417.4z"/>
	<path fill="#919191" d="M1780,421.1c0,0.2-0.1,0.4-0.2,0.5c-0.1,0.1-0.3,0.1-0.4,0.1h-6.3c0,0.6,0.1,1.1,0.2,1.6
		c0.1,0.5,0.3,0.9,0.6,1.2c0.3,0.3,0.6,0.6,1,0.8s0.9,0.3,1.5,0.3c0.4,0,0.8,0,1.2-0.1s0.6-0.2,0.9-0.3c0.2-0.1,0.5-0.2,0.6-0.3
		c0.2-0.1,0.3-0.1,0.3-0.1c0,0,0.1,0,0.1,0s0.1,0.1,0.1,0.1c0,0,0,0.1,0,0.2c0,0.1,0,0.2,0,0.3c0,0,0,0.1,0,0.1c0,0,0,0.1,0,0.1
		c0,0,0,0.1,0,0.1s0,0.1-0.1,0.1s-0.1,0.1-0.3,0.2c-0.2,0.1-0.4,0.2-0.7,0.3c-0.3,0.1-0.6,0.2-1,0.2c-0.4,0.1-0.8,0.1-1.2,0.1
		c-0.7,0-1.4-0.1-1.9-0.3c-0.6-0.2-1-0.5-1.4-1c-0.4-0.4-0.7-0.9-0.9-1.6c-0.2-0.6-0.3-1.3-0.3-2.2c0-0.8,0.1-1.5,0.3-2.1
		c0.2-0.6,0.5-1.2,0.9-1.6c0.4-0.4,0.8-0.8,1.4-1c0.5-0.2,1.1-0.3,1.8-0.3c0.7,0,1.3,0.1,1.8,0.3s0.9,0.5,1.2,0.9
		c0.3,0.4,0.5,0.8,0.7,1.4c0.1,0.5,0.2,1.1,0.2,1.6V421.1z M1778.7,420.7c0-1-0.2-1.8-0.7-2.3s-1.2-0.8-2.1-0.8
		c-0.5,0-0.9,0.1-1.2,0.3c-0.4,0.2-0.6,0.4-0.9,0.7c-0.2,0.3-0.4,0.6-0.6,1c-0.1,0.4-0.2,0.8-0.2,1.2H1778.7z"/>
	<path fill="#919191" d="M1789.3,426.2c0,0.1,0,0.1-0.1,0.2c0,0-0.1,0.1-0.2,0.1c-0.1,0-0.2,0-0.3,0c-0.1,0-0.2,0-0.3,0
		c-0.1,0-0.1,0-0.2-0.1c0,0-0.1-0.1-0.1-0.2v-1c-0.4,0.5-0.9,0.8-1.4,1c-0.5,0.2-1,0.4-1.6,0.4c-0.5,0-0.9-0.1-1.3-0.2
		c-0.4-0.1-0.7-0.3-1-0.5c-0.3-0.2-0.5-0.5-0.6-0.9c-0.1-0.3-0.2-0.7-0.2-1.1c0-0.5,0.1-1,0.3-1.3c0.2-0.4,0.5-0.7,0.9-0.9
		c0.4-0.3,0.9-0.4,1.4-0.6c0.5-0.1,1.2-0.2,1.8-0.2h1.5V420c0-0.4,0-0.7-0.1-1.1c-0.1-0.3-0.2-0.6-0.4-0.8c-0.2-0.2-0.4-0.4-0.7-0.5
		s-0.7-0.2-1.1-0.2c-0.4,0-0.8,0-1.1,0.1c-0.3,0.1-0.6,0.2-0.9,0.3s-0.4,0.2-0.6,0.3c-0.2,0.1-0.3,0.1-0.3,0.1c0,0-0.1,0-0.1,0
		s-0.1,0-0.1-0.1c0,0,0-0.1-0.1-0.1c0-0.1,0-0.1,0-0.2c0-0.1,0-0.3,0-0.3c0-0.1,0.1-0.2,0.2-0.3c0.1-0.1,0.2-0.2,0.5-0.3
		s0.5-0.2,0.8-0.3c0.3-0.1,0.6-0.2,0.9-0.2s0.7-0.1,1-0.1c0.6,0,1.2,0.1,1.6,0.2c0.4,0.2,0.8,0.4,1.1,0.7c0.3,0.3,0.5,0.6,0.6,1.1
		c0.1,0.4,0.2,0.9,0.2,1.4V426.2z M1788.1,421.8h-1.7c-0.5,0-0.9,0-1.3,0.1s-0.7,0.2-0.9,0.4s-0.4,0.4-0.5,0.6
		c-0.1,0.2-0.2,0.5-0.2,0.8c0,0.5,0.2,1,0.5,1.3c0.3,0.3,0.8,0.5,1.4,0.5c0.5,0,0.9-0.1,1.4-0.4c0.4-0.2,0.9-0.6,1.3-1.2V421.8z"/>
	<path fill="#919191" d="M1805.9,426.2c0,0,0,0.1,0,0.1s-0.1,0.1-0.1,0.1c0,0-0.1,0-0.2,0.1c-0.1,0-0.2,0-0.3,0c-0.1,0-0.2,0-0.3,0
		c-0.1,0-0.1,0-0.2-0.1s-0.1,0-0.1-0.1c0,0,0-0.1,0-0.1v-5.7c0-0.4,0-0.8-0.1-1.2c-0.1-0.4-0.2-0.7-0.4-0.9
		c-0.2-0.3-0.4-0.5-0.6-0.6c-0.3-0.1-0.6-0.2-0.9-0.2c-0.4,0-0.9,0.2-1.3,0.5c-0.4,0.3-0.9,0.8-1.5,1.5v6.7c0,0,0,0.1,0,0.1
		s-0.1,0.1-0.1,0.1c0,0-0.1,0-0.2,0.1c-0.1,0-0.2,0-0.3,0s-0.2,0-0.3,0c-0.1,0-0.1,0-0.2-0.1s-0.1,0-0.1-0.1c0,0,0-0.1,0-0.1v-5.7
		c0-0.4,0-0.8-0.1-1.2c-0.1-0.4-0.2-0.7-0.4-0.9c-0.2-0.3-0.4-0.5-0.6-0.6c-0.3-0.1-0.6-0.2-0.9-0.2c-0.4,0-0.9,0.2-1.3,0.5
		c-0.4,0.3-0.9,0.8-1.4,1.5v6.7c0,0,0,0.1,0,0.1c0,0-0.1,0.1-0.1,0.1c0,0-0.1,0-0.2,0.1c-0.1,0-0.2,0-0.3,0c-0.1,0-0.2,0-0.3,0
		c-0.1,0-0.1,0-0.2-0.1c0,0-0.1,0-0.1-0.1c0,0,0-0.1,0-0.1v-9.3c0,0,0-0.1,0-0.1c0,0,0-0.1,0.1-0.1c0,0,0.1,0,0.2-0.1
		c0.1,0,0.2,0,0.3,0s0.2,0,0.3,0c0.1,0,0.1,0,0.2,0.1c0,0,0.1,0.1,0.1,0.1c0,0,0,0.1,0,0.1v1.3c0.5-0.6,1-1,1.5-1.3s1-0.4,1.4-0.4
		c0.4,0,0.7,0,1,0.1c0.3,0.1,0.6,0.2,0.8,0.4c0.2,0.2,0.4,0.4,0.6,0.6s0.3,0.5,0.4,0.8c0.3-0.4,0.6-0.7,0.9-0.9
		c0.3-0.2,0.6-0.4,0.8-0.6c0.3-0.1,0.5-0.3,0.7-0.3c0.2-0.1,0.5-0.1,0.7-0.1c0.6,0,1.1,0.1,1.5,0.3c0.4,0.2,0.7,0.5,1,0.8
		c0.2,0.3,0.4,0.8,0.5,1.2c0.1,0.5,0.2,1,0.2,1.5V426.2z"/>
	<path fill="#919191" d="M1811,425.5c0,0.4-0.1,0.7-0.2,0.8s-0.4,0.2-0.7,0.2c-0.3,0-0.5-0.1-0.7-0.2c-0.1-0.1-0.2-0.4-0.2-0.8
		c0-0.4,0.1-0.7,0.2-0.8s0.4-0.2,0.7-0.2c0.3,0,0.5,0.1,0.7,0.2C1810.9,424.8,1811,425.1,1811,425.5z"/>
</g>
<rect x="1303.3" y="870.4" fill="none" width="531.2" height="59.7"/>
<g enable-background="new    ">
	<g>
		<path fill="#1B264C" d="M1421,362.5l3.5-20h11l-0.4,2.2h-8.2l-1.2,7h7.9l-0.4,2.2h-7.9l-1.5,8.6
			C1423.8,362.5,1421,362.5,1421,362.5z"/>
	</g>
	<g>
		<path fill="#1B264C" d="M1435.4,362.5l2.6-14.4h2.6l-2.5,14.4H1435.4z M1438.3,344c0-0.5,0.2-1,0.5-1.3c0.3-0.4,0.8-0.5,1.4-0.5
			c0.5,0,0.8,0.1,1.1,0.4c0.3,0.3,0.4,0.6,0.4,1c0,0.5-0.2,1-0.5,1.3c-0.4,0.4-0.8,0.5-1.4,0.5c-0.5,0-0.8-0.1-1.1-0.4
			C1438.4,344.8,1438.3,344.5,1438.3,344z"/>
	</g>
	<g>
		<path fill="#1B264C" d="M1442.5,362.5l3.7-21.2h2.6l-3.7,21.2H1442.5z"/>
	</g>
	<g>
		<path fill="#1B264C" d="M1461.4,362.5h-2.7l1.3-7.5c0.1-0.7,0.2-1.4,0.2-2c0-0.9-0.1-1.6-0.4-2.2c-0.3-0.6-0.8-0.9-1.5-0.9
			c-0.4,0-0.8,0.1-1.3,0.4c-0.4,0.3-0.8,0.6-1.2,1.1c-0.4,0.4-0.8,1-1.2,1.6c-0.4,0.6-0.7,1.2-1,1.8l-1.3,7.7h-2.6l2.6-14.4h2.5
			l-0.7,3.7c0.3-0.5,0.6-1,0.9-1.5c0.3-0.5,0.7-0.9,1.2-1.3c0.4-0.4,0.9-0.7,1.4-0.9c0.5-0.2,1-0.3,1.6-0.3c1.1,0,1.9,0.4,2.5,1.1
			c0.6,0.7,1,1.7,1.2,2.9c0.3-0.4,0.6-0.9,0.9-1.4s0.7-0.9,1.2-1.3c0.4-0.4,0.9-0.7,1.5-0.9c0.5-0.2,1.1-0.4,1.8-0.4
			c0.6,0,1.1,0.1,1.6,0.4s0.9,0.6,1.2,1c0.3,0.5,0.6,1,0.8,1.6s0.3,1.3,0.3,2c0,0.3,0,0.6,0,1c0,0.3-0.1,0.7-0.1,1l-1.3,7.7h-2.6
			l1.3-7.5c0.1-0.7,0.2-1.4,0.2-2c0-0.9-0.1-1.6-0.4-2.2c-0.3-0.6-0.8-0.9-1.5-0.9c-0.4,0-0.8,0.1-1.3,0.4c-0.4,0.3-0.8,0.6-1.2,1.1
			c-0.4,0.4-0.8,1-1.1,1.6c-0.4,0.6-0.7,1.2-1,1.8L1461.4,362.5z"/>
	</g>
	<g>
		<path fill="#1B264C" d="M1474.7,362.5l2.6-14.4h2.6l-2.5,14.4H1474.7z M1477.6,344c0-0.5,0.2-1,0.5-1.3c0.3-0.4,0.8-0.5,1.4-0.5
			c0.5,0,0.8,0.1,1.1,0.4s0.4,0.6,0.4,1c0,0.5-0.2,1-0.5,1.3c-0.4,0.4-0.8,0.5-1.4,0.5c-0.5,0-0.8-0.1-1.1-0.4
			C1477.7,344.8,1477.6,344.5,1477.6,344z"/>
	</g>
	<g>
		<path fill="#1B264C" d="M1481.9,362.5l2.5-14.4h2.5l-0.6,3.5c0.3-0.5,0.6-1,0.9-1.5s0.7-0.9,1.1-1.2c0.4-0.3,0.9-0.6,1.4-0.8
			c0.5-0.2,1.1-0.3,1.7-0.3c0.6,0,1.2,0.1,1.6,0.4c0.5,0.3,0.9,0.6,1.2,1c0.3,0.5,0.6,1,0.7,1.6s0.2,1.3,0.2,2c0,0.3,0,0.6,0,1
			c0,0.3-0.1,0.7-0.1,1l-1.4,7.7h-2.6l1.3-7.5c0.1-0.7,0.2-1.4,0.2-2c0-0.9-0.1-1.6-0.4-2.2s-0.8-0.9-1.5-0.9
			c-0.5,0-0.9,0.1-1.4,0.4c-0.4,0.3-0.9,0.6-1.3,1s-0.8,1-1.2,1.5c-0.4,0.6-0.7,1.2-1,1.8l-1.4,7.8L1481.9,362.5L1481.9,362.5z"/>
	</g>
	<g>
		<path fill="#1B264C" d="M1509.6,361.3c-0.4,2.5-1.2,4.4-2.4,5.7c-1.2,1.3-2.8,2-4.9,2c-0.9,0-1.8-0.1-2.6-0.3
			c-0.8-0.2-1.7-0.5-2.5-0.9l0.6-2.1c0.7,0.3,1.3,0.6,2.1,0.8c0.7,0.2,1.4,0.3,2.2,0.3c1.4,0,2.5-0.5,3.3-1.5s1.3-2.3,1.6-4.1
			l0.7-3.7c-0.3,0.6-0.6,1.2-1,1.7c-0.4,0.6-0.8,1.1-1.3,1.5c-0.5,0.4-1,0.8-1.5,1.1c-0.5,0.3-1.1,0.4-1.7,0.4
			c-0.7,0-1.3-0.1-1.8-0.4c-0.5-0.3-0.9-0.6-1.2-1.1c-0.3-0.4-0.5-0.9-0.6-1.5c-0.1-0.5-0.2-1.1-0.2-1.7c0-1.3,0.2-2.6,0.6-3.8
			s0.9-2.2,1.6-3.1s1.6-1.6,2.7-2.1c1-0.5,2.3-0.8,3.6-0.8c1,0,1.9,0.1,2.7,0.3c0.8,0.2,1.6,0.5,2.2,0.8L1509.6,361.3z
			 M1502.6,360.1c0.5,0,1-0.2,1.5-0.5c0.5-0.3,1-0.8,1.5-1.4s0.9-1.3,1.4-2c0.4-0.8,0.9-1.6,1.3-2.4l0.6-3.6
			c-0.3-0.1-0.7-0.2-1.1-0.3c-0.4-0.1-0.8-0.1-1.3-0.1c-0.9,0-1.7,0.2-2.4,0.7c-0.7,0.5-1.3,1.1-1.8,1.8c-0.5,0.7-0.8,1.6-1.1,2.5
			c-0.2,0.9-0.4,1.9-0.4,2.8c0,0.7,0.1,1.3,0.4,1.8C1501.6,359.9,1502,360.1,1502.6,360.1z"/>
	</g>
	<g>
		<path fill="#1B264C" d="M1524.3,341.5l2,1l-11.6,23l-2-1L1524.3,341.5z"/>
	</g>
	<g>
		<path fill="#1B264C" d="M1530.3,342.5h10.9l-0.4,2.2h-8.2l-1.2,6.5h7.8l-0.4,2.2h-7.8l-1.2,6.9h8.3l-0.4,2.2h-11L1530.3,342.5z"/>
	</g>
	<g>
		<path fill="#1B264C" d="M1553,362.5h-2.5l0.7-4c-0.3,0.5-0.6,1-1,1.5s-0.8,1-1.3,1.4c-0.5,0.4-1,0.7-1.5,1
			c-0.6,0.3-1.1,0.4-1.7,0.4c-0.7,0-1.3-0.1-1.8-0.4c-0.5-0.3-0.9-0.7-1.2-1.1c-0.3-0.5-0.5-1-0.7-1.6c-0.1-0.6-0.2-1.3-0.2-2
			c0-1.1,0.2-2.3,0.5-3.5c0.3-1.2,0.9-2.2,1.6-3.1c0.7-0.9,1.5-1.7,2.6-2.3c1.1-0.6,2.2-0.9,3.6-0.9c1.2,0,2.1,0.2,2.9,0.5l1.2-7
			h2.6L1553,362.5z M1546.3,360.7c0.5,0,1-0.2,1.5-0.5c0.5-0.4,1-0.8,1.5-1.3c0.5-0.5,0.9-1.2,1.3-1.8c0.4-0.7,0.8-1.4,1.1-2
			l0.8-4.8c-0.3-0.1-0.7-0.2-1.1-0.3c-0.5-0.1-0.9-0.1-1.3-0.1c-1,0-1.8,0.2-2.5,0.7c-0.7,0.5-1.3,1-1.8,1.8
			c-0.5,0.7-0.9,1.6-1.1,2.5c-0.2,0.9-0.4,1.8-0.4,2.7c0,0.4,0,0.8,0.1,1.2c0.1,0.4,0.2,0.7,0.3,1s0.3,0.5,0.6,0.7
			C1545.6,360.7,1545.9,360.7,1546.3,360.7z"/>
	</g>
	<g>
		<path fill="#1B264C" d="M1557.5,362.5l2.6-14.4h2.6l-2.5,14.4H1557.5z M1560.4,344c0-0.5,0.2-1,0.5-1.3c0.3-0.4,0.8-0.5,1.4-0.5
			c0.5,0,0.8,0.1,1.1,0.4c0.3,0.3,0.4,0.6,0.4,1c0,0.5-0.2,1-0.5,1.3c-0.4,0.4-0.8,0.5-1.4,0.5c-0.5,0-0.8-0.1-1.1-0.4
			C1560.5,344.8,1560.4,344.5,1560.4,344z"/>
	</g>
	<g>
		<path fill="#1B264C" d="M1565.4,348.1h2.6l0.7-3.8h2.6l-0.7,3.8h4.6l-0.4,2.1h-4.6l-1.4,7.8c-0.1,0.4-0.1,0.7-0.1,0.9
			c0,0.6,0.1,1,0.4,1.3s0.7,0.4,1.3,0.4c0.5,0,1-0.1,1.5-0.2s1-0.2,1.4-0.4l0.2,1.9c-0.4,0.2-1,0.4-1.6,0.6
			c-0.6,0.1-1.3,0.2-1.9,0.2c-1.3,0-2.2-0.3-2.9-1c-0.7-0.6-1-1.6-1-2.7c0-0.2,0-0.4,0-0.6s0-0.4,0.1-0.6l1.3-7.6h-2.6L1565.4,348.1
			z"/>
	</g>
	<g>
		<path fill="#1B264C" d="M1575.9,362.5l2.6-14.4h2.6l-2.5,14.4H1575.9z M1578.8,344c0-0.5,0.2-1,0.5-1.3c0.3-0.4,0.8-0.5,1.4-0.5
			c0.5,0,0.8,0.1,1.1,0.4s0.4,0.6,0.4,1c0,0.5-0.2,1-0.5,1.3c-0.4,0.4-0.8,0.5-1.4,0.5c-0.5,0-0.8-0.1-1.1-0.4
			C1578.9,344.8,1578.8,344.5,1578.8,344z"/>
	</g>
	<g>
		<path fill="#1B264C" d="M1583.1,362.5l2.5-14.4h2.5l-0.6,3.5c0.3-0.5,0.6-1,0.9-1.5s0.7-0.9,1.1-1.2c0.4-0.3,0.9-0.6,1.4-0.8
			c0.5-0.2,1.1-0.3,1.7-0.3c0.6,0,1.2,0.1,1.6,0.4c0.5,0.3,0.9,0.6,1.2,1c0.3,0.5,0.6,1,0.7,1.6s0.2,1.3,0.2,2c0,0.3,0,0.6,0,1
			c0,0.3-0.1,0.7-0.1,1l-1.4,7.7h-2.6l1.3-7.5c0.1-0.7,0.2-1.4,0.2-2c0-0.9-0.1-1.6-0.4-2.2s-0.8-0.9-1.5-0.9
			c-0.5,0-0.9,0.1-1.4,0.4c-0.4,0.3-0.9,0.6-1.3,1s-0.8,1-1.2,1.5c-0.4,0.6-0.7,1.2-1,1.8l-1.4,7.8L1583.1,362.5L1583.1,362.5z"/>
	</g>
	<g>
		<path fill="#1B264C" d="M1610.8,361.3c-0.4,2.5-1.2,4.4-2.4,5.7c-1.2,1.3-2.8,2-4.9,2c-0.9,0-1.8-0.1-2.6-0.3
			c-0.8-0.2-1.7-0.5-2.5-0.9l0.6-2.1c0.7,0.3,1.3,0.6,2.1,0.8c0.7,0.2,1.4,0.3,2.2,0.3c1.4,0,2.5-0.5,3.3-1.5s1.3-2.3,1.6-4.1
			l0.7-3.7c-0.3,0.6-0.6,1.2-1,1.7c-0.4,0.6-0.8,1.1-1.3,1.5c-0.5,0.4-1,0.8-1.5,1.1c-0.5,0.3-1.1,0.4-1.7,0.4
			c-0.7,0-1.3-0.1-1.8-0.4c-0.5-0.3-0.9-0.6-1.2-1.1c-0.3-0.4-0.5-0.9-0.6-1.5c-0.1-0.5-0.2-1.1-0.2-1.7c0-1.3,0.2-2.6,0.6-3.8
			s0.9-2.2,1.6-3.1s1.6-1.6,2.7-2.1c1-0.5,2.3-0.8,3.6-0.8c1,0,1.9,0.1,2.7,0.3c0.8,0.2,1.6,0.5,2.2,0.8L1610.8,361.3z
			 M1603.8,360.1c0.5,0,1-0.2,1.5-0.5c0.5-0.3,1-0.8,1.5-1.4s0.9-1.3,1.4-2c0.4-0.8,0.9-1.6,1.3-2.4l0.6-3.6
			c-0.3-0.1-0.7-0.2-1.1-0.3c-0.4-0.1-0.8-0.1-1.3-0.1c-0.9,0-1.7,0.2-2.4,0.7c-0.7,0.5-1.3,1.1-1.8,1.8c-0.5,0.7-0.8,1.6-1.1,2.5
			c-0.2,0.9-0.4,1.9-0.4,2.8c0,0.7,0.1,1.3,0.4,1.8C1602.8,359.9,1603.2,360.1,1603.8,360.1z"/>
	</g>
</g>
<g>
	<rect x="1417.9" y="291.5" fill="#15FFA5" width="433.1" height="30.7"/>
</g>
<g enable-background="new    ">
	<g>
		<g>
			<path fill="#1B264C" d="M1421,322.2v-35h6.6v35H1421z"/>
		</g>
	</g>
	<g>
		<g>
			<path fill="#1B264C" d="M1451.4,322.2v-12.9c0-3.8-2-6.6-6-6.6c-3.8,0-6.3,3.2-6.3,6.9v12.6h-6v-24.7h5.5l0.4,3.3
				c2.5-2.5,5-3.7,8.1-3.7c5.8,0,10.5,4.4,10.5,12.1v13C1457.6,322.2,1451.4,322.2,1451.4,322.2z"/>
		</g>
	</g>
	<g>
		<g>
			<path fill="#1B264C" d="M1470.2,290.6v7h6.8v5.2h-6.9v10.7c0,2.3,1.3,3.5,3.2,3.5c1,0,2-0.3,3-0.8l1.7,5.2c-1.8,0.7-3.2,1-5.1,1
				c-5.3,0.2-8.8-2.8-8.8-9v-10.7h-4.6v-5.2h4.6v-6.3L1470.2,290.6z"/>
		</g>
	</g>
	<g>
		<g>
			<path fill="#1B264C" d="M1486.8,312c0.4,3,3.1,5.2,7.4,5.2c2.2,0,5.2-0.8,6.6-2.3l3.9,3.8c-2.6,2.7-6.9,4-10.6,4
				c-8.5,0-13.6-5.3-13.6-13.2c0-7.5,5.1-12.9,13.1-12.9c8.3,0,13.4,5.1,12.5,15.3L1486.8,312L1486.8,312z M1500.2,307
				c-0.4-3.2-2.9-4.8-6.4-4.8c-3.3,0-6,1.6-6.9,4.8H1500.2z"/>
		</g>
	</g>
	<g>
		<g>
			<path fill="#1B264C" d="M1516.4,297.5l0.5,2.8c1.9-3,4.5-3.5,7-3.5c2.6,0,5,1,6.4,2.4l-2.8,5.3c-1.2-1-2.4-1.6-4.4-1.6
				c-3.2,0-6.2,1.7-6.2,6.2v13h-6.1v-24.7L1516.4,297.5L1516.4,297.5z"/>
		</g>
	</g>
	<g>
		<g>
			<path fill="#1B264C" d="M1559.5,297.5l-10.5,24.8h-6.6l-10.6-24.8h6.7l3.4,8.2l3.8,10.4l3.8-10.3l3.4-8.2L1559.5,297.5
				L1559.5,297.5z"/>
		</g>
	</g>
	<g>
		<g>
			<path fill="#1B264C" d="M1569.1,290.6c0,4.8-7.2,4.8-7.2,0C1561.9,285.8,1569.1,285.8,1569.1,290.6z M1562.5,297.4v24.8h6.1
				v-24.8H1562.5z"/>
		</g>
	</g>
	<g>
		<g>
			<path fill="#1B264C" d="M1579.2,312c0.4,3,3.1,5.2,7.4,5.2c2.2,0,5.2-0.8,6.6-2.3l3.9,3.8c-2.6,2.7-6.9,4-10.6,4
				c-8.5,0-13.6-5.3-13.6-13.2c0-7.5,5.1-12.9,13.1-12.9c8.3,0,13.4,5.1,12.5,15.3L1579.2,312L1579.2,312z M1592.6,307
				c-0.4-3.2-2.9-4.8-6.4-4.8c-3.3,0-6,1.6-6.9,4.8H1592.6z"/>
		</g>
	</g>
	<g>
		<g>
			<path fill="#1B264C" d="M1624.8,297.5l5.4,18.6l5.7-18.6h6.8l-8.6,24.8h-7.1l-2.5-7.3l-2.2-8.3l-2.2,8.3l-2.5,7.3h-7.1l-8.7-24.8
				h6.8l5.7,18.6l5.4-18.6H1624.8z"/>
		</g>
	</g>
	<g>
		<g>
			<path fill="#1B264C" d="M1682.2,309.9c0,7.1-4.8,12.9-12.9,12.9c-8,0-12.8-5.8-12.8-12.9s4.9-12.9,12.8-12.9
				S1682.2,302.8,1682.2,309.9z M1662.8,309.9c0,3.8,2.2,7.2,6.7,7.2s6.7-3.5,6.7-7.2c0-3.7-2.6-7.3-6.7-7.3
				C1665.1,302.6,1662.8,306.2,1662.8,309.9z"/>
		</g>
	</g>
	<g>
		<g>
			<path fill="#1B264C" d="M1688.4,322.2v-19h-4.6v-5.4h4.6v-1.6c0-6.6,4.5-9.7,9.4-9.7c2.1,0,4.4,0.7,6.4,2l-2.2,4.5
				c-1.3-0.8-2.5-1.3-3.8-1.3c-2.1,0-3.7,1.4-3.7,4.4v1.6h7.3v5.4h-7.3v19L1688.4,322.2L1688.4,322.2z"/>
		</g>
	</g>
	<g>
		<g>
			<path fill="#1B264C" d="M1738.7,295.6c-1.2-2-4.5-3.9-8.3-3.9c-4.9,0-7.3,2.1-7.3,4.7c0,3.1,3.6,3.9,7.8,4.4
				c7.3,0.9,14.1,2.8,14.1,11.2c0,7.8-6.9,11.2-14.7,11.2c-7.2,0-12.7-2.2-15.3-8.6l5.5-2.9c1.5,3.9,5.6,5.6,9.9,5.6
				c4.2,0,8.1-1.5,8.1-5.3c0-3.3-3.5-4.7-8.1-5.2c-7.2-0.8-13.8-2.8-13.8-10.6c0-7.2,7.1-10.2,13.6-10.2c5.5,0,11.1,1.5,13.8,7
				L1738.7,295.6z"/>
		</g>
	</g>
	<g>
		<g>
			<path fill="#1B264C" d="M1756.4,290.6c0,4.8-7.2,4.8-7.2,0C1749.2,285.8,1756.4,285.8,1756.4,290.6z M1749.7,297.4v24.8h6.1
				v-24.8H1749.7z"/>
		</g>
	</g>
	<g>
		<g>
			<path fill="#1B264C" d="M1767.6,297.5v12.9c0,3.8,2,6.6,6,6.6c3.8,0,6.3-3.2,6.3-6.9v-12.6h6v24.7h-5.5l-0.4-3.3
				c-2.5,2.5-4.9,3.7-8.4,3.7c-5.9,0-10.2-4.5-10.2-12.1v-13C1761.4,297.5,1767.6,297.5,1767.6,297.5z"/>
		</g>
	</g>
	<g>
		<g>
			<path fill="#1B264C" d="M1816,297.5l-15.1,35h-6.7l4.6-10.7l-9.9-24.3h7.1l3.8,10.7l2.4,7l2.5-6.8l4.5-10.8L1816,297.5
				L1816,297.5z"/>
		</g>
	</g>
	<g>
		<g>
			<path fill="#1B264C" d="M1825.5,297.5v12.9c0,3.8,2,6.6,6,6.6c3.8,0,6.3-3.2,6.3-6.9v-12.6h6v24.7h-5.5l-0.4-3.3
				c-2.5,2.5-4.9,3.7-8.4,3.7c-5.9,0-10.2-4.5-10.2-12.1v-13C1819.3,297.5,1825.5,297.5,1825.5,297.5z"/>
		</g>
	</g>
</g>
<g>
	<rect x="1377" y="384.5" fill="#AFAFAF" width="537.9" height="1"/>
</g>
<g>
	<rect x="1378.5" fill="#AFAFAF" width="1" height="1080"/>
</g>
</svg>
