<?xml version="1.0" encoding="utf-8"?>
<!-- Generator: Adobe Illustrator 17.1.0, SVG Export Plug-In . SVG Version: 6.00 Build 0)  -->
<!DOCTYPE svg PUBLIC "-//W3C//DTD SVG 1.1//EN" "http://www.w3.org/Graphics/SVG/1.1/DTD/svg11.dtd">
<svg version="1.1" id="Layer_1" xmlns="http://www.w3.org/2000/svg" xmlns:xlink="http://www.w3.org/1999/xlink" x="0px" y="0px"
	 viewBox="0 0 1920 4265" enable-background="new 0 0 1920 4265" xml:space="preserve">
<g display="none">
	<path display="inline" fill="#15FFA5" d="M1653.9,42c0,19-28.8,19-28.8,0C1625.1,23,1653.9,23,1653.9,42z M1627.3,69.4v99h24.4v-99
		H1627.3z"/>
	<path display="inline" fill="#15FFA5" d="M1686.3,69.8l1.8,11.4c7.6-12.2,17.8-14,27.8-14c10.2,0,20,4,25.4,9.4l-11,21.2
		c-5-4.2-9.6-6.4-17.6-6.4c-12.8,0-24.6,6.8-24.6,25v52h-24.4V69.8H1686.3z"/>
	<path display="inline" fill="#15FFA5" d="M1761.3,127.8c1.6,12.2,12.2,21,29.4,21c9,0,20.8-3.4,26.4-9.2l15.6,15.4
		c-10.4,10.8-27.4,16-42.4,16c-34,0-54.2-21-54.2-52.6c0-30,20.4-51.6,52.4-51.6c33,0,53.6,20.4,49.8,61H1761.3z M1814.9,107.6
		c-1.6-12.8-11.6-19.2-25.6-19.2c-13.2,0-24,6.4-27.6,19.2H1814.9z"/>
	<path display="inline" fill="#15FFA5" d="M1919.7,168.4v-51.6c0-15-8.2-26.4-23.8-26.4c-15,0-25.2,12.6-25.2,27.6v50.4h-24.2V69.6
		h21.8l1.6,13.4c10-9.8,20-14.8,32.4-14.8c23.2,0,41.8,17.4,41.8,48.4v51.8H1919.7z"/>
</g>
<g>
	<path fill="#1B264C" d="M1428.8,351.6h-2.2l-4.1-12.8l-3.7,16.6h-1.9l4.5-19.9h1.8l4.7,14.4l9.5-14.4h2l-2.5,19.9h-1.9l2-16.4
		L1428.8,351.6z"/>
	<path fill="#1B264C" d="M1454.6,346.6c0,1.1-0.2,2.1-0.5,3.2c-0.3,1.1-0.8,2.1-1.5,2.9s-1.5,1.6-2.4,2.1c-1,0.5-2,0.8-3.3,0.8
		c-0.9,0-1.7-0.1-2.3-0.5c-0.7-0.3-1.2-0.7-1.7-1.2s-0.8-1.1-1-1.8c-0.2-0.7-0.3-1.4-0.3-2.2c0-1.1,0.2-2.2,0.5-3.3
		c0.3-1.1,0.8-2.1,1.5-2.9c0.6-0.9,1.4-1.6,2.4-2.1c0.9-0.5,2-0.8,3.3-0.8c0.9,0,1.7,0.2,2.4,0.5c0.7,0.3,1.2,0.7,1.7,1.3
		c0.5,0.5,0.8,1.1,1,1.8C1454.5,345.1,1454.6,345.8,1454.6,346.6z M1447.1,354.2c0.9,0,1.6-0.2,2.3-0.7c0.7-0.4,1.3-1,1.7-1.7
		c0.5-0.7,0.9-1.5,1.1-2.4c0.3-0.9,0.4-1.8,0.4-2.7c0-0.6-0.1-1.2-0.2-1.7c-0.1-0.5-0.4-1-0.7-1.4c-0.3-0.4-0.7-0.7-1.1-0.9
		c-0.5-0.2-1-0.3-1.6-0.3c-0.8,0-1.6,0.2-2.3,0.6c-0.7,0.4-1.2,1-1.7,1.7s-0.8,1.5-1.1,2.4c-0.3,0.9-0.4,1.8-0.4,2.8
		c0,0.6,0.1,1.2,0.2,1.7s0.3,1,0.6,1.4c0.3,0.4,0.6,0.7,1.1,0.9C1445.9,354.1,1446.5,354.2,1447.1,354.2z"/>
	<path fill="#1B264C" d="M1457.4,341.1h2.7l0.7-3.9h2l-0.7,3.9h4.7l-0.3,1.6h-4.7l-1.5,8.4c0,0.2-0.1,0.3-0.1,0.5c0,0.2,0,0.4,0,0.5
		c0,0.6,0.1,1.1,0.4,1.5c0.3,0.4,0.8,0.5,1.5,0.5c0.5,0,1-0.1,1.5-0.2s0.9-0.3,1.3-0.5l0.2,1.5c-0.4,0.2-0.9,0.4-1.5,0.5
		c-0.6,0.1-1.2,0.2-1.8,0.2c-1.2,0-2.2-0.3-2.7-0.9c-0.6-0.6-0.9-1.5-0.9-2.6c0-0.2,0-0.4,0-0.6c0-0.2,0-0.4,0.1-0.5l1.5-8.4h-2.7
		L1457.4,341.1z"/>
	<path fill="#1B264C" d="M1467.6,355.4l2.5-14.3h1.9l-2.5,14.3H1467.6z M1470.5,336.9c0-0.4,0.1-0.8,0.4-1.1
		c0.3-0.3,0.7-0.5,1.2-0.5c0.4,0,0.7,0.1,0.9,0.3c0.2,0.2,0.3,0.5,0.3,0.9s-0.1,0.8-0.5,1.1c-0.3,0.3-0.7,0.4-1.1,0.4
		s-0.7-0.1-0.9-0.3C1470.6,337.5,1470.5,337.2,1470.5,336.9z"/>
	<path fill="#1B264C" d="M1487.5,346.6c0,1.1-0.2,2.1-0.5,3.2c-0.3,1.1-0.8,2.1-1.5,2.9c-0.7,0.8-1.5,1.6-2.4,2.1
		c-1,0.5-2,0.8-3.3,0.8c-0.9,0-1.7-0.1-2.3-0.5c-0.7-0.3-1.2-0.7-1.7-1.2s-0.8-1.1-1-1.8c-0.2-0.7-0.3-1.4-0.3-2.2
		c0-1.1,0.2-2.2,0.5-3.3c0.3-1.1,0.8-2.1,1.5-2.9c0.6-0.9,1.4-1.6,2.4-2.1c0.9-0.5,2-0.8,3.3-0.8c0.9,0,1.7,0.2,2.4,0.5
		s1.2,0.7,1.7,1.3c0.5,0.5,0.8,1.1,1,1.8C1487.3,345.1,1487.5,345.8,1487.5,346.6z M1480,354.2c0.9,0,1.6-0.2,2.3-0.7
		c0.7-0.4,1.3-1,1.7-1.7c0.5-0.7,0.9-1.5,1.1-2.4c0.3-0.9,0.4-1.8,0.4-2.7c0-0.6-0.1-1.2-0.2-1.7c-0.1-0.5-0.4-1-0.7-1.4
		c-0.3-0.4-0.7-0.7-1.1-0.9c-0.5-0.2-1-0.3-1.6-0.3c-0.8,0-1.6,0.2-2.3,0.6c-0.7,0.4-1.2,1-1.7,1.7s-0.8,1.5-1.1,2.4
		c-0.3,0.9-0.4,1.8-0.4,2.8c0,0.6,0.1,1.2,0.2,1.7c0.1,0.5,0.3,1,0.6,1.4s0.6,0.7,1.1,0.9C1478.8,354.1,1479.3,354.2,1480,354.2z"/>
	<path fill="#1B264C" d="M1489.6,355.4l2.5-14.3h1.9l-0.7,4.1c0.3-0.6,0.6-1.1,1-1.6c0.4-0.5,0.8-1,1.2-1.4c0.5-0.4,1-0.7,1.5-1
		s1.2-0.4,1.8-0.4c0.6,0,1.2,0.1,1.6,0.4c0.5,0.2,0.8,0.6,1.1,1c0.3,0.4,0.5,0.9,0.7,1.5c0.1,0.6,0.2,1.2,0.2,1.9c0,0.3,0,0.7,0,1.1
		c0,0.4-0.1,0.8-0.2,1.2l-1.3,7.5h-2l1.3-7.3c0.1-0.8,0.2-1.5,0.2-2.3c0-1-0.2-1.8-0.5-2.4c-0.3-0.6-0.9-1-1.7-1
		c-0.5,0-1,0.2-1.5,0.5s-1,0.7-1.5,1.2c-0.5,0.5-0.9,1.1-1.3,1.8c-0.4,0.7-0.8,1.3-1.2,2l-1.3,7.5
		C1491.4,355.4,1489.6,355.4,1489.6,355.4z"/>
	<path fill="#1B264C" d="M1523.7,335.1c1.2,0,2.3,0.1,3.5,0.3s2.2,0.6,3.2,1.1l-0.5,1.6c-1.1-0.5-2.1-0.9-3.2-1.1
		c-1.1-0.2-2.1-0.3-3.1-0.3c-1.5,0-2.8,0.3-3.9,0.8c-1.2,0.5-2.1,1.2-2.9,2.1s-1.4,2-1.8,3.2c-0.4,1.2-0.6,2.5-0.6,3.9
		c0,2.4,0.7,4.2,2,5.5c1.3,1.3,3.2,2,5.8,2c0.6,0,1.3,0,1.9-0.1c0.6-0.1,1.2-0.2,1.8-0.3l1.2-6.8h1.9l-1.4,7.9
		c-0.4,0.1-0.8,0.2-1.2,0.3c-0.5,0.1-0.9,0.2-1.4,0.3s-1,0.1-1.5,0.2c-0.5,0-1,0.1-1.4,0.1c-1.5,0-2.8-0.2-4-0.7
		c-1.2-0.4-2.2-1.1-3-1.9c-0.8-0.8-1.4-1.7-1.8-2.9s-0.6-2.3-0.6-3.6c0-1.6,0.2-3.1,0.7-4.5s1.2-2.6,2.1-3.7c1-1.1,2.1-1.9,3.5-2.5
		C1520.2,335.4,1521.9,335.1,1523.7,335.1z"/>
	<path fill="#1B264C" d="M1540.9,342.8c-0.1,0-0.2,0-0.4,0c-1.3,0-2.3,0.5-3.2,1.4c-0.9,0.9-1.6,2.3-2.3,3.9l-1.3,7.3h-2l2.5-14.3
		h1.9l-0.8,4.5c0.2-0.6,0.4-1.2,0.7-1.8c0.3-0.5,0.6-1,1-1.4s0.8-0.7,1.3-1c0.5-0.2,1.1-0.4,1.7-0.4c0.1,0,0.3,0,0.5,0
		c0.2,0,0.3,0,0.4,0.1L1540.9,342.8z"/>
	<path fill="#1B264C" d="M1551.7,355.4h-1.9l1-5.6c-0.3,0.6-0.6,1.2-1,1.9c-0.4,0.7-0.8,1.3-1.3,1.9c-0.5,0.6-1,1.1-1.6,1.5
		s-1.2,0.6-1.9,0.6c-0.6,0-1.2-0.1-1.6-0.4c-0.4-0.3-0.8-0.6-1.1-1.1c-0.3-0.5-0.5-1-0.6-1.6s-0.2-1.2-0.2-1.9
		c0-1.3,0.2-2.5,0.5-3.7c0.3-1.2,0.9-2.2,1.6-3.2c0.7-0.9,1.5-1.7,2.6-2.2c1-0.6,2.2-0.8,3.6-0.8c0.8,0,1.6,0.1,2.4,0.2
		c0.8,0.2,1.5,0.4,2.1,0.6L1551.7,355.4z M1545.1,354.2c0.6,0,1.2-0.3,1.8-0.9c0.6-0.6,1.2-1.3,1.8-2.2c0.6-0.9,1.1-1.8,1.6-2.8
		c0.5-1,0.9-2,1.3-2.9l0.5-2.7c-0.7-0.2-1.5-0.3-2.4-0.3c-1,0-1.9,0.2-2.7,0.7c-0.8,0.5-1.4,1.1-2,1.8c-0.5,0.8-0.9,1.7-1.2,2.7
		c-0.3,1-0.4,2.1-0.4,3.1c0,0.5,0,0.9,0.1,1.3c0.1,0.4,0.2,0.8,0.3,1.1c0.1,0.3,0.3,0.6,0.5,0.8
		C1544.4,354.1,1544.7,354.2,1545.1,354.2z"/>
	<path fill="#1B264C" d="M1559,341.1h1.9l-0.8,4.5c0.3-0.6,0.7-1.2,1.1-1.7c0.4-0.6,0.8-1.1,1.3-1.5s1-0.8,1.6-1.1s1.2-0.4,1.9-0.4
		c0.6,0,1.1,0.1,1.6,0.4s0.9,0.6,1.2,1.1s0.5,1,0.7,1.6c0.2,0.6,0.2,1.3,0.2,1.9c0,1.3-0.2,2.5-0.5,3.7c-0.3,1.2-0.9,2.2-1.5,3.1
		s-1.5,1.6-2.5,2.2c-1,0.6-2.2,0.8-3.6,0.8c-0.5,0-1.1,0-1.6-0.1s-1-0.2-1.5-0.4l-1.1,6.4h-2L1559,341.1z M1565.6,342.4
		c-0.5,0-1.1,0.2-1.6,0.6c-0.6,0.4-1.1,0.9-1.6,1.5c-0.5,0.6-1,1.3-1.5,2.1s-0.9,1.5-1.3,2.3l-0.9,4.9c0.4,0.2,0.8,0.3,1.3,0.4
		s0.9,0.1,1.4,0.1c1.1,0,2-0.2,2.9-0.7c0.8-0.5,1.5-1.1,2-1.8c0.5-0.7,0.9-1.6,1.1-2.6c0.2-1,0.4-2,0.4-3c0-0.4,0-0.9-0.1-1.3
		s-0.2-0.8-0.4-1.2c-0.2-0.3-0.4-0.6-0.7-0.8C1566.3,342.5,1566,342.4,1565.6,342.4z"/>
	<path fill="#1B264C" d="M1571.9,355.4l3.7-21.1h2l-1.9,10.9c0.3-0.5,0.6-1.1,0.9-1.6c0.3-0.5,0.8-1,1.2-1.4c0.5-0.4,1-0.7,1.5-1
		c0.6-0.2,1.2-0.4,1.8-0.4c0.6,0,1.2,0.1,1.6,0.4c0.5,0.2,0.8,0.6,1.1,1c0.3,0.4,0.5,0.9,0.7,1.5c0.1,0.6,0.2,1.2,0.2,1.9
		c0,0.3,0,0.7,0,1.1s-0.1,0.8-0.2,1.2l-1.3,7.5h-2l1.3-7.3c0.1-0.8,0.2-1.5,0.2-2.3c0-1-0.2-1.8-0.5-2.4c-0.3-0.6-0.9-1-1.7-1
		c-0.5,0-1.1,0.2-1.6,0.5c-0.5,0.3-1,0.7-1.5,1.2s-0.9,1.1-1.3,1.8c-0.4,0.7-0.8,1.3-1.2,2l-1.3,7.5L1571.9,355.4L1571.9,355.4z"/>
	<path fill="#1B264C" d="M1587.8,355.4l2.5-14.3h1.9l-2.5,14.3H1587.8z M1590.7,336.9c0-0.4,0.1-0.8,0.4-1.1
		c0.3-0.3,0.7-0.5,1.2-0.5c0.4,0,0.7,0.1,0.9,0.3c0.2,0.2,0.3,0.5,0.3,0.9s-0.1,0.8-0.5,1.1c-0.3,0.3-0.7,0.4-1.1,0.4
		s-0.7-0.1-0.9-0.3C1590.8,337.5,1590.7,337.2,1590.7,336.9z"/>
	<path fill="#1B264C" d="M1602.2,340.8c1.5,0,2.8,0.3,3.8,0.9l-0.4,1.6c-0.6-0.3-1.1-0.5-1.6-0.7c-0.5-0.2-1.1-0.2-1.8-0.2
		c-0.9,0-1.7,0.2-2.4,0.6s-1.3,0.9-1.8,1.6c-0.5,0.7-0.8,1.5-1.1,2.4c-0.2,0.9-0.4,1.9-0.4,2.9c0,1.3,0.3,2.3,0.9,3.1
		c0.6,0.8,1.5,1.2,2.8,1.2c0.6,0,1.2-0.1,1.8-0.2c0.6-0.1,1.1-0.4,1.6-0.6l0.4,1.5c-0.6,0.3-1.2,0.5-1.9,0.7
		c-0.7,0.2-1.4,0.2-2.2,0.2c-1,0-1.8-0.2-2.5-0.5c-0.7-0.3-1.2-0.8-1.7-1.3s-0.8-1.2-1-1.9c-0.2-0.7-0.3-1.5-0.3-2.2
		c0-1.2,0.2-2.3,0.5-3.4c0.3-1.1,0.8-2,1.5-2.9c0.6-0.8,1.4-1.5,2.4-2C1599.9,341.1,1601,340.8,1602.2,340.8z"/>
</g>
<rect x="1414.4" y="284.8" fill="#15FFA5" width="193.6" height="30.6"/>
<text transform="matrix(1 0 0 1 1417 419.6436)" fill="#919191" font-family="'Calibri-Light'" font-size="22">A gif collection featuring desserts</text>
<text transform="matrix(1 0 0 1 1413.4619 315.3982)" fill="#1B264C" font-family="'NexaBold'" font-size="51">Sweets</text>
<line fill="none" stroke="#AFAFAF" stroke-miterlimit="10" x1="1379" y1="380.4" x2="1914.9" y2="380.4"/>
<line fill="none" stroke="#AFAFAF" stroke-miterlimit="10" x1="1379" y1="4248.9" x2="1379" y2="-4.6"/>
</svg>
