<?xml version="1.0" encoding="utf-8"?>
<!-- Generator: Adobe Illustrator 17.1.0, SVG Export Plug-In . SVG Version: 6.00 Build 0)  -->
<!DOCTYPE svg PUBLIC "-//W3C//DTD SVG 1.1//EN" "http://www.w3.org/Graphics/SVG/1.1/DTD/svg11.dtd">
<svg version="1.1" id="Layer_1" xmlns="http://www.w3.org/2000/svg" xmlns:xlink="http://www.w3.org/1999/xlink" x="0px" y="0px"
	 viewBox="0 0 1920 4265" enable-background="new 0 0 1920 4265" xml:space="preserve">
<g display="none">
	<path display="inline" fill="#15FFA5" d="M1653.9,42c0,19-28.8,19-28.8,0C1625.1,23,1653.9,23,1653.9,42z M1627.3,69.4v99h24.4v-99
		H1627.3z"/>
	<path display="inline" fill="#15FFA5" d="M1686.3,69.8l1.8,11.4c7.6-12.2,17.8-14,27.8-14c10.2,0,20,4,25.4,9.4l-11,21.2
		c-5-4.2-9.6-6.4-17.6-6.4c-12.8,0-24.6,6.8-24.6,25v52h-24.4V69.8H1686.3z"/>
	<path display="inline" fill="#15FFA5" d="M1761.3,127.8c1.6,12.2,12.2,21,29.4,21c9,0,20.8-3.4,26.4-9.2l15.6,15.4
		c-10.4,10.8-27.4,16-42.4,16c-34,0-54.2-21-54.2-52.6c0-30,20.4-51.6,52.4-51.6c33,0,53.6,20.4,49.8,61H1761.3z M1814.9,107.6
		c-1.6-12.8-11.6-19.2-25.6-19.2c-13.2,0-24,6.4-27.6,19.2H1814.9z"/>
	<path display="inline" fill="#15FFA5" d="M1919.7,168.4v-51.6c0-15-8.2-26.4-23.8-26.4c-15,0-25.2,12.6-25.2,27.6v50.4h-24.2V69.6
		h21.8l1.6,13.4c10-9.8,20-14.8,32.4-14.8c23.2,0,41.8,17.4,41.8,48.4v51.8H1919.7z"/>
</g>
<g>
	<g>
		<g>
			<rect x="1387.5" y="377" fill="#AFAFAF" width="532.5" height="1"/>
		</g>
	</g>
	<g>
		<g>
			<g>
				<path fill="#1B264C" d="M1437.8,351.6h-2.2l-4.1-12.8l-3.7,16.6h-1.9l4.5-19.9h1.8l4.7,14.4l9.5-14.4h2l-2.5,19.9h-1.9l2-16.4
					L1437.8,351.6z"/>
			</g>
			<g>
				<path fill="#1B264C" d="M1463.6,346.6c0,1.1-0.2,2.1-0.5,3.2c-0.3,1.1-0.8,2.1-1.5,2.9c-0.7,0.8-1.5,1.6-2.4,2.1
					c-1,0.5-2,0.8-3.3,0.8c-0.9,0-1.7-0.1-2.3-0.5c-0.7-0.3-1.2-0.7-1.7-1.2s-0.8-1.1-1-1.8c-0.2-0.7-0.3-1.4-0.3-2.2
					c0-1.1,0.2-2.2,0.5-3.3c0.3-1.1,0.8-2.1,1.5-2.9c0.6-0.9,1.4-1.6,2.4-2.1c0.9-0.5,2-0.8,3.3-0.8c0.9,0,1.7,0.2,2.4,0.5
					s1.2,0.7,1.7,1.3c0.5,0.5,0.8,1.1,1,1.8C1463.5,345.1,1463.6,345.8,1463.6,346.6z M1456.1,354.2c0.9,0,1.6-0.2,2.3-0.7
					c0.7-0.4,1.3-1,1.7-1.7c0.5-0.7,0.9-1.5,1.1-2.4c0.3-0.9,0.4-1.8,0.4-2.7c0-0.6-0.1-1.2-0.2-1.7c-0.1-0.5-0.4-1-0.7-1.4
					c-0.3-0.4-0.7-0.7-1.1-0.9c-0.5-0.2-1-0.3-1.6-0.3c-0.8,0-1.6,0.2-2.3,0.6c-0.7,0.4-1.2,1-1.7,1.7s-0.8,1.5-1.1,2.4
					c-0.3,0.9-0.4,1.8-0.4,2.8c0,0.6,0.1,1.2,0.2,1.7s0.3,1,0.6,1.4s0.6,0.7,1.1,0.9C1454.9,354.1,1455.5,354.2,1456.1,354.2z"/>
			</g>
			<g>
				<path fill="#1B264C" d="M1466.4,341.1h2.7l0.7-3.9h2l-0.7,3.9h4.7l-0.3,1.6h-4.7l-1.5,8.4c0,0.2-0.1,0.3-0.1,0.5
					c0,0.2,0,0.4,0,0.5c0,0.6,0.1,1.1,0.4,1.5c0.3,0.4,0.8,0.5,1.5,0.5c0.5,0,1-0.1,1.5-0.2s0.9-0.3,1.3-0.5l0.2,1.5
					c-0.4,0.2-0.9,0.4-1.5,0.5c-0.6,0.1-1.2,0.2-1.8,0.2c-1.2,0-2.2-0.3-2.7-0.9c-0.6-0.6-0.9-1.5-0.9-2.6c0-0.2,0-0.4,0-0.6
					c0-0.2,0-0.4,0.1-0.5l1.5-8.4h-2.7L1466.4,341.1z"/>
			</g>
			<g>
				<path fill="#1B264C" d="M1476.6,355.4l2.5-14.3h1.9l-2.5,14.3H1476.6z M1479.5,336.9c0-0.4,0.1-0.8,0.4-1.1
					c0.3-0.3,0.7-0.5,1.2-0.5c0.4,0,0.7,0.1,0.9,0.3c0.2,0.2,0.3,0.5,0.3,0.9s-0.1,0.8-0.5,1.1c-0.3,0.3-0.7,0.4-1.1,0.4
					s-0.7-0.1-0.9-0.3C1479.6,337.5,1479.5,337.2,1479.5,336.9z"/>
			</g>
			<g>
				<path fill="#1B264C" d="M1496.5,346.6c0,1.1-0.2,2.1-0.5,3.2c-0.3,1.1-0.8,2.1-1.5,2.9c-0.7,0.8-1.5,1.6-2.4,2.1
					c-1,0.5-2,0.8-3.3,0.8c-0.9,0-1.7-0.1-2.3-0.5c-0.7-0.3-1.2-0.7-1.7-1.2s-0.8-1.1-1-1.8c-0.2-0.7-0.3-1.4-0.3-2.2
					c0-1.1,0.2-2.2,0.5-3.3c0.3-1.1,0.8-2.1,1.5-2.9c0.6-0.9,1.4-1.6,2.4-2.1c0.9-0.5,2-0.8,3.3-0.8c0.9,0,1.7,0.2,2.4,0.5
					c0.7,0.3,1.2,0.7,1.7,1.3c0.5,0.5,0.8,1.1,1,1.8C1496.3,345.1,1496.5,345.8,1496.5,346.6z M1489,354.2c0.9,0,1.6-0.2,2.3-0.7
					c0.7-0.4,1.3-1,1.7-1.7c0.5-0.7,0.9-1.5,1.1-2.4c0.3-0.9,0.4-1.8,0.4-2.7c0-0.6-0.1-1.2-0.2-1.7c-0.1-0.5-0.4-1-0.7-1.4
					c-0.3-0.4-0.7-0.7-1.1-0.9c-0.5-0.2-1-0.3-1.6-0.3c-0.8,0-1.6,0.2-2.3,0.6s-1.2,1-1.7,1.7s-0.8,1.5-1.1,2.4
					c-0.3,0.9-0.4,1.8-0.4,2.8c0,0.6,0.1,1.2,0.2,1.7c0.1,0.5,0.3,1,0.6,1.4c0.3,0.4,0.6,0.7,1.1,0.9
					C1487.8,354.1,1488.3,354.2,1489,354.2z"/>
			</g>
			<g>
				<path fill="#1B264C" d="M1498.6,355.4l2.5-14.3h1.9l-0.7,4.1c0.3-0.6,0.6-1.1,1-1.6c0.4-0.5,0.8-1,1.2-1.4c0.5-0.4,1-0.7,1.5-1
					s1.2-0.4,1.8-0.4c0.6,0,1.2,0.1,1.6,0.4c0.5,0.2,0.8,0.6,1.1,1c0.3,0.4,0.5,0.9,0.7,1.5c0.1,0.6,0.2,1.2,0.2,1.9
					c0,0.3,0,0.7,0,1.1c0,0.4-0.1,0.8-0.2,1.2l-1.3,7.5h-2l1.3-7.3c0.1-0.8,0.2-1.5,0.2-2.3c0-1-0.2-1.8-0.5-2.4
					c-0.3-0.6-0.9-1-1.7-1c-0.5,0-1,0.2-1.5,0.5s-1,0.7-1.5,1.2c-0.5,0.5-0.9,1.1-1.3,1.8c-0.4,0.7-0.8,1.3-1.2,2l-1.3,7.5
					C1500.4,355.4,1498.6,355.4,1498.6,355.4z"/>
			</g>
			<g>
				<path fill="#1B264C" d="M1532.7,335.1c1.2,0,2.3,0.1,3.5,0.3c1.2,0.2,2.2,0.6,3.2,1.1l-0.5,1.6c-1.1-0.5-2.1-0.9-3.2-1.1
					c-1.1-0.2-2.1-0.3-3.1-0.3c-1.5,0-2.8,0.3-3.9,0.8c-1.2,0.5-2.1,1.2-2.9,2.1c-0.8,0.9-1.4,2-1.8,3.2c-0.4,1.2-0.6,2.5-0.6,3.9
					c0,2.4,0.7,4.2,2,5.5c1.3,1.3,3.2,2,5.8,2c0.6,0,1.3,0,1.9-0.1c0.6-0.1,1.2-0.2,1.8-0.3l1.2-6.8h1.9l-1.4,7.9
					c-0.4,0.1-0.8,0.2-1.2,0.3c-0.5,0.1-0.9,0.2-1.4,0.3s-1,0.1-1.5,0.2c-0.5,0-1,0.1-1.4,0.1c-1.5,0-2.8-0.2-4-0.7
					c-1.2-0.4-2.2-1.1-3-1.9c-0.8-0.8-1.4-1.7-1.8-2.9c-0.4-1.2-0.6-2.3-0.6-3.6c0-1.6,0.2-3.1,0.7-4.5s1.2-2.6,2.1-3.7
					c1-1.1,2.1-1.9,3.5-2.5C1529.2,335.4,1530.9,335.1,1532.7,335.1z"/>
			</g>
			<g>
				<path fill="#1B264C" d="M1549.9,342.8c-0.1,0-0.2,0-0.4,0c-1.3,0-2.3,0.5-3.2,1.4s-1.6,2.3-2.3,3.9l-1.3,7.3h-2l2.5-14.3h1.9
					l-0.8,4.5c0.2-0.6,0.4-1.2,0.7-1.8c0.3-0.5,0.6-1,1-1.4c0.4-0.4,0.8-0.7,1.3-1c0.5-0.2,1.1-0.4,1.7-0.4c0.1,0,0.3,0,0.5,0
					c0.2,0,0.3,0,0.4,0.1L1549.9,342.8z"/>
			</g>
			<g>
				<path fill="#1B264C" d="M1560.7,355.4h-1.9l1-5.6c-0.3,0.6-0.6,1.2-1,1.9s-0.8,1.3-1.3,1.9c-0.5,0.6-1,1.1-1.6,1.5
					c-0.6,0.4-1.2,0.6-1.9,0.6c-0.6,0-1.2-0.1-1.6-0.4c-0.4-0.3-0.8-0.6-1.1-1.1s-0.5-1-0.6-1.6c-0.1-0.6-0.2-1.2-0.2-1.9
					c0-1.3,0.2-2.5,0.5-3.7s0.9-2.2,1.6-3.2c0.7-0.9,1.5-1.7,2.6-2.2c1-0.6,2.2-0.8,3.6-0.8c0.8,0,1.6,0.1,2.4,0.2
					c0.8,0.2,1.5,0.4,2.1,0.6L1560.7,355.4z M1554.1,354.2c0.6,0,1.2-0.3,1.8-0.9c0.6-0.6,1.2-1.3,1.8-2.2c0.6-0.9,1.1-1.8,1.6-2.8
					c0.5-1,0.9-2,1.3-2.9l0.5-2.7c-0.7-0.2-1.5-0.3-2.4-0.3c-1,0-1.9,0.2-2.7,0.7c-0.8,0.5-1.4,1.1-2,1.8c-0.5,0.8-0.9,1.7-1.2,2.7
					c-0.3,1-0.4,2.1-0.4,3.1c0,0.5,0,0.9,0.1,1.3s0.2,0.8,0.3,1.1c0.1,0.3,0.3,0.6,0.5,0.8C1553.4,354.1,1553.7,354.2,1554.1,354.2z
					"/>
			</g>
			<g>
				<path fill="#1B264C" d="M1568,341.1h1.9l-0.8,4.5c0.3-0.6,0.7-1.2,1.1-1.7c0.4-0.6,0.8-1.1,1.3-1.5c0.5-0.4,1-0.8,1.6-1.1
					c0.6-0.3,1.2-0.4,1.9-0.4c0.6,0,1.1,0.1,1.6,0.4s0.9,0.6,1.2,1.1c0.3,0.5,0.5,1,0.7,1.6c0.2,0.6,0.2,1.3,0.2,1.9
					c0,1.3-0.2,2.5-0.5,3.7c-0.3,1.2-0.9,2.2-1.5,3.1c-0.6,0.9-1.5,1.6-2.5,2.2c-1,0.6-2.2,0.8-3.6,0.8c-0.5,0-1.1,0-1.6-0.1
					s-1-0.2-1.5-0.4l-1.1,6.4h-2L1568,341.1z M1574.6,342.4c-0.5,0-1.1,0.2-1.6,0.6c-0.6,0.4-1.1,0.9-1.6,1.5
					c-0.5,0.6-1,1.3-1.5,2.1s-0.9,1.5-1.3,2.3l-0.9,4.9c0.4,0.2,0.8,0.3,1.3,0.4s0.9,0.1,1.4,0.1c1.1,0,2-0.2,2.9-0.7
					c0.8-0.5,1.5-1.1,2-1.8c0.5-0.7,0.9-1.6,1.1-2.6c0.2-1,0.4-2,0.4-3c0-0.4,0-0.9-0.1-1.3c-0.1-0.4-0.2-0.8-0.4-1.2
					c-0.2-0.3-0.4-0.6-0.7-0.8C1575.3,342.5,1575,342.4,1574.6,342.4z"/>
			</g>
			<g>
				<path fill="#1B264C" d="M1580.9,355.4l3.7-21.1h2l-1.9,10.9c0.3-0.5,0.6-1.1,0.9-1.6c0.3-0.5,0.8-1,1.2-1.4c0.5-0.4,1-0.7,1.5-1
					c0.6-0.2,1.2-0.4,1.8-0.4c0.6,0,1.2,0.1,1.6,0.4c0.5,0.2,0.8,0.6,1.1,1c0.3,0.4,0.5,0.9,0.7,1.5c0.1,0.6,0.2,1.2,0.2,1.9
					c0,0.3,0,0.7,0,1.1s-0.1,0.8-0.2,1.2l-1.3,7.5h-2l1.3-7.3c0.1-0.8,0.2-1.5,0.2-2.3c0-1-0.2-1.8-0.5-2.4c-0.3-0.6-0.9-1-1.7-1
					c-0.5,0-1.1,0.2-1.6,0.5c-0.5,0.3-1,0.7-1.5,1.2s-0.9,1.1-1.3,1.8c-0.4,0.7-0.8,1.3-1.2,2l-1.3,7.5L1580.9,355.4L1580.9,355.4z"
					/>
			</g>
			<g>
				<path fill="#1B264C" d="M1596.8,355.4l2.5-14.3h1.9l-2.5,14.3H1596.8z M1599.7,336.9c0-0.4,0.1-0.8,0.4-1.1
					c0.3-0.3,0.7-0.5,1.2-0.5c0.4,0,0.7,0.1,0.9,0.3c0.2,0.2,0.3,0.5,0.3,0.9s-0.1,0.8-0.5,1.1c-0.3,0.3-0.7,0.4-1.1,0.4
					c-0.4,0-0.7-0.1-0.9-0.3C1599.8,337.5,1599.7,337.2,1599.7,336.9z"/>
			</g>
			<g>
				<path fill="#1B264C" d="M1611.2,340.8c1.5,0,2.8,0.3,3.8,0.9l-0.4,1.6c-0.6-0.3-1.1-0.5-1.6-0.7c-0.5-0.2-1.1-0.2-1.8-0.2
					c-0.9,0-1.7,0.2-2.4,0.6c-0.7,0.4-1.3,0.9-1.8,1.6c-0.5,0.7-0.8,1.5-1.1,2.4c-0.2,0.9-0.4,1.9-0.4,2.9c0,1.3,0.3,2.3,0.9,3.1
					s1.5,1.2,2.8,1.2c0.6,0,1.2-0.1,1.8-0.2c0.6-0.1,1.1-0.4,1.6-0.6l0.4,1.5c-0.6,0.3-1.2,0.5-1.9,0.7s-1.4,0.2-2.2,0.2
					c-1,0-1.8-0.2-2.5-0.5c-0.7-0.3-1.2-0.8-1.7-1.3s-0.8-1.2-1-1.9c-0.2-0.7-0.3-1.5-0.3-2.2c0-1.2,0.2-2.3,0.5-3.4
					c0.3-1.1,0.8-2,1.5-2.9c0.6-0.8,1.4-1.5,2.4-2C1608.9,341.1,1610,340.8,1611.2,340.8z"/>
			</g>
		</g>
		<g>
			<rect x="1423.4" y="284.8" fill="#15FFA5" width="193.6" height="30.6"/>
		</g>
		<g>
			<path fill="#919191" d="M1437.9,419.2c0,0.1,0.1,0.2,0.1,0.3c0,0.1,0,0.1-0.1,0.2c0,0-0.1,0.1-0.2,0.1c-0.1,0-0.2,0-0.4,0
				s-0.3,0-0.4,0c-0.1,0-0.2,0-0.2,0s-0.1,0-0.1-0.1c0,0,0-0.1-0.1-0.1l-1.3-3.7h-6.1l-1.3,3.7c0,0,0,0.1-0.1,0.1s-0.1,0.1-0.1,0.1
				c0,0-0.1,0-0.2,0.1c-0.1,0-0.2,0-0.3,0c-0.2,0-0.3,0-0.4,0s-0.2,0-0.2-0.1c0,0-0.1-0.1-0.1-0.2c0-0.1,0-0.2,0.1-0.3l4.9-13.2
				c0-0.1,0.1-0.1,0.1-0.1c0,0,0.1-0.1,0.2-0.1c0.1,0,0.2,0,0.2,0c0.1,0,0.2,0,0.3,0c0.1,0,0.2,0,0.3,0c0.1,0,0.2,0,0.2,0
				c0.1,0,0.1,0.1,0.2,0.1c0,0,0.1,0.1,0.1,0.1L1437.9,419.2z M1432.1,407.2L1432.1,407.2l-2.6,7.5h5.3L1432.1,407.2z"/>
			<path fill="#919191" d="M1453.4,410c0,0.2,0,0.3-0.1,0.4s-0.1,0.1-0.2,0.1h-1.5c0.3,0.3,0.5,0.6,0.6,1c0.1,0.4,0.2,0.7,0.2,1.1
				c0,0.6-0.1,1-0.3,1.5c-0.2,0.4-0.4,0.8-0.7,1.1c-0.3,0.3-0.7,0.5-1.1,0.7c-0.4,0.2-0.9,0.2-1.5,0.2c-0.4,0-0.9-0.1-1.2-0.2
				s-0.7-0.3-0.9-0.5c-0.1,0.1-0.3,0.3-0.4,0.5s-0.1,0.4-0.1,0.6c0,0.3,0.1,0.5,0.4,0.7c0.3,0.2,0.6,0.3,1,0.3l2.6,0.1
				c0.4,0,0.9,0.1,1.3,0.2c0.4,0.1,0.7,0.3,1,0.5c0.3,0.2,0.5,0.5,0.7,0.8s0.3,0.7,0.3,1.1c0,0.4-0.1,0.8-0.3,1.2
				c-0.2,0.4-0.4,0.7-0.8,1c-0.4,0.3-0.8,0.5-1.4,0.7c-0.6,0.2-1.3,0.3-2.1,0.3c-0.8,0-1.4-0.1-1.9-0.2c-0.5-0.1-1-0.3-1.3-0.5
				c-0.3-0.2-0.6-0.5-0.7-0.8c-0.2-0.3-0.2-0.7-0.2-1c0-0.3,0-0.5,0.1-0.7s0.1-0.4,0.3-0.6c0.1-0.2,0.3-0.4,0.4-0.6
				c0.2-0.2,0.4-0.4,0.6-0.6c-0.4-0.2-0.6-0.4-0.8-0.7c-0.2-0.3-0.3-0.5-0.3-0.8c0-0.4,0.1-0.8,0.3-1.2c0.2-0.3,0.4-0.6,0.6-0.9
				c-0.2-0.3-0.4-0.6-0.5-0.9s-0.2-0.7-0.2-1.2c0-0.5,0.1-1,0.3-1.5c0.2-0.4,0.4-0.8,0.7-1.1c0.3-0.3,0.7-0.5,1.1-0.7
				c0.4-0.2,0.9-0.2,1.5-0.2c0.3,0,0.5,0,0.8,0c0.2,0,0.5,0.1,0.7,0.1h2.9c0.1,0,0.2,0,0.3,0.1
				C1453.4,409.7,1453.4,409.9,1453.4,410z M1452,420.4c0-0.5-0.2-0.8-0.6-1.1c-0.4-0.2-0.9-0.4-1.5-0.4l-2.8-0.1
				c-0.3,0.2-0.5,0.4-0.6,0.6c-0.2,0.2-0.3,0.4-0.4,0.5c-0.1,0.2-0.2,0.3-0.2,0.5c0,0.2-0.1,0.3-0.1,0.5c0,0.5,0.3,0.9,0.8,1.2
				c0.5,0.3,1.3,0.4,2.2,0.4c0.6,0,1.1-0.1,1.5-0.2c0.4-0.1,0.7-0.3,1-0.5s0.4-0.4,0.5-0.7C1452,420.9,1452,420.7,1452,420.4z
				 M1451,412.7c0-0.7-0.2-1.3-0.6-1.7c-0.4-0.4-1-0.6-1.7-0.6c-0.4,0-0.7,0.1-1,0.2s-0.5,0.3-0.7,0.5c-0.2,0.2-0.3,0.5-0.4,0.8
				c-0.1,0.3-0.1,0.6-0.1,0.9c0,0.7,0.2,1.3,0.6,1.7c0.4,0.4,1,0.6,1.7,0.6c0.4,0,0.7-0.1,1-0.2c0.3-0.1,0.5-0.3,0.7-0.5
				c0.2-0.2,0.3-0.5,0.4-0.8C1451,413.4,1451,413.1,1451,412.7z"/>
			<path fill="#919191" d="M1457.6,406.4c0,0.3-0.1,0.6-0.2,0.7c-0.1,0.1-0.3,0.2-0.7,0.2c-0.3,0-0.5-0.1-0.6-0.2
				c-0.1-0.1-0.2-0.3-0.2-0.7s0.1-0.6,0.2-0.7s0.3-0.2,0.7-0.2c0.3,0,0.5,0.1,0.6,0.2C1457.5,405.9,1457.6,406.1,1457.6,406.4z
				 M1457.4,419.4c0,0,0,0.1,0,0.1c0,0-0.1,0.1-0.1,0.1c0,0-0.1,0-0.2,0.1c-0.1,0-0.2,0-0.3,0c-0.1,0-0.2,0-0.3,0
				c-0.1,0-0.1,0-0.2-0.1s-0.1,0-0.1-0.1c0,0,0-0.1,0-0.1v-9.7c0,0,0-0.1,0-0.1c0,0,0.1-0.1,0.1-0.1c0,0,0.1,0,0.2-0.1
				c0.1,0,0.2,0,0.3,0c0.1,0,0.2,0,0.3,0c0.1,0,0.1,0,0.2,0.1c0,0,0.1,0.1,0.1,0.1s0,0.1,0,0.1V419.4z"/>
			<path fill="#919191" d="M1466.2,405.6c0,0.1,0,0.2,0,0.2c0,0.1,0,0.1,0,0.1c0,0,0,0.1-0.1,0.1c0,0-0.1,0-0.1,0
				c-0.1,0-0.1,0-0.2-0.1c-0.1,0-0.2-0.1-0.3-0.1c-0.1,0-0.3-0.1-0.4-0.1c-0.2,0-0.3-0.1-0.6-0.1c-0.3,0-0.6,0-0.8,0.1
				c-0.2,0.1-0.4,0.2-0.5,0.5c-0.1,0.2-0.2,0.5-0.3,0.8c-0.1,0.3-0.1,0.7-0.1,1.2v1.1h2.4c0,0,0.1,0,0.1,0s0.1,0.1,0.1,0.1
				c0,0,0,0.1,0.1,0.2c0,0.1,0,0.1,0,0.2c0,0.2,0,0.3-0.1,0.4c-0.1,0.1-0.1,0.1-0.2,0.1h-2.4v8.9c0,0,0,0.1,0,0.1
				c0,0-0.1,0.1-0.1,0.1c0,0-0.1,0-0.2,0.1s-0.2,0-0.3,0s-0.2,0-0.3,0c-0.1,0-0.1,0-0.2-0.1s-0.1,0-0.1-0.1c0,0,0-0.1,0-0.1v-8.9
				h-1.5c-0.1,0-0.2,0-0.2-0.1c-0.1-0.1-0.1-0.2-0.1-0.4c0-0.1,0-0.2,0-0.2c0-0.1,0-0.1,0.1-0.2c0,0,0.1-0.1,0.1-0.1
				c0,0,0.1,0,0.1,0h1.5v-1.1c0-0.7,0.1-1.3,0.2-1.7c0.1-0.5,0.3-0.9,0.6-1.2c0.2-0.3,0.6-0.5,0.9-0.7c0.4-0.1,0.8-0.2,1.3-0.2
				c0.2,0,0.5,0,0.7,0.1c0.2,0,0.4,0.1,0.5,0.2c0.1,0.1,0.2,0.1,0.2,0.1c0,0,0.1,0.1,0.1,0.1c0,0.1,0,0.1,0.1,0.2
				C1466.2,405.4,1466.2,405.5,1466.2,405.6z"/>
			<path fill="#919191" d="M1480,418c0,0.1,0,0.2,0,0.2c0,0.1,0,0.1,0,0.2s0,0.1-0.1,0.1c0,0-0.1,0.1-0.2,0.2
				c-0.1,0.1-0.2,0.2-0.5,0.4c-0.2,0.1-0.5,0.3-0.7,0.4s-0.6,0.2-0.9,0.3c-0.3,0.1-0.6,0.1-1,0.1c-0.7,0-1.3-0.1-1.8-0.3
				c-0.5-0.2-1-0.6-1.3-1c-0.4-0.4-0.6-1-0.8-1.6c-0.2-0.6-0.3-1.4-0.3-2.2c0-0.9,0.1-1.8,0.3-2.4c0.2-0.7,0.5-1.2,0.9-1.7
				s0.9-0.7,1.4-1c0.5-0.2,1.1-0.3,1.7-0.3c0.3,0,0.6,0,0.9,0.1c0.3,0.1,0.6,0.1,0.8,0.2c0.2,0.1,0.5,0.2,0.7,0.3s0.3,0.2,0.4,0.3
				c0.1,0.1,0.2,0.2,0.2,0.2c0,0,0.1,0.1,0.1,0.2c0,0.1,0,0.1,0,0.2c0,0.1,0,0.1,0,0.2c0,0.2,0,0.4-0.1,0.4
				c-0.1,0.1-0.1,0.1-0.2,0.1c-0.1,0-0.2-0.1-0.4-0.2c-0.1-0.1-0.3-0.3-0.6-0.4c-0.2-0.2-0.5-0.3-0.8-0.4c-0.3-0.1-0.7-0.2-1.2-0.2
				c-0.9,0-1.6,0.4-2.2,1.1c-0.5,0.7-0.8,1.8-0.8,3.1c0,0.7,0.1,1.3,0.2,1.8c0.1,0.5,0.3,0.9,0.6,1.3c0.3,0.3,0.6,0.6,0.9,0.8
				c0.4,0.2,0.8,0.3,1.2,0.3c0.4,0,0.8-0.1,1.1-0.2s0.6-0.3,0.9-0.5s0.4-0.3,0.6-0.5c0.2-0.1,0.3-0.2,0.4-0.2c0,0,0.1,0,0.1,0
				c0,0,0.1,0.1,0.1,0.1c0,0.1,0,0.1,0,0.2C1480,417.8,1480,417.9,1480,418z"/>
			<path fill="#919191" d="M1491.2,414.5c0,0.8-0.1,1.5-0.3,2.1c-0.2,0.7-0.5,1.2-0.9,1.7c-0.4,0.5-0.9,0.9-1.5,1.1
				c-0.6,0.3-1.3,0.4-2.1,0.4c-0.8,0-1.4-0.1-2-0.4c-0.6-0.2-1-0.6-1.4-1c-0.4-0.4-0.7-1-0.9-1.6c-0.2-0.6-0.3-1.4-0.3-2.2
				c0-0.8,0.1-1.5,0.3-2.1c0.2-0.7,0.5-1.2,0.9-1.7c0.4-0.5,0.9-0.8,1.5-1.1c0.6-0.3,1.3-0.4,2.1-0.4c0.8,0,1.4,0.1,2,0.4
				c0.6,0.2,1,0.6,1.4,1c0.4,0.4,0.7,1,0.9,1.6S1491.2,413.7,1491.2,414.5z M1489.8,414.6c0-0.6-0.1-1.1-0.2-1.6s-0.3-0.9-0.5-1.3
				c-0.3-0.4-0.6-0.7-1-0.9c-0.4-0.2-0.9-0.3-1.6-0.3c-0.6,0-1.1,0.1-1.5,0.3c-0.4,0.2-0.8,0.5-1,0.9c-0.3,0.4-0.5,0.8-0.6,1.3
				c-0.1,0.5-0.2,1-0.2,1.6c0,0.6,0.1,1.1,0.2,1.6c0.1,0.5,0.3,0.9,0.5,1.3s0.6,0.7,1,0.9s0.9,0.3,1.6,0.3c0.6,0,1.1-0.1,1.5-0.3
				s0.8-0.5,1-0.9c0.3-0.4,0.5-0.8,0.6-1.3C1489.7,415.7,1489.8,415.2,1489.8,414.6z"/>
			<path fill="#919191" d="M1495.5,419.4c0,0,0,0.1,0,0.1c0,0-0.1,0.1-0.1,0.1c0,0-0.1,0-0.2,0.1c-0.1,0-0.2,0-0.3,0
				c-0.1,0-0.2,0-0.3,0c-0.1,0-0.1,0-0.2-0.1s-0.1,0-0.1-0.1c0,0,0-0.1,0-0.1v-14.5c0,0,0-0.1,0-0.1c0,0,0.1-0.1,0.1-0.1
				c0,0,0.1,0,0.2-0.1c0.1,0,0.2,0,0.3,0c0.1,0,0.2,0,0.3,0c0.1,0,0.1,0,0.2,0.1c0,0,0.1,0.1,0.1,0.1c0,0,0,0.1,0,0.1V419.4z"/>
			<path fill="#919191" d="M1500.6,419.4c0,0,0,0.1,0,0.1c0,0-0.1,0.1-0.1,0.1c0,0-0.1,0-0.2,0.1c-0.1,0-0.2,0-0.3,0
				c-0.1,0-0.2,0-0.3,0c-0.1,0-0.1,0-0.2-0.1s-0.1,0-0.1-0.1c0,0,0-0.1,0-0.1v-14.5c0,0,0-0.1,0-0.1c0,0,0.1-0.1,0.1-0.1
				c0,0,0.1,0,0.2-0.1c0.1,0,0.2,0,0.3,0c0.1,0,0.2,0,0.3,0c0.1,0,0.1,0,0.2,0.1c0,0,0.1,0.1,0.1,0.1c0,0,0,0.1,0,0.1V419.4z"/>
			<path fill="#919191" d="M1512.3,414.1c0,0.3-0.1,0.4-0.2,0.5c-0.1,0.1-0.3,0.1-0.4,0.1h-6.6c0,0.6,0.1,1.1,0.2,1.6
				c0.1,0.5,0.3,0.9,0.6,1.3c0.3,0.3,0.6,0.6,1.1,0.8c0.4,0.2,1,0.3,1.6,0.3c0.5,0,0.9,0,1.2-0.1s0.7-0.2,0.9-0.3
				c0.3-0.1,0.5-0.2,0.6-0.3c0.2-0.1,0.3-0.1,0.4-0.1c0,0,0.1,0,0.1,0s0.1,0.1,0.1,0.1c0,0,0,0.1,0,0.2c0,0.1,0,0.2,0,0.3
				c0,0,0,0.1,0,0.1c0,0,0,0.1,0,0.1c0,0,0,0.1,0,0.1s0,0.1-0.1,0.1s-0.1,0.1-0.3,0.2c-0.2,0.1-0.4,0.2-0.7,0.3
				c-0.3,0.1-0.6,0.2-1,0.2c-0.4,0.1-0.8,0.1-1.3,0.1c-0.8,0-1.4-0.1-2-0.3c-0.6-0.2-1.1-0.6-1.5-1c-0.4-0.4-0.7-1-0.9-1.6
				c-0.2-0.7-0.3-1.4-0.3-2.3c0-0.8,0.1-1.6,0.3-2.2c0.2-0.7,0.5-1.2,0.9-1.7c0.4-0.5,0.9-0.8,1.4-1c0.6-0.2,1.2-0.4,1.9-0.4
				c0.7,0,1.4,0.1,1.9,0.4s0.9,0.6,1.3,1c0.3,0.4,0.6,0.9,0.7,1.4c0.2,0.5,0.2,1.1,0.2,1.7V414.1z M1511,413.7c0-1-0.2-1.8-0.7-2.4
				s-1.2-0.9-2.2-0.9c-0.5,0-0.9,0.1-1.3,0.3c-0.4,0.2-0.7,0.4-0.9,0.7c-0.3,0.3-0.5,0.7-0.6,1c-0.1,0.4-0.2,0.8-0.2,1.2H1511z"/>
			<path fill="#919191" d="M1522.3,418c0,0.1,0,0.2,0,0.2c0,0.1,0,0.1,0,0.2s0,0.1-0.1,0.1c0,0-0.1,0.1-0.2,0.2
				c-0.1,0.1-0.2,0.2-0.5,0.4c-0.2,0.1-0.5,0.3-0.7,0.4s-0.6,0.2-0.9,0.3c-0.3,0.1-0.6,0.1-1,0.1c-0.7,0-1.3-0.1-1.8-0.3
				c-0.5-0.2-1-0.6-1.3-1c-0.4-0.4-0.6-1-0.8-1.6c-0.2-0.6-0.3-1.4-0.3-2.2c0-0.9,0.1-1.8,0.3-2.4c0.2-0.7,0.5-1.2,0.9-1.7
				s0.9-0.7,1.4-1c0.5-0.2,1.1-0.3,1.7-0.3c0.3,0,0.6,0,0.9,0.1c0.3,0.1,0.6,0.1,0.8,0.2c0.2,0.1,0.5,0.2,0.7,0.3s0.3,0.2,0.4,0.3
				c0.1,0.1,0.2,0.2,0.2,0.2c0,0,0.1,0.1,0.1,0.2c0,0.1,0,0.1,0,0.2c0,0.1,0,0.1,0,0.2c0,0.2,0,0.4-0.1,0.4
				c-0.1,0.1-0.1,0.1-0.2,0.1c-0.1,0-0.2-0.1-0.4-0.2c-0.1-0.1-0.3-0.3-0.6-0.4c-0.2-0.2-0.5-0.3-0.8-0.4c-0.3-0.1-0.7-0.2-1.2-0.2
				c-0.9,0-1.6,0.4-2.2,1.1c-0.5,0.7-0.8,1.8-0.8,3.1c0,0.7,0.1,1.3,0.2,1.8c0.1,0.5,0.3,0.9,0.6,1.3c0.3,0.3,0.6,0.6,0.9,0.8
				c0.4,0.2,0.8,0.3,1.2,0.3c0.4,0,0.8-0.1,1.1-0.2s0.6-0.3,0.9-0.5s0.4-0.3,0.6-0.5c0.2-0.1,0.3-0.2,0.4-0.2c0,0,0.1,0,0.1,0
				c0,0,0.1,0.1,0.1,0.1c0,0.1,0,0.1,0,0.2C1522.3,417.8,1522.3,417.9,1522.3,418z"/>
			<path fill="#919191" d="M1533,409.5c0.2,0,0.3,0,0.3,0.1c0.1,0.1,0.1,0.2,0.1,0.3v9.5c0,0,0,0.1,0,0.1c0,0-0.1,0.1-0.1,0.1
				c0,0-0.1,0-0.2,0.1c-0.1,0-0.2,0-0.3,0c-0.1,0-0.2,0-0.3,0c-0.1,0-0.1,0-0.2-0.1c0,0-0.1,0-0.1-0.1c0,0,0-0.1,0-0.1v-8.9h-5.4
				v5.9c0,0.7,0.1,1.3,0.3,1.7c0.2,0.4,0.6,0.6,1.2,0.6c0.2,0,0.3,0,0.5-0.1c0.1,0,0.3-0.1,0.4-0.1s0.2-0.1,0.3-0.1
				c0.1,0,0.1-0.1,0.2-0.1c0,0,0.1,0,0.1,0c0,0,0.1,0,0.1,0.1c0,0,0,0.1,0,0.2c0,0.1,0,0.1,0,0.2c0,0.2,0,0.3,0,0.4
				c0,0.1-0.1,0.2-0.1,0.2c-0.1,0.1-0.1,0.1-0.2,0.2c-0.1,0-0.2,0.1-0.4,0.1c-0.1,0-0.3,0.1-0.4,0.1c-0.2,0-0.3,0-0.4,0
				c-0.5,0-0.9-0.1-1.2-0.2s-0.6-0.3-0.8-0.6c-0.2-0.3-0.4-0.6-0.5-1c-0.1-0.4-0.1-0.9-0.1-1.4v-6h-1.5c-0.1,0-0.2,0-0.2-0.1
				c-0.1-0.1-0.1-0.2-0.1-0.4c0-0.1,0-0.2,0-0.2c0-0.1,0-0.1,0.1-0.2c0,0,0.1-0.1,0.1-0.1c0,0,0.1,0,0.1,0h1.5v-2.4c0,0,0-0.1,0-0.1
				c0,0,0.1-0.1,0.1-0.1c0,0,0.1,0,0.2-0.1c0.1,0,0.2,0,0.3,0c0.1,0,0.2,0,0.3,0c0.1,0,0.1,0,0.2,0.1c0,0,0.1,0.1,0.1,0.1
				c0,0,0,0.1,0,0.1v2.4H1533z M1533.6,406.4c0,0.3-0.1,0.6-0.2,0.7c-0.1,0.1-0.3,0.2-0.7,0.2c-0.3,0-0.5-0.1-0.6-0.2
				c-0.1-0.1-0.2-0.3-0.2-0.7s0.1-0.6,0.2-0.7s0.3-0.2,0.7-0.2c0.3,0,0.5,0.1,0.6,0.2C1533.5,405.9,1533.6,406.1,1533.6,406.4z"/>
			<path fill="#919191" d="M1545.8,414.5c0,0.8-0.1,1.5-0.3,2.1c-0.2,0.7-0.5,1.2-0.9,1.7c-0.4,0.5-0.9,0.9-1.5,1.1
				c-0.6,0.3-1.3,0.4-2.1,0.4c-0.8,0-1.4-0.1-2-0.4c-0.6-0.2-1-0.6-1.4-1c-0.4-0.4-0.7-1-0.9-1.6c-0.2-0.6-0.3-1.4-0.3-2.2
				c0-0.8,0.1-1.5,0.3-2.1c0.2-0.7,0.5-1.2,0.9-1.7c0.4-0.5,0.9-0.8,1.5-1.1c0.6-0.3,1.3-0.4,2.1-0.4c0.8,0,1.4,0.1,2,0.4
				c0.6,0.2,1,0.6,1.4,1c0.4,0.4,0.7,1,0.9,1.6S1545.8,413.7,1545.8,414.5z M1544.5,414.6c0-0.6-0.1-1.1-0.2-1.6s-0.3-0.9-0.5-1.3
				c-0.3-0.4-0.6-0.7-1-0.9c-0.4-0.2-0.9-0.3-1.6-0.3c-0.6,0-1.1,0.1-1.5,0.3c-0.4,0.2-0.8,0.5-1,0.9c-0.3,0.4-0.5,0.8-0.6,1.3
				c-0.1,0.5-0.2,1-0.2,1.6c0,0.6,0.1,1.1,0.2,1.6c0.1,0.5,0.3,0.9,0.5,1.3s0.6,0.7,1,0.9s0.9,0.3,1.6,0.3c0.6,0,1.1-0.1,1.5-0.3
				s0.8-0.5,1-0.9c0.3-0.4,0.5-0.8,0.6-1.3C1544.4,415.7,1544.5,415.2,1544.5,414.6z"/>
			<path fill="#919191" d="M1556.8,419.4c0,0,0,0.1,0,0.1c0,0-0.1,0.1-0.1,0.1c0,0-0.1,0-0.2,0.1c-0.1,0-0.2,0-0.3,0
				c-0.1,0-0.2,0-0.3,0c-0.1,0-0.1,0-0.2-0.1c0,0-0.1,0-0.1-0.1c0,0,0-0.1,0-0.1v-5.8c0-0.6,0-1.1-0.1-1.5c-0.1-0.4-0.2-0.7-0.4-1
				c-0.2-0.3-0.4-0.5-0.7-0.6c-0.3-0.1-0.6-0.2-1-0.2c-0.5,0-1,0.2-1.5,0.5c-0.5,0.4-1,0.9-1.6,1.5v7c0,0,0,0.1,0,0.1
				c0,0-0.1,0.1-0.1,0.1c0,0-0.1,0-0.2,0.1c-0.1,0-0.2,0-0.3,0c-0.1,0-0.2,0-0.3,0c-0.1,0-0.1,0-0.2-0.1s-0.1,0-0.1-0.1
				c0,0,0-0.1,0-0.1v-9.7c0,0,0-0.1,0-0.1c0,0,0.1-0.1,0.1-0.1c0,0,0.1,0,0.2-0.1c0.1,0,0.2,0,0.3,0s0.2,0,0.3,0
				c0.1,0,0.1,0,0.2,0.1c0,0,0.1,0.1,0.1,0.1c0,0,0,0.1,0,0.1v1.4c0.6-0.6,1.1-1.1,1.6-1.4s1.1-0.4,1.6-0.4c0.6,0,1.2,0.1,1.6,0.3
				s0.8,0.5,1.1,0.9c0.3,0.4,0.5,0.8,0.6,1.3c0.1,0.5,0.2,1.1,0.2,1.8V419.4z"/>
			<path fill="#919191" d="M1570.8,405.6c0,0.1,0,0.2,0,0.2c0,0.1,0,0.1,0,0.1c0,0,0,0.1-0.1,0.1c0,0-0.1,0-0.1,0
				c-0.1,0-0.1,0-0.2-0.1c-0.1,0-0.2-0.1-0.3-0.1c-0.1,0-0.3-0.1-0.4-0.1c-0.2,0-0.3-0.1-0.6-0.1c-0.3,0-0.6,0-0.8,0.1
				c-0.2,0.1-0.4,0.2-0.5,0.5c-0.1,0.2-0.2,0.5-0.3,0.8c-0.1,0.3-0.1,0.7-0.1,1.2v1.1h2.4c0,0,0.1,0,0.1,0s0.1,0.1,0.1,0.1
				c0,0,0,0.1,0.1,0.2c0,0.1,0,0.1,0,0.2c0,0.2,0,0.3-0.1,0.4c-0.1,0.1-0.1,0.1-0.2,0.1h-2.4v8.9c0,0,0,0.1,0,0.1
				c0,0-0.1,0.1-0.1,0.1c0,0-0.1,0-0.2,0.1s-0.2,0-0.3,0s-0.2,0-0.3,0c-0.1,0-0.1,0-0.2-0.1s-0.1,0-0.1-0.1c0,0,0-0.1,0-0.1v-8.9
				h-1.5c-0.1,0-0.2,0-0.2-0.1c-0.1-0.1-0.1-0.2-0.1-0.4c0-0.1,0-0.2,0-0.2c0-0.1,0-0.1,0.1-0.2c0,0,0.1-0.1,0.1-0.1
				c0,0,0.1,0,0.1,0h1.5v-1.1c0-0.7,0.1-1.3,0.2-1.7c0.1-0.5,0.3-0.9,0.6-1.2c0.2-0.3,0.6-0.5,0.9-0.7c0.4-0.1,0.8-0.2,1.3-0.2
				c0.2,0,0.5,0,0.7,0.1c0.2,0,0.4,0.1,0.5,0.2c0.1,0.1,0.2,0.1,0.2,0.1c0,0,0.1,0.1,0.1,0.1c0,0.1,0,0.1,0.1,0.2
				C1570.8,405.4,1570.8,405.5,1570.8,405.6z"/>
			<path fill="#919191" d="M1579.8,414.1c0,0.3-0.1,0.4-0.2,0.5c-0.1,0.1-0.3,0.1-0.4,0.1h-6.6c0,0.6,0.1,1.1,0.2,1.6
				c0.1,0.5,0.3,0.9,0.6,1.3c0.3,0.3,0.6,0.6,1.1,0.8c0.4,0.2,1,0.3,1.6,0.3c0.5,0,0.9,0,1.2-0.1s0.7-0.2,0.9-0.3
				c0.3-0.1,0.5-0.2,0.6-0.3c0.2-0.1,0.3-0.1,0.4-0.1c0,0,0.1,0,0.1,0s0.1,0.1,0.1,0.1c0,0,0,0.1,0,0.2c0,0.1,0,0.2,0,0.3
				c0,0,0,0.1,0,0.1c0,0,0,0.1,0,0.1c0,0,0,0.1,0,0.1s0,0.1-0.1,0.1s-0.1,0.1-0.3,0.2c-0.2,0.1-0.4,0.2-0.7,0.3
				c-0.3,0.1-0.6,0.2-1,0.2c-0.4,0.1-0.8,0.1-1.3,0.1c-0.8,0-1.4-0.1-2-0.3c-0.6-0.2-1.1-0.6-1.5-1c-0.4-0.4-0.7-1-0.9-1.6
				c-0.2-0.7-0.3-1.4-0.3-2.3c0-0.8,0.1-1.6,0.3-2.2c0.2-0.7,0.5-1.2,0.9-1.7c0.4-0.5,0.9-0.8,1.4-1c0.6-0.2,1.2-0.4,1.9-0.4
				c0.7,0,1.4,0.1,1.9,0.4s0.9,0.6,1.3,1c0.3,0.4,0.6,0.9,0.7,1.4c0.2,0.5,0.2,1.1,0.2,1.7V414.1z M1578.5,413.7
				c0-1-0.2-1.8-0.7-2.4s-1.2-0.9-2.2-0.9c-0.5,0-0.9,0.1-1.3,0.3c-0.4,0.2-0.7,0.4-0.9,0.7c-0.3,0.3-0.5,0.7-0.6,1
				c-0.1,0.4-0.2,0.8-0.2,1.2H1578.5z"/>
			<path fill="#919191" d="M1589.8,419.4c0,0.1,0,0.1-0.1,0.2c0,0-0.1,0.1-0.2,0.1c-0.1,0-0.2,0-0.3,0c-0.1,0-0.2,0-0.3,0
				c-0.1,0-0.2,0-0.2-0.1c0,0-0.1-0.1-0.1-0.2v-1.1c-0.4,0.5-0.9,0.8-1.4,1.1c-0.5,0.3-1.1,0.4-1.6,0.4c-0.5,0-1-0.1-1.4-0.2
				c-0.4-0.1-0.7-0.3-1-0.6c-0.3-0.2-0.5-0.5-0.6-0.9s-0.2-0.7-0.2-1.2c0-0.5,0.1-1,0.3-1.4c0.2-0.4,0.5-0.7,0.9-1
				c0.4-0.3,0.9-0.5,1.5-0.6c0.6-0.1,1.2-0.2,1.9-0.2h1.5V413c0-0.4,0-0.8-0.1-1.1c-0.1-0.3-0.2-0.6-0.4-0.8s-0.4-0.4-0.8-0.5
				s-0.7-0.2-1.1-0.2c-0.4,0-0.8,0.1-1.2,0.2c-0.3,0.1-0.6,0.2-0.9,0.3s-0.5,0.2-0.6,0.3c-0.2,0.1-0.3,0.2-0.4,0.2c0,0-0.1,0-0.1,0
				s-0.1,0-0.1-0.1c0,0,0-0.1-0.1-0.2c0-0.1,0-0.1,0-0.2c0-0.2,0-0.3,0-0.4c0-0.1,0.1-0.2,0.2-0.3c0.1-0.1,0.2-0.2,0.5-0.3
				s0.5-0.2,0.8-0.3c0.3-0.1,0.6-0.2,1-0.3s0.7-0.1,1-0.1c0.7,0,1.2,0.1,1.7,0.2c0.5,0.2,0.8,0.4,1.1,0.7c0.3,0.3,0.5,0.7,0.6,1.1
				c0.1,0.4,0.2,0.9,0.2,1.5V419.4z M1588.5,414.8h-1.8c-0.5,0-1,0-1.4,0.1s-0.7,0.2-1,0.4s-0.4,0.4-0.6,0.6
				c-0.1,0.3-0.2,0.5-0.2,0.9c0,0.6,0.2,1,0.5,1.3c0.4,0.3,0.9,0.5,1.5,0.5c0.5,0,1-0.1,1.4-0.4c0.4-0.3,0.9-0.7,1.4-1.2V414.8z"/>
			<path fill="#919191" d="M1598,418.8c0,0.2,0,0.3,0,0.4c0,0.1-0.1,0.2-0.1,0.2c-0.1,0.1-0.1,0.1-0.2,0.2c-0.1,0-0.2,0.1-0.4,0.1
				c-0.1,0-0.3,0.1-0.4,0.1c-0.2,0-0.3,0-0.4,0c-0.5,0-0.9-0.1-1.2-0.2s-0.6-0.3-0.8-0.6c-0.2-0.3-0.4-0.6-0.5-1
				c-0.1-0.4-0.1-0.9-0.1-1.4v-6h-1.5c-0.1,0-0.2,0-0.2-0.1c-0.1-0.1-0.1-0.2-0.1-0.4c0-0.1,0-0.2,0-0.2c0-0.1,0-0.1,0.1-0.2
				c0,0,0.1-0.1,0.1-0.1c0,0,0.1,0,0.1,0h1.5v-2.4c0,0,0-0.1,0-0.1c0,0,0.1-0.1,0.1-0.1c0,0,0.1,0,0.2-0.1c0.1,0,0.2,0,0.3,0
				c0.1,0,0.2,0,0.3,0c0.1,0,0.1,0,0.2,0.1c0,0,0.1,0.1,0.1,0.1c0,0,0,0.1,0,0.1v2.4h2.7c0,0,0.1,0,0.1,0c0,0,0.1,0.1,0.1,0.1
				c0,0,0,0.1,0.1,0.2c0,0.1,0,0.1,0,0.2c0,0.2,0,0.3-0.1,0.4c-0.1,0.1-0.1,0.1-0.2,0.1h-2.7v5.9c0,0.7,0.1,1.3,0.3,1.7
				c0.2,0.4,0.6,0.6,1.2,0.6c0.2,0,0.3,0,0.5-0.1c0.1,0,0.3-0.1,0.4-0.1s0.2-0.1,0.3-0.1c0.1,0,0.1-0.1,0.2-0.1c0,0,0.1,0,0.1,0
				c0,0,0.1,0,0.1,0.1c0,0,0,0.1,0,0.2C1598,418.7,1598,418.8,1598,418.8z"/>
			<path fill="#919191" d="M1608.6,419.4c0,0,0,0.1,0,0.1c0,0-0.1,0.1-0.1,0.1s-0.1,0-0.2,0.1s-0.2,0-0.3,0c-0.1,0-0.2,0-0.3,0
				s-0.1,0-0.2-0.1s-0.1,0-0.1-0.1c0,0,0-0.1,0-0.1v-1.4c-0.6,0.6-1.1,1.1-1.6,1.4c-0.5,0.3-1.1,0.4-1.6,0.4c-0.6,0-1.2-0.1-1.6-0.3
				s-0.8-0.5-1.1-0.9c-0.3-0.4-0.5-0.8-0.6-1.3c-0.1-0.5-0.2-1.1-0.2-1.8v-5.9c0,0,0-0.1,0-0.1c0,0,0.1-0.1,0.1-0.1
				c0,0,0.1,0,0.2-0.1c0.1,0,0.2,0,0.3,0c0.1,0,0.2,0,0.3,0c0.1,0,0.1,0,0.2,0.1c0,0,0.1,0.1,0.1,0.1s0,0.1,0,0.1v5.8
				c0,0.6,0,1.1,0.1,1.5s0.2,0.7,0.4,1c0.2,0.3,0.4,0.5,0.7,0.6c0.3,0.1,0.6,0.2,1,0.2c0.5,0,1-0.2,1.5-0.5c0.5-0.4,1-0.9,1.6-1.5
				v-7c0,0,0-0.1,0-0.1c0,0,0.1-0.1,0.1-0.1c0,0,0.1,0,0.2-0.1c0.1,0,0.2,0,0.3,0c0.1,0,0.2,0,0.3,0c0.1,0,0.1,0,0.2,0.1
				c0,0,0.1,0.1,0.1,0.1s0,0.1,0,0.1V419.4z"/>
			<path fill="#919191" d="M1617.8,410.2c0,0.1,0,0.2,0,0.3c0,0.1,0,0.1,0,0.2c0,0,0,0.1-0.1,0.1c0,0-0.1,0-0.1,0
				c-0.1,0-0.1,0-0.2,0c-0.1,0-0.2-0.1-0.3-0.1c-0.1,0-0.2-0.1-0.4-0.1c-0.1,0-0.3,0-0.5,0c-0.2,0-0.4,0-0.6,0.1
				c-0.2,0.1-0.4,0.2-0.6,0.4c-0.2,0.2-0.4,0.4-0.6,0.7c-0.2,0.3-0.5,0.7-0.7,1.1v6.6c0,0,0,0.1,0,0.1c0,0-0.1,0.1-0.1,0.1
				c0,0-0.1,0-0.2,0.1c-0.1,0-0.2,0-0.3,0c-0.1,0-0.2,0-0.3,0c-0.1,0-0.1,0-0.2-0.1s-0.1,0-0.1-0.1c0,0,0-0.1,0-0.1v-9.7
				c0,0,0-0.1,0-0.1c0,0,0.1-0.1,0.1-0.1c0,0,0.1,0,0.2-0.1c0.1,0,0.2,0,0.3,0s0.2,0,0.3,0c0.1,0,0.1,0,0.2,0.1c0,0,0.1,0.1,0.1,0.1
				c0,0,0,0.1,0,0.1v1.5c0.3-0.4,0.5-0.7,0.8-1s0.5-0.4,0.7-0.6c0.2-0.1,0.4-0.2,0.6-0.3c0.2,0,0.4-0.1,0.6-0.1c0.1,0,0.2,0,0.3,0
				c0.1,0,0.3,0,0.4,0.1c0.1,0,0.3,0.1,0.4,0.1c0.1,0,0.2,0.1,0.2,0.1c0,0,0.1,0.1,0.1,0.1c0,0,0,0.1,0,0.1c0,0,0,0.1,0,0.2
				C1617.8,410,1617.8,410.1,1617.8,410.2z"/>
			<path fill="#919191" d="M1621.7,406.4c0,0.3-0.1,0.6-0.2,0.7c-0.1,0.1-0.3,0.2-0.7,0.2c-0.3,0-0.5-0.1-0.6-0.2
				c-0.1-0.1-0.2-0.3-0.2-0.7s0.1-0.6,0.2-0.7s0.3-0.2,0.7-0.2c0.3,0,0.5,0.1,0.6,0.2C1621.7,405.9,1621.7,406.1,1621.7,406.4z
				 M1621.5,419.4c0,0,0,0.1,0,0.1c0,0-0.1,0.1-0.1,0.1c0,0-0.1,0-0.2,0.1c-0.1,0-0.2,0-0.3,0c-0.1,0-0.2,0-0.3,0
				c-0.1,0-0.1,0-0.2-0.1s-0.1,0-0.1-0.1c0,0,0-0.1,0-0.1v-9.7c0,0,0-0.1,0-0.1c0,0,0.1-0.1,0.1-0.1c0,0,0.1,0,0.2-0.1
				c0.1,0,0.2,0,0.3,0c0.1,0,0.2,0,0.3,0c0.1,0,0.1,0,0.2,0.1c0,0,0.1,0.1,0.1,0.1s0,0.1,0,0.1V419.4z"/>
			<path fill="#919191" d="M1633.2,419.4c0,0,0,0.1,0,0.1c0,0-0.1,0.1-0.1,0.1c0,0-0.1,0-0.2,0.1c-0.1,0-0.2,0-0.3,0
				c-0.1,0-0.2,0-0.3,0c-0.1,0-0.1,0-0.2-0.1c0,0-0.1,0-0.1-0.1c0,0,0-0.1,0-0.1v-5.8c0-0.6,0-1.1-0.1-1.5c-0.1-0.4-0.2-0.7-0.4-1
				c-0.2-0.3-0.4-0.5-0.7-0.6c-0.3-0.1-0.6-0.2-1-0.2c-0.5,0-1,0.2-1.5,0.5c-0.5,0.4-1,0.9-1.6,1.5v7c0,0,0,0.1,0,0.1
				c0,0-0.1,0.1-0.1,0.1c0,0-0.1,0-0.2,0.1c-0.1,0-0.2,0-0.3,0c-0.1,0-0.2,0-0.3,0c-0.1,0-0.1,0-0.2-0.1s-0.1,0-0.1-0.1
				c0,0,0-0.1,0-0.1v-9.7c0,0,0-0.1,0-0.1c0,0,0.1-0.1,0.1-0.1c0,0,0.1,0,0.2-0.1c0.1,0,0.2,0,0.3,0s0.2,0,0.3,0
				c0.1,0,0.1,0,0.2,0.1c0,0,0.1,0.1,0.1,0.1c0,0,0,0.1,0,0.1v1.4c0.6-0.6,1.1-1.1,1.6-1.4s1.1-0.4,1.6-0.4c0.6,0,1.2,0.1,1.6,0.3
				s0.8,0.5,1.1,0.9c0.3,0.4,0.5,0.8,0.6,1.3c0.1,0.5,0.2,1.1,0.2,1.8V419.4z"/>
			<path fill="#919191" d="M1644.8,410c0,0.2,0,0.3-0.1,0.4s-0.1,0.1-0.2,0.1h-1.5c0.3,0.3,0.5,0.6,0.6,1c0.1,0.4,0.2,0.7,0.2,1.1
				c0,0.6-0.1,1-0.3,1.5c-0.2,0.4-0.4,0.8-0.7,1.1c-0.3,0.3-0.7,0.5-1.1,0.7c-0.4,0.2-0.9,0.2-1.5,0.2c-0.4,0-0.9-0.1-1.2-0.2
				s-0.7-0.3-0.9-0.5c-0.1,0.1-0.3,0.3-0.4,0.5s-0.1,0.4-0.1,0.6c0,0.3,0.1,0.5,0.4,0.7c0.3,0.2,0.6,0.3,1,0.3l2.6,0.1
				c0.4,0,0.9,0.1,1.3,0.2c0.4,0.1,0.7,0.3,1,0.5c0.3,0.2,0.5,0.5,0.7,0.8s0.3,0.7,0.3,1.1c0,0.4-0.1,0.8-0.3,1.2
				c-0.2,0.4-0.4,0.7-0.8,1c-0.4,0.3-0.8,0.5-1.4,0.7c-0.6,0.2-1.3,0.3-2.1,0.3c-0.8,0-1.4-0.1-1.9-0.2c-0.5-0.1-1-0.3-1.3-0.5
				c-0.3-0.2-0.6-0.5-0.7-0.8c-0.2-0.3-0.2-0.7-0.2-1c0-0.3,0-0.5,0.1-0.7s0.1-0.4,0.3-0.6c0.1-0.2,0.3-0.4,0.4-0.6
				c0.2-0.2,0.4-0.4,0.6-0.6c-0.4-0.2-0.6-0.4-0.8-0.7c-0.2-0.3-0.3-0.5-0.3-0.8c0-0.4,0.1-0.8,0.3-1.2c0.2-0.3,0.4-0.6,0.6-0.9
				c-0.2-0.3-0.4-0.6-0.5-0.9s-0.2-0.7-0.2-1.2c0-0.5,0.1-1,0.3-1.5c0.2-0.4,0.4-0.8,0.7-1.1c0.3-0.3,0.7-0.5,1.1-0.7
				c0.4-0.2,0.9-0.2,1.5-0.2c0.3,0,0.5,0,0.8,0c0.2,0,0.5,0.1,0.7,0.1h2.9c0.1,0,0.2,0,0.3,0.1
				C1644.7,409.7,1644.8,409.9,1644.8,410z M1643.4,420.4c0-0.5-0.2-0.8-0.6-1.1c-0.4-0.2-0.9-0.4-1.5-0.4l-2.8-0.1
				c-0.3,0.2-0.5,0.4-0.6,0.6c-0.2,0.2-0.3,0.4-0.4,0.5c-0.1,0.2-0.2,0.3-0.2,0.5c0,0.2-0.1,0.3-0.1,0.5c0,0.5,0.3,0.9,0.8,1.2
				c0.5,0.3,1.3,0.4,2.2,0.4c0.6,0,1.1-0.1,1.5-0.2c0.4-0.1,0.7-0.3,1-0.5s0.4-0.4,0.5-0.7C1643.3,420.9,1643.4,420.7,1643.4,420.4z
				 M1642.4,412.7c0-0.7-0.2-1.3-0.6-1.7c-0.4-0.4-1-0.6-1.7-0.6c-0.4,0-0.7,0.1-1,0.2s-0.5,0.3-0.7,0.5c-0.2,0.2-0.3,0.5-0.4,0.8
				c-0.1,0.3-0.1,0.6-0.1,0.9c0,0.7,0.2,1.3,0.6,1.7c0.4,0.4,1,0.6,1.7,0.6c0.4,0,0.7-0.1,1-0.2c0.3-0.1,0.5-0.3,0.7-0.5
				c0.2-0.2,0.3-0.5,0.4-0.8C1642.3,413.4,1642.4,413.1,1642.4,412.7z"/>
			<path fill="#919191" d="M1660.5,419.4c0,0,0,0.1,0,0.1c0,0-0.1,0.1-0.1,0.1c0,0-0.1,0-0.2,0c-0.1,0-0.2,0-0.3,0
				c-0.1,0-0.2,0-0.3,0c-0.1,0-0.1,0-0.2,0c0,0-0.1,0-0.1-0.1c0,0,0-0.1,0-0.1V418c-0.5,0.6-1,1-1.6,1.3c-0.6,0.3-1.2,0.5-1.8,0.5
				c-0.7,0-1.3-0.1-1.8-0.4s-0.9-0.6-1.2-1.1c-0.3-0.5-0.5-1-0.7-1.6c-0.1-0.6-0.2-1.3-0.2-2c0-0.8,0.1-1.6,0.3-2.2
				c0.2-0.7,0.4-1.2,0.8-1.7c0.4-0.5,0.8-0.8,1.3-1.1c0.5-0.2,1.1-0.4,1.8-0.4c0.6,0,1.1,0.1,1.6,0.4c0.5,0.3,1,0.6,1.4,1.2V405
				c0,0,0-0.1,0-0.1c0,0,0.1-0.1,0.1-0.1s0.1,0,0.2-0.1c0.1,0,0.2,0,0.3,0c0.1,0,0.2,0,0.3,0c0.1,0,0.1,0,0.2,0.1c0,0,0.1,0,0.1,0.1
				s0,0.1,0,0.1V419.4z M1659.3,412.4c-0.5-0.7-1.1-1.1-1.6-1.5c-0.5-0.3-1-0.5-1.6-0.5c-0.5,0-0.9,0.1-1.3,0.4s-0.6,0.5-0.9,0.9
				s-0.4,0.8-0.5,1.3s-0.2,1-0.2,1.5c0,0.5,0,1.1,0.1,1.6s0.2,1,0.4,1.4c0.2,0.4,0.5,0.7,0.8,1c0.3,0.2,0.8,0.4,1.3,0.4
				c0.3,0,0.5,0,0.8-0.1c0.2-0.1,0.5-0.2,0.8-0.4s0.5-0.4,0.8-0.6c0.3-0.3,0.6-0.6,0.9-1V412.4z"/>
			<path fill="#919191" d="M1672.3,414.1c0,0.3-0.1,0.4-0.2,0.5c-0.1,0.1-0.3,0.1-0.4,0.1h-6.6c0,0.6,0.1,1.1,0.2,1.6
				c0.1,0.5,0.3,0.9,0.6,1.3c0.3,0.3,0.6,0.6,1.1,0.8c0.4,0.2,1,0.3,1.6,0.3c0.5,0,0.9,0,1.2-0.1s0.7-0.2,0.9-0.3
				c0.3-0.1,0.5-0.2,0.6-0.3c0.2-0.1,0.3-0.1,0.4-0.1c0,0,0.1,0,0.1,0s0.1,0.1,0.1,0.1c0,0,0,0.1,0,0.2c0,0.1,0,0.2,0,0.3
				c0,0,0,0.1,0,0.1c0,0,0,0.1,0,0.1c0,0,0,0.1,0,0.1s0,0.1-0.1,0.1s-0.1,0.1-0.3,0.2c-0.2,0.1-0.4,0.2-0.7,0.3
				c-0.3,0.1-0.6,0.2-1,0.2c-0.4,0.1-0.8,0.1-1.3,0.1c-0.8,0-1.4-0.1-2-0.3c-0.6-0.2-1.1-0.6-1.5-1c-0.4-0.4-0.7-1-0.9-1.6
				c-0.2-0.7-0.3-1.4-0.3-2.3c0-0.8,0.1-1.6,0.3-2.2c0.2-0.7,0.5-1.2,0.9-1.7c0.4-0.5,0.9-0.8,1.4-1c0.6-0.2,1.2-0.4,1.9-0.4
				c0.7,0,1.4,0.1,1.9,0.4s0.9,0.6,1.3,1c0.3,0.4,0.6,0.9,0.7,1.4c0.2,0.5,0.2,1.1,0.2,1.7V414.1z M1671,413.7c0-1-0.2-1.8-0.7-2.4
				s-1.2-0.9-2.2-0.9c-0.5,0-0.9,0.1-1.3,0.3c-0.4,0.2-0.7,0.4-0.9,0.7c-0.3,0.3-0.5,0.7-0.6,1c-0.1,0.4-0.2,0.8-0.2,1.2H1671z"/>
			<path fill="#919191" d="M1681.2,416.8c0,0.5-0.1,0.9-0.3,1.3c-0.2,0.4-0.4,0.7-0.7,0.9c-0.3,0.3-0.7,0.5-1.1,0.6
				s-0.9,0.2-1.5,0.2c-0.3,0-0.7,0-1-0.1c-0.3-0.1-0.6-0.1-0.8-0.2c-0.2-0.1-0.4-0.2-0.6-0.3c-0.2-0.1-0.3-0.2-0.4-0.2
				c-0.1-0.1-0.1-0.2-0.2-0.3s-0.1-0.3-0.1-0.4c0-0.1,0-0.2,0-0.2c0-0.1,0-0.1,0.1-0.2s0-0.1,0.1-0.1c0,0,0.1,0,0.1,0
				c0.1,0,0.2,0,0.3,0.2s0.3,0.2,0.6,0.3c0.2,0.1,0.5,0.2,0.8,0.3c0.3,0.1,0.7,0.2,1.1,0.2c0.3,0,0.6,0,0.9-0.1
				c0.3-0.1,0.5-0.2,0.7-0.3c0.2-0.1,0.4-0.3,0.5-0.6c0.1-0.2,0.2-0.5,0.2-0.8s-0.1-0.6-0.2-0.8c-0.1-0.2-0.3-0.4-0.6-0.5
				c-0.2-0.2-0.5-0.3-0.8-0.4c-0.3-0.1-0.6-0.2-0.9-0.4c-0.3-0.1-0.6-0.3-0.9-0.4c-0.3-0.2-0.6-0.3-0.8-0.5
				c-0.2-0.2-0.4-0.5-0.6-0.8s-0.2-0.7-0.2-1.1c0-0.3,0.1-0.7,0.2-1c0.1-0.3,0.3-0.6,0.6-0.9c0.3-0.3,0.6-0.5,1-0.6
				c0.4-0.2,0.9-0.2,1.5-0.2c0.2,0,0.5,0,0.7,0.1c0.2,0,0.5,0.1,0.7,0.2c0.2,0.1,0.4,0.1,0.5,0.2c0.1,0.1,0.3,0.1,0.3,0.2
				c0.1,0.1,0.1,0.1,0.2,0.1c0,0,0,0.1,0.1,0.1c0,0,0,0.1,0,0.2c0,0.1,0,0.1,0,0.2s0,0.2,0,0.2c0,0.1,0,0.1,0,0.2s0,0.1-0.1,0.1
				c0,0-0.1,0-0.1,0c-0.1,0-0.1,0-0.3-0.1c-0.1-0.1-0.3-0.2-0.5-0.3c-0.2-0.1-0.4-0.2-0.7-0.3c-0.3-0.1-0.6-0.1-0.9-0.1
				s-0.6,0-0.9,0.1c-0.3,0.1-0.5,0.2-0.6,0.3s-0.3,0.3-0.4,0.5c-0.1,0.2-0.1,0.4-0.1,0.6c0,0.3,0.1,0.6,0.2,0.8s0.3,0.4,0.6,0.6
				s0.5,0.3,0.8,0.4c0.3,0.1,0.6,0.2,0.9,0.4c0.3,0.1,0.6,0.3,0.9,0.4c0.3,0.1,0.6,0.3,0.8,0.5s0.4,0.5,0.6,0.7
				C1681.1,416.1,1681.2,416.4,1681.2,416.8z"/>
			<path fill="#919191" d="M1689.9,416.8c0,0.5-0.1,0.9-0.3,1.3c-0.2,0.4-0.4,0.7-0.7,0.9c-0.3,0.3-0.7,0.5-1.1,0.6
				s-0.9,0.2-1.5,0.2c-0.3,0-0.7,0-1-0.1c-0.3-0.1-0.6-0.1-0.8-0.2c-0.2-0.1-0.4-0.2-0.6-0.3c-0.2-0.1-0.3-0.2-0.4-0.2
				c-0.1-0.1-0.1-0.2-0.2-0.3s-0.1-0.3-0.1-0.4c0-0.1,0-0.2,0-0.2c0-0.1,0-0.1,0.1-0.2s0-0.1,0.1-0.1c0,0,0.1,0,0.1,0
				c0.1,0,0.2,0,0.3,0.2s0.3,0.2,0.6,0.3c0.2,0.1,0.5,0.2,0.8,0.3c0.3,0.1,0.7,0.2,1.1,0.2c0.3,0,0.6,0,0.9-0.1
				c0.3-0.1,0.5-0.2,0.7-0.3c0.2-0.1,0.4-0.3,0.5-0.6c0.1-0.2,0.2-0.5,0.2-0.8s-0.1-0.6-0.2-0.8c-0.1-0.2-0.3-0.4-0.6-0.5
				c-0.2-0.2-0.5-0.3-0.8-0.4c-0.3-0.1-0.6-0.2-0.9-0.4c-0.3-0.1-0.6-0.3-0.9-0.4c-0.3-0.2-0.6-0.3-0.8-0.5
				c-0.2-0.2-0.4-0.5-0.6-0.8s-0.2-0.7-0.2-1.1c0-0.3,0.1-0.7,0.2-1c0.1-0.3,0.3-0.6,0.6-0.9c0.3-0.3,0.6-0.5,1-0.6
				c0.4-0.2,0.9-0.2,1.5-0.2c0.2,0,0.5,0,0.7,0.1c0.2,0,0.5,0.1,0.7,0.2c0.2,0.1,0.4,0.1,0.5,0.2c0.1,0.1,0.3,0.1,0.3,0.2
				c0.1,0.1,0.1,0.1,0.2,0.1c0,0,0,0.1,0.1,0.1c0,0,0,0.1,0,0.2c0,0.1,0,0.1,0,0.2s0,0.2,0,0.2c0,0.1,0,0.1,0,0.2s0,0.1-0.1,0.1
				c0,0-0.1,0-0.1,0c-0.1,0-0.1,0-0.3-0.1c-0.1-0.1-0.3-0.2-0.5-0.3c-0.2-0.1-0.4-0.2-0.7-0.3c-0.3-0.1-0.6-0.1-0.9-0.1
				s-0.6,0-0.9,0.1c-0.3,0.1-0.5,0.2-0.6,0.3s-0.3,0.3-0.4,0.5c-0.1,0.2-0.1,0.4-0.1,0.6c0,0.3,0.1,0.6,0.2,0.8s0.3,0.4,0.6,0.6
				s0.5,0.3,0.8,0.4c0.3,0.1,0.6,0.2,0.9,0.4c0.3,0.1,0.6,0.3,0.9,0.4c0.3,0.1,0.6,0.3,0.8,0.5s0.4,0.5,0.6,0.7
				C1689.8,416.1,1689.9,416.4,1689.9,416.8z"/>
			<path fill="#919191" d="M1700.8,414.1c0,0.3-0.1,0.4-0.2,0.5c-0.1,0.1-0.3,0.1-0.4,0.1h-6.6c0,0.6,0.1,1.1,0.2,1.6
				c0.1,0.5,0.3,0.9,0.6,1.3c0.3,0.3,0.6,0.6,1.1,0.8c0.4,0.2,1,0.3,1.6,0.3c0.5,0,0.9,0,1.2-0.1s0.7-0.2,0.9-0.3
				c0.3-0.1,0.5-0.2,0.6-0.3c0.2-0.1,0.3-0.1,0.4-0.1c0,0,0.1,0,0.1,0s0.1,0.1,0.1,0.1c0,0,0,0.1,0,0.2c0,0.1,0,0.2,0,0.3
				c0,0,0,0.1,0,0.1c0,0,0,0.1,0,0.1c0,0,0,0.1,0,0.1s0,0.1-0.1,0.1s-0.1,0.1-0.3,0.2c-0.2,0.1-0.4,0.2-0.7,0.3
				c-0.3,0.1-0.6,0.2-1,0.2c-0.4,0.1-0.8,0.1-1.3,0.1c-0.8,0-1.4-0.1-2-0.3c-0.6-0.2-1.1-0.6-1.5-1c-0.4-0.4-0.7-1-0.9-1.6
				c-0.2-0.7-0.3-1.4-0.3-2.3c0-0.8,0.1-1.6,0.3-2.2c0.2-0.7,0.5-1.2,0.9-1.7c0.4-0.5,0.9-0.8,1.4-1c0.6-0.2,1.2-0.4,1.9-0.4
				c0.7,0,1.4,0.1,1.9,0.4s0.9,0.6,1.3,1c0.3,0.4,0.6,0.9,0.7,1.4c0.2,0.5,0.2,1.1,0.2,1.7V414.1z M1699.5,413.7
				c0-1-0.2-1.8-0.7-2.4s-1.2-0.9-2.2-0.9c-0.5,0-0.9,0.1-1.3,0.3c-0.4,0.2-0.7,0.4-0.9,0.7c-0.3,0.3-0.5,0.7-0.6,1
				c-0.1,0.4-0.2,0.8-0.2,1.2H1699.5z"/>
			<path fill="#919191" d="M1709.4,410.2c0,0.1,0,0.2,0,0.3c0,0.1,0,0.1,0,0.2c0,0,0,0.1-0.1,0.1c0,0-0.1,0-0.1,0
				c-0.1,0-0.1,0-0.2,0c-0.1,0-0.2-0.1-0.3-0.1c-0.1,0-0.2-0.1-0.4-0.1c-0.1,0-0.3,0-0.5,0c-0.2,0-0.4,0-0.6,0.1
				c-0.2,0.1-0.4,0.2-0.6,0.4c-0.2,0.2-0.4,0.4-0.6,0.7c-0.2,0.3-0.5,0.7-0.7,1.1v6.6c0,0,0,0.1,0,0.1c0,0-0.1,0.1-0.1,0.1
				c0,0-0.1,0-0.2,0.1c-0.1,0-0.2,0-0.3,0c-0.1,0-0.2,0-0.3,0c-0.1,0-0.1,0-0.2-0.1s-0.1,0-0.1-0.1c0,0,0-0.1,0-0.1v-9.7
				c0,0,0-0.1,0-0.1c0,0,0.1-0.1,0.1-0.1c0,0,0.1,0,0.2-0.1c0.1,0,0.2,0,0.3,0s0.2,0,0.3,0c0.1,0,0.1,0,0.2,0.1c0,0,0.1,0.1,0.1,0.1
				c0,0,0,0.1,0,0.1v1.5c0.3-0.4,0.5-0.7,0.8-1s0.5-0.4,0.7-0.6c0.2-0.1,0.4-0.2,0.6-0.3c0.2,0,0.4-0.1,0.6-0.1c0.1,0,0.2,0,0.3,0
				c0.1,0,0.3,0,0.4,0.1c0.1,0,0.3,0.1,0.4,0.1c0.1,0,0.2,0.1,0.2,0.1c0,0,0.1,0.1,0.1,0.1c0,0,0,0.1,0,0.1c0,0,0,0.1,0,0.2
				C1709.4,410,1709.4,410.1,1709.4,410.2z"/>
			<path fill="#919191" d="M1716.5,418.8c0,0.2,0,0.3,0,0.4c0,0.1-0.1,0.2-0.1,0.2c-0.1,0.1-0.1,0.1-0.2,0.2c-0.1,0-0.2,0.1-0.4,0.1
				c-0.1,0-0.3,0.1-0.4,0.1c-0.2,0-0.3,0-0.4,0c-0.5,0-0.9-0.1-1.2-0.2s-0.6-0.3-0.8-0.6c-0.2-0.3-0.4-0.6-0.5-1
				c-0.1-0.4-0.1-0.9-0.1-1.4v-6h-1.5c-0.1,0-0.2,0-0.2-0.1c-0.1-0.1-0.1-0.2-0.1-0.4c0-0.1,0-0.2,0-0.2c0-0.1,0-0.1,0.1-0.2
				c0,0,0.1-0.1,0.1-0.1c0,0,0.1,0,0.1,0h1.5v-2.4c0,0,0-0.1,0-0.1c0,0,0.1-0.1,0.1-0.1c0,0,0.1,0,0.2-0.1c0.1,0,0.2,0,0.3,0
				c0.1,0,0.2,0,0.3,0c0.1,0,0.1,0,0.2,0.1c0,0,0.1,0.1,0.1,0.1c0,0,0,0.1,0,0.1v2.4h2.7c0,0,0.1,0,0.1,0c0,0,0.1,0.1,0.1,0.1
				c0,0,0,0.1,0.1,0.2c0,0.1,0,0.1,0,0.2c0,0.2,0,0.3-0.1,0.4c-0.1,0.1-0.1,0.1-0.2,0.1h-2.7v5.9c0,0.7,0.1,1.3,0.3,1.7
				c0.2,0.4,0.6,0.6,1.2,0.6c0.2,0,0.3,0,0.5-0.1c0.1,0,0.3-0.1,0.4-0.1s0.2-0.1,0.3-0.1c0.1,0,0.1-0.1,0.2-0.1c0,0,0.1,0,0.1,0
				c0,0,0.1,0,0.1,0.1c0,0,0,0.1,0,0.2C1716.5,418.7,1716.5,418.8,1716.5,418.8z"/>
			<path fill="#919191" d="M1725,416.8c0,0.5-0.1,0.9-0.3,1.3c-0.2,0.4-0.4,0.7-0.7,0.9c-0.3,0.3-0.7,0.5-1.1,0.6s-0.9,0.2-1.5,0.2
				c-0.3,0-0.7,0-1-0.1c-0.3-0.1-0.6-0.1-0.8-0.2c-0.2-0.1-0.4-0.2-0.6-0.3c-0.2-0.1-0.3-0.2-0.4-0.2c-0.1-0.1-0.1-0.2-0.2-0.3
				s-0.1-0.3-0.1-0.4c0-0.1,0-0.2,0-0.2c0-0.1,0-0.1,0.1-0.2s0-0.1,0.1-0.1c0,0,0.1,0,0.1,0c0.1,0,0.2,0,0.3,0.2s0.3,0.2,0.6,0.3
				c0.2,0.1,0.5,0.2,0.8,0.3c0.3,0.1,0.7,0.2,1.1,0.2c0.3,0,0.6,0,0.9-0.1c0.3-0.1,0.5-0.2,0.7-0.3c0.2-0.1,0.4-0.3,0.5-0.6
				c0.1-0.2,0.2-0.5,0.2-0.8s-0.1-0.6-0.2-0.8c-0.1-0.2-0.3-0.4-0.6-0.5c-0.2-0.2-0.5-0.3-0.8-0.4c-0.3-0.1-0.6-0.2-0.9-0.4
				c-0.3-0.1-0.6-0.3-0.9-0.4c-0.3-0.2-0.6-0.3-0.8-0.5c-0.2-0.2-0.4-0.5-0.6-0.8s-0.2-0.7-0.2-1.1c0-0.3,0.1-0.7,0.2-1
				c0.1-0.3,0.3-0.6,0.6-0.9c0.3-0.3,0.6-0.5,1-0.6c0.4-0.2,0.9-0.2,1.5-0.2c0.2,0,0.5,0,0.7,0.1c0.2,0,0.5,0.1,0.7,0.2
				c0.2,0.1,0.4,0.1,0.5,0.2c0.1,0.1,0.3,0.1,0.3,0.2c0.1,0.1,0.1,0.1,0.2,0.1c0,0,0,0.1,0.1,0.1c0,0,0,0.1,0,0.2c0,0.1,0,0.1,0,0.2
				s0,0.2,0,0.2c0,0.1,0,0.1,0,0.2s0,0.1-0.1,0.1c0,0-0.1,0-0.1,0c-0.1,0-0.1,0-0.3-0.1c-0.1-0.1-0.3-0.2-0.5-0.3
				c-0.2-0.1-0.4-0.2-0.7-0.3c-0.3-0.1-0.6-0.1-0.9-0.1s-0.6,0-0.9,0.1c-0.3,0.1-0.5,0.2-0.6,0.3s-0.3,0.3-0.4,0.5
				c-0.1,0.2-0.1,0.4-0.1,0.6c0,0.3,0.1,0.6,0.2,0.8s0.3,0.4,0.6,0.6s0.5,0.3,0.8,0.4c0.3,0.1,0.6,0.2,0.9,0.4
				c0.3,0.1,0.6,0.3,0.9,0.4c0.3,0.1,0.6,0.3,0.8,0.5s0.4,0.5,0.6,0.7C1724.9,416.1,1725,416.4,1725,416.8z"/>
		</g>
		<g>
			<path fill="#1B264C" d="M1447.8,288.3c-1.2-2-4.6-4-8.5-4c-5,0-7.4,2.1-7.4,4.7c0,3.1,3.7,4,8,4.5c7.4,0.9,14.4,2.9,14.4,11.4
				c0,8-7,11.4-15,11.4c-7.3,0-12.9-2.2-15.6-8.8l5.6-2.9c1.6,3.9,5.7,5.7,10,5.7c4.2,0,8.2-1.5,8.2-5.4c0-3.4-3.5-4.7-8.3-5.3
				c-7.3-0.9-14-2.8-14-10.8c0-7.3,7.2-10.4,13.8-10.4c5.6,0,11.3,1.6,14,7.1L1447.8,288.3z"/>
			<path fill="#1B264C" d="M1481.6,290.2l5.5,18.9l5.8-18.9h6.9l-8.8,25.3h-7.2l-2.6-7.4l-2.2-8.4l-2.2,8.4l-2.6,7.4h-7.2l-8.8-25.3
				h6.9l5.8,18.9l5.5-18.9H1481.6z"/>
			<path fill="#1B264C" d="M1510.3,305c0.4,3.1,3.1,5.4,7.5,5.4c2.3,0,5.3-0.9,6.7-2.3l4,3.9c-2.7,2.8-7,4.1-10.8,4.1
				c-8.7,0-13.8-5.4-13.8-13.4c0-7.6,5.2-13.2,13.4-13.2c8.4,0,13.7,5.2,12.7,15.6H1510.3z M1524,299.9c-0.4-3.3-3-4.9-6.5-4.9
				c-3.4,0-6.1,1.6-7,4.9H1524z"/>
			<path fill="#1B264C" d="M1540,305c0.4,3.1,3.1,5.4,7.5,5.4c2.3,0,5.3-0.9,6.7-2.3l4,3.9c-2.7,2.8-7,4.1-10.8,4.1
				c-8.7,0-13.8-5.4-13.8-13.4c0-7.6,5.2-13.2,13.4-13.2c8.4,0,13.7,5.2,12.7,15.6H1540z M1553.7,299.9c-0.4-3.3-3-4.9-6.5-4.9
				c-3.4,0-6.1,1.6-7,4.9H1553.7z"/>
			<path fill="#1B264C" d="M1572.2,283.2v7.1h6.9v5.4h-7v10.9c0,2.4,1.3,3.6,3.3,3.6c1,0,2.1-0.3,3-0.8l1.7,5.3
				c-1.8,0.7-3.3,1-5.2,1.1c-5.5,0.2-9-2.9-9-9.2v-10.9h-4.7v-5.4h4.7v-6.5L1572.2,283.2z"/>
			<path fill="#1B264C" d="M1600.2,296.9c-1.8-1.7-3.8-2.2-6.2-2.2c-3,0-4.6,0.9-4.6,2.5c0,1.6,1.5,2.5,4.7,2.8
				c4.7,0.3,10.8,1.4,10.8,8.1c0,4.4-3.6,8.3-10.8,8.3c-4,0-8-0.7-11.6-4.5l3.1-4.4c1.8,2,5.9,3.5,8.7,3.5c2.3,0.1,4.5-1.2,4.5-3
				c0-1.7-1.4-2.4-5-2.7c-4.7-0.4-10.4-2.1-10.4-7.8c0-5.8,6-7.9,10.6-7.9c3.9,0,6.9,0.8,9.8,3.3L1600.2,296.9z"/>
		</g>
		<g>
			<rect x="1387.5" y="-4.6" fill="#AFAFAF" width="1" height="4253.5"/>
		</g>
	</g>
</g>
<circle fill="#FFFFFF" cx="1553.8" cy="1529" r="8.9"/>
</svg>
