<?xml version="1.0" encoding="utf-8"?>
<!-- Generator: Adobe Illustrator 17.1.0, SVG Export Plug-In . SVG Version: 6.00 Build 0)  -->
<!DOCTYPE svg PUBLIC "-//W3C//DTD SVG 1.1//EN" "http://www.w3.org/Graphics/SVG/1.1/DTD/svg11.dtd">
<svg version="1.1" id="Layer_1" xmlns="http://www.w3.org/2000/svg" xmlns:xlink="http://www.w3.org/1999/xlink" x="0px" y="0px"
	 viewBox="0 0 1920 4265" enable-background="new 0 0 1920 4265" xml:space="preserve">
<g display="none">
	<path display="inline" fill="#15FFA5" d="M1653.9,42c0,19-28.8,19-28.8,0C1625.1,23,1653.9,23,1653.9,42z M1627.3,69.4v99h24.4v-99
		H1627.3z"/>
	<path display="inline" fill="#15FFA5" d="M1686.3,69.8l1.8,11.4c7.6-12.2,17.8-14,27.8-14c10.2,0,20,4,25.4,9.4l-11,21.2
		c-5-4.2-9.6-6.4-17.6-6.4c-12.8,0-24.6,6.8-24.6,25v52h-24.4V69.8H1686.3z"/>
	<path display="inline" fill="#15FFA5" d="M1761.3,127.8c1.6,12.2,12.2,21,29.4,21c9,0,20.8-3.4,26.4-9.2l15.6,15.4
		c-10.4,10.8-27.4,16-42.4,16c-34,0-54.2-21-54.2-52.6c0-30,20.4-51.6,52.4-51.6c33,0,53.6,20.4,49.8,61H1761.3z M1814.9,107.6
		c-1.6-12.8-11.6-19.2-25.6-19.2c-13.2,0-24,6.4-27.6,19.2H1814.9z"/>
	<path display="inline" fill="#15FFA5" d="M1919.7,168.4v-51.6c0-15-8.2-26.4-23.8-26.4c-15,0-25.2,12.6-25.2,27.6v50.4h-24.2V69.6
		h21.8l1.6,13.4c10-9.8,20-14.8,32.4-14.8c23.2,0,41.8,17.4,41.8,48.4v51.8H1919.7z"/>
</g>
<g>
	<g>
		<g>
			<rect x="1387.5" y="383.5" fill="#AFAFAF" width="532.5" height="1"/>
		</g>
	</g>
	<g>
		<g>
			<rect x="1423.4" y="291.3" fill="#15FFA5" width="193.6" height="30.6"/>
		</g>
		<g>
			<path fill="#919191" d="M1437.9,425.7c0,0.1,0.1,0.2,0.1,0.3c0,0.1,0,0.1-0.1,0.2c0,0-0.1,0.1-0.2,0.1c-0.1,0-0.2,0-0.4,0
				s-0.3,0-0.4,0c-0.1,0-0.2,0-0.2,0s-0.1,0-0.1-0.1c0,0,0-0.1-0.1-0.1l-1.3-3.7h-6.1l-1.3,3.7c0,0,0,0.1-0.1,0.1s-0.1,0.1-0.1,0.1
				c0,0-0.1,0-0.2,0.1c-0.1,0-0.2,0-0.3,0c-0.2,0-0.3,0-0.4,0s-0.2,0-0.2-0.1c0,0-0.1-0.1-0.1-0.2c0-0.1,0-0.2,0.1-0.3l4.9-13.2
				c0-0.1,0.1-0.1,0.1-0.1c0,0,0.1-0.1,0.2-0.1c0.1,0,0.2,0,0.2,0c0.1,0,0.2,0,0.3,0c0.1,0,0.2,0,0.3,0c0.1,0,0.2,0,0.2,0
				c0.1,0,0.1,0.1,0.2,0.1c0,0,0.1,0.1,0.1,0.1L1437.9,425.7z M1432.1,413.7L1432.1,413.7l-2.6,7.5h5.3L1432.1,413.7z"/>
			<path fill="#919191" d="M1453.4,416.5c0,0.2,0,0.3-0.1,0.4s-0.1,0.1-0.2,0.1h-1.5c0.3,0.3,0.5,0.6,0.6,1c0.1,0.4,0.2,0.7,0.2,1.1
				c0,0.6-0.1,1-0.3,1.5c-0.2,0.4-0.4,0.8-0.7,1.1c-0.3,0.3-0.7,0.5-1.1,0.7c-0.4,0.2-0.9,0.2-1.5,0.2c-0.4,0-0.9-0.1-1.2-0.2
				s-0.7-0.3-0.9-0.5c-0.1,0.1-0.3,0.3-0.4,0.5s-0.1,0.4-0.1,0.6c0,0.3,0.1,0.5,0.4,0.7c0.3,0.2,0.6,0.3,1,0.3l2.6,0.1
				c0.4,0,0.9,0.1,1.3,0.2c0.4,0.1,0.7,0.3,1,0.5c0.3,0.2,0.5,0.5,0.7,0.8s0.3,0.7,0.3,1.1c0,0.4-0.1,0.8-0.3,1.2
				c-0.2,0.4-0.4,0.7-0.8,1c-0.4,0.3-0.8,0.5-1.4,0.7c-0.6,0.2-1.3,0.3-2.1,0.3c-0.8,0-1.4-0.1-1.9-0.2c-0.5-0.1-1-0.3-1.3-0.5
				c-0.3-0.2-0.6-0.5-0.7-0.8c-0.2-0.3-0.2-0.7-0.2-1c0-0.3,0-0.5,0.1-0.7s0.1-0.4,0.3-0.6c0.1-0.2,0.3-0.4,0.4-0.6
				c0.2-0.2,0.4-0.4,0.6-0.6c-0.4-0.2-0.6-0.4-0.8-0.7c-0.2-0.3-0.3-0.5-0.3-0.8c0-0.4,0.1-0.8,0.3-1.2c0.2-0.3,0.4-0.6,0.6-0.9
				c-0.2-0.3-0.4-0.6-0.5-0.9s-0.2-0.7-0.2-1.2c0-0.5,0.1-1,0.3-1.5c0.2-0.4,0.4-0.8,0.7-1.1c0.3-0.3,0.7-0.5,1.1-0.7
				c0.4-0.2,0.9-0.2,1.5-0.2c0.3,0,0.5,0,0.8,0c0.2,0,0.5,0.1,0.7,0.1h2.9c0.1,0,0.2,0,0.3,0.1
				C1453.4,416.2,1453.4,416.4,1453.4,416.5z M1452,426.9c0-0.5-0.2-0.8-0.6-1.1c-0.4-0.2-0.9-0.4-1.5-0.4l-2.8-0.1
				c-0.3,0.2-0.5,0.4-0.6,0.6c-0.2,0.2-0.3,0.4-0.4,0.5c-0.1,0.2-0.2,0.3-0.2,0.5c0,0.2-0.1,0.3-0.1,0.5c0,0.5,0.3,0.9,0.8,1.2
				c0.5,0.3,1.3,0.4,2.2,0.4c0.6,0,1.1-0.1,1.5-0.2c0.4-0.1,0.7-0.3,1-0.5s0.4-0.4,0.5-0.7C1452,427.4,1452,427.2,1452,426.9z
				 M1451,419.2c0-0.7-0.2-1.3-0.6-1.7c-0.4-0.4-1-0.6-1.7-0.6c-0.4,0-0.7,0.1-1,0.2s-0.5,0.3-0.7,0.5c-0.2,0.2-0.3,0.5-0.4,0.8
				c-0.1,0.3-0.1,0.6-0.1,0.9c0,0.7,0.2,1.3,0.6,1.7c0.4,0.4,1,0.6,1.7,0.6c0.4,0,0.7-0.1,1-0.2c0.3-0.1,0.5-0.3,0.7-0.5
				c0.2-0.2,0.3-0.5,0.4-0.8C1451,419.9,1451,419.6,1451,419.2z"/>
			<path fill="#919191" d="M1457.6,412.9c0,0.3-0.1,0.6-0.2,0.7c-0.1,0.1-0.3,0.2-0.7,0.2c-0.3,0-0.5-0.1-0.6-0.2
				c-0.1-0.1-0.2-0.3-0.2-0.7s0.1-0.6,0.2-0.7s0.3-0.2,0.7-0.2c0.3,0,0.5,0.1,0.6,0.2C1457.5,412.4,1457.6,412.6,1457.6,412.9z
				 M1457.4,425.9c0,0,0,0.1,0,0.1c0,0-0.1,0.1-0.1,0.1c0,0-0.1,0-0.2,0.1c-0.1,0-0.2,0-0.3,0c-0.1,0-0.2,0-0.3,0
				c-0.1,0-0.1,0-0.2-0.1s-0.1,0-0.1-0.1c0,0,0-0.1,0-0.1v-9.7c0,0,0-0.1,0-0.1c0,0,0.1-0.1,0.1-0.1c0,0,0.1,0,0.2-0.1
				c0.1,0,0.2,0,0.3,0c0.1,0,0.2,0,0.3,0c0.1,0,0.1,0,0.2,0.1c0,0,0.1,0.1,0.1,0.1s0,0.1,0,0.1V425.9z"/>
			<path fill="#919191" d="M1466.2,412.1c0,0.1,0,0.2,0,0.2c0,0.1,0,0.1,0,0.1c0,0,0,0.1-0.1,0.1c0,0-0.1,0-0.1,0
				c-0.1,0-0.1,0-0.2-0.1c-0.1,0-0.2-0.1-0.3-0.1c-0.1,0-0.3-0.1-0.4-0.1c-0.2,0-0.3-0.1-0.6-0.1c-0.3,0-0.6,0-0.8,0.1
				c-0.2,0.1-0.4,0.2-0.5,0.5c-0.1,0.2-0.2,0.5-0.3,0.8c-0.1,0.3-0.1,0.7-0.1,1.2v1.1h2.4c0,0,0.1,0,0.1,0s0.1,0.1,0.1,0.1
				c0,0,0,0.1,0.1,0.2c0,0.1,0,0.1,0,0.2c0,0.2,0,0.3-0.1,0.4c-0.1,0.1-0.1,0.1-0.2,0.1h-2.4v8.9c0,0,0,0.1,0,0.1
				c0,0-0.1,0.1-0.1,0.1c0,0-0.1,0-0.2,0.1s-0.2,0-0.3,0s-0.2,0-0.3,0c-0.1,0-0.1,0-0.2-0.1s-0.1,0-0.1-0.1c0,0,0-0.1,0-0.1v-8.9
				h-1.5c-0.1,0-0.2,0-0.2-0.1c-0.1-0.1-0.1-0.2-0.1-0.4c0-0.1,0-0.2,0-0.2c0-0.1,0-0.1,0.1-0.2c0,0,0.1-0.1,0.1-0.1
				c0,0,0.1,0,0.1,0h1.5v-1.1c0-0.7,0.1-1.3,0.2-1.7c0.1-0.5,0.3-0.9,0.6-1.2c0.2-0.3,0.6-0.5,0.9-0.7c0.4-0.1,0.8-0.2,1.3-0.2
				c0.2,0,0.5,0,0.7,0.1c0.2,0,0.4,0.1,0.5,0.2c0.1,0.1,0.2,0.1,0.2,0.1c0,0,0.1,0.1,0.1,0.1c0,0.1,0,0.1,0.1,0.2
				C1466.2,411.9,1466.2,412,1466.2,412.1z"/>
			<path fill="#919191" d="M1480,424.5c0,0.1,0,0.2,0,0.2c0,0.1,0,0.1,0,0.2s0,0.1-0.1,0.1c0,0-0.1,0.1-0.2,0.2
				c-0.1,0.1-0.2,0.2-0.5,0.4c-0.2,0.1-0.5,0.3-0.7,0.4s-0.6,0.2-0.9,0.3c-0.3,0.1-0.6,0.1-1,0.1c-0.7,0-1.3-0.1-1.8-0.3
				c-0.5-0.2-1-0.6-1.3-1c-0.4-0.4-0.6-1-0.8-1.6c-0.2-0.6-0.3-1.4-0.3-2.2c0-0.9,0.1-1.8,0.3-2.4c0.2-0.7,0.5-1.2,0.9-1.7
				s0.9-0.7,1.4-1c0.5-0.2,1.1-0.3,1.7-0.3c0.3,0,0.6,0,0.9,0.1c0.3,0.1,0.6,0.1,0.8,0.2c0.2,0.1,0.5,0.2,0.7,0.3s0.3,0.2,0.4,0.3
				c0.1,0.1,0.2,0.2,0.2,0.2c0,0,0.1,0.1,0.1,0.2c0,0.1,0,0.1,0,0.2c0,0.1,0,0.1,0,0.2c0,0.2,0,0.4-0.1,0.4
				c-0.1,0.1-0.1,0.1-0.2,0.1c-0.1,0-0.2-0.1-0.4-0.2c-0.1-0.1-0.3-0.3-0.6-0.4c-0.2-0.2-0.5-0.3-0.8-0.4c-0.3-0.1-0.7-0.2-1.2-0.2
				c-0.9,0-1.6,0.4-2.2,1.1c-0.5,0.7-0.8,1.8-0.8,3.1c0,0.7,0.1,1.3,0.2,1.8c0.1,0.5,0.3,0.9,0.6,1.3c0.3,0.3,0.6,0.6,0.9,0.8
				c0.4,0.2,0.8,0.3,1.2,0.3c0.4,0,0.8-0.1,1.1-0.2s0.6-0.3,0.9-0.5s0.4-0.3,0.6-0.5c0.2-0.1,0.3-0.2,0.4-0.2c0,0,0.1,0,0.1,0
				c0,0,0.1,0.1,0.1,0.1c0,0.1,0,0.1,0,0.2C1480,424.3,1480,424.4,1480,424.5z"/>
			<path fill="#919191" d="M1491.2,421c0,0.8-0.1,1.5-0.3,2.1c-0.2,0.7-0.5,1.2-0.9,1.7c-0.4,0.5-0.9,0.9-1.5,1.1
				c-0.6,0.3-1.3,0.4-2.1,0.4c-0.8,0-1.4-0.1-2-0.4c-0.6-0.2-1-0.6-1.4-1c-0.4-0.4-0.7-1-0.9-1.6c-0.2-0.6-0.3-1.4-0.3-2.2
				c0-0.8,0.1-1.5,0.3-2.1c0.2-0.7,0.5-1.2,0.9-1.7c0.4-0.5,0.9-0.8,1.5-1.1c0.6-0.3,1.3-0.4,2.1-0.4c0.8,0,1.4,0.1,2,0.4
				c0.6,0.2,1,0.6,1.4,1c0.4,0.4,0.7,1,0.9,1.6S1491.2,420.2,1491.2,421z M1489.8,421.1c0-0.6-0.1-1.1-0.2-1.6s-0.3-0.9-0.5-1.3
				c-0.3-0.4-0.6-0.7-1-0.9c-0.4-0.2-0.9-0.3-1.6-0.3c-0.6,0-1.1,0.1-1.5,0.3c-0.4,0.2-0.8,0.5-1,0.9c-0.3,0.4-0.5,0.8-0.6,1.3
				c-0.1,0.5-0.2,1-0.2,1.6c0,0.6,0.1,1.1,0.2,1.6c0.1,0.5,0.3,0.9,0.5,1.3s0.6,0.7,1,0.9s0.9,0.3,1.6,0.3c0.6,0,1.1-0.1,1.5-0.3
				s0.8-0.5,1-0.9c0.3-0.4,0.5-0.8,0.6-1.3C1489.7,422.2,1489.8,421.7,1489.8,421.1z"/>
			<path fill="#919191" d="M1495.5,425.9c0,0,0,0.1,0,0.1c0,0-0.1,0.1-0.1,0.1c0,0-0.1,0-0.2,0.1c-0.1,0-0.2,0-0.3,0
				c-0.1,0-0.2,0-0.3,0c-0.1,0-0.1,0-0.2-0.1s-0.1,0-0.1-0.1c0,0,0-0.1,0-0.1v-14.5c0,0,0-0.1,0-0.1c0,0,0.1-0.1,0.1-0.1
				c0,0,0.1,0,0.2-0.1c0.1,0,0.2,0,0.3,0c0.1,0,0.2,0,0.3,0c0.1,0,0.1,0,0.2,0.1c0,0,0.1,0.1,0.1,0.1c0,0,0,0.1,0,0.1V425.9z"/>
			<path fill="#919191" d="M1500.6,425.9c0,0,0,0.1,0,0.1c0,0-0.1,0.1-0.1,0.1c0,0-0.1,0-0.2,0.1c-0.1,0-0.2,0-0.3,0
				c-0.1,0-0.2,0-0.3,0c-0.1,0-0.1,0-0.2-0.1s-0.1,0-0.1-0.1c0,0,0-0.1,0-0.1v-14.5c0,0,0-0.1,0-0.1c0,0,0.1-0.1,0.1-0.1
				c0,0,0.1,0,0.2-0.1c0.1,0,0.2,0,0.3,0c0.1,0,0.2,0,0.3,0c0.1,0,0.1,0,0.2,0.1c0,0,0.1,0.1,0.1,0.1c0,0,0,0.1,0,0.1V425.9z"/>
			<path fill="#919191" d="M1512.3,420.6c0,0.3-0.1,0.4-0.2,0.5c-0.1,0.1-0.3,0.1-0.4,0.1h-6.6c0,0.6,0.1,1.1,0.2,1.6
				c0.1,0.5,0.3,0.9,0.6,1.3c0.3,0.3,0.6,0.6,1.1,0.8c0.4,0.2,1,0.3,1.6,0.3c0.5,0,0.9,0,1.2-0.1s0.7-0.2,0.9-0.3
				c0.3-0.1,0.5-0.2,0.6-0.3c0.2-0.1,0.3-0.1,0.4-0.1c0,0,0.1,0,0.1,0s0.1,0.1,0.1,0.1c0,0,0,0.1,0,0.2c0,0.1,0,0.2,0,0.3
				c0,0,0,0.1,0,0.1c0,0,0,0.1,0,0.1c0,0,0,0.1,0,0.1s0,0.1-0.1,0.1s-0.1,0.1-0.3,0.2c-0.2,0.1-0.4,0.2-0.7,0.3
				c-0.3,0.1-0.6,0.2-1,0.2c-0.4,0.1-0.8,0.1-1.3,0.1c-0.8,0-1.4-0.1-2-0.3c-0.6-0.2-1.1-0.6-1.5-1c-0.4-0.4-0.7-1-0.9-1.6
				c-0.2-0.7-0.3-1.4-0.3-2.3c0-0.8,0.1-1.6,0.3-2.2c0.2-0.7,0.5-1.2,0.9-1.7c0.4-0.5,0.9-0.8,1.4-1c0.6-0.2,1.2-0.4,1.9-0.4
				c0.7,0,1.4,0.1,1.9,0.4s0.9,0.6,1.3,1c0.3,0.4,0.6,0.9,0.7,1.4c0.2,0.5,0.2,1.1,0.2,1.7V420.6z M1511,420.2c0-1-0.2-1.8-0.7-2.4
				s-1.2-0.9-2.2-0.9c-0.5,0-0.9,0.1-1.3,0.3c-0.4,0.2-0.7,0.4-0.9,0.7c-0.3,0.3-0.5,0.7-0.6,1c-0.1,0.4-0.2,0.8-0.2,1.2H1511z"/>
			<path fill="#919191" d="M1522.3,424.5c0,0.1,0,0.2,0,0.2c0,0.1,0,0.1,0,0.2s0,0.1-0.1,0.1c0,0-0.1,0.1-0.2,0.2
				c-0.1,0.1-0.2,0.2-0.5,0.4c-0.2,0.1-0.5,0.3-0.7,0.4s-0.6,0.2-0.9,0.3c-0.3,0.1-0.6,0.1-1,0.1c-0.7,0-1.3-0.1-1.8-0.3
				c-0.5-0.2-1-0.6-1.3-1c-0.4-0.4-0.6-1-0.8-1.6c-0.2-0.6-0.3-1.4-0.3-2.2c0-0.9,0.1-1.8,0.3-2.4c0.2-0.7,0.5-1.2,0.9-1.7
				s0.9-0.7,1.4-1c0.5-0.2,1.1-0.3,1.7-0.3c0.3,0,0.6,0,0.9,0.1c0.3,0.1,0.6,0.1,0.8,0.2c0.2,0.1,0.5,0.2,0.7,0.3s0.3,0.2,0.4,0.3
				c0.1,0.1,0.2,0.2,0.2,0.2c0,0,0.1,0.1,0.1,0.2c0,0.1,0,0.1,0,0.2c0,0.1,0,0.1,0,0.2c0,0.2,0,0.4-0.1,0.4
				c-0.1,0.1-0.1,0.1-0.2,0.1c-0.1,0-0.2-0.1-0.4-0.2c-0.1-0.1-0.3-0.3-0.6-0.4c-0.2-0.2-0.5-0.3-0.8-0.4c-0.3-0.1-0.7-0.2-1.2-0.2
				c-0.9,0-1.6,0.4-2.2,1.1c-0.5,0.7-0.8,1.8-0.8,3.1c0,0.7,0.1,1.3,0.2,1.8c0.1,0.5,0.3,0.9,0.6,1.3c0.3,0.3,0.6,0.6,0.9,0.8
				c0.4,0.2,0.8,0.3,1.2,0.3c0.4,0,0.8-0.1,1.1-0.2s0.6-0.3,0.9-0.5s0.4-0.3,0.6-0.5c0.2-0.1,0.3-0.2,0.4-0.2c0,0,0.1,0,0.1,0
				c0,0,0.1,0.1,0.1,0.1c0,0.1,0,0.1,0,0.2C1522.3,424.3,1522.3,424.4,1522.3,424.5z"/>
			<path fill="#919191" d="M1533,416c0.2,0,0.3,0,0.3,0.1c0.1,0.1,0.1,0.2,0.1,0.3v9.5c0,0,0,0.1,0,0.1c0,0-0.1,0.1-0.1,0.1
				c0,0-0.1,0-0.2,0.1c-0.1,0-0.2,0-0.3,0c-0.1,0-0.2,0-0.3,0c-0.1,0-0.1,0-0.2-0.1c0,0-0.1,0-0.1-0.1c0,0,0-0.1,0-0.1v-8.9h-5.4
				v5.9c0,0.7,0.1,1.3,0.3,1.7c0.2,0.4,0.6,0.6,1.2,0.6c0.2,0,0.3,0,0.5-0.1c0.1,0,0.3-0.1,0.4-0.1s0.2-0.1,0.3-0.1
				c0.1,0,0.1-0.1,0.2-0.1c0,0,0.1,0,0.1,0c0,0,0.1,0,0.1,0.1c0,0,0,0.1,0,0.2c0,0.1,0,0.1,0,0.2c0,0.2,0,0.3,0,0.4
				c0,0.1-0.1,0.2-0.1,0.2c-0.1,0.1-0.1,0.1-0.2,0.2c-0.1,0-0.2,0.1-0.4,0.1c-0.1,0-0.3,0.1-0.4,0.1c-0.2,0-0.3,0-0.4,0
				c-0.5,0-0.9-0.1-1.2-0.2s-0.6-0.3-0.8-0.6c-0.2-0.3-0.4-0.6-0.5-1c-0.1-0.4-0.1-0.9-0.1-1.4v-6h-1.5c-0.1,0-0.2,0-0.2-0.1
				c-0.1-0.1-0.1-0.2-0.1-0.4c0-0.1,0-0.2,0-0.2c0-0.1,0-0.1,0.1-0.2c0,0,0.1-0.1,0.1-0.1c0,0,0.1,0,0.1,0h1.5v-2.4c0,0,0-0.1,0-0.1
				c0,0,0.1-0.1,0.1-0.1c0,0,0.1,0,0.2-0.1c0.1,0,0.2,0,0.3,0c0.1,0,0.2,0,0.3,0c0.1,0,0.1,0,0.2,0.1c0,0,0.1,0.1,0.1,0.1
				c0,0,0,0.1,0,0.1v2.4H1533z M1533.6,412.9c0,0.3-0.1,0.6-0.2,0.7c-0.1,0.1-0.3,0.2-0.7,0.2c-0.3,0-0.5-0.1-0.6-0.2
				c-0.1-0.1-0.2-0.3-0.2-0.7s0.1-0.6,0.2-0.7s0.3-0.2,0.7-0.2c0.3,0,0.5,0.1,0.6,0.2C1533.5,412.4,1533.6,412.6,1533.6,412.9z"/>
			<path fill="#919191" d="M1545.8,421c0,0.8-0.1,1.5-0.3,2.1c-0.2,0.7-0.5,1.2-0.9,1.7c-0.4,0.5-0.9,0.9-1.5,1.1
				c-0.6,0.3-1.3,0.4-2.1,0.4c-0.8,0-1.4-0.1-2-0.4c-0.6-0.2-1-0.6-1.4-1c-0.4-0.4-0.7-1-0.9-1.6c-0.2-0.6-0.3-1.4-0.3-2.2
				c0-0.8,0.1-1.5,0.3-2.1c0.2-0.7,0.5-1.2,0.9-1.7c0.4-0.5,0.9-0.8,1.5-1.1c0.6-0.3,1.3-0.4,2.1-0.4c0.8,0,1.4,0.1,2,0.4
				c0.6,0.2,1,0.6,1.4,1c0.4,0.4,0.7,1,0.9,1.6S1545.8,420.2,1545.8,421z M1544.5,421.1c0-0.6-0.1-1.1-0.2-1.6s-0.3-0.9-0.5-1.3
				c-0.3-0.4-0.6-0.7-1-0.9c-0.4-0.2-0.9-0.3-1.6-0.3c-0.6,0-1.1,0.1-1.5,0.3c-0.4,0.2-0.8,0.5-1,0.9c-0.3,0.4-0.5,0.8-0.6,1.3
				c-0.1,0.5-0.2,1-0.2,1.6c0,0.6,0.1,1.1,0.2,1.6c0.1,0.5,0.3,0.9,0.5,1.3s0.6,0.7,1,0.9s0.9,0.3,1.6,0.3c0.6,0,1.1-0.1,1.5-0.3
				s0.8-0.5,1-0.9c0.3-0.4,0.5-0.8,0.6-1.3C1544.4,422.2,1544.5,421.7,1544.5,421.1z"/>
			<path fill="#919191" d="M1556.8,425.9c0,0,0,0.1,0,0.1c0,0-0.1,0.1-0.1,0.1c0,0-0.1,0-0.2,0.1c-0.1,0-0.2,0-0.3,0
				c-0.1,0-0.2,0-0.3,0c-0.1,0-0.1,0-0.2-0.1c0,0-0.1,0-0.1-0.1c0,0,0-0.1,0-0.1v-5.8c0-0.6,0-1.1-0.1-1.5c-0.1-0.4-0.2-0.7-0.4-1
				c-0.2-0.3-0.4-0.5-0.7-0.6c-0.3-0.1-0.6-0.2-1-0.2c-0.5,0-1,0.2-1.5,0.5c-0.5,0.4-1,0.9-1.6,1.5v7c0,0,0,0.1,0,0.1
				c0,0-0.1,0.1-0.1,0.1c0,0-0.1,0-0.2,0.1c-0.1,0-0.2,0-0.3,0c-0.1,0-0.2,0-0.3,0c-0.1,0-0.1,0-0.2-0.1s-0.1,0-0.1-0.1
				c0,0,0-0.1,0-0.1v-9.7c0,0,0-0.1,0-0.1c0,0,0.1-0.1,0.1-0.1c0,0,0.1,0,0.2-0.1c0.1,0,0.2,0,0.3,0s0.2,0,0.3,0
				c0.1,0,0.1,0,0.2,0.1c0,0,0.1,0.1,0.1,0.1c0,0,0,0.1,0,0.1v1.4c0.6-0.6,1.1-1.1,1.6-1.4s1.1-0.4,1.6-0.4c0.6,0,1.2,0.1,1.6,0.3
				s0.8,0.5,1.1,0.9c0.3,0.4,0.5,0.8,0.6,1.3c0.1,0.5,0.2,1.1,0.2,1.8V425.9z"/>
			<path fill="#919191" d="M1570.8,412.1c0,0.1,0,0.2,0,0.2c0,0.1,0,0.1,0,0.1c0,0,0,0.1-0.1,0.1c0,0-0.1,0-0.1,0
				c-0.1,0-0.1,0-0.2-0.1c-0.1,0-0.2-0.1-0.3-0.1c-0.1,0-0.3-0.1-0.4-0.1c-0.2,0-0.3-0.1-0.6-0.1c-0.3,0-0.6,0-0.8,0.1
				c-0.2,0.1-0.4,0.2-0.5,0.5c-0.1,0.2-0.2,0.5-0.3,0.8c-0.1,0.3-0.1,0.7-0.1,1.2v1.1h2.4c0,0,0.1,0,0.1,0s0.1,0.1,0.1,0.1
				c0,0,0,0.1,0.1,0.2c0,0.1,0,0.1,0,0.2c0,0.2,0,0.3-0.1,0.4c-0.1,0.1-0.1,0.1-0.2,0.1h-2.4v8.9c0,0,0,0.1,0,0.1
				c0,0-0.1,0.1-0.1,0.1c0,0-0.1,0-0.2,0.1s-0.2,0-0.3,0s-0.2,0-0.3,0c-0.1,0-0.1,0-0.2-0.1s-0.1,0-0.1-0.1c0,0,0-0.1,0-0.1v-8.9
				h-1.5c-0.1,0-0.2,0-0.2-0.1c-0.1-0.1-0.1-0.2-0.1-0.4c0-0.1,0-0.2,0-0.2c0-0.1,0-0.1,0.1-0.2c0,0,0.1-0.1,0.1-0.1
				c0,0,0.1,0,0.1,0h1.5v-1.1c0-0.7,0.1-1.3,0.2-1.7c0.1-0.5,0.3-0.9,0.6-1.2c0.2-0.3,0.6-0.5,0.9-0.7c0.4-0.1,0.8-0.2,1.3-0.2
				c0.2,0,0.5,0,0.7,0.1c0.2,0,0.4,0.1,0.5,0.2c0.1,0.1,0.2,0.1,0.2,0.1c0,0,0.1,0.1,0.1,0.1c0,0.1,0,0.1,0.1,0.2
				C1570.8,411.9,1570.8,412,1570.8,412.1z"/>
			<path fill="#919191" d="M1579.8,420.6c0,0.3-0.1,0.4-0.2,0.5c-0.1,0.1-0.3,0.1-0.4,0.1h-6.6c0,0.6,0.1,1.1,0.2,1.6
				c0.1,0.5,0.3,0.9,0.6,1.3c0.3,0.3,0.6,0.6,1.1,0.8c0.4,0.2,1,0.3,1.6,0.3c0.5,0,0.9,0,1.2-0.1s0.7-0.2,0.9-0.3
				c0.3-0.1,0.5-0.2,0.6-0.3c0.2-0.1,0.3-0.1,0.4-0.1c0,0,0.1,0,0.1,0s0.1,0.1,0.1,0.1c0,0,0,0.1,0,0.2c0,0.1,0,0.2,0,0.3
				c0,0,0,0.1,0,0.1c0,0,0,0.1,0,0.1c0,0,0,0.1,0,0.1s0,0.1-0.1,0.1s-0.1,0.1-0.3,0.2c-0.2,0.1-0.4,0.2-0.7,0.3
				c-0.3,0.1-0.6,0.2-1,0.2c-0.4,0.1-0.8,0.1-1.3,0.1c-0.8,0-1.4-0.1-2-0.3c-0.6-0.2-1.1-0.6-1.5-1c-0.4-0.4-0.7-1-0.9-1.6
				c-0.2-0.7-0.3-1.4-0.3-2.3c0-0.8,0.1-1.6,0.3-2.2c0.2-0.7,0.5-1.2,0.9-1.7c0.4-0.5,0.9-0.8,1.4-1c0.6-0.2,1.2-0.4,1.9-0.4
				c0.7,0,1.4,0.1,1.9,0.4s0.9,0.6,1.3,1c0.3,0.4,0.6,0.9,0.7,1.4c0.2,0.5,0.2,1.1,0.2,1.7V420.6z M1578.5,420.2
				c0-1-0.2-1.8-0.7-2.4s-1.2-0.9-2.2-0.9c-0.5,0-0.9,0.1-1.3,0.3c-0.4,0.2-0.7,0.4-0.9,0.7c-0.3,0.3-0.5,0.7-0.6,1
				c-0.1,0.4-0.2,0.8-0.2,1.2H1578.5z"/>
			<path fill="#919191" d="M1589.8,425.9c0,0.1,0,0.1-0.1,0.2c0,0-0.1,0.1-0.2,0.1c-0.1,0-0.2,0-0.3,0c-0.1,0-0.2,0-0.3,0
				c-0.1,0-0.2,0-0.2-0.1c0,0-0.1-0.1-0.1-0.2v-1.1c-0.4,0.5-0.9,0.8-1.4,1.1c-0.5,0.3-1.1,0.4-1.6,0.4c-0.5,0-1-0.1-1.4-0.2
				c-0.4-0.1-0.7-0.3-1-0.6c-0.3-0.2-0.5-0.5-0.6-0.9s-0.2-0.7-0.2-1.2c0-0.5,0.1-1,0.3-1.4c0.2-0.4,0.5-0.7,0.9-1
				c0.4-0.3,0.9-0.5,1.5-0.6c0.6-0.1,1.2-0.2,1.9-0.2h1.5v-0.8c0-0.4,0-0.8-0.1-1.1c-0.1-0.3-0.2-0.6-0.4-0.8s-0.4-0.4-0.8-0.5
				s-0.7-0.2-1.1-0.2c-0.4,0-0.8,0.1-1.2,0.2c-0.3,0.1-0.6,0.2-0.9,0.3s-0.5,0.2-0.6,0.3c-0.2,0.1-0.3,0.2-0.4,0.2c0,0-0.1,0-0.1,0
				s-0.1,0-0.1-0.1c0,0,0-0.1-0.1-0.2c0-0.1,0-0.1,0-0.2c0-0.2,0-0.3,0-0.4c0-0.1,0.1-0.2,0.2-0.3c0.1-0.1,0.2-0.2,0.5-0.3
				s0.5-0.2,0.8-0.3c0.3-0.1,0.6-0.2,1-0.3s0.7-0.1,1-0.1c0.7,0,1.2,0.1,1.7,0.2c0.5,0.2,0.8,0.4,1.1,0.7c0.3,0.3,0.5,0.7,0.6,1.1
				c0.1,0.4,0.2,0.9,0.2,1.5V425.9z M1588.5,421.3h-1.8c-0.5,0-1,0-1.4,0.1s-0.7,0.2-1,0.4s-0.4,0.4-0.6,0.6
				c-0.1,0.3-0.2,0.5-0.2,0.9c0,0.6,0.2,1,0.5,1.3c0.4,0.3,0.9,0.5,1.5,0.5c0.5,0,1-0.1,1.4-0.4c0.4-0.3,0.9-0.7,1.4-1.2V421.3z"/>
			<path fill="#919191" d="M1598,425.4c0,0.2,0,0.3,0,0.4c0,0.1-0.1,0.2-0.1,0.2c-0.1,0.1-0.1,0.1-0.2,0.2c-0.1,0-0.2,0.1-0.4,0.1
				c-0.1,0-0.3,0.1-0.4,0.1c-0.2,0-0.3,0-0.4,0c-0.5,0-0.9-0.1-1.2-0.2s-0.6-0.3-0.8-0.6c-0.2-0.3-0.4-0.6-0.5-1
				c-0.1-0.4-0.1-0.9-0.1-1.4v-6h-1.5c-0.1,0-0.2,0-0.2-0.1c-0.1-0.1-0.1-0.2-0.1-0.4c0-0.1,0-0.2,0-0.2c0-0.1,0-0.1,0.1-0.2
				c0,0,0.1-0.1,0.1-0.1c0,0,0.1,0,0.1,0h1.5v-2.4c0,0,0-0.1,0-0.1c0,0,0.1-0.1,0.1-0.1c0,0,0.1,0,0.2-0.1c0.1,0,0.2,0,0.3,0
				c0.1,0,0.2,0,0.3,0c0.1,0,0.1,0,0.2,0.1c0,0,0.1,0.1,0.1,0.1c0,0,0,0.1,0,0.1v2.4h2.7c0,0,0.1,0,0.1,0c0,0,0.1,0.1,0.1,0.1
				c0,0,0,0.1,0.1,0.2c0,0.1,0,0.1,0,0.2c0,0.2,0,0.3-0.1,0.4c-0.1,0.1-0.1,0.1-0.2,0.1h-2.7v5.9c0,0.7,0.1,1.3,0.3,1.7
				c0.2,0.4,0.6,0.6,1.2,0.6c0.2,0,0.3,0,0.5-0.1c0.1,0,0.3-0.1,0.4-0.1s0.2-0.1,0.3-0.1c0.1,0,0.1-0.1,0.2-0.1c0,0,0.1,0,0.1,0
				c0,0,0.1,0,0.1,0.1c0,0,0,0.1,0,0.2C1598,425.2,1598,425.3,1598,425.4z"/>
			<path fill="#919191" d="M1608.6,425.9c0,0,0,0.1,0,0.1c0,0-0.1,0.1-0.1,0.1s-0.1,0-0.2,0.1s-0.2,0-0.3,0c-0.1,0-0.2,0-0.3,0
				s-0.1,0-0.2-0.1s-0.1,0-0.1-0.1c0,0,0-0.1,0-0.1v-1.4c-0.6,0.6-1.1,1.1-1.6,1.4c-0.5,0.3-1.1,0.4-1.6,0.4c-0.6,0-1.2-0.1-1.6-0.3
				s-0.8-0.5-1.1-0.9c-0.3-0.4-0.5-0.8-0.6-1.3c-0.1-0.5-0.2-1.1-0.2-1.8v-5.9c0,0,0-0.1,0-0.1c0,0,0.1-0.1,0.1-0.1
				c0,0,0.1,0,0.2-0.1c0.1,0,0.2,0,0.3,0c0.1,0,0.2,0,0.3,0c0.1,0,0.1,0,0.2,0.1c0,0,0.1,0.1,0.1,0.1s0,0.1,0,0.1v5.8
				c0,0.6,0,1.1,0.1,1.5s0.2,0.7,0.4,1c0.2,0.3,0.4,0.5,0.7,0.6c0.3,0.1,0.6,0.2,1,0.2c0.5,0,1-0.2,1.5-0.5c0.5-0.4,1-0.9,1.6-1.5
				v-7c0,0,0-0.1,0-0.1c0,0,0.1-0.1,0.1-0.1c0,0,0.1,0,0.2-0.1c0.1,0,0.2,0,0.3,0c0.1,0,0.2,0,0.3,0c0.1,0,0.1,0,0.2,0.1
				c0,0,0.1,0.1,0.1,0.1s0,0.1,0,0.1V425.9z"/>
			<path fill="#919191" d="M1617.8,416.7c0,0.1,0,0.2,0,0.3c0,0.1,0,0.1,0,0.2c0,0,0,0.1-0.1,0.1c0,0-0.1,0-0.1,0
				c-0.1,0-0.1,0-0.2,0c-0.1,0-0.2-0.1-0.3-0.1c-0.1,0-0.2-0.1-0.4-0.1c-0.1,0-0.3,0-0.5,0c-0.2,0-0.4,0-0.6,0.1
				c-0.2,0.1-0.4,0.2-0.6,0.4c-0.2,0.2-0.4,0.4-0.6,0.7c-0.2,0.3-0.5,0.7-0.7,1.1v6.6c0,0,0,0.1,0,0.1c0,0-0.1,0.1-0.1,0.1
				c0,0-0.1,0-0.2,0.1c-0.1,0-0.2,0-0.3,0c-0.1,0-0.2,0-0.3,0c-0.1,0-0.1,0-0.2-0.1s-0.1,0-0.1-0.1c0,0,0-0.1,0-0.1v-9.7
				c0,0,0-0.1,0-0.1c0,0,0.1-0.1,0.1-0.1c0,0,0.1,0,0.2-0.1c0.1,0,0.2,0,0.3,0s0.2,0,0.3,0c0.1,0,0.1,0,0.2,0.1c0,0,0.1,0.1,0.1,0.1
				c0,0,0,0.1,0,0.1v1.5c0.3-0.4,0.5-0.7,0.8-1s0.5-0.4,0.7-0.6c0.2-0.1,0.4-0.2,0.6-0.3c0.2,0,0.4-0.1,0.6-0.1c0.1,0,0.2,0,0.3,0
				c0.1,0,0.3,0,0.4,0.1c0.1,0,0.3,0.1,0.4,0.1c0.1,0,0.2,0.1,0.2,0.1c0,0,0.1,0.1,0.1,0.1c0,0,0,0.1,0,0.1c0,0,0,0.1,0,0.2
				C1617.8,416.5,1617.8,416.6,1617.8,416.7z"/>
			<path fill="#919191" d="M1621.7,412.9c0,0.3-0.1,0.6-0.2,0.7c-0.1,0.1-0.3,0.2-0.7,0.2c-0.3,0-0.5-0.1-0.6-0.2
				c-0.1-0.1-0.2-0.3-0.2-0.7s0.1-0.6,0.2-0.7s0.3-0.2,0.7-0.2c0.3,0,0.5,0.1,0.6,0.2C1621.7,412.4,1621.7,412.6,1621.7,412.9z
				 M1621.5,425.9c0,0,0,0.1,0,0.1c0,0-0.1,0.1-0.1,0.1c0,0-0.1,0-0.2,0.1c-0.1,0-0.2,0-0.3,0c-0.1,0-0.2,0-0.3,0
				c-0.1,0-0.1,0-0.2-0.1s-0.1,0-0.1-0.1c0,0,0-0.1,0-0.1v-9.7c0,0,0-0.1,0-0.1c0,0,0.1-0.1,0.1-0.1c0,0,0.1,0,0.2-0.1
				c0.1,0,0.2,0,0.3,0c0.1,0,0.2,0,0.3,0c0.1,0,0.1,0,0.2,0.1c0,0,0.1,0.1,0.1,0.1s0,0.1,0,0.1V425.9z"/>
			<path fill="#919191" d="M1633.2,425.9c0,0,0,0.1,0,0.1c0,0-0.1,0.1-0.1,0.1c0,0-0.1,0-0.2,0.1c-0.1,0-0.2,0-0.3,0
				c-0.1,0-0.2,0-0.3,0c-0.1,0-0.1,0-0.2-0.1c0,0-0.1,0-0.1-0.1c0,0,0-0.1,0-0.1v-5.8c0-0.6,0-1.1-0.1-1.5c-0.1-0.4-0.2-0.7-0.4-1
				c-0.2-0.3-0.4-0.5-0.7-0.6c-0.3-0.1-0.6-0.2-1-0.2c-0.5,0-1,0.2-1.5,0.5c-0.5,0.4-1,0.9-1.6,1.5v7c0,0,0,0.1,0,0.1
				c0,0-0.1,0.1-0.1,0.1c0,0-0.1,0-0.2,0.1c-0.1,0-0.2,0-0.3,0c-0.1,0-0.2,0-0.3,0c-0.1,0-0.1,0-0.2-0.1s-0.1,0-0.1-0.1
				c0,0,0-0.1,0-0.1v-9.7c0,0,0-0.1,0-0.1c0,0,0.1-0.1,0.1-0.1c0,0,0.1,0,0.2-0.1c0.1,0,0.2,0,0.3,0s0.2,0,0.3,0
				c0.1,0,0.1,0,0.2,0.1c0,0,0.1,0.1,0.1,0.1c0,0,0,0.1,0,0.1v1.4c0.6-0.6,1.1-1.1,1.6-1.4s1.1-0.4,1.6-0.4c0.6,0,1.2,0.1,1.6,0.3
				s0.8,0.5,1.1,0.9c0.3,0.4,0.5,0.8,0.6,1.3c0.1,0.5,0.2,1.1,0.2,1.8V425.9z"/>
			<path fill="#919191" d="M1644.8,416.5c0,0.2,0,0.3-0.1,0.4s-0.1,0.1-0.2,0.1h-1.5c0.3,0.3,0.5,0.6,0.6,1c0.1,0.4,0.2,0.7,0.2,1.1
				c0,0.6-0.1,1-0.3,1.5c-0.2,0.4-0.4,0.8-0.7,1.1c-0.3,0.3-0.7,0.5-1.1,0.7c-0.4,0.2-0.9,0.2-1.5,0.2c-0.4,0-0.9-0.1-1.2-0.2
				s-0.7-0.3-0.9-0.5c-0.1,0.1-0.3,0.3-0.4,0.5s-0.1,0.4-0.1,0.6c0,0.3,0.1,0.5,0.4,0.7c0.3,0.2,0.6,0.3,1,0.3l2.6,0.1
				c0.4,0,0.9,0.1,1.3,0.2c0.4,0.1,0.7,0.3,1,0.5c0.3,0.2,0.5,0.5,0.7,0.8s0.3,0.7,0.3,1.1c0,0.4-0.1,0.8-0.3,1.2
				c-0.2,0.4-0.4,0.7-0.8,1c-0.4,0.3-0.8,0.5-1.4,0.7c-0.6,0.2-1.3,0.3-2.1,0.3c-0.8,0-1.4-0.1-1.9-0.2c-0.5-0.1-1-0.3-1.3-0.5
				c-0.3-0.2-0.6-0.5-0.7-0.8c-0.2-0.3-0.2-0.7-0.2-1c0-0.3,0-0.5,0.1-0.7s0.1-0.4,0.3-0.6c0.1-0.2,0.3-0.4,0.4-0.6
				c0.2-0.2,0.4-0.4,0.6-0.6c-0.4-0.2-0.6-0.4-0.8-0.7c-0.2-0.3-0.3-0.5-0.3-0.8c0-0.4,0.1-0.8,0.3-1.2c0.2-0.3,0.4-0.6,0.6-0.9
				c-0.2-0.3-0.4-0.6-0.5-0.9s-0.2-0.7-0.2-1.2c0-0.5,0.1-1,0.3-1.5c0.2-0.4,0.4-0.8,0.7-1.1c0.3-0.3,0.7-0.5,1.1-0.7
				c0.4-0.2,0.9-0.2,1.5-0.2c0.3,0,0.5,0,0.8,0c0.2,0,0.5,0.1,0.7,0.1h2.9c0.1,0,0.2,0,0.3,0.1
				C1644.7,416.2,1644.8,416.4,1644.8,416.5z M1643.4,426.9c0-0.5-0.2-0.8-0.6-1.1c-0.4-0.2-0.9-0.4-1.5-0.4l-2.8-0.1
				c-0.3,0.2-0.5,0.4-0.6,0.6c-0.2,0.2-0.3,0.4-0.4,0.5c-0.1,0.2-0.2,0.3-0.2,0.5c0,0.2-0.1,0.3-0.1,0.5c0,0.5,0.3,0.9,0.8,1.2
				c0.5,0.3,1.3,0.4,2.2,0.4c0.6,0,1.1-0.1,1.5-0.2c0.4-0.1,0.7-0.3,1-0.5s0.4-0.4,0.5-0.7C1643.3,427.4,1643.4,427.2,1643.4,426.9z
				 M1642.4,419.2c0-0.7-0.2-1.3-0.6-1.7c-0.4-0.4-1-0.6-1.7-0.6c-0.4,0-0.7,0.1-1,0.2s-0.5,0.3-0.7,0.5c-0.2,0.2-0.3,0.5-0.4,0.8
				c-0.1,0.3-0.1,0.6-0.1,0.9c0,0.7,0.2,1.3,0.6,1.7c0.4,0.4,1,0.6,1.7,0.6c0.4,0,0.7-0.1,1-0.2c0.3-0.1,0.5-0.3,0.7-0.5
				c0.2-0.2,0.3-0.5,0.4-0.8C1642.3,419.9,1642.4,419.6,1642.4,419.2z"/>
			<path fill="#919191" d="M1660.5,425.9c0,0,0,0.1,0,0.1c0,0-0.1,0.1-0.1,0.1c0,0-0.1,0-0.2,0c-0.1,0-0.2,0-0.3,0
				c-0.1,0-0.2,0-0.3,0c-0.1,0-0.1,0-0.2,0c0,0-0.1,0-0.1-0.1c0,0,0-0.1,0-0.1v-1.4c-0.5,0.6-1,1-1.6,1.3c-0.6,0.3-1.2,0.5-1.8,0.5
				c-0.7,0-1.3-0.1-1.8-0.4s-0.9-0.6-1.2-1.1c-0.3-0.5-0.5-1-0.7-1.6c-0.1-0.6-0.2-1.3-0.2-2c0-0.8,0.1-1.6,0.3-2.2
				c0.2-0.7,0.4-1.2,0.8-1.7c0.4-0.5,0.8-0.8,1.3-1.1c0.5-0.2,1.1-0.4,1.8-0.4c0.6,0,1.1,0.1,1.6,0.4c0.5,0.3,1,0.6,1.4,1.2v-5.9
				c0,0,0-0.1,0-0.1c0,0,0.1-0.1,0.1-0.1s0.1,0,0.2-0.1c0.1,0,0.2,0,0.3,0c0.1,0,0.2,0,0.3,0c0.1,0,0.1,0,0.2,0.1c0,0,0.1,0,0.1,0.1
				s0,0.1,0,0.1V425.9z M1659.3,418.9c-0.5-0.7-1.1-1.1-1.6-1.5c-0.5-0.3-1-0.5-1.6-0.5c-0.5,0-0.9,0.1-1.3,0.4s-0.6,0.5-0.9,0.9
				s-0.4,0.8-0.5,1.3s-0.2,1-0.2,1.5c0,0.5,0,1.1,0.1,1.6s0.2,1,0.4,1.4c0.2,0.4,0.5,0.7,0.8,1c0.3,0.2,0.8,0.4,1.3,0.4
				c0.3,0,0.5,0,0.8-0.1c0.2-0.1,0.5-0.2,0.8-0.4s0.5-0.4,0.8-0.6c0.3-0.3,0.6-0.6,0.9-1V418.9z"/>
			<path fill="#919191" d="M1672.3,420.6c0,0.3-0.1,0.4-0.2,0.5c-0.1,0.1-0.3,0.1-0.4,0.1h-6.6c0,0.6,0.1,1.1,0.2,1.6
				c0.1,0.5,0.3,0.9,0.6,1.3c0.3,0.3,0.6,0.6,1.1,0.8c0.4,0.2,1,0.3,1.6,0.3c0.5,0,0.9,0,1.2-0.1s0.7-0.2,0.9-0.3
				c0.3-0.1,0.5-0.2,0.6-0.3c0.2-0.1,0.3-0.1,0.4-0.1c0,0,0.1,0,0.1,0s0.1,0.1,0.1,0.1c0,0,0,0.1,0,0.2c0,0.1,0,0.2,0,0.3
				c0,0,0,0.1,0,0.1c0,0,0,0.1,0,0.1c0,0,0,0.1,0,0.1s0,0.1-0.1,0.1s-0.1,0.1-0.3,0.2c-0.2,0.1-0.4,0.2-0.7,0.3
				c-0.3,0.1-0.6,0.2-1,0.2c-0.4,0.1-0.8,0.1-1.3,0.1c-0.8,0-1.4-0.1-2-0.3c-0.6-0.2-1.1-0.6-1.5-1c-0.4-0.4-0.7-1-0.9-1.6
				c-0.2-0.7-0.3-1.4-0.3-2.3c0-0.8,0.1-1.6,0.3-2.2c0.2-0.7,0.5-1.2,0.9-1.7c0.4-0.5,0.9-0.8,1.4-1c0.6-0.2,1.2-0.4,1.9-0.4
				c0.7,0,1.4,0.1,1.9,0.4s0.9,0.6,1.3,1c0.3,0.4,0.6,0.9,0.7,1.4c0.2,0.5,0.2,1.1,0.2,1.7V420.6z M1671,420.2c0-1-0.2-1.8-0.7-2.4
				s-1.2-0.9-2.2-0.9c-0.5,0-0.9,0.1-1.3,0.3c-0.4,0.2-0.7,0.4-0.9,0.7c-0.3,0.3-0.5,0.7-0.6,1c-0.1,0.4-0.2,0.8-0.2,1.2H1671z"/>
			<path fill="#919191" d="M1681.2,423.3c0,0.5-0.1,0.9-0.3,1.3c-0.2,0.4-0.4,0.7-0.7,0.9c-0.3,0.3-0.7,0.5-1.1,0.6
				s-0.9,0.2-1.5,0.2c-0.3,0-0.7,0-1-0.1c-0.3-0.1-0.6-0.1-0.8-0.2c-0.2-0.1-0.4-0.2-0.6-0.3c-0.2-0.1-0.3-0.2-0.4-0.2
				c-0.1-0.1-0.1-0.2-0.2-0.3s-0.1-0.3-0.1-0.4c0-0.1,0-0.2,0-0.2c0-0.1,0-0.1,0.1-0.2s0-0.1,0.1-0.1c0,0,0.1,0,0.1,0
				c0.1,0,0.2,0,0.3,0.2s0.3,0.2,0.6,0.3c0.2,0.1,0.5,0.2,0.8,0.3c0.3,0.1,0.7,0.2,1.1,0.2c0.3,0,0.6,0,0.9-0.1
				c0.3-0.1,0.5-0.2,0.7-0.3c0.2-0.1,0.4-0.3,0.5-0.6c0.1-0.2,0.2-0.5,0.2-0.8s-0.1-0.6-0.2-0.8c-0.1-0.2-0.3-0.4-0.6-0.5
				c-0.2-0.2-0.5-0.3-0.8-0.4c-0.3-0.1-0.6-0.2-0.9-0.4c-0.3-0.1-0.6-0.3-0.9-0.4c-0.3-0.2-0.6-0.3-0.8-0.5
				c-0.2-0.2-0.4-0.5-0.6-0.8s-0.2-0.7-0.2-1.1c0-0.3,0.1-0.7,0.2-1c0.1-0.3,0.3-0.6,0.6-0.9c0.3-0.3,0.6-0.5,1-0.6
				c0.4-0.2,0.9-0.2,1.5-0.2c0.2,0,0.5,0,0.7,0.1c0.2,0,0.5,0.1,0.7,0.2c0.2,0.1,0.4,0.1,0.5,0.2c0.1,0.1,0.3,0.1,0.3,0.2
				c0.1,0.1,0.1,0.1,0.2,0.1c0,0,0,0.1,0.1,0.1c0,0,0,0.1,0,0.2c0,0.1,0,0.1,0,0.2s0,0.2,0,0.2c0,0.1,0,0.1,0,0.2s0,0.1-0.1,0.1
				c0,0-0.1,0-0.1,0c-0.1,0-0.1,0-0.3-0.1c-0.1-0.1-0.3-0.2-0.5-0.3c-0.2-0.1-0.4-0.2-0.7-0.3c-0.3-0.1-0.6-0.1-0.9-0.1
				s-0.6,0-0.9,0.1c-0.3,0.1-0.5,0.2-0.6,0.3s-0.3,0.3-0.4,0.5c-0.1,0.2-0.1,0.4-0.1,0.6c0,0.3,0.1,0.6,0.2,0.8s0.3,0.4,0.6,0.6
				s0.5,0.3,0.8,0.4c0.3,0.1,0.6,0.2,0.9,0.4c0.3,0.1,0.6,0.3,0.9,0.4c0.3,0.1,0.6,0.3,0.8,0.5s0.4,0.5,0.6,0.7
				C1681.1,422.6,1681.2,422.9,1681.2,423.3z"/>
			<path fill="#919191" d="M1689.9,423.3c0,0.5-0.1,0.9-0.3,1.3c-0.2,0.4-0.4,0.7-0.7,0.9c-0.3,0.3-0.7,0.5-1.1,0.6
				s-0.9,0.2-1.5,0.2c-0.3,0-0.7,0-1-0.1c-0.3-0.1-0.6-0.1-0.8-0.2c-0.2-0.1-0.4-0.2-0.6-0.3c-0.2-0.1-0.3-0.2-0.4-0.2
				c-0.1-0.1-0.1-0.2-0.2-0.3s-0.1-0.3-0.1-0.4c0-0.1,0-0.2,0-0.2c0-0.1,0-0.1,0.1-0.2s0-0.1,0.1-0.1c0,0,0.1,0,0.1,0
				c0.1,0,0.2,0,0.3,0.2s0.3,0.2,0.6,0.3c0.2,0.1,0.5,0.2,0.8,0.3c0.3,0.1,0.7,0.2,1.1,0.2c0.3,0,0.6,0,0.9-0.1
				c0.3-0.1,0.5-0.2,0.7-0.3c0.2-0.1,0.4-0.3,0.5-0.6c0.1-0.2,0.2-0.5,0.2-0.8s-0.1-0.6-0.2-0.8c-0.1-0.2-0.3-0.4-0.6-0.5
				c-0.2-0.2-0.5-0.3-0.8-0.4c-0.3-0.1-0.6-0.2-0.9-0.4c-0.3-0.1-0.6-0.3-0.9-0.4c-0.3-0.2-0.6-0.3-0.8-0.5
				c-0.2-0.2-0.4-0.5-0.6-0.8s-0.2-0.7-0.2-1.1c0-0.3,0.1-0.7,0.2-1c0.1-0.3,0.3-0.6,0.6-0.9c0.3-0.3,0.6-0.5,1-0.6
				c0.4-0.2,0.9-0.2,1.5-0.2c0.2,0,0.5,0,0.7,0.1c0.2,0,0.5,0.1,0.7,0.2c0.2,0.1,0.4,0.1,0.5,0.2c0.1,0.1,0.3,0.1,0.3,0.2
				c0.1,0.1,0.1,0.1,0.2,0.1c0,0,0,0.1,0.1,0.1c0,0,0,0.1,0,0.2c0,0.1,0,0.1,0,0.2s0,0.2,0,0.2c0,0.1,0,0.1,0,0.2s0,0.1-0.1,0.1
				c0,0-0.1,0-0.1,0c-0.1,0-0.1,0-0.3-0.1c-0.1-0.1-0.3-0.2-0.5-0.3c-0.2-0.1-0.4-0.2-0.7-0.3c-0.3-0.1-0.6-0.1-0.9-0.1
				s-0.6,0-0.9,0.1c-0.3,0.1-0.5,0.2-0.6,0.3s-0.3,0.3-0.4,0.5c-0.1,0.2-0.1,0.4-0.1,0.6c0,0.3,0.1,0.6,0.2,0.8s0.3,0.4,0.6,0.6
				s0.5,0.3,0.8,0.4c0.3,0.1,0.6,0.2,0.9,0.4c0.3,0.1,0.6,0.3,0.9,0.4c0.3,0.1,0.6,0.3,0.8,0.5s0.4,0.5,0.6,0.7
				C1689.8,422.6,1689.9,422.9,1689.9,423.3z"/>
			<path fill="#919191" d="M1700.8,420.6c0,0.3-0.1,0.4-0.2,0.5c-0.1,0.1-0.3,0.1-0.4,0.1h-6.6c0,0.6,0.1,1.1,0.2,1.6
				c0.1,0.5,0.3,0.9,0.6,1.3c0.3,0.3,0.6,0.6,1.1,0.8c0.4,0.2,1,0.3,1.6,0.3c0.5,0,0.9,0,1.2-0.1s0.7-0.2,0.9-0.3
				c0.3-0.1,0.5-0.2,0.6-0.3c0.2-0.1,0.3-0.1,0.4-0.1c0,0,0.1,0,0.1,0s0.1,0.1,0.1,0.1c0,0,0,0.1,0,0.2c0,0.1,0,0.2,0,0.3
				c0,0,0,0.1,0,0.1c0,0,0,0.1,0,0.1c0,0,0,0.1,0,0.1s0,0.1-0.1,0.1s-0.1,0.1-0.3,0.2c-0.2,0.1-0.4,0.2-0.7,0.3
				c-0.3,0.1-0.6,0.2-1,0.2c-0.4,0.1-0.8,0.1-1.3,0.1c-0.8,0-1.4-0.1-2-0.3c-0.6-0.2-1.1-0.6-1.5-1c-0.4-0.4-0.7-1-0.9-1.6
				c-0.2-0.7-0.3-1.4-0.3-2.3c0-0.8,0.1-1.6,0.3-2.2c0.2-0.7,0.5-1.2,0.9-1.7c0.4-0.5,0.9-0.8,1.4-1c0.6-0.2,1.2-0.4,1.9-0.4
				c0.7,0,1.4,0.1,1.9,0.4s0.9,0.6,1.3,1c0.3,0.4,0.6,0.9,0.7,1.4c0.2,0.5,0.2,1.1,0.2,1.7V420.6z M1699.5,420.2
				c0-1-0.2-1.8-0.7-2.4s-1.2-0.9-2.2-0.9c-0.5,0-0.9,0.1-1.3,0.3c-0.4,0.2-0.7,0.4-0.9,0.7c-0.3,0.3-0.5,0.7-0.6,1
				c-0.1,0.4-0.2,0.8-0.2,1.2H1699.5z"/>
			<path fill="#919191" d="M1709.4,416.7c0,0.1,0,0.2,0,0.3c0,0.1,0,0.1,0,0.2c0,0,0,0.1-0.1,0.1c0,0-0.1,0-0.1,0
				c-0.1,0-0.1,0-0.2,0c-0.1,0-0.2-0.1-0.3-0.1c-0.1,0-0.2-0.1-0.4-0.1c-0.1,0-0.3,0-0.5,0c-0.2,0-0.4,0-0.6,0.1
				c-0.2,0.1-0.4,0.2-0.6,0.4c-0.2,0.2-0.4,0.4-0.6,0.7c-0.2,0.3-0.5,0.7-0.7,1.1v6.6c0,0,0,0.1,0,0.1c0,0-0.1,0.1-0.1,0.1
				c0,0-0.1,0-0.2,0.1c-0.1,0-0.2,0-0.3,0c-0.1,0-0.2,0-0.3,0c-0.1,0-0.1,0-0.2-0.1s-0.1,0-0.1-0.1c0,0,0-0.1,0-0.1v-9.7
				c0,0,0-0.1,0-0.1c0,0,0.1-0.1,0.1-0.1c0,0,0.1,0,0.2-0.1c0.1,0,0.2,0,0.3,0s0.2,0,0.3,0c0.1,0,0.1,0,0.2,0.1c0,0,0.1,0.1,0.1,0.1
				c0,0,0,0.1,0,0.1v1.5c0.3-0.4,0.5-0.7,0.8-1s0.5-0.4,0.7-0.6c0.2-0.1,0.4-0.2,0.6-0.3c0.2,0,0.4-0.1,0.6-0.1c0.1,0,0.2,0,0.3,0
				c0.1,0,0.3,0,0.4,0.1c0.1,0,0.3,0.1,0.4,0.1c0.1,0,0.2,0.1,0.2,0.1c0,0,0.1,0.1,0.1,0.1c0,0,0,0.1,0,0.1c0,0,0,0.1,0,0.2
				C1709.4,416.5,1709.4,416.6,1709.4,416.7z"/>
			<path fill="#919191" d="M1716.5,425.4c0,0.2,0,0.3,0,0.4c0,0.1-0.1,0.2-0.1,0.2c-0.1,0.1-0.1,0.1-0.2,0.2c-0.1,0-0.2,0.1-0.4,0.1
				c-0.1,0-0.3,0.1-0.4,0.1c-0.2,0-0.3,0-0.4,0c-0.5,0-0.9-0.1-1.2-0.2s-0.6-0.3-0.8-0.6c-0.2-0.3-0.4-0.6-0.5-1
				c-0.1-0.4-0.1-0.9-0.1-1.4v-6h-1.5c-0.1,0-0.2,0-0.2-0.1c-0.1-0.1-0.1-0.2-0.1-0.4c0-0.1,0-0.2,0-0.2c0-0.1,0-0.1,0.1-0.2
				c0,0,0.1-0.1,0.1-0.1c0,0,0.1,0,0.1,0h1.5v-2.4c0,0,0-0.1,0-0.1c0,0,0.1-0.1,0.1-0.1c0,0,0.1,0,0.2-0.1c0.1,0,0.2,0,0.3,0
				c0.1,0,0.2,0,0.3,0c0.1,0,0.1,0,0.2,0.1c0,0,0.1,0.1,0.1,0.1c0,0,0,0.1,0,0.1v2.4h2.7c0,0,0.1,0,0.1,0c0,0,0.1,0.1,0.1,0.1
				c0,0,0,0.1,0.1,0.2c0,0.1,0,0.1,0,0.2c0,0.2,0,0.3-0.1,0.4c-0.1,0.1-0.1,0.1-0.2,0.1h-2.7v5.9c0,0.7,0.1,1.3,0.3,1.7
				c0.2,0.4,0.6,0.6,1.2,0.6c0.2,0,0.3,0,0.5-0.1c0.1,0,0.3-0.1,0.4-0.1s0.2-0.1,0.3-0.1c0.1,0,0.1-0.1,0.2-0.1c0,0,0.1,0,0.1,0
				c0,0,0.1,0,0.1,0.1c0,0,0,0.1,0,0.2C1716.5,425.2,1716.5,425.3,1716.5,425.4z"/>
			<path fill="#919191" d="M1725,423.3c0,0.5-0.1,0.9-0.3,1.3c-0.2,0.4-0.4,0.7-0.7,0.9c-0.3,0.3-0.7,0.5-1.1,0.6s-0.9,0.2-1.5,0.2
				c-0.3,0-0.7,0-1-0.1c-0.3-0.1-0.6-0.1-0.8-0.2c-0.2-0.1-0.4-0.2-0.6-0.3c-0.2-0.1-0.3-0.2-0.4-0.2c-0.1-0.1-0.1-0.2-0.2-0.3
				s-0.1-0.3-0.1-0.4c0-0.1,0-0.2,0-0.2c0-0.1,0-0.1,0.1-0.2s0-0.1,0.1-0.1c0,0,0.1,0,0.1,0c0.1,0,0.2,0,0.3,0.2s0.3,0.2,0.6,0.3
				c0.2,0.1,0.5,0.2,0.8,0.3c0.3,0.1,0.7,0.2,1.1,0.2c0.3,0,0.6,0,0.9-0.1c0.3-0.1,0.5-0.2,0.7-0.3c0.2-0.1,0.4-0.3,0.5-0.6
				c0.1-0.2,0.2-0.5,0.2-0.8s-0.1-0.6-0.2-0.8c-0.1-0.2-0.3-0.4-0.6-0.5c-0.2-0.2-0.5-0.3-0.8-0.4c-0.3-0.1-0.6-0.2-0.9-0.4
				c-0.3-0.1-0.6-0.3-0.9-0.4c-0.3-0.2-0.6-0.3-0.8-0.5c-0.2-0.2-0.4-0.5-0.6-0.8s-0.2-0.7-0.2-1.1c0-0.3,0.1-0.7,0.2-1
				c0.1-0.3,0.3-0.6,0.6-0.9c0.3-0.3,0.6-0.5,1-0.6c0.4-0.2,0.9-0.2,1.5-0.2c0.2,0,0.5,0,0.7,0.1c0.2,0,0.5,0.1,0.7,0.2
				c0.2,0.1,0.4,0.1,0.5,0.2c0.1,0.1,0.3,0.1,0.3,0.2c0.1,0.1,0.1,0.1,0.2,0.1c0,0,0,0.1,0.1,0.1c0,0,0,0.1,0,0.2c0,0.1,0,0.1,0,0.2
				s0,0.2,0,0.2c0,0.1,0,0.1,0,0.2s0,0.1-0.1,0.1c0,0-0.1,0-0.1,0c-0.1,0-0.1,0-0.3-0.1c-0.1-0.1-0.3-0.2-0.5-0.3
				c-0.2-0.1-0.4-0.2-0.7-0.3c-0.3-0.1-0.6-0.1-0.9-0.1s-0.6,0-0.9,0.1c-0.3,0.1-0.5,0.2-0.6,0.3s-0.3,0.3-0.4,0.5
				c-0.1,0.2-0.1,0.4-0.1,0.6c0,0.3,0.1,0.6,0.2,0.8s0.3,0.4,0.6,0.6s0.5,0.3,0.8,0.4c0.3,0.1,0.6,0.2,0.9,0.4
				c0.3,0.1,0.6,0.3,0.9,0.4c0.3,0.1,0.6,0.3,0.8,0.5s0.4,0.5,0.6,0.7C1724.9,422.6,1725,422.9,1725,423.3z"/>
		</g>
		<g>
			<path fill="#1B264C" d="M1447.8,294.8c-1.2-2-4.6-4-8.5-4c-5,0-7.4,2.1-7.4,4.7c0,3.1,3.7,4,8,4.5c7.4,0.9,14.4,2.9,14.4,11.4
				c0,8-7,11.4-15,11.4c-7.3,0-12.9-2.2-15.6-8.8l5.6-2.9c1.6,3.9,5.7,5.7,10,5.7c4.2,0,8.2-1.5,8.2-5.4c0-3.4-3.5-4.7-8.3-5.3
				c-7.3-0.9-14-2.8-14-10.8c0-7.3,7.2-10.4,13.8-10.4c5.6,0,11.3,1.6,14,7.1L1447.8,294.8z"/>
			<path fill="#1B264C" d="M1481.6,296.7l5.5,18.9l5.8-18.9h6.9L1491,322h-7.2l-2.6-7.4l-2.2-8.4l-2.2,8.4l-2.6,7.4h-7.2l-8.8-25.3
				h6.9l5.8,18.9l5.5-18.9H1481.6z"/>
			<path fill="#1B264C" d="M1510.3,311.6c0.4,3.1,3.1,5.4,7.5,5.4c2.3,0,5.3-0.9,6.7-2.3l4,3.9c-2.7,2.8-7,4.1-10.8,4.1
				c-8.7,0-13.8-5.4-13.8-13.4c0-7.6,5.2-13.2,13.4-13.2c8.4,0,13.7,5.2,12.7,15.6H1510.3z M1524,306.4c-0.4-3.3-3-4.9-6.5-4.9
				c-3.4,0-6.1,1.6-7,4.9H1524z"/>
			<path fill="#1B264C" d="M1540,311.6c0.4,3.1,3.1,5.4,7.5,5.4c2.3,0,5.3-0.9,6.7-2.3l4,3.9c-2.7,2.8-7,4.1-10.8,4.1
				c-8.7,0-13.8-5.4-13.8-13.4c0-7.6,5.2-13.2,13.4-13.2c8.4,0,13.7,5.2,12.7,15.6H1540z M1553.7,306.4c-0.4-3.3-3-4.9-6.5-4.9
				c-3.4,0-6.1,1.6-7,4.9H1553.7z"/>
			<path fill="#1B264C" d="M1572.2,289.7v7.1h6.9v5.4h-7V313c0,2.4,1.3,3.6,3.3,3.6c1,0,2.1-0.3,3-0.8l1.7,5.3
				c-1.8,0.7-3.3,1-5.2,1.1c-5.5,0.2-9-2.9-9-9.2v-10.9h-4.7v-5.4h4.7v-6.5L1572.2,289.7z"/>
			<path fill="#1B264C" d="M1600.2,303.4c-1.8-1.7-3.8-2.2-6.2-2.2c-3,0-4.6,0.9-4.6,2.5c0,1.6,1.5,2.5,4.7,2.8
				c4.7,0.3,10.8,1.4,10.8,8.1c0,4.4-3.6,8.3-10.8,8.3c-4,0-8-0.7-11.6-4.5l3.1-4.4c1.8,2,5.9,3.5,8.7,3.5c2.3,0.1,4.5-1.2,4.5-3
				c0-1.7-1.4-2.4-5-2.7c-4.7-0.4-10.4-2.1-10.4-7.8c0-5.8,6-7.9,10.6-7.9c3.9,0,6.9,0.8,9.8,3.3L1600.2,303.4z"/>
		</g>
		<g>
			<rect x="1387.5" y="1.9" fill="#AFAFAF" width="1" height="4253.5"/>
		</g>
		<g>
			<g>
				<path fill="#1B264C" d="M1439,354.5h-2.7l-3.5-11.3l-3.3,14.9h-2.5l4.3-19.3h2.4l4.2,13.6l8.7-13.6h2.6l-2.4,19.3h-2.5l1.8-14.5
					L1439,354.5z"/>
			</g>
			<g>
				<path fill="#1B264C" d="M1464.1,349.5c0,1-0.2,2.1-0.5,3.1c-0.3,1.1-0.8,2-1.5,2.8c-0.6,0.8-1.4,1.5-2.4,2
					c-0.9,0.5-2,0.8-3.2,0.8c-0.9,0-1.6-0.1-2.3-0.4c-0.7-0.3-1.2-0.7-1.7-1.2s-0.8-1.1-1-1.8c-0.2-0.7-0.3-1.4-0.3-2.2
					c0-1.1,0.2-2.2,0.5-3.3c0.3-1.1,0.8-2,1.5-2.8c0.6-0.8,1.4-1.5,2.4-2c0.9-0.5,2-0.7,3.2-0.7c0.9,0,1.6,0.1,2.3,0.4
					c0.7,0.3,1.3,0.7,1.7,1.2c0.4,0.5,0.8,1.1,1.1,1.8C1464,348,1464.1,348.7,1464.1,349.5z M1456.6,356.4c0.8,0,1.5-0.2,2.1-0.6
					s1.1-0.9,1.6-1.6c0.5-0.7,0.7-1.4,1-2.2c0.2-0.8,0.3-1.6,0.3-2.4c0-0.5-0.1-1-0.2-1.5c-0.1-0.5-0.3-0.9-0.6-1.2
					c-0.3-0.3-0.6-0.6-1-0.8c-0.4-0.2-0.9-0.3-1.4-0.3c-0.7,0-1.4,0.2-2,0.6c-0.6,0.4-1.1,0.9-1.5,1.5s-0.7,1.4-1,2.2
					c-0.2,0.8-0.3,1.7-0.3,2.6c0,1.1,0.2,2,0.7,2.7C1454.8,356.1,1455.6,356.4,1456.6,356.4z"/>
			</g>
			<g>
				<path fill="#1B264C" d="M1466.6,344.1h2.6l0.6-3.7h2.6l-0.6,3.7h4.5l-0.4,2.1h-4.5l-1.3,7.5c-0.1,0.3-0.1,0.6-0.1,0.9
					c0,0.6,0.1,1,0.4,1.3c0.3,0.3,0.7,0.4,1.2,0.4c0.5,0,1-0.1,1.4-0.2c0.5-0.1,0.9-0.2,1.3-0.4l0.2,1.9c-0.4,0.2-0.9,0.4-1.6,0.5
					c-0.6,0.1-1.2,0.2-1.8,0.2c-1.2,0-2.1-0.3-2.8-0.9c-0.7-0.6-1-1.5-1-2.6c0-0.2,0-0.4,0-0.6c0-0.2,0-0.4,0.1-0.6l1.3-7.4h-2.6
					L1466.6,344.1z"/>
			</g>
			<g>
				<path fill="#1B264C" d="M1477,358l2.5-13.9h2.6l-2.5,13.9H1477z M1479.8,340.2c0-0.5,0.2-0.9,0.5-1.3c0.3-0.3,0.8-0.5,1.3-0.5
					c0.4,0,0.8,0.1,1.1,0.4c0.3,0.3,0.4,0.6,0.4,1c0,0.5-0.2,0.9-0.5,1.3c-0.3,0.3-0.8,0.5-1.3,0.5c-0.4,0-0.8-0.1-1-0.4
					C1479.9,340.9,1479.8,340.6,1479.8,340.2z"/>
			</g>
			<g>
				<path fill="#1B264C" d="M1497,349.5c0,1-0.2,2.1-0.5,3.1c-0.3,1.1-0.8,2-1.5,2.8c-0.6,0.8-1.4,1.5-2.4,2c-0.9,0.5-2,0.8-3.2,0.8
					c-0.9,0-1.6-0.1-2.3-0.4c-0.7-0.3-1.2-0.7-1.7-1.2c-0.5-0.5-0.8-1.1-1-1.8c-0.2-0.7-0.3-1.4-0.3-2.2c0-1.1,0.2-2.2,0.5-3.3
					c0.3-1.1,0.8-2,1.5-2.8c0.6-0.8,1.4-1.5,2.4-2c0.9-0.5,2-0.7,3.2-0.7c0.9,0,1.6,0.1,2.3,0.4c0.7,0.3,1.3,0.7,1.7,1.2
					c0.4,0.5,0.8,1.1,1.1,1.8C1496.9,348,1497,348.7,1497,349.5z M1489.5,356.4c0.8,0,1.5-0.2,2.1-0.6s1.1-0.9,1.6-1.6
					c0.5-0.7,0.7-1.4,1-2.2c0.2-0.8,0.3-1.6,0.3-2.4c0-0.5-0.1-1-0.2-1.5c-0.1-0.5-0.3-0.9-0.6-1.2c-0.3-0.3-0.6-0.6-1-0.8
					c-0.4-0.2-0.9-0.3-1.4-0.3c-0.7,0-1.4,0.2-2,0.6c-0.6,0.4-1.1,0.9-1.5,1.5c-0.4,0.6-0.7,1.4-1,2.2c-0.2,0.8-0.3,1.7-0.3,2.6
					c0,1.1,0.2,2,0.7,2.7S1488.5,356.4,1489.5,356.4z"/>
			</g>
			<g>
				<path fill="#1B264C" d="M1498.9,358l2.5-13.9h2.5l-0.6,3.4c0.3-0.5,0.6-1,0.9-1.4c0.3-0.4,0.7-0.8,1.1-1.2
					c0.4-0.3,0.9-0.6,1.4-0.8c0.5-0.2,1.1-0.3,1.7-0.3s1.1,0.1,1.6,0.4c0.5,0.2,0.8,0.6,1.1,1c0.3,0.4,0.5,0.9,0.7,1.5
					c0.2,0.6,0.2,1.2,0.2,2c0,0.3,0,0.6,0,0.9c0,0.3-0.1,0.7-0.1,1l-1.3,7.4h-2.6l1.3-7.2c0.1-0.7,0.2-1.3,0.2-1.9
					c0-0.9-0.1-1.6-0.4-2.1c-0.3-0.6-0.8-0.9-1.5-0.9c-0.5,0-0.9,0.1-1.3,0.4s-0.9,0.6-1.2,1c-0.3,0.4-0.8,0.9-1.1,1.5
					c-0.3,0.6-0.7,1.1-1,1.7l-1.3,7.5H1498.9z"/>
			</g>
			<g>
				<path fill="#1B264C" d="M1532.1,338.4c1.1,0,2.2,0.1,3.2,0.3c1.1,0.2,2,0.6,2.9,1l-0.6,2.1c-0.9-0.4-1.8-0.7-2.7-0.9
					c-0.9-0.2-1.8-0.3-2.8-0.3c-1.4,0-2.6,0.2-3.6,0.7c-1,0.5-1.9,1.1-2.6,1.9c-0.7,0.8-1.3,1.8-1.6,2.9c-0.4,1.1-0.6,2.3-0.6,3.6
					c0,2.1,0.6,3.8,1.8,4.9c1.2,1.2,2.9,1.7,5,1.7c0.6,0,1.2,0,1.7-0.1c0.6-0.1,1.1-0.2,1.6-0.4l1-6.1h2.4l-1.3,7.6
					c-0.8,0.3-1.6,0.6-2.6,0.8c-1,0.2-2,0.3-3,0.3c-1.5,0-2.8-0.2-3.9-0.7c-1.1-0.5-2.1-1.1-2.9-1.9c-0.8-0.8-1.4-1.7-1.8-2.8
					s-0.6-2.2-0.6-3.4c0-1.5,0.2-3,0.7-4.4c0.5-1.4,1.2-2.6,2.1-3.6c0.9-1,2.1-1.8,3.5-2.4C1528.8,338.7,1530.4,338.4,1532.1,338.4z
					"/>
			</g>
			<g>
				<path fill="#1B264C" d="M1549,346.3c-0.1,0-0.2,0-0.3,0c-0.1,0-0.2,0-0.3,0c-1,0-1.9,0.3-2.7,1s-1.5,1.6-2.1,2.8l-1.4,7.9h-2.6
					l2.5-13.9h2.5l-0.6,3.6c0.4-1.2,1-2.1,1.7-2.8c0.7-0.6,1.6-0.9,2.6-0.9c0.2,0,0.3,0,0.5,0s0.3,0,0.4,0.1L1549,346.3z"/>
			</g>
			<g>
				<path fill="#1B264C" d="M1559.8,358h-2.4l0.9-5.1c-0.3,0.6-0.6,1.2-0.9,1.8c-0.3,0.6-0.8,1.2-1.2,1.7c-0.5,0.5-1,1-1.5,1.3
					c-0.5,0.3-1.1,0.5-1.8,0.5c-0.6,0-1.1-0.1-1.6-0.4c-0.5-0.3-0.8-0.6-1.1-1.1c-0.3-0.4-0.5-1-0.7-1.6s-0.2-1.2-0.2-1.9
					c0-1.3,0.2-2.5,0.5-3.6c0.4-1.1,0.9-2.2,1.6-3.1c0.7-0.9,1.5-1.6,2.6-2.1c1-0.5,2.1-0.8,3.4-0.8c0.9,0,1.7,0.1,2.6,0.3
					c0.9,0.2,1.6,0.4,2.2,0.7L1559.8,358z M1553.4,356.3c0.5,0,1.1-0.3,1.6-0.8c0.5-0.5,1-1.2,1.5-2c0.5-0.8,0.9-1.7,1.3-2.6
					c0.4-0.9,0.8-1.8,1.1-2.7l0.3-1.9c-0.6-0.3-1.3-0.4-2.1-0.4s-1.6,0.2-2.2,0.7c-0.6,0.5-1.2,1-1.7,1.7s-0.8,1.5-1.1,2.4
					c-0.3,0.9-0.4,1.8-0.4,2.7c0,0.4,0,0.7,0.1,1.1c0,0.4,0.1,0.7,0.2,1c0.1,0.3,0.3,0.5,0.5,0.7
					C1552.7,356.4,1553.1,356.3,1553.4,356.3z"/>
			</g>
			<g>
				<path fill="#1B264C" d="M1566.5,344.1h2.4l-0.6,3.7c0.3-0.5,0.6-1,0.9-1.5c0.3-0.5,0.7-0.9,1.2-1.3c0.4-0.4,0.9-0.7,1.5-0.9
					c0.5-0.2,1.1-0.3,1.8-0.3c0.6,0,1.1,0.1,1.6,0.4c0.5,0.3,0.9,0.6,1.2,1.1c0.3,0.4,0.6,1,0.7,1.6c0.1,0.6,0.2,1.3,0.2,2
					c0,1.1-0.2,2.2-0.5,3.3c-0.3,1.1-0.8,2.1-1.5,3s-1.5,1.6-2.5,2.2c-1,0.6-2.2,0.9-3.5,0.9c-0.4,0-0.9,0-1.4-0.1
					c-0.5-0.1-1-0.2-1.4-0.3l-1.1,6.1h-2.6L1566.5,344.1z M1572.9,345.8c-0.5,0-1,0.2-1.5,0.5c-0.5,0.3-0.9,0.8-1.4,1.3
					c-0.4,0.5-0.8,1.1-1.2,1.8c-0.4,0.7-0.7,1.3-1.1,1.9l-0.8,4.6c0.7,0.3,1.5,0.4,2.3,0.4c0.9,0,1.7-0.2,2.4-0.6
					c0.7-0.4,1.3-1,1.8-1.6c0.5-0.7,0.8-1.5,1.1-2.4s0.4-1.8,0.4-2.8c0-0.4,0-0.8-0.1-1.2c-0.1-0.4-0.2-0.7-0.3-1
					c-0.1-0.3-0.3-0.5-0.6-0.7C1573.7,345.9,1573.3,345.8,1572.9,345.8z"/>
			</g>
			<g>
				<path fill="#1B264C" d="M1579.3,358l3.6-20.5h2.6l-1.7,9.8c0.3-0.5,0.6-0.9,0.9-1.3c0.3-0.4,0.7-0.8,1.1-1.1
					c0.4-0.3,0.9-0.6,1.3-0.8c0.5-0.2,1-0.3,1.6-0.3c0.6,0,1.1,0.1,1.6,0.4c0.5,0.2,0.8,0.6,1.1,1c0.3,0.4,0.5,0.9,0.7,1.5
					c0.2,0.6,0.2,1.2,0.2,2c0,0.3,0,0.6,0,0.9c0,0.3-0.1,0.7-0.1,1l-1.3,7.4h-2.6l1.3-7.2c0.1-0.7,0.2-1.3,0.2-1.9
					c0-0.9-0.1-1.6-0.4-2.1c-0.3-0.6-0.8-0.9-1.5-0.9c-0.5,0-0.9,0.1-1.3,0.4s-0.9,0.6-1.2,1c-0.3,0.4-0.8,0.9-1.1,1.5
					s-0.7,1.1-1,1.7l-1.3,7.5H1579.3z"/>
			</g>
			<g>
				<path fill="#1B264C" d="M1595,358l2.5-13.9h2.6l-2.5,13.9H1595z M1597.8,340.2c0-0.5,0.2-0.9,0.5-1.3c0.3-0.3,0.8-0.5,1.3-0.5
					c0.4,0,0.8,0.1,1.1,0.4c0.3,0.3,0.4,0.6,0.4,1c0,0.5-0.2,0.9-0.5,1.3c-0.3,0.3-0.8,0.5-1.3,0.5c-0.4,0-0.8-0.1-1-0.4
					C1598,340.9,1597.8,340.6,1597.8,340.2z"/>
			</g>
			<g>
				<path fill="#1B264C" d="M1609.6,343.8c0.8,0,1.5,0.1,2.1,0.3c0.6,0.2,1.2,0.4,1.6,0.7l-0.6,1.9c-0.4-0.2-0.9-0.4-1.5-0.6
					c-0.6-0.2-1.1-0.2-1.7-0.2c-0.8,0-1.5,0.2-2.2,0.5c-0.6,0.3-1.2,0.8-1.6,1.4s-0.8,1.3-1,2.1c-0.2,0.8-0.3,1.7-0.3,2.6
					c0,0.5,0.1,1,0.2,1.4c0.1,0.5,0.3,0.8,0.5,1.2c0.2,0.3,0.6,0.6,1,0.8c0.4,0.2,0.9,0.3,1.6,0.3c0.6,0,1.2-0.1,1.8-0.2
					c0.6-0.2,1.1-0.4,1.6-0.6l0.5,1.9c-0.6,0.3-1.2,0.6-1.9,0.8c-0.7,0.2-1.4,0.3-2.2,0.3c-0.9,0-1.7-0.2-2.4-0.4
					c-0.7-0.3-1.3-0.7-1.7-1.2c-0.5-0.5-0.8-1.1-1-1.8c-0.2-0.7-0.3-1.4-0.3-2.2c0-1.2,0.2-2.3,0.5-3.3c0.3-1.1,0.8-2,1.5-2.8
					c0.7-0.8,1.4-1.4,2.4-1.9C1607.3,344.1,1608.4,343.8,1609.6,343.8z"/>
			</g>
		</g>
	</g>
</g>
<circle fill="#FFFFFF" cx="1553.8" cy="1529" r="8.9"/>
</svg>
