<?xml version="1.0" encoding="utf-8"?>
<!-- Generator: Adobe Illustrator 17.1.0, SVG Export Plug-In . SVG Version: 6.00 Build 0)  -->
<!DOCTYPE svg PUBLIC "-//W3C//DTD SVG 1.1//EN" "http://www.w3.org/Graphics/SVG/1.1/DTD/svg11.dtd">
<svg version="1.1" id="Layer_1" xmlns="http://www.w3.org/2000/svg" xmlns:xlink="http://www.w3.org/1999/xlink" x="0px" y="0px"
	 viewBox="0 0 1920 1080" enable-background="new 0 0 1920 1080" xml:space="preserve">
<g>
	<g>
		<defs>
			<rect id="SVGID_1_" x="2020" y="-1" width="1913" height="642"/>
		</defs>
		<clipPath id="SVGID_2_">
			<use xlink:href="#SVGID_1_"  overflow="visible"/>
		</clipPath>
		<g clip-path="url(#SVGID_2_)">
			<g>
				<defs>
					<rect id="SVGID_7_" x="1030" y="-1410" width="2000" height="2000"/>
				</defs>
				<clipPath id="SVGID_4_">
					<use xlink:href="#SVGID_7_"  overflow="visible"/>
				</clipPath>
				<g clip-path="url(#SVGID_4_)">
					<polygon fill="none" points="1030,-1410 3030,-1410 3030,590 1030,590 					"/>
					<g>
						<polygon fill="none" stroke="#F7F7F7" stroke-width="20" stroke-miterlimit="10" points="1975.7,197.4 1896.6,185.4 
							1925.8,259.9 1975.7,197.4 1896.6,185.4 1925.8,259.9 						"/>
					</g>
					<g>
						<polygon fill="none" stroke="#F7F7F7" stroke-width="20" stroke-miterlimit="10" points="1575.7,-2.6 1496.6,-14.6 
							1525.8,59.9 1575.7,-2.6 1496.6,-14.6 1525.8,59.9 						"/>
						<path fill="none" stroke="#F7F7F7" stroke-width="20" stroke-miterlimit="10" d="M1774,74c-22.1,0-40-17.9-40-40
							s17.9-40,40-40s40,17.9,40,40S1796.1,74,1774,74z"/>
					</g>
					<g>
						<polygon fill="none" stroke="#F7F7F7" stroke-width="20" stroke-miterlimit="10" points="1175.7,297.4 1096.6,285.4 
							1125.8,359.9 1175.7,297.4 1096.6,285.4 1125.8,359.9 						"/>
						<polygon fill="none" stroke="#F7F7F7" stroke-width="20" stroke-miterlimit="10" points="1304.3,124.3 1236.7,149.3 
							1211.7,81.8 1279.3,56.8 						"/>
						<path fill="none" stroke="#F7F7F7" stroke-width="20" stroke-miterlimit="10" d="M1374,374c-22.1,0-40-17.9-40-40
							s17.9-40,40-40s40,17.9,40,40S1396.1,374,1374,374z"/>
					</g>
					<g>
						<polygon fill="none" stroke="#F7F7F7" stroke-width="20" stroke-miterlimit="10" points="1575.7,497.4 1496.6,485.4 
							1525.8,559.9 1575.7,497.4 1496.6,485.4 1525.8,559.9 						"/>
						<polygon fill="none" stroke="#F7F7F7" stroke-width="20" stroke-miterlimit="10" points="1704.3,324.3 1636.7,349.3 
							1611.7,281.8 1679.3,256.8 						"/>
						<path fill="none" stroke="#F7F7F7" stroke-width="20" stroke-miterlimit="10" d="M1774,574c-22.1,0-40-17.9-40-40
							s17.9-40,40-40s40,17.9,40,40S1796.1,574,1774,574z"/>
					</g>
					<g>
						<polygon fill="none" stroke="#F7F7F7" stroke-width="20" stroke-miterlimit="10" points="1304.3,624.3 1236.7,649.3 
							1211.7,581.8 1279.3,556.8 						"/>
					</g>
				</g>
			</g>
		</g>
		<g clip-path="url(#SVGID_2_)">
			<g>
				<defs>
					<rect id="SVGID_9_" x="1030" y="590" width="2000" height="2000"/>
				</defs>
				<clipPath id="SVGID_6_">
					<use xlink:href="#SVGID_9_"  overflow="visible"/>
				</clipPath>
				<g clip-path="url(#SVGID_6_)">
					<polygon fill="none" points="1030,590 3030,590 3030,2590 1030,2590 					"/>
					<g>
						<polygon fill="none" stroke="#F7F7F7" stroke-width="20" stroke-miterlimit="10" points="1975.7,697.4 1896.6,685.4 
							1925.8,759.9 1975.7,697.4 1896.6,685.4 1925.8,759.9 						"/>
					</g>
					<g>
						<polygon fill="none" stroke="#F7F7F7" stroke-width="20" stroke-miterlimit="10" points="1175.7,797.4 1096.6,785.4 
							1125.8,859.9 1175.7,797.4 1096.6,785.4 1125.8,859.9 						"/>
						<polygon fill="none" stroke="#F7F7F7" stroke-width="20" stroke-miterlimit="10" points="1304.3,624.3 1236.7,649.3 
							1211.7,581.8 1279.3,556.8 						"/>
						<path fill="none" stroke="#F7F7F7" stroke-width="20" stroke-miterlimit="10" d="M1374,874c-22.1,0-40-17.9-40-40
							c0-22.1,17.9-40,40-40s40,17.9,40,40C1414,856.1,1396.1,874,1374,874z"/>
					</g>
					<g>
					</g>
					<g>
						<polygon fill="none" stroke="#F7F7F7" stroke-width="20" stroke-miterlimit="10" points="1575.7,997.4 1496.6,985.4 
							1525.8,1059.9 1575.7,997.4 1496.6,985.4 1525.8,1059.9 						"/>
						<polygon fill="none" stroke="#F7F7F7" stroke-width="20" stroke-miterlimit="10" points="1704.3,824.3 1636.7,849.3 
							1611.7,781.8 1679.3,756.8 						"/>
						<path fill="none" stroke="#F7F7F7" stroke-width="20" stroke-miterlimit="10" d="M1774,1074c-22.1,0-40-17.9-40-40
							c0-22.1,17.9-40,40-40s40,17.9,40,40C1814,1056.1,1796.1,1074,1774,1074z"/>
					</g>
					<g>
						<polygon fill="none" stroke="#F7F7F7" stroke-width="20" stroke-miterlimit="10" points="1304.3,1124.3 1236.7,1149.3 
							1211.7,1081.8 1279.3,1056.8 						"/>
					</g>
				</g>
			</g>
		</g>
	</g>
</g>
<g>
	<path fill="#1B264C" d="M126.9,381.1l55.6-16.2l-55.6-16.9v-20.2l74.4,25.8v21.3l-21.9,7.7l-24.7,6.6l24.7,6.6l21.9,7.6v21.3
		l-74.4,25.9v-20.4l55.6-16.9l-55.6-16V381.1z"/>
	<path fill="#1B264C" d="M164.1,246.2c21.3,0,38.5,14.5,38.5,38.5s-17.2,38.4-38.5,38.4c-21.1,0-38.5-14.7-38.5-38.2
		C125.6,261.4,143,246.2,164.1,246.2z M164.1,304.9c11.2,0,21.7-6.7,21.7-20.1s-10.5-20.1-21.7-20.1c-11.1,0-21.9,7.8-21.9,20.1
		C142.2,298,153,304.9,164.1,304.9z"/>
	<path fill="#1B264C" d="M127.1,224.2l8.5-1.3c-9.1-5.7-10.5-13.3-10.5-20.8c0-7.6,3-15,7-19l15.9,8.2c-3.2,3.7-4.8,7.2-4.8,13.2
		c0,9.6,5.1,18.4,18.8,18.4h39v18.3h-73.9V224.2z"/>
	<path fill="#1B264C" d="M96.2,165.7h60.6l-29.7-24.9v-21.9h1.1l33.7,30.1l37.8-34.3h1.3v22l-33.4,28.9H201V184H96.2V165.7z"/>
</g>
<circle fill="#15FFA5" cx="190" cy="99" r="15"/>
</svg>
