<?xml version="1.0" encoding="utf-8"?>
<!-- Generator: Adobe Illustrator 17.1.0, SVG Export Plug-In . SVG Version: 6.00 Build 0)  -->
<!DOCTYPE svg PUBLIC "-//W3C//DTD SVG 1.1//EN" "http://www.w3.org/Graphics/SVG/1.1/DTD/svg11.dtd">
<svg version="1.1" id="Layer_1" xmlns="http://www.w3.org/2000/svg" xmlns:xlink="http://www.w3.org/1999/xlink" x="0px" y="0px"
	 viewBox="0 0 1920 1080" enable-background="new 0 0 1920 1080" xml:space="preserve">
<g>
	<g>
		<defs>
			<rect id="SVGID_1_" x="2020" y="-1" width="1913" height="642"/>
		</defs>
		<clipPath id="SVGID_2_">
			<use xlink:href="#SVGID_1_"  overflow="visible"/>
		</clipPath>
		<g clip-path="url(#SVGID_2_)">
			<g>
				<defs>
					<rect id="SVGID_7_" x="1030" y="-1410" width="2000" height="2000"/>
				</defs>
				<clipPath id="SVGID_4_">
					<use xlink:href="#SVGID_7_"  overflow="visible"/>
				</clipPath>
				<g clip-path="url(#SVGID_4_)">
					<polygon fill="none" points="1030,-1410 3030,-1410 3030,590 1030,590 					"/>
					<g>
						<polygon fill="none" stroke="#F7F7F7" stroke-width="20" stroke-miterlimit="10" points="1975.7,197.4 1896.6,185.4 
							1925.8,259.9 1975.7,197.4 1896.6,185.4 1925.8,259.9 						"/>
					</g>
					<g>
						<polygon fill="none" stroke="#F7F7F7" stroke-width="20" stroke-miterlimit="10" points="1575.7,-2.6 1496.6,-14.6 
							1525.8,59.9 1575.7,-2.6 1496.6,-14.6 1525.8,59.9 						"/>
						<path fill="none" stroke="#F7F7F7" stroke-width="20" stroke-miterlimit="10" d="M1774,74c-22.1,0-40-17.9-40-40
							s17.9-40,40-40s40,17.9,40,40S1796.1,74,1774,74z"/>
					</g>
					<g>
						<polygon fill="none" stroke="#F7F7F7" stroke-width="20" stroke-miterlimit="10" points="1175.7,297.4 1096.6,285.4 
							1125.8,359.9 1175.7,297.4 1096.6,285.4 1125.8,359.9 						"/>
						<polygon fill="none" stroke="#F7F7F7" stroke-width="20" stroke-miterlimit="10" points="1304.3,124.3 1236.7,149.3 
							1211.7,81.8 1279.3,56.8 						"/>
						<path fill="none" stroke="#F7F7F7" stroke-width="20" stroke-miterlimit="10" d="M1374,374c-22.1,0-40-17.9-40-40
							s17.9-40,40-40s40,17.9,40,40S1396.1,374,1374,374z"/>
					</g>
					<g>
						<polygon fill="none" stroke="#F7F7F7" stroke-width="20" stroke-miterlimit="10" points="1575.7,497.4 1496.6,485.4 
							1525.8,559.9 1575.7,497.4 1496.6,485.4 1525.8,559.9 						"/>
						<polygon fill="none" stroke="#F7F7F7" stroke-width="20" stroke-miterlimit="10" points="1704.3,324.3 1636.7,349.3 
							1611.7,281.8 1679.3,256.8 						"/>
						<path fill="none" stroke="#F7F7F7" stroke-width="20" stroke-miterlimit="10" d="M1774,574c-22.1,0-40-17.9-40-40
							s17.9-40,40-40s40,17.9,40,40S1796.1,574,1774,574z"/>
					</g>
					<g>
						<polygon fill="none" stroke="#F7F7F7" stroke-width="20" stroke-miterlimit="10" points="1304.3,624.3 1236.7,649.3 
							1211.7,581.8 1279.3,556.8 						"/>
					</g>
				</g>
			</g>
		</g>
		<g clip-path="url(#SVGID_2_)">
			<g>
				<defs>
					<rect id="SVGID_9_" x="1030" y="590" width="2000" height="2000"/>
				</defs>
				<clipPath id="SVGID_6_">
					<use xlink:href="#SVGID_9_"  overflow="visible"/>
				</clipPath>
				<g clip-path="url(#SVGID_6_)">
					<polygon fill="none" points="1030,590 3030,590 3030,2590 1030,2590 					"/>
					<g>
						<polygon fill="none" stroke="#F7F7F7" stroke-width="20" stroke-miterlimit="10" points="1975.7,697.4 1896.6,685.4 
							1925.8,759.9 1975.7,697.4 1896.6,685.4 1925.8,759.9 						"/>
					</g>
					<g>
						<polygon fill="none" stroke="#F7F7F7" stroke-width="20" stroke-miterlimit="10" points="1175.7,797.4 1096.6,785.4 
							1125.8,859.9 1175.7,797.4 1096.6,785.4 1125.8,859.9 						"/>
						<polygon fill="none" stroke="#F7F7F7" stroke-width="20" stroke-miterlimit="10" points="1304.3,624.3 1236.7,649.3 
							1211.7,581.8 1279.3,556.8 						"/>
						<path fill="none" stroke="#F7F7F7" stroke-width="20" stroke-miterlimit="10" d="M1374,874c-22.1,0-40-17.9-40-40
							c0-22.1,17.9-40,40-40s40,17.9,40,40C1414,856.1,1396.1,874,1374,874z"/>
					</g>
					<g>
					</g>
					<g>
						<polygon fill="none" stroke="#F7F7F7" stroke-width="20" stroke-miterlimit="10" points="1575.7,997.4 1496.6,985.4 
							1525.8,1059.9 1575.7,997.4 1496.6,985.4 1525.8,1059.9 						"/>
						<polygon fill="none" stroke="#F7F7F7" stroke-width="20" stroke-miterlimit="10" points="1704.3,824.3 1636.7,849.3 
							1611.7,781.8 1679.3,756.8 						"/>
						<path fill="none" stroke="#F7F7F7" stroke-width="20" stroke-miterlimit="10" d="M1774,1074c-22.1,0-40-17.9-40-40
							c0-22.1,17.9-40,40-40s40,17.9,40,40C1814,1056.1,1796.1,1074,1774,1074z"/>
					</g>
					<g>
						<polygon fill="none" stroke="#F7F7F7" stroke-width="20" stroke-miterlimit="10" points="1304.3,1124.3 1236.7,1149.3 
							1211.7,1081.8 1279.3,1056.8 						"/>
					</g>
				</g>
			</g>
		</g>
	</g>
</g>
<text transform="matrix(-1.346898e-10 -1 1 -1.346898e-10 201 455)" fill="#1B264C" font-family="'NexaBold'" font-size="150" letter-spacing="-7">work</text>
<circle fill="#15FFA5" cx="190" cy="99" r="15"/>
</svg>
